G04 #@! TF.GenerationSoftware,KiCad,Pcbnew,10.0.6*
G04 #@! TF.CreationDate,2026-09-18T09:37:03-05:00*
G04 #@! TF.ProjectId,LM555_LED_Flasher,4c4d3535-355f-44c4-9544-5f466c617368,rev?*
G04 #@! TF.SameCoordinates,Original*
G04 #@! TF.FileFunction,Copper,L1,Top*
G04 #@! TF.FilePolarity,Positive*
%FSLAX46Y46*%
G04 Gerber Fmt 4.6, Leading zero omitted, Abs format (unit mm)*
G04 Created by KiCad (PCBNEW 10.0.6) date 2026-09-18 09:37:03*
%MOMM*%
%LPD*%
G01*
G04 APERTURE LIST*
G04 Aperture macros list*
%AMRoundRect*
0 Rectangle with rounded corners*
0 $1 Rounding radius*
0 $2 $3 $4 $5 $6 $7 $8 $9 X,Y pos of 4 corners*
0 Add a 4 corners polygon primitive as box body*
4,1,4,$2,$3,$4,$5,$6,$7,$8,$9,$2,$3,0*
0 Add four circle primitives for the rounded corners*
1,1,$1+$1,$2,$3*
1,1,$1+$1,$4,$5*
1,1,$1+$1,$6,$7*
1,1,$1+$1,$8,$9*
0 Add four rect primitives between the rounded corners*
20,1,$1+$1,$2,$3,$4,$5,0*
20,1,$1+$1,$4,$5,$6,$7,0*
20,1,$1+$1,$6,$7,$8,$9,0*
20,1,$1+$1,$8,$9,$2,$3,0*%
G04 Aperture macros list end*
G04 #@! TA.AperFunction,SMDPad,CuDef*
%ADD10RoundRect,0.150000X-0.825000X-0.150000X0.825000X-0.150000X0.825000X0.150000X-0.825000X0.150000X0*%
G04 #@! TD*
G04 #@! TA.AperFunction,SMDPad,CuDef*
%ADD11RoundRect,0.200000X0.275000X-0.200000X0.275000X0.200000X-0.275000X0.200000X-0.275000X-0.200000X0*%
G04 #@! TD*
G04 #@! TA.AperFunction,SMDPad,CuDef*
%ADD12RoundRect,0.250000X-1.250000X-0.550000X1.250000X-0.550000X1.250000X0.550000X-1.250000X0.550000X0*%
G04 #@! TD*
G04 #@! TA.AperFunction,SMDPad,CuDef*
%ADD13RoundRect,0.250000X2.500000X-0.250000X2.500000X0.250000X-2.500000X0.250000X-2.500000X-0.250000X0*%
G04 #@! TD*
G04 #@! TA.AperFunction,SMDPad,CuDef*
%ADD14RoundRect,0.250000X1.250000X-0.550000X1.250000X0.550000X-1.250000X0.550000X-1.250000X-0.550000X0*%
G04 #@! TD*
G04 #@! TA.AperFunction,SMDPad,CuDef*
%ADD15RoundRect,0.225000X0.250000X-0.225000X0.250000X0.225000X-0.250000X0.225000X-0.250000X-0.225000X0*%
G04 #@! TD*
G04 #@! TA.AperFunction,SMDPad,CuDef*
%ADD16RoundRect,0.200000X0.200000X0.275000X-0.200000X0.275000X-0.200000X-0.275000X0.200000X-0.275000X0*%
G04 #@! TD*
G04 #@! TA.AperFunction,SMDPad,CuDef*
%ADD17RoundRect,0.243750X-0.243750X-0.456250X0.243750X-0.456250X0.243750X0.456250X-0.243750X0.456250X0*%
G04 #@! TD*
G04 #@! TA.AperFunction,Conductor*
%ADD18C,0.400000*%
G04 #@! TD*
G04 #@! TA.AperFunction,Conductor*
%ADD19C,0.300000*%
G04 #@! TD*
G04 APERTURE END LIST*
D10*
X118525000Y-110595000D03*
X118525000Y-111865000D03*
X118525000Y-113135000D03*
X118525000Y-114405000D03*
X123475000Y-114405000D03*
X123475000Y-113135000D03*
X123475000Y-111865000D03*
X123475000Y-110595000D03*
D11*
X127000000Y-108325000D03*
X127000000Y-106675000D03*
D12*
X127800000Y-120000000D03*
X132200000Y-120000000D03*
D13*
X105500000Y-113500000D03*
X105500000Y-111500000D03*
D14*
X103250000Y-115900000D03*
X103250000Y-109100000D03*
D15*
X124500000Y-119775000D03*
X124500000Y-118225000D03*
D11*
X127000000Y-112825000D03*
X127000000Y-111175000D03*
D16*
X115825000Y-113150000D03*
X114175000Y-113150000D03*
D17*
X110062500Y-113150000D03*
X111937500Y-113150000D03*
D18*
X105876600Y-121374000D02*
X130826000Y-121374000D01*
X103753000Y-111500000D02*
X101246800Y-114006200D01*
D19*
X105500000Y-111114200D02*
X118005800Y-111114200D01*
X118005800Y-111114200D02*
X118525000Y-110595000D01*
D18*
X130826000Y-121374000D02*
X132200000Y-120000000D01*
X132200000Y-120000000D02*
X130425000Y-118225000D01*
X101246800Y-114006200D02*
X101246800Y-116744200D01*
D19*
X106548800Y-112548800D02*
X105500000Y-111500000D01*
X110062500Y-112548800D02*
X106548800Y-112548800D01*
D18*
X110062500Y-113150000D02*
X110062500Y-112548800D01*
X101246800Y-116744200D02*
X105876600Y-121374000D01*
X130425000Y-118225000D02*
X124500000Y-118225000D01*
X105500000Y-111500000D02*
X105500000Y-111114200D01*
X105500000Y-111500000D02*
X103753000Y-111500000D01*
X127600800Y-113676000D02*
X127959600Y-113317200D01*
X128627600Y-106852900D02*
X127595200Y-105820500D01*
X127089100Y-120710900D02*
X123995600Y-120710900D01*
X127959600Y-112134600D02*
X127000000Y-111175000D01*
X128627600Y-109547400D02*
X128627600Y-106852900D01*
X122866300Y-113135000D02*
X123475000Y-113135000D01*
X127595200Y-105820500D02*
X126251900Y-105820500D01*
D19*
X124570700Y-113676000D02*
X127600800Y-113676000D01*
X124029700Y-113135000D02*
X124570700Y-113676000D01*
D18*
X126251900Y-105820500D02*
X120207400Y-111865000D01*
X122029500Y-113971800D02*
X122866300Y-113135000D01*
X127800000Y-120000000D02*
X127089100Y-120710900D01*
X122029500Y-118744800D02*
X122029500Y-113971800D01*
X127000000Y-111175000D02*
X128627600Y-109547400D01*
X127959600Y-113317200D02*
X127959600Y-112134600D01*
X123995600Y-120710900D02*
X122029500Y-118744800D01*
X123475000Y-113135000D02*
X124029700Y-113135000D01*
X120207400Y-111865000D02*
X118525000Y-111865000D01*
X115825000Y-113150000D02*
X118510000Y-113150000D01*
X118510000Y-113150000D02*
X118525000Y-113135000D01*
X118525000Y-114405000D02*
X119115800Y-114405000D01*
X121008200Y-112512600D02*
X121008200Y-112425200D01*
X127000000Y-108325000D02*
X124730000Y-110595000D01*
X122838400Y-110595000D02*
X123475000Y-110595000D01*
X119115800Y-114405000D02*
X121008200Y-112512600D01*
X106405000Y-114405000D02*
X118525000Y-114405000D01*
X124730000Y-110595000D02*
X123475000Y-110595000D01*
X105500000Y-113500000D02*
X106405000Y-114405000D01*
X121008200Y-112425200D02*
X122838400Y-110595000D01*
X123475000Y-118750000D02*
X123475000Y-114405000D01*
X124500000Y-119775000D02*
X123475000Y-118750000D01*
X127934300Y-107609300D02*
X127934300Y-108831300D01*
X127934300Y-108831300D02*
X126040000Y-110725600D01*
X126040000Y-110725600D02*
X126040000Y-111865000D01*
X127000000Y-112825000D02*
X126040000Y-111865000D01*
X126040000Y-111865000D02*
X123475000Y-111865000D01*
X127000000Y-106675000D02*
X127934300Y-107609300D01*
X111937500Y-113150000D02*
X114175000Y-113150000D01*
M02*
