G04 #@! TF.GenerationSoftware,KiCad,Pcbnew,10.0.6*
G04 #@! TF.CreationDate,2026-09-18T09:36:56-05:00*
G04 #@! TF.ProjectId,Snap_Adapter_17up_150x100,536e6170-5f41-4646-9170-7465725f3137,rev?*
G04 #@! TF.SameCoordinates,Original*
G04 #@! TF.FileFunction,Other,User*
%FSLAX46Y46*%
G04 Gerber Fmt 4.6, Leading zero omitted, Abs format (unit mm)*
G04 Created by KiCad (PCBNEW 10.0.6) date 2026-09-18 09:36:56*
%MOMM*%
%LPD*%
G01*
G04 APERTURE LIST*
%ADD10C,0.050000*%
G04 APERTURE END LIST*
D10*
X37000000Y-61125000D02*
X67000000Y-61125000D01*
X67000000Y-91125000D01*
X37000000Y-91125000D01*
X37000000Y-61125000D01*
X69000000Y-61125000D02*
X99000000Y-61125000D01*
X99000000Y-91125000D01*
X69000000Y-91125000D01*
X69000000Y-61125000D01*
X101000000Y-61125000D02*
X131000000Y-61125000D01*
X131000000Y-91125000D01*
X101000000Y-91125000D01*
X101000000Y-61125000D01*
X133000000Y-61125000D02*
X163000000Y-61125000D01*
X163000000Y-91125000D01*
X133000000Y-91125000D01*
X133000000Y-61125000D01*
X36625000Y-93125000D02*
X61625000Y-93125000D01*
X61625000Y-118125000D01*
X36625000Y-118125000D01*
X36625000Y-93125000D01*
X63625000Y-93125000D02*
X88625000Y-93125000D01*
X88625000Y-118125000D01*
X63625000Y-118125000D01*
X63625000Y-93125000D01*
X90625000Y-93125000D02*
X115625000Y-93125000D01*
X115625000Y-118125000D01*
X90625000Y-118125000D01*
X90625000Y-93125000D01*
X117625000Y-93125000D02*
X142625000Y-93125000D01*
X142625000Y-118125000D01*
X117625000Y-118125000D01*
X117625000Y-93125000D01*
X144625000Y-93125000D02*
X163375000Y-93125000D01*
X163375000Y-111875000D01*
X144625000Y-111875000D01*
X144625000Y-93125000D01*
X35500000Y-120125000D02*
X54250000Y-120125000D01*
X54250000Y-138875000D01*
X35500000Y-138875000D01*
X35500000Y-120125000D01*
X56250000Y-120125000D02*
X75000000Y-120125000D01*
X75000000Y-138875000D01*
X56250000Y-138875000D01*
X56250000Y-120125000D01*
X77000000Y-120125000D02*
X95750000Y-120125000D01*
X95750000Y-138875000D01*
X77000000Y-138875000D01*
X77000000Y-120125000D01*
X97750000Y-120125000D02*
X116500000Y-120125000D01*
X116500000Y-138875000D01*
X97750000Y-138875000D01*
X97750000Y-120125000D01*
X118500000Y-120125000D02*
X128500000Y-120125000D01*
X128500000Y-130125000D01*
X118500000Y-130125000D01*
X118500000Y-120125000D01*
X130500000Y-120125000D02*
X140500000Y-120125000D01*
X140500000Y-130125000D01*
X130500000Y-130125000D01*
X130500000Y-120125000D01*
X142500000Y-120125000D02*
X152500000Y-120125000D01*
X152500000Y-130125000D01*
X142500000Y-130125000D01*
X142500000Y-120125000D01*
X154500000Y-120125000D02*
X164500000Y-120125000D01*
X164500000Y-130125000D01*
X154500000Y-130125000D01*
X154500000Y-120125000D01*
M02*
