%TF.GenerationSoftware,KiCad,Pcbnew,10.0.6*%
%TF.CreationDate,2026-09-19T11:41:49-05:00*%
%TF.ProjectId,Ionto_Current_Source_Core_With_Pour,496f6e74-6f5f-4437-9572-72656e745f53,rev?*%
%TF.SameCoordinates,Original*%
%TF.FileFunction,Copper,L1,Top*%
%TF.FilePolarity,Positive*%
%FSLAX46Y46*%
G04 Gerber Fmt 4.6, Leading zero omitted, Abs format (unit mm)*
G04 Created by KiCad (PCBNEW 10.0.6) date 2026-09-19 11:41:49*
%MOMM*%
%LPD*%
G01*
G04 APERTURE LIST*
G04 Aperture macros list*
%AMRoundRect*
0 Rectangle with rounded corners*
0 $1 Rounding radius*
0 $2 $3 $4 $5 $6 $7 $8 $9 X,Y pos of 4 corners*
0 Add a 4 corners polygon primitive as box body*
4,1,4,$2,$3,$4,$5,$6,$7,$8,$9,$2,$3,0*
0 Add four circle primitives for the rounded corners*
1,1,$1+$1,$2,$3*
1,1,$1+$1,$4,$5*
1,1,$1+$1,$6,$7*
1,1,$1+$1,$8,$9*
0 Add four rect primitives between the rounded corners*
20,1,$1+$1,$2,$3,$4,$5,0*
20,1,$1+$1,$4,$5,$6,$7,0*
20,1,$1+$1,$6,$7,$8,$9,0*
20,1,$1+$1,$8,$9,$2,$3,0*%
G04 Aperture macros list end*
%TA.AperFunction,SMDPad,CuDef*%
%ADD10R,1.000000X1.900000*%
%TD*%
%TA.AperFunction,SMDPad,CuDef*%
%ADD11R,2.510000X1.000000*%
%TD*%
%TA.AperFunction,SMDPad,CuDef*%
%ADD12R,3.600000X1.500000*%
%TD*%
%TA.AperFunction,SMDPad,CuDef*%
%ADD13RoundRect,0.250000X0.475000X-0.337500X0.475000X0.337500X-0.475000X0.337500X-0.475000X-0.337500X0*%
%TD*%
%TA.AperFunction,SMDPad,CuDef*%
%ADD14R,1.000000X2.510000*%
%TD*%
%TA.AperFunction,SMDPad,CuDef*%
%ADD15RoundRect,0.150000X0.512500X0.150000X-0.512500X0.150000X-0.512500X-0.150000X0.512500X-0.150000X0*%
%TD*%
%TA.AperFunction,Conductor*%
%ADD16C,0.300000*%
%TD*%
%TA.AperFunction,Conductor*%
%ADD17C,0.500000*%
%TD*%
%TA.AperFunction,Conductor*%
%ADD18C,0.250000*%
%TD*%
G04 APERTURE END LIST*
D10*
%TO.P,R1,1*%
%TO.N,Net-(J2-Pin_2)*%
X28770000Y-33850000D03*
%TO.P,R1,2*%
%TO.N,GND*%
X26230000Y-37150000D03*
%TD*%
D11*
%TO.P,J1,1*%
%TO.N,Net-(J1-BAT+)*%
X25155000Y-22230000D03*
%TO.P,J1,2*%
%TO.N,GND*%
X21845000Y-24770000D03*
%TD*%
D12*
%TO.P,L1,1*%
%TO.N,Net-(J1-BAT+)*%
X29250000Y-23575000D03*
%TO.P,L1,2*%
%TO.N,Net-(U1-LX)*%
X29250000Y-26625001D03*
%TD*%
D13*
%TO.P,C1,1*%
%TO.N,Net-(J1-BAT+)*%
X33500000Y-24837500D03*
%TO.P,C1,2*%
%TO.N,GND*%
X33500000Y-22762499D03*
%TD*%
D14*
%TO.P,J3,1*%
%TO.N,Net-(J1-BAT+)*%
X36130000Y-27865000D03*
%TO.P,J3,2*%
%TO.N,Net-(J3-CE{slash}EXT)*%
X38670000Y-31175000D03*
%TD*%
D15*
%TO.P,U1,1*%
%TO.N,Net-(J3-CE{slash}EXT)*%
X33137500Y-30450000D03*
%TO.P,U1,2*%
%TO.N,Net-(J2-Pin_1)*%
X33137500Y-29500000D03*
%TO.P,U1,3*%
%TO.N,Net-(J1-BAT+)*%
X33137500Y-28550000D03*
%TO.P,U1,4*%
%TO.N,Net-(U1-LX)*%
X30862499Y-28550000D03*
%TO.P,U1,5*%
%TO.N,GND*%
X30862499Y-29500000D03*
%TO.P,U1,6*%
%TO.N,Net-(J2-Pin_2)*%
X30862499Y-30450000D03*
%TD*%
D13*
%TO.P,C2,1*%
%TO.N,Net-(J2-Pin_1)*%
X40000000Y-24837500D03*
%TO.P,C2,2*%
%TO.N,GND*%
X40000000Y-22762500D03*
%TD*%
D14*
%TO.P,J2,1*%
%TO.N,Net-(J2-Pin_1)*%
X42230000Y-28345000D03*
%TO.P,J2,2*%
%TO.N,Net-(J2-Pin_2)*%
X44770000Y-31655000D03*
%TD*%
%TO.N,Net-(J2-Pin_2)*%
D16*
X30665500Y-32806200D02*
X30862500Y-32806200D01*
X29621700Y-33850000D02*
X30665500Y-32806200D01*
X30862500Y-32806200D02*
X30862500Y-30450000D01*
X44770000Y-31655000D02*
X43918300Y-31655000D01*
X30862500Y-32806200D02*
X42767100Y-32806200D01*
X42767100Y-32806200D02*
X43918300Y-31655000D01*
X28770000Y-33850000D02*
X29621700Y-33850000D01*
%TO.N,GND*%
D17*
X40000000Y-21500000D02*
X40000000Y-22562500D01*
D18*
X39800000Y-22762500D02*
X40000000Y-22562500D01*
X31625600Y-25491000D02*
X31625600Y-25082500D01*
X22045000Y-24770000D02*
X31375200Y-24770000D01*
X26230000Y-37150000D02*
X26230000Y-32392300D01*
X31625600Y-26212000D02*
X31879100Y-26465500D01*
X31500400Y-24770000D02*
X31565900Y-24770000D01*
D17*
X21845000Y-24570000D02*
X21845000Y-21500000D01*
D18*
X31186700Y-29175800D02*
X30862500Y-29500000D01*
X31625600Y-24789900D02*
X31605700Y-24770000D01*
X31625600Y-24789900D02*
X31625600Y-25082500D01*
X31625600Y-25491000D02*
X31625600Y-26212000D01*
X31879100Y-26465500D02*
X31879100Y-28975800D01*
X28798100Y-29824200D02*
X30538300Y-29824200D01*
D17*
X21845000Y-21500000D02*
X22345000Y-21000000D01*
D18*
X26230000Y-32392300D02*
X28798100Y-29824200D01*
X31879100Y-28975800D02*
X31679100Y-29175800D01*
X22045000Y-24770000D02*
X21845000Y-24570000D01*
X31565900Y-24770000D02*
X31605700Y-24770000D01*
X31375200Y-24770000D02*
X31500400Y-24770000D01*
D17*
X39500000Y-21000000D02*
X40000000Y-21500000D01*
D18*
X31679100Y-29175800D02*
X31186700Y-29175800D01*
D17*
X22345000Y-21000000D02*
X39500000Y-21000000D01*
D18*
X30538300Y-29824200D02*
X30862500Y-29500000D01*
X39800000Y-22762500D02*
X33500000Y-22762500D01*
%TO.N,Net-(J1-BAT+)*%
D17*
X29250000Y-23575000D02*
X25548300Y-23575000D01*
X33822500Y-25160000D02*
X33500000Y-24837500D01*
X32237500Y-23575000D02*
X29250000Y-23575000D01*
X36130000Y-27865000D02*
X33822500Y-27865000D01*
X25155000Y-22230000D02*
X25155000Y-23181700D01*
X33822500Y-27865000D02*
X33137500Y-28550000D01*
X33822500Y-27865000D02*
X33822500Y-25160000D01*
X33500000Y-24837500D02*
X32237500Y-23575000D01*
X25548300Y-23575000D02*
X25155000Y-23181700D01*
%TO.N,Net-(U1-LX)*%
X29250000Y-26625000D02*
X29250000Y-27626700D01*
X29250000Y-27626700D02*
X29450000Y-27826700D01*
X30139200Y-27826700D02*
X30862500Y-28550000D01*
X29450000Y-27826700D02*
X30139200Y-27826700D01*
%TO.N,Net-(J3-CE{slash}EXT)*%
D18*
X33862500Y-31175000D02*
X33137500Y-30450000D01*
X38670000Y-31175000D02*
X33862500Y-31175000D01*
%TO.N,Net-(J2-Pin_1)*%
D16*
X40000000Y-24837500D02*
X40000000Y-26293700D01*
X36793700Y-29500000D02*
X33137500Y-29500000D01*
X40000000Y-26293700D02*
X41785400Y-26293700D01*
X41785400Y-26293700D02*
X42230000Y-26738300D01*
X42230000Y-28345000D02*
X42230000Y-26738300D01*
X40000000Y-26293700D02*
X36793700Y-29500000D01*
%TD*%
%TA.AperFunction,Conductor*%
%TO.N,GND*%
G36*
X46442539Y-20520185D02*
G01*
X46488294Y-20572989D01*
X46499500Y-20624500D01*
X46499500Y-39375500D01*
X46479815Y-39442539D01*
X46427011Y-39488294D01*
X46375500Y-39499500D01*
X20624500Y-39499500D01*
X20557461Y-39479815D01*
X20511706Y-39427011D01*
X20500500Y-39375500D01*
X20500500Y-38147844D01*
X25230000Y-38147844D01*
X25236401Y-38207372D01*
X25236403Y-38207379D01*
X25286645Y-38342086D01*
X25286649Y-38342093D01*
X25372809Y-38457187D01*
X25372812Y-38457190D01*
X25487906Y-38543350D01*
X25487913Y-38543354D01*
X25622620Y-38593596D01*
X25622627Y-38593598D01*
X25682155Y-38599999D01*
X25682172Y-38600000D01*
X25980000Y-38600000D01*
X26480000Y-38600000D01*
X26777828Y-38600000D01*
X26777844Y-38599999D01*
X26837372Y-38593598D01*
X26837379Y-38593596D01*
X26972086Y-38543354D01*
X26972093Y-38543350D01*
X27087187Y-38457190D01*
X27087190Y-38457187D01*
X27173350Y-38342093D01*
X27173354Y-38342086D01*
X27223596Y-38207379D01*
X27223598Y-38207372D01*
X27229999Y-38147844D01*
X27230000Y-38147827D01*
X27230000Y-37400000D01*
X26480000Y-37400000D01*
X26480000Y-38600000D01*
X25980000Y-38600000D01*
X25980000Y-37400000D01*
X25230000Y-37400000D01*
X25230000Y-38147844D01*
X20500500Y-38147844D01*
X20500500Y-36152155D01*
X25230000Y-36152155D01*
X25230000Y-36900000D01*
X25980000Y-36900000D01*
X26480000Y-36900000D01*
X27230000Y-36900000D01*
X27230000Y-36152172D01*
X27229999Y-36152155D01*
X27223598Y-36092627D01*
X27223596Y-36092620D01*
X27173354Y-35957913D01*
X27173350Y-35957906D01*
X27087190Y-35842812D01*
X27087187Y-35842809D01*
X26972093Y-35756649D01*
X26972086Y-35756645D01*
X26837379Y-35706403D01*
X26837372Y-35706401D01*
X26777844Y-35700000D01*
X26480000Y-35700000D01*
X26480000Y-36900000D01*
X25980000Y-36900000D01*
X25980000Y-35700000D01*
X25682155Y-35700000D01*
X25622627Y-35706401D01*
X25622620Y-35706403D01*
X25487913Y-35756645D01*
X25487906Y-35756649D01*
X25372812Y-35842809D01*
X25372809Y-35842812D01*
X25286649Y-35957906D01*
X25286645Y-35957913D01*
X25236403Y-36092620D01*
X25236401Y-36092627D01*
X25230000Y-36152155D01*
X20500500Y-36152155D01*
X20500500Y-25894000D01*
X20520185Y-25826961D01*
X20572989Y-25781206D01*
X20624500Y-25770000D01*
X21595000Y-25770000D01*
X22095000Y-25770000D01*
X23147828Y-25770000D01*
X23147844Y-25769999D01*
X23207372Y-25763598D01*
X23207379Y-25763596D01*
X23342086Y-25713354D01*
X23342093Y-25713350D01*
X23457187Y-25627190D01*
X23457190Y-25627187D01*
X23543350Y-25512093D01*
X23543354Y-25512086D01*
X23593596Y-25377379D01*
X23593598Y-25377372D01*
X23599999Y-25317844D01*
X23600000Y-25317827D01*
X23600000Y-25020000D01*
X22095000Y-25020000D01*
X22095000Y-25770000D01*
X21595000Y-25770000D01*
X21595000Y-24520000D01*
X22095000Y-24520000D01*
X23600000Y-24520000D01*
X23600000Y-24222172D01*
X23599999Y-24222155D01*
X23593598Y-24162627D01*
X23593596Y-24162620D01*
X23543354Y-24027913D01*
X23543350Y-24027906D01*
X23457190Y-23912812D01*
X23457187Y-23912809D01*
X23342093Y-23826649D01*
X23342086Y-23826645D01*
X23207379Y-23776403D01*
X23207372Y-23776401D01*
X23147844Y-23770000D01*
X22095000Y-23770000D01*
X22095000Y-24520000D01*
X21595000Y-24520000D01*
X21595000Y-23770000D01*
X20624500Y-23770000D01*
X20557461Y-23750315D01*
X20511706Y-23697511D01*
X20500500Y-23646000D01*
X20500500Y-21682135D01*
X23399500Y-21682135D01*
X23399500Y-22777870D01*
X23399501Y-22777876D01*
X23405908Y-22837483D01*
X23456202Y-22972328D01*
X23456206Y-22972335D01*
X23542452Y-23087544D01*
X23542455Y-23087547D01*
X23657664Y-23173793D01*
X23657671Y-23173797D01*
X23702618Y-23190561D01*
X23792517Y-23224091D01*
X23852127Y-23230500D01*
X24297739Y-23230499D01*
X24364778Y-23250183D01*
X24410533Y-23302987D01*
X24419356Y-23330306D01*
X24433340Y-23400608D01*
X24433343Y-23400617D01*
X24489914Y-23537192D01*
X24522812Y-23586427D01*
X24522813Y-23586430D01*
X24572046Y-23660114D01*
X24572052Y-23660121D01*
X25069880Y-24157948D01*
X25069884Y-24157951D01*
X25192798Y-24240080D01*
X25192811Y-24240087D01*
X25329382Y-24296656D01*
X25329387Y-24296658D01*
X25329391Y-24296658D01*
X25329392Y-24296659D01*
X25474379Y-24325500D01*
X25474382Y-24325500D01*
X25622217Y-24325500D01*
X26833023Y-24325500D01*
X26900062Y-24345185D01*
X26945817Y-24397989D01*
X26953266Y-24425134D01*
X26954124Y-24424932D01*
X26955907Y-24432479D01*
X27006202Y-24567328D01*
X27006206Y-24567335D01*
X27092452Y-24682544D01*
X27092455Y-24682547D01*
X27207664Y-24768793D01*
X27207671Y-24768797D01*
X27342517Y-24819091D01*
X27342516Y-24819091D01*
X27349444Y-24819835D01*
X27402127Y-24825500D01*
X31097872Y-24825499D01*
X31157483Y-24819091D01*
X31292331Y-24768796D01*
X31407546Y-24682546D01*
X31493796Y-24567331D01*
X31544091Y-24432483D01*
X31544091Y-24432481D01*
X31545874Y-24424938D01*
X31548146Y-24425474D01*
X31570429Y-24371688D01*
X31627823Y-24331843D01*
X31666976Y-24325500D01*
X31875270Y-24325500D01*
X31942309Y-24345185D01*
X31962951Y-24361819D01*
X32238181Y-24637048D01*
X32271666Y-24698371D01*
X32274500Y-24724729D01*
X32274500Y-25225001D01*
X32274501Y-25225019D01*
X32285000Y-25327796D01*
X32285001Y-25327799D01*
X32340185Y-25494331D01*
X32340187Y-25494336D01*
X32351135Y-25512086D01*
X32432288Y-25643656D01*
X32556344Y-25767712D01*
X32705666Y-25859814D01*
X32872203Y-25914999D01*
X32958430Y-25923808D01*
X32960602Y-25924030D01*
X33025294Y-25950426D01*
X33065446Y-26007607D01*
X33072000Y-26047388D01*
X33072000Y-27502770D01*
X33052315Y-27569809D01*
X33035681Y-27590451D01*
X32912951Y-27713181D01*
X32851628Y-27746666D01*
X32825270Y-27749500D01*
X32559298Y-27749500D01*
X32522432Y-27752401D01*
X32522426Y-27752402D01*
X32364606Y-27798254D01*
X32364603Y-27798255D01*
X32223137Y-27881917D01*
X32223129Y-27881923D01*
X32106923Y-27998129D01*
X32106913Y-27998143D01*
X32106725Y-27998461D01*
X32106512Y-27998659D01*
X32102139Y-28004298D01*
X32101228Y-28003591D01*
X32055652Y-28046140D01*
X31986909Y-28058637D01*
X31922322Y-28031985D01*
X31898142Y-28004078D01*
X31897860Y-28004298D01*
X31893819Y-27999088D01*
X31893266Y-27998450D01*
X31893080Y-27998135D01*
X31893077Y-27998132D01*
X31893075Y-27998129D01*
X31776869Y-27881923D01*
X31776861Y-27881917D01*
X31635395Y-27798255D01*
X31635392Y-27798253D01*
X31575020Y-27780714D01*
X31516134Y-27743108D01*
X31486928Y-27679635D01*
X31493433Y-27618305D01*
X31517368Y-27554132D01*
X31544091Y-27482484D01*
X31550500Y-27422874D01*
X31550499Y-25827129D01*
X31544091Y-25767518D01*
X31542628Y-25763596D01*
X31493797Y-25632672D01*
X31493793Y-25632665D01*
X31407547Y-25517456D01*
X31407544Y-25517453D01*
X31292335Y-25431207D01*
X31292328Y-25431203D01*
X31157482Y-25380909D01*
X31157483Y-25380909D01*
X31097883Y-25374502D01*
X31097881Y-25374501D01*
X31097873Y-25374501D01*
X31097864Y-25374501D01*
X27402129Y-25374501D01*
X27402123Y-25374502D01*
X27342516Y-25380909D01*
X27207671Y-25431203D01*
X27207664Y-25431207D01*
X27092455Y-25517453D01*
X27092452Y-25517456D01*
X27006206Y-25632665D01*
X27006202Y-25632672D01*
X26955908Y-25767518D01*
X26949518Y-25826961D01*
X26949501Y-25827124D01*
X26949500Y-25827136D01*
X26949500Y-27422871D01*
X26949501Y-27422877D01*
X26955908Y-27482484D01*
X27006202Y-27617329D01*
X27006206Y-27617336D01*
X27092452Y-27732545D01*
X27092455Y-27732548D01*
X27207664Y-27818794D01*
X27207671Y-27818798D01*
X27342517Y-27869092D01*
X27342516Y-27869092D01*
X27349444Y-27869836D01*
X27402127Y-27875501D01*
X28457867Y-27875500D01*
X28524906Y-27895184D01*
X28570661Y-27947988D01*
X28572428Y-27952047D01*
X28584915Y-27982193D01*
X28584920Y-27982202D01*
X28595567Y-27998137D01*
X28667046Y-28105114D01*
X28667052Y-28105121D01*
X28971584Y-28409652D01*
X28971586Y-28409654D01*
X28994512Y-28424971D01*
X29028904Y-28447951D01*
X29094505Y-28491784D01*
X29094506Y-28491784D01*
X29094507Y-28491785D01*
X29151079Y-28515218D01*
X29151080Y-28515218D01*
X29231088Y-28548359D01*
X29347241Y-28571463D01*
X29366468Y-28575287D01*
X29376081Y-28577200D01*
X29376082Y-28577200D01*
X29376083Y-28577200D01*
X29523918Y-28577200D01*
X29575499Y-28577200D01*
X29642538Y-28596885D01*
X29688293Y-28649689D01*
X29699499Y-28701200D01*
X29699499Y-28765701D01*
X29702400Y-28802567D01*
X29702401Y-28802573D01*
X29748253Y-28960393D01*
X29748255Y-28960399D01*
X29749425Y-28962377D01*
X29749868Y-28964126D01*
X29751352Y-28967554D01*
X29750798Y-28967793D01*
X29766602Y-29030102D01*
X29751248Y-29082395D01*
X29751816Y-29082641D01*
X29749826Y-29087239D01*
X29749427Y-29088599D01*
X29748721Y-29089791D01*
X29748715Y-29089806D01*
X29702899Y-29247505D01*
X29702898Y-29247511D01*
X29702703Y-29249998D01*
X29702704Y-29250000D01*
X29968184Y-29250000D01*
X30031305Y-29267268D01*
X30089601Y-29301744D01*
X30131223Y-29313836D01*
X30247425Y-29347597D01*
X30247428Y-29347597D01*
X30247430Y-29347598D01*
X30284305Y-29350500D01*
X30284313Y-29350500D01*
X30738499Y-29350500D01*
X30805538Y-29370185D01*
X30851293Y-29422989D01*
X30862499Y-29474500D01*
X30862499Y-29525500D01*
X30842814Y-29592539D01*
X30790010Y-29638294D01*
X30738499Y-29649500D01*
X30284297Y-29649500D01*
X30247431Y-29652401D01*
X30247425Y-29652402D01*
X30089605Y-29698254D01*
X30089602Y-29698255D01*
X30031305Y-29732732D01*
X29968184Y-29750000D01*
X29702704Y-29750000D01*
X29702703Y-29750001D01*
X29702898Y-29752488D01*
X29702899Y-29752494D01*
X29748715Y-29910193D01*
X29748719Y-29910203D01*
X29749426Y-29911398D01*
X29749694Y-29912454D01*
X29751815Y-29917356D01*
X29751023Y-29917698D01*
X29766602Y-29979123D01*
X29750992Y-30032284D01*
X29751354Y-30032441D01*
X29750086Y-30035369D01*
X29749426Y-30037620D01*
X29748258Y-30039594D01*
X29748253Y-30039607D01*
X29702401Y-30197426D01*
X29702400Y-30197432D01*
X29699499Y-30234298D01*
X29699499Y-30665701D01*
X29702400Y-30702567D01*
X29702401Y-30702573D01*
X29748253Y-30860393D01*
X29748254Y-30860396D01*
X29831916Y-31001862D01*
X29831922Y-31001870D01*
X29948128Y-31118076D01*
X29948132Y-31118079D01*
X29948134Y-31118081D01*
X30089601Y-31201744D01*
X30122594Y-31211329D01*
X30181479Y-31248933D01*
X30210687Y-31312405D01*
X30212000Y-31330405D01*
X30212000Y-32288391D01*
X30192315Y-32355430D01*
X30175681Y-32376072D01*
X29892168Y-32659584D01*
X29830845Y-32693069D01*
X29761153Y-32688085D01*
X29705221Y-32646215D01*
X29627546Y-32542454D01*
X29604709Y-32525358D01*
X29512335Y-32456206D01*
X29512328Y-32456202D01*
X29377482Y-32405908D01*
X29377483Y-32405908D01*
X29317883Y-32399501D01*
X29317881Y-32399500D01*
X29317873Y-32399500D01*
X29317864Y-32399500D01*
X28222129Y-32399500D01*
X28222123Y-32399501D01*
X28162516Y-32405908D01*
X28027671Y-32456202D01*
X28027664Y-32456206D01*
X27912455Y-32542452D01*
X27912452Y-32542455D01*
X27826206Y-32657664D01*
X27826202Y-32657671D01*
X27775908Y-32792517D01*
X27769501Y-32852116D01*
X27769500Y-32852135D01*
X27769500Y-34847870D01*
X27769501Y-34847876D01*
X27775908Y-34907483D01*
X27826202Y-35042328D01*
X27826206Y-35042335D01*
X27912452Y-35157544D01*
X27912455Y-35157547D01*
X28027664Y-35243793D01*
X28027671Y-35243797D01*
X28162517Y-35294091D01*
X28162516Y-35294091D01*
X28169444Y-35294835D01*
X28222127Y-35300500D01*
X29317872Y-35300499D01*
X29377483Y-35294091D01*
X29512331Y-35243796D01*
X29627546Y-35157546D01*
X29713796Y-35042331D01*
X29764091Y-34907483D01*
X29770500Y-34847873D01*
X29770499Y-34575313D01*
X29790183Y-34508275D01*
X29842987Y-34462520D01*
X29846986Y-34460778D01*
X29929827Y-34426465D01*
X30036369Y-34355277D01*
X30898627Y-33493019D01*
X30959950Y-33459534D01*
X30986308Y-33456700D01*
X42831171Y-33456700D01*
X42915715Y-33439882D01*
X42956844Y-33431701D01*
X43075227Y-33382665D01*
X43118433Y-33353796D01*
X43181769Y-33311477D01*
X43563506Y-32929738D01*
X43624829Y-32896254D01*
X43694520Y-32901238D01*
X43750454Y-32943109D01*
X43774476Y-33004164D01*
X43775907Y-33017480D01*
X43826202Y-33152328D01*
X43826206Y-33152335D01*
X43912452Y-33267544D01*
X43912455Y-33267547D01*
X44027664Y-33353793D01*
X44027671Y-33353797D01*
X44162517Y-33404091D01*
X44162516Y-33404091D01*
X44169444Y-33404835D01*
X44222127Y-33410500D01*
X45317872Y-33410499D01*
X45377483Y-33404091D01*
X45512331Y-33353796D01*
X45627546Y-33267546D01*
X45713796Y-33152331D01*
X45764091Y-33017483D01*
X45770500Y-32957873D01*
X45770499Y-30352128D01*
X45764091Y-30292517D01*
X45728626Y-30197431D01*
X45713797Y-30157671D01*
X45713793Y-30157664D01*
X45627547Y-30042455D01*
X45627544Y-30042452D01*
X45512335Y-29956206D01*
X45512328Y-29956202D01*
X45377482Y-29905908D01*
X45377483Y-29905908D01*
X45317883Y-29899501D01*
X45317881Y-29899500D01*
X45317873Y-29899500D01*
X45317864Y-29899500D01*
X44222129Y-29899500D01*
X44222123Y-29899501D01*
X44162516Y-29905908D01*
X44027671Y-29956202D01*
X44027664Y-29956206D01*
X43912455Y-30042452D01*
X43912452Y-30042455D01*
X43826206Y-30157664D01*
X43826202Y-30157671D01*
X43775908Y-30292517D01*
X43769501Y-30352116D01*
X43769501Y-30352123D01*
X43769500Y-30352135D01*
X43769500Y-30929685D01*
X43749815Y-30996724D01*
X43697011Y-31042479D01*
X43692955Y-31044245D01*
X43679523Y-31049809D01*
X43679520Y-31049810D01*
X43610181Y-31078530D01*
X43610163Y-31078540D01*
X43503632Y-31149721D01*
X43503625Y-31149727D01*
X42533973Y-32119381D01*
X42472650Y-32152866D01*
X42446292Y-32155700D01*
X39794500Y-32155700D01*
X39727461Y-32136015D01*
X39681706Y-32083211D01*
X39670500Y-32031700D01*
X39670499Y-29872129D01*
X39670498Y-29872123D01*
X39668562Y-29854114D01*
X39664091Y-29812517D01*
X39646946Y-29766550D01*
X39613797Y-29677671D01*
X39613793Y-29677664D01*
X39527547Y-29562455D01*
X39527544Y-29562452D01*
X39412335Y-29476206D01*
X39412328Y-29476202D01*
X39277482Y-29425908D01*
X39277483Y-29425908D01*
X39217883Y-29419501D01*
X39217881Y-29419500D01*
X39217873Y-29419500D01*
X39217864Y-29419500D01*
X38122129Y-29419500D01*
X38122120Y-29419501D01*
X38104113Y-29421437D01*
X38035353Y-29409029D01*
X37984217Y-29361418D01*
X37966940Y-29293718D01*
X37989007Y-29227424D01*
X38003180Y-29210466D01*
X40233127Y-26980519D01*
X40294450Y-26947034D01*
X40320808Y-26944200D01*
X41105500Y-26944200D01*
X41172539Y-26963885D01*
X41218294Y-27016689D01*
X41229500Y-27068200D01*
X41229500Y-29647870D01*
X41229501Y-29647876D01*
X41235908Y-29707483D01*
X41286202Y-29842328D01*
X41286206Y-29842335D01*
X41372452Y-29957544D01*
X41372455Y-29957547D01*
X41487664Y-30043793D01*
X41487671Y-30043797D01*
X41622517Y-30094091D01*
X41622516Y-30094091D01*
X41629444Y-30094835D01*
X41682127Y-30100500D01*
X42777872Y-30100499D01*
X42837483Y-30094091D01*
X42972331Y-30043796D01*
X43087546Y-29957546D01*
X43173796Y-29842331D01*
X43224091Y-29707483D01*
X43230500Y-29647873D01*
X43230499Y-27042128D01*
X43224091Y-26982517D01*
X43173796Y-26847669D01*
X43173795Y-26847668D01*
X43173793Y-26847664D01*
X43087547Y-26732455D01*
X43087544Y-26732452D01*
X42972334Y-26646205D01*
X42972333Y-26646204D01*
X42931504Y-26630976D01*
X42875571Y-26589104D01*
X42857885Y-26554161D01*
X42857832Y-26554184D01*
X42857539Y-26553478D01*
X42856178Y-26550788D01*
X42855501Y-26548557D01*
X42836431Y-26502516D01*
X42806465Y-26430173D01*
X42790371Y-26406087D01*
X42735276Y-26323630D01*
X42735274Y-26323628D01*
X42735272Y-26323625D01*
X42200073Y-25788426D01*
X42200069Y-25788423D01*
X42093527Y-25717235D01*
X42084157Y-25713354D01*
X41975144Y-25668199D01*
X41975138Y-25668197D01*
X41849471Y-25643200D01*
X41849469Y-25643200D01*
X41282204Y-25643200D01*
X41215165Y-25623515D01*
X41169410Y-25570711D01*
X41159466Y-25501553D01*
X41164495Y-25480205D01*
X41214999Y-25327797D01*
X41225500Y-25225009D01*
X41225499Y-24449992D01*
X41223710Y-24432483D01*
X41214999Y-24347203D01*
X41214998Y-24347200D01*
X41179503Y-24240084D01*
X41159814Y-24180666D01*
X41067712Y-24031344D01*
X40943656Y-23907288D01*
X40794334Y-23815186D01*
X40627797Y-23760001D01*
X40627795Y-23760000D01*
X40525010Y-23749500D01*
X39474998Y-23749500D01*
X39474980Y-23749501D01*
X39372203Y-23760000D01*
X39372200Y-23760001D01*
X39205668Y-23815185D01*
X39205663Y-23815187D01*
X39056342Y-23907289D01*
X38932289Y-24031342D01*
X38840187Y-24180663D01*
X38840186Y-24180666D01*
X38785001Y-24347203D01*
X38785001Y-24347204D01*
X38785000Y-24347204D01*
X38774500Y-24449983D01*
X38774500Y-25225001D01*
X38774501Y-25225019D01*
X38785000Y-25327796D01*
X38785001Y-25327799D01*
X38840185Y-25494331D01*
X38840187Y-25494336D01*
X38851135Y-25512086D01*
X38932288Y-25643656D01*
X39056344Y-25767712D01*
X39205666Y-25859814D01*
X39246382Y-25873305D01*
X39303827Y-25913077D01*
X39330651Y-25977592D01*
X39318337Y-26046369D01*
X39295060Y-26078693D01*
X37342180Y-28031573D01*
X37280857Y-28065058D01*
X37211165Y-28060074D01*
X37155232Y-28018202D01*
X37130815Y-27952738D01*
X37130499Y-27943892D01*
X37130499Y-26562129D01*
X37130498Y-26562123D01*
X37130497Y-26562116D01*
X37124091Y-26502517D01*
X37097108Y-26430173D01*
X37073797Y-26367671D01*
X37073793Y-26367664D01*
X36987547Y-26252455D01*
X36987544Y-26252452D01*
X36872335Y-26166206D01*
X36872328Y-26166202D01*
X36737482Y-26115908D01*
X36737483Y-26115908D01*
X36677883Y-26109501D01*
X36677881Y-26109500D01*
X36677873Y-26109500D01*
X36677864Y-26109500D01*
X35582129Y-26109500D01*
X35582123Y-26109501D01*
X35522516Y-26115908D01*
X35387671Y-26166202D01*
X35387664Y-26166206D01*
X35272455Y-26252452D01*
X35272452Y-26252455D01*
X35186206Y-26367664D01*
X35186202Y-26367671D01*
X35135908Y-26502517D01*
X35130959Y-26548556D01*
X35129501Y-26562123D01*
X35129500Y-26562135D01*
X35129500Y-26990500D01*
X35109815Y-27057539D01*
X35057011Y-27103294D01*
X35005500Y-27114500D01*
X34697000Y-27114500D01*
X34629961Y-27094815D01*
X34584206Y-27042011D01*
X34573000Y-26990500D01*
X34573000Y-25670248D01*
X34591460Y-25605152D01*
X34659814Y-25494334D01*
X34714999Y-25327797D01*
X34725500Y-25225009D01*
X34725499Y-24449992D01*
X34723710Y-24432483D01*
X34714999Y-24347203D01*
X34714998Y-24347200D01*
X34679503Y-24240084D01*
X34659814Y-24180666D01*
X34567712Y-24031344D01*
X34443656Y-23907288D01*
X34294334Y-23815186D01*
X34127797Y-23760001D01*
X34127795Y-23760000D01*
X34025016Y-23749500D01*
X34025009Y-23749500D01*
X33524729Y-23749500D01*
X33457690Y-23729815D01*
X33437048Y-23713181D01*
X32715921Y-22992052D01*
X32715914Y-22992046D01*
X32642229Y-22942812D01*
X32642229Y-22942813D01*
X32592991Y-22909913D01*
X32456417Y-22853343D01*
X32456407Y-22853340D01*
X32311420Y-22824500D01*
X32311418Y-22824500D01*
X31666977Y-22824500D01*
X31599938Y-22804815D01*
X31554183Y-22752011D01*
X31546733Y-22724865D01*
X31545876Y-22725068D01*
X31544092Y-22717520D01*
X31493797Y-22582671D01*
X31493793Y-22582664D01*
X31407547Y-22467455D01*
X31407544Y-22467452D01*
X31292335Y-22381206D01*
X31292328Y-22381202D01*
X31157482Y-22330908D01*
X31157483Y-22330908D01*
X31097883Y-22324501D01*
X31097881Y-22324500D01*
X31097873Y-22324500D01*
X31097864Y-22324500D01*
X27402129Y-22324500D01*
X27402123Y-22324501D01*
X27342516Y-22330908D01*
X27207671Y-22381202D01*
X27207669Y-22381203D01*
X27108810Y-22455210D01*
X27043346Y-22479627D01*
X26975073Y-22464776D01*
X26925667Y-22415371D01*
X26910499Y-22355945D01*
X26910499Y-21682128D01*
X26904091Y-21622517D01*
X26853796Y-21487669D01*
X26853795Y-21487668D01*
X26853793Y-21487664D01*
X26767547Y-21372455D01*
X26767544Y-21372452D01*
X26652335Y-21286206D01*
X26652328Y-21286202D01*
X26517482Y-21235908D01*
X26517483Y-21235908D01*
X26457883Y-21229501D01*
X26457881Y-21229500D01*
X26457873Y-21229500D01*
X26457864Y-21229500D01*
X23852129Y-21229500D01*
X23852123Y-21229501D01*
X23792516Y-21235908D01*
X23657671Y-21286202D01*
X23657664Y-21286206D01*
X23542455Y-21372452D01*
X23542452Y-21372455D01*
X23456206Y-21487664D01*
X23456202Y-21487671D01*
X23405908Y-21622517D01*
X23399501Y-21682116D01*
X23399501Y-21682123D01*
X23399500Y-21682135D01*
X20500500Y-21682135D01*
X20500500Y-20624500D01*
X20520185Y-20557461D01*
X20572989Y-20511706D01*
X20624500Y-20500500D01*
X46375500Y-20500500D01*
X46442539Y-20520185D01*
G37*
%TD.AperFunction*%
%TD*%
M02*
