  0
SECTION
  2
HEADER
  9
$ACADVER
  1
AC1018
  9
$HANDSEED
  5
FFFFFFFF
  9
$ANGBASE
  50
0.0
  9
$ANGDIR
  70
1
  9
$MEASUREMENT
  70
1
  9
$INSUNITS
  70
4
  9
$EXTMIN
 10
83.472500000
 20
-116.527500000
 30
0.0
  9
$EXTMAX
 10
116.527500000
 20
-83.472500000
 30
0.0
  9
$LIMMIN
 10
83.472500000
 20
-116.527500000
  9
$LIMMAX
 10
116.527500000
 20
-83.472500000
  0
ENDSEC
  0
SECTION
  2
TABLES
  0
TABLE
  2
APPID
  5
1
330
0
100
AcDbSymbolTable
 70
1
  0
APPID
  5
2
330
1
100
AcDbSymbolTableRecord
100
AcDbRegAppTableRecord
  2
ACAD
 70
0
  0
ENDTAB
  0
TABLE
  2
LTYPE
  5
3
330
0
100
AcDbSymbolTable
 70
6
  0
LTYPE
  5
4
330
3
100
AcDbSymbolTableRecord
100
AcDbLinetypeTableRecord
  2
ByBlock
 70
0
  3

 72
65
 73
0
 40
0
  0
LTYPE
  5
5
330
3
100
AcDbSymbolTableRecord
100
AcDbLinetypeTableRecord
  2
ByLayer
 70
0
  3

 72
65
 73
0
 40
0
  0
LTYPE
  5
6
330
3
100
AcDbSymbolTableRecord
100
AcDbLinetypeTableRecord
  2
CONTINUOUS
 70
0
  3
Solid line
 72
65
 73
0
 40
0
  0
LTYPE
  5
7
330
3
100
AcDbSymbolTableRecord
100
AcDbLinetypeTableRecord
  2
DASHDOT
 70
0
  3
Dash Dot ____ _ ____ _
 72
65
 73
4
 40
2
 49
1.25
 74
0
 49
-0.25
 74
0
 49
0.25
 74
0
 49
-0.25
 74
0
  0
LTYPE
  5
8
330
3
100
AcDbSymbolTableRecord
100
AcDbLinetypeTableRecord
  2
DASHED
 70
0
  3
Dashed __ __ __ __ __
 72
65
 73
2
 40
0.75
 49
0.5
 74
0
 49
-0.25
 74
0
  0
LTYPE
  5
9
330
3
100
AcDbSymbolTableRecord
100
AcDbLinetypeTableRecord
  2
DOTTED
 70
0
  3
Dotted .  .  .  .
 72
65
 73
2
 40
0.2
 49
0.0
 74
0
 49
-0.2
 74
0
  0
ENDTAB
  0
TABLE
  2
STYLE
  5
A
330
0
100
AcDbSymbolTable
 70
4
  0
STYLE
  5
B
330
A
100
AcDbSymbolTableRecord
100
AcDbTextStyleTableRecord
  2
KICAD
 70
0
 40
0
 41
1
 42
1
 50
0
 71
0
  3
isocp.shx
  0
STYLE
  5
C
330
A
100
AcDbSymbolTableRecord
100
AcDbTextStyleTableRecord
  2
KICADB
 70
0
 40
0
 41
1
 42
1
 50
0
 71
0
  3
isocp.shx
  0
STYLE
  5
D
330
A
100
AcDbSymbolTableRecord
100
AcDbTextStyleTableRecord
  2
KICADI
 70
0
 40
0
 41
1
 42
1
 50
15
 71
0
  3
isocp.shx
  0
STYLE
  5
E
330
A
100
AcDbSymbolTableRecord
100
AcDbTextStyleTableRecord
  2
KICADBI
 70
0
 40
0
 41
1
 42
1
 50
15
 71
0
  3
isocp.shx
  0
ENDTAB
  0
TABLE
  2
LAYER
  5
F
330
0
100
AcDbSymbolTable
 70
3
  0
LAYER
  5
12
330
F
100
AcDbSymbolTableRecord
100
AcDbLayerTableRecord
  2
0
 70
0
 62
7
  6
CONTINUOUS
390
10
  0
LAYER
  5
13
330
F
100
AcDbSymbolTableRecord
100
AcDbLayerTableRecord
  2
B.Mask
 70
0
 62
4
420
196590
  6
CONTINUOUS
390
10
  0
LAYER
  5
14
330
F
100
AcDbSymbolTableRecord
100
AcDbLayerTableRecord
  2
Edge.Cuts
 70
0
 62
254
420
13685453
  6
CONTINUOUS
390
10
  0
ENDTAB
  0
TABLE
  2
VPORT
  5
15
330
0
100
AcDbSymbolTable
 70
1
  0
VPORT
  5
F0000000
330
15
100
AcDbSymbolTableRecord
100
AcDbViewportTableRecord
  2
*Active
 70
0
 10
0.0
 20
0.0
 11
1.0
 21
1.0
 12
100.000000000
 22
-100.000000000
 13
0.0
 23
0.0
 14
0.5
 24
0.5
 15
0.5
 25
0.5
 16
0.0
 26
0.0
 36
1.0
 17
0.0
 27
0.0
 37
0.0
 40
33.055000000
 41
1.6
 42
50.0
 43
0.0
 44
0.0
 50
0.0
 51
0.0
 71
0
 72
1000
 73
1
 74
3
 75
0
 76
0
 77
0
 78
0
281
0
 65
0
146
0.0
  0
ENDTAB
  0
TABLE
  2
VIEW
  5
16
330
0
100
AcDbSymbolTable
 70
0
  0
ENDTAB
  0
TABLE
  2
UCS
  5
17
330
0
100
AcDbSymbolTable
 70
0
  0
ENDTAB
  0
TABLE
  2
DIMSTYLE
  5
18
330
0
100
AcDbSymbolTable
 70
1
100
AcDbDimStyleTable
 71
0
  0
DIMSTYLE
105
19
330
18
100
AcDbSymbolTableRecord
100
AcDbDimStyleTableRecord
  2
Standard
 70
0
  0
ENDTAB
  0
TABLE
  2
BLOCK_RECORD
  5
1A
330
0
100
AcDbSymbolTable
 70
3
  0
BLOCK_RECORD
  5
1B
330
1A
100
AcDbSymbolTableRecord
100
AcDbBlockTableRecord
  2
*Model_Space
340
1E
 70
0
280
1
281
0
  0
BLOCK_RECORD
  5
1C
330
1A
100
AcDbSymbolTableRecord
100
AcDbBlockTableRecord
  2
*Paper_Space
340
1F
 70
0
280
1
281
0
  0
BLOCK_RECORD
  5
1D
330
1A
100
AcDbSymbolTableRecord
100
AcDbBlockTableRecord
  2
*Paper_Space0
340
20
 70
0
280
1
281
0
  0
ENDTAB
  0
ENDSEC
  0
SECTION
  2
BLOCKS
  0
BLOCK
  5
23
330
1B
100
AcDbEntity
  8
0
100
AcDbBlockBegin
  2
*Model_Space
 70
0
 10
0.0
 20
0.0
 30
0.0
  3
*Model_Space
  1

  0
ENDBLK
  5
24
330
1B
100
AcDbEntity
  8
0
100
AcDbBlockEnd
  0
BLOCK
  5
25
330
1C
100
AcDbEntity
 67
1
  8
0
100
AcDbBlockBegin
  2
*Paper_Space
 70
0
 10
0.0
 20
0.0
 30
0.0
  3
*Paper_Space
  1

  0
ENDBLK
  5
26
330
1C
100
AcDbEntity
 67
1
  8
0
100
AcDbBlockEnd
  0
BLOCK
  5
27
330
1D
100
AcDbEntity
 67
1
  8
0
100
AcDbBlockBegin
  2
*Paper_Space0
 70
0
 10
0.0
 20
0.0
 30
0.0
  3
*Paper_Space0
  1

  0
ENDBLK
  5
28
330
1D
100
AcDbEntity
 67
1
  8
0
100
AcDbBlockEnd
  0
ENDSEC
  0
SECTION
  2
ENTITIES
  0
LINE
  5
29
330
1B
100
AcDbEntity
  8
B.Mask
  6
CONTINUOUS
100
AcDbLine
 10
100.9049890000000005
 20
-90.0410339999999962
 30
0
 11
101.5046449999999965
 21
-90.1138459999999952
 31
0
  0
LINE
  5
2A
330
1B
100
AcDbEntity
  8
B.Mask
  6
CONTINUOUS
100
AcDbLine
 10
101.5046449999999965
 20
-90.1138459999999952
 30
0
 11
102.0988109999999978
 21
-90.222730999999996
 31
0
  0
LINE
  5
2B
330
1B
100
AcDbEntity
  8
B.Mask
  6
CONTINUOUS
100
AcDbLine
 10
102.0988109999999978
 20
-90.222730999999996
 30
0
 11
102.6853189999999927
 21
-90.367291999999992
 31
0
  0
LINE
  5
2C
330
1B
100
AcDbEntity
  8
B.Mask
  6
CONTINUOUS
100
AcDbLine
 10
102.6853189999999927
 20
-90.367291999999992
 30
0
 11
103.2620280000000008
 21
-90.547001999999992
 31
0
  0
LINE
  5
2D
330
1B
100
AcDbEntity
  8
B.Mask
  6
CONTINUOUS
100
AcDbLine
 10
103.2620280000000008
 20
-90.547001999999992
 30
0
 11
103.826833999999991
 21
-90.7612049999999897
 31
0
  0
LINE
  5
2E
330
1B
100
AcDbEntity
  8
B.Mask
  6
CONTINUOUS
100
AcDbLine
 10
103.826833999999991
 20
-90.7612049999999897
 30
0
 11
104.3776769999999914
 21
-91.0091189999999983
 31
0
  0
LINE
  5
2F
330
1B
100
AcDbEntity
  8
B.Mask
  6
CONTINUOUS
100
AcDbLine
 10
104.3776769999999914
 20
-91.0091189999999983
 30
0
 11
104.9125459999999919
 21
-91.2898399999999981
 31
0
  0
LINE
  5
30
330
1B
100
AcDbEntity
  8
B.Mask
  6
CONTINUOUS
100
AcDbLine
 10
104.9125459999999919
 20
-91.2898399999999981
 30
0
 11
105.4294900000000013
 21
-91.6023429999999905
 31
0
  0
LINE
  5
31
330
1B
100
AcDbEntity
  8
B.Mask
  6
CONTINUOUS
100
AcDbLine
 10
105.4294900000000013
 20
-91.6023429999999905
 30
0
 11
105.9266219999999947
 21
-91.9454889999999949
 31
0
  0
LINE
  5
32
330
1B
100
AcDbEntity
  8
B.Mask
  6
CONTINUOUS
100
AcDbLine
 10
105.9266219999999947
 20
-91.9454889999999949
 30
0
 11
106.4021279999999905
 21
-92.3180239999999941
 31
0
  0
LINE
  5
33
330
1B
100
AcDbEntity
  8
B.Mask
  6
CONTINUOUS
100
AcDbLine
 10
106.4021279999999905
 20
-92.3180239999999941
 30
0
 11
106.8542739999999895
 21
-92.7185899999999918
 31
0
  0
LINE
  5
34
330
1B
100
AcDbEntity
  8
B.Mask
  6
CONTINUOUS
100
AcDbLine
 10
106.8542739999999895
 20
-92.7185899999999918
 30
0
 11
107.2814099999999939
 21
-93.1457259999999962
 31
0
  0
LINE
  5
35
330
1B
100
AcDbEntity
  8
B.Mask
  6
CONTINUOUS
100
AcDbLine
 10
107.2814099999999939
 20
-93.1457259999999962
 30
0
 11
107.6819759999999917
 21
-93.5978719999999953
 31
0
  0
LINE
  5
36
330
1B
100
AcDbEntity
  8
B.Mask
  6
CONTINUOUS
100
AcDbLine
 10
107.6819759999999917
 20
-93.5978719999999953
 30
0
 11
108.0545109999999909
 21
-94.0733779999999911
 31
0
  0
LINE
  5
37
330
1B
100
AcDbEntity
  8
B.Mask
  6
CONTINUOUS
100
AcDbLine
 10
108.0545109999999909
 20
-94.0733779999999911
 30
0
 11
108.3976569999999953
 21
-94.5705099999999987
 31
0
  0
LINE
  5
38
330
1B
100
AcDbEntity
  8
B.Mask
  6
CONTINUOUS
100
AcDbLine
 10
108.3976569999999953
 20
-94.5705099999999987
 30
0
 11
108.7101600000000019
 21
-95.0874539999999939
 31
0
  0
LINE
  5
39
330
1B
100
AcDbEntity
  8
B.Mask
  6
CONTINUOUS
100
AcDbLine
 10
108.7101600000000019
 20
-95.0874539999999939
 30
0
 11
108.9908810000000017
 21
-95.6223229999999944
 31
0
  0
LINE
  5
3A
330
1B
100
AcDbEntity
  8
B.Mask
  6
CONTINUOUS
100
AcDbLine
 10
108.9908810000000017
 20
-95.6223229999999944
 30
0
 11
109.2387949999999961
 21
-96.1731659999999948
 31
0
  0
LINE
  5
3B
330
1B
100
AcDbEntity
  8
B.Mask
  6
CONTINUOUS
100
AcDbLine
 10
109.2387949999999961
 20
-96.1731659999999948
 30
0
 11
109.4529979999999938
 21
-96.7379719999999992
 31
0
  0
LINE
  5
3C
330
1B
100
AcDbEntity
  8
B.Mask
  6
CONTINUOUS
100
AcDbLine
 10
109.4529979999999938
 20
-96.7379719999999992
 30
0
 11
109.6327079999999938
 21
-97.3146809999999931
 31
0
  0
LINE
  5
3D
330
1B
100
AcDbEntity
  8
B.Mask
  6
CONTINUOUS
100
AcDbLine
 10
109.6327079999999938
 20
-97.3146809999999931
 30
0
 11
109.7772689999999898
 21
-97.9011890000000022
 31
0
  0
LINE
  5
3E
330
1B
100
AcDbEntity
  8
B.Mask
  6
CONTINUOUS
100
AcDbLine
 10
109.7772689999999898
 20
-97.9011890000000022
 30
0
 11
109.8861539999999906
 21
-98.4953549999999893
 31
0
  0
LINE
  5
3F
330
1B
100
AcDbEntity
  8
B.Mask
  6
CONTINUOUS
100
AcDbLine
 10
109.8861539999999906
 20
-98.4953549999999893
 30
0
 11
109.9589659999999895
 21
-99.0950109999999995
 31
0
  0
LINE
  5
40
330
1B
100
AcDbEntity
  8
B.Mask
  6
CONTINUOUS
100
AcDbLine
 10
109.9589659999999895
 20
-99.0950109999999995
 30
0
 11
109.9954379999999929
 21
-99.697969999999998
 31
0
  0
LINE
  5
41
330
1B
100
AcDbEntity
  8
B.Mask
  6
CONTINUOUS
100
AcDbLine
 10
109.9954379999999929
 20
-99.697969999999998
 30
0
 11
109.9954379999999929
 21
-100.302030000000002
 31
0
  0
LINE
  5
42
330
1B
100
AcDbEntity
  8
B.Mask
  6
CONTINUOUS
100
AcDbLine
 10
109.9954379999999929
 20
-100.302030000000002
 30
0
 11
109.9589659999999895
 21
-100.9049890000000005
 31
0
  0
LINE
  5
43
330
1B
100
AcDbEntity
  8
B.Mask
  6
CONTINUOUS
100
AcDbLine
 10
109.9589659999999895
 20
-100.9049890000000005
 30
0
 11
109.8861539999999906
 21
-101.5046449999999965
 31
0
  0
LINE
  5
44
330
1B
100
AcDbEntity
  8
B.Mask
  6
CONTINUOUS
100
AcDbLine
 10
109.8861539999999906
 20
-101.5046449999999965
 30
0
 11
109.7772689999999898
 21
-102.0988109999999978
 31
0
  0
LINE
  5
45
330
1B
100
AcDbEntity
  8
B.Mask
  6
CONTINUOUS
100
AcDbLine
 10
109.7772689999999898
 20
-102.0988109999999978
 30
0
 11
109.6327079999999938
 21
-102.6853189999999927
 31
0
  0
LINE
  5
46
330
1B
100
AcDbEntity
  8
B.Mask
  6
CONTINUOUS
100
AcDbLine
 10
109.6327079999999938
 20
-102.6853189999999927
 30
0
 11
109.4529979999999938
 21
-103.2620280000000008
 31
0
  0
LINE
  5
47
330
1B
100
AcDbEntity
  8
B.Mask
  6
CONTINUOUS
100
AcDbLine
 10
109.4529979999999938
 20
-103.2620280000000008
 30
0
 11
109.2387949999999961
 21
-103.826833999999991
 31
0
  0
LINE
  5
48
330
1B
100
AcDbEntity
  8
B.Mask
  6
CONTINUOUS
100
AcDbLine
 10
109.2387949999999961
 20
-103.826833999999991
 30
0
 11
108.9908810000000017
 21
-104.3776769999999914
 31
0
  0
LINE
  5
49
330
1B
100
AcDbEntity
  8
B.Mask
  6
CONTINUOUS
100
AcDbLine
 10
108.9908810000000017
 20
-104.3776769999999914
 30
0
 11
108.7101600000000019
 21
-104.9125459999999919
 31
0
  0
LINE
  5
4A
330
1B
100
AcDbEntity
  8
B.Mask
  6
CONTINUOUS
100
AcDbLine
 10
108.7101600000000019
 20
-104.9125459999999919
 30
0
 11
108.3976569999999953
 21
-105.4294900000000013
 31
0
  0
LINE
  5
4B
330
1B
100
AcDbEntity
  8
B.Mask
  6
CONTINUOUS
100
AcDbLine
 10
108.3976569999999953
 20
-105.4294900000000013
 30
0
 11
108.0545109999999909
 21
-105.9266219999999947
 31
0
  0
LINE
  5
4C
330
1B
100
AcDbEntity
  8
B.Mask
  6
CONTINUOUS
100
AcDbLine
 10
108.0545109999999909
 20
-105.9266219999999947
 30
0
 11
107.6819759999999917
 21
-106.4021279999999905
 31
0
  0
LINE
  5
4D
330
1B
100
AcDbEntity
  8
B.Mask
  6
CONTINUOUS
100
AcDbLine
 10
107.6819759999999917
 20
-106.4021279999999905
 30
0
 11
107.2814099999999939
 21
-106.8542739999999895
 31
0
  0
LINE
  5
4E
330
1B
100
AcDbEntity
  8
B.Mask
  6
CONTINUOUS
100
AcDbLine
 10
107.2814099999999939
 20
-106.8542739999999895
 30
0
 11
106.8542739999999895
 21
-107.2814099999999939
 31
0
  0
LINE
  5
4F
330
1B
100
AcDbEntity
  8
B.Mask
  6
CONTINUOUS
100
AcDbLine
 10
106.8542739999999895
 20
-107.2814099999999939
 30
0
 11
106.4021279999999905
 21
-107.6819759999999917
 31
0
  0
LINE
  5
50
330
1B
100
AcDbEntity
  8
B.Mask
  6
CONTINUOUS
100
AcDbLine
 10
106.4021279999999905
 20
-107.6819759999999917
 30
0
 11
105.9266219999999947
 21
-108.0545109999999909
 31
0
  0
LINE
  5
51
330
1B
100
AcDbEntity
  8
B.Mask
  6
CONTINUOUS
100
AcDbLine
 10
105.9266219999999947
 20
-108.0545109999999909
 30
0
 11
105.4294900000000013
 21
-108.3976569999999953
 31
0
  0
LINE
  5
52
330
1B
100
AcDbEntity
  8
B.Mask
  6
CONTINUOUS
100
AcDbLine
 10
105.4294900000000013
 20
-108.3976569999999953
 30
0
 11
104.9125459999999919
 21
-108.7101600000000019
 31
0
  0
LINE
  5
53
330
1B
100
AcDbEntity
  8
B.Mask
  6
CONTINUOUS
100
AcDbLine
 10
104.9125459999999919
 20
-108.7101600000000019
 30
0
 11
104.3776769999999914
 21
-108.9908810000000017
 31
0
  0
LINE
  5
54
330
1B
100
AcDbEntity
  8
B.Mask
  6
CONTINUOUS
100
AcDbLine
 10
104.3776769999999914
 20
-108.9908810000000017
 30
0
 11
103.826833999999991
 21
-109.2387949999999961
 31
0
  0
LINE
  5
55
330
1B
100
AcDbEntity
  8
B.Mask
  6
CONTINUOUS
100
AcDbLine
 10
103.826833999999991
 20
-109.2387949999999961
 30
0
 11
103.2620280000000008
 21
-109.4529979999999938
 31
0
  0
LINE
  5
56
330
1B
100
AcDbEntity
  8
B.Mask
  6
CONTINUOUS
100
AcDbLine
 10
103.2620280000000008
 20
-109.4529979999999938
 30
0
 11
102.6853189999999927
 21
-109.6327079999999938
 31
0
  0
LINE
  5
57
330
1B
100
AcDbEntity
  8
B.Mask
  6
CONTINUOUS
100
AcDbLine
 10
102.6853189999999927
 20
-109.6327079999999938
 30
0
 11
102.0988109999999978
 21
-109.7772689999999898
 31
0
  0
LINE
  5
58
330
1B
100
AcDbEntity
  8
B.Mask
  6
CONTINUOUS
100
AcDbLine
 10
102.0988109999999978
 20
-109.7772689999999898
 30
0
 11
101.5046449999999965
 21
-109.8861539999999906
 31
0
  0
LINE
  5
59
330
1B
100
AcDbEntity
  8
B.Mask
  6
CONTINUOUS
100
AcDbLine
 10
101.5046449999999965
 20
-109.8861539999999906
 30
0
 11
100.9049890000000005
 21
-109.9589659999999895
 31
0
  0
LINE
  5
5A
330
1B
100
AcDbEntity
  8
B.Mask
  6
CONTINUOUS
100
AcDbLine
 10
100.9049890000000005
 20
-109.9589659999999895
 30
0
 11
100.302030000000002
 21
-109.9954379999999929
 31
0
  0
LINE
  5
5B
330
1B
100
AcDbEntity
  8
B.Mask
  6
CONTINUOUS
100
AcDbLine
 10
100.302030000000002
 20
-109.9954379999999929
 30
0
 11
99.697969999999998
 21
-109.9954379999999929
 31
0
  0
LINE
  5
5C
330
1B
100
AcDbEntity
  8
B.Mask
  6
CONTINUOUS
100
AcDbLine
 10
99.697969999999998
 20
-109.9954379999999929
 30
0
 11
99.0950109999999995
 21
-109.9589659999999895
 31
0
  0
LINE
  5
5D
330
1B
100
AcDbEntity
  8
B.Mask
  6
CONTINUOUS
100
AcDbLine
 10
99.0950109999999995
 20
-109.9589659999999895
 30
0
 11
98.4953549999999893
 21
-109.8861539999999906
 31
0
  0
LINE
  5
5E
330
1B
100
AcDbEntity
  8
B.Mask
  6
CONTINUOUS
100
AcDbLine
 10
98.4953549999999893
 20
-109.8861539999999906
 30
0
 11
97.9011890000000022
 21
-109.7772689999999898
 31
0
  0
LINE
  5
5F
330
1B
100
AcDbEntity
  8
B.Mask
  6
CONTINUOUS
100
AcDbLine
 10
97.9011890000000022
 20
-109.7772689999999898
 30
0
 11
97.3146809999999931
 21
-109.6327079999999938
 31
0
  0
LINE
  5
60
330
1B
100
AcDbEntity
  8
B.Mask
  6
CONTINUOUS
100
AcDbLine
 10
97.3146809999999931
 20
-109.6327079999999938
 30
0
 11
96.7379719999999992
 21
-109.4529979999999938
 31
0
  0
LINE
  5
61
330
1B
100
AcDbEntity
  8
B.Mask
  6
CONTINUOUS
100
AcDbLine
 10
96.7379719999999992
 20
-109.4529979999999938
 30
0
 11
96.1731659999999948
 21
-109.2387949999999961
 31
0
  0
LINE
  5
62
330
1B
100
AcDbEntity
  8
B.Mask
  6
CONTINUOUS
100
AcDbLine
 10
96.1731659999999948
 20
-109.2387949999999961
 30
0
 11
95.6223229999999944
 21
-108.9908810000000017
 31
0
  0
LINE
  5
63
330
1B
100
AcDbEntity
  8
B.Mask
  6
CONTINUOUS
100
AcDbLine
 10
95.6223229999999944
 20
-108.9908810000000017
 30
0
 11
95.0874539999999939
 21
-108.7101600000000019
 31
0
  0
LINE
  5
64
330
1B
100
AcDbEntity
  8
B.Mask
  6
CONTINUOUS
100
AcDbLine
 10
95.0874539999999939
 20
-108.7101600000000019
 30
0
 11
94.5705099999999987
 21
-108.3976569999999953
 31
0
  0
LINE
  5
65
330
1B
100
AcDbEntity
  8
B.Mask
  6
CONTINUOUS
100
AcDbLine
 10
94.5705099999999987
 20
-108.3976569999999953
 30
0
 11
94.0733779999999911
 21
-108.0545109999999909
 31
0
  0
LINE
  5
66
330
1B
100
AcDbEntity
  8
B.Mask
  6
CONTINUOUS
100
AcDbLine
 10
94.0733779999999911
 20
-108.0545109999999909
 30
0
 11
93.5978719999999953
 21
-107.6819759999999917
 31
0
  0
LINE
  5
67
330
1B
100
AcDbEntity
  8
B.Mask
  6
CONTINUOUS
100
AcDbLine
 10
93.5978719999999953
 20
-107.6819759999999917
 30
0
 11
93.1457259999999962
 21
-107.2814099999999939
 31
0
  0
LINE
  5
68
330
1B
100
AcDbEntity
  8
B.Mask
  6
CONTINUOUS
100
AcDbLine
 10
93.1457259999999962
 20
-107.2814099999999939
 30
0
 11
92.7185899999999918
 21
-106.8542739999999895
 31
0
  0
LINE
  5
69
330
1B
100
AcDbEntity
  8
B.Mask
  6
CONTINUOUS
100
AcDbLine
 10
92.7185899999999918
 20
-106.8542739999999895
 30
0
 11
92.3180239999999941
 21
-106.4021279999999905
 31
0
  0
LINE
  5
6A
330
1B
100
AcDbEntity
  8
B.Mask
  6
CONTINUOUS
100
AcDbLine
 10
92.3180239999999941
 20
-106.4021279999999905
 30
0
 11
91.9454889999999949
 21
-105.9266219999999947
 31
0
  0
LINE
  5
6B
330
1B
100
AcDbEntity
  8
B.Mask
  6
CONTINUOUS
100
AcDbLine
 10
91.9454889999999949
 20
-105.9266219999999947
 30
0
 11
91.6023429999999905
 21
-105.4294900000000013
 31
0
  0
LINE
  5
6C
330
1B
100
AcDbEntity
  8
B.Mask
  6
CONTINUOUS
100
AcDbLine
 10
91.6023429999999905
 20
-105.4294900000000013
 30
0
 11
91.2898399999999981
 21
-104.9125459999999919
 31
0
  0
LINE
  5
6D
330
1B
100
AcDbEntity
  8
B.Mask
  6
CONTINUOUS
100
AcDbLine
 10
91.2898399999999981
 20
-104.9125459999999919
 30
0
 11
91.0091189999999983
 21
-104.3776769999999914
 31
0
  0
LINE
  5
6E
330
1B
100
AcDbEntity
  8
B.Mask
  6
CONTINUOUS
100
AcDbLine
 10
91.0091189999999983
 20
-104.3776769999999914
 30
0
 11
90.7612049999999897
 21
-103.826833999999991
 31
0
  0
LINE
  5
6F
330
1B
100
AcDbEntity
  8
B.Mask
  6
CONTINUOUS
100
AcDbLine
 10
90.7612049999999897
 20
-103.826833999999991
 30
0
 11
90.547001999999992
 21
-103.2620280000000008
 31
0
  0
LINE
  5
70
330
1B
100
AcDbEntity
  8
B.Mask
  6
CONTINUOUS
100
AcDbLine
 10
90.547001999999992
 20
-103.2620280000000008
 30
0
 11
90.367291999999992
 21
-102.6853189999999927
 31
0
  0
LINE
  5
71
330
1B
100
AcDbEntity
  8
B.Mask
  6
CONTINUOUS
100
AcDbLine
 10
90.367291999999992
 20
-102.6853189999999927
 30
0
 11
90.222730999999996
 21
-102.0988109999999978
 31
0
  0
LINE
  5
72
330
1B
100
AcDbEntity
  8
B.Mask
  6
CONTINUOUS
100
AcDbLine
 10
90.222730999999996
 20
-102.0988109999999978
 30
0
 11
90.1138459999999952
 21
-101.5046449999999965
 31
0
  0
LINE
  5
73
330
1B
100
AcDbEntity
  8
B.Mask
  6
CONTINUOUS
100
AcDbLine
 10
90.1138459999999952
 20
-101.5046449999999965
 30
0
 11
90.0410339999999962
 21
-100.9049890000000005
 31
0
  0
LINE
  5
74
330
1B
100
AcDbEntity
  8
B.Mask
  6
CONTINUOUS
100
AcDbLine
 10
90.0410339999999962
 20
-100.9049890000000005
 30
0
 11
90.0045619999999928
 21
-100.302030000000002
 31
0
  0
LINE
  5
75
330
1B
100
AcDbEntity
  8
B.Mask
  6
CONTINUOUS
100
AcDbLine
 10
90.0045619999999928
 20
-100.302030000000002
 30
0
 11
90.0045619999999928
 21
-99.697969999999998
 31
0
  0
LINE
  5
76
330
1B
100
AcDbEntity
  8
B.Mask
  6
CONTINUOUS
100
AcDbLine
 10
90.0045619999999928
 20
-99.697969999999998
 30
0
 11
90.0410339999999962
 21
-99.0950109999999995
 31
0
  0
LINE
  5
77
330
1B
100
AcDbEntity
  8
B.Mask
  6
CONTINUOUS
100
AcDbLine
 10
90.0410339999999962
 20
-99.0950109999999995
 30
0
 11
90.1138459999999952
 21
-98.4953549999999893
 31
0
  0
LINE
  5
78
330
1B
100
AcDbEntity
  8
B.Mask
  6
CONTINUOUS
100
AcDbLine
 10
90.1138459999999952
 20
-98.4953549999999893
 30
0
 11
90.222730999999996
 21
-97.9011890000000022
 31
0
  0
LINE
  5
79
330
1B
100
AcDbEntity
  8
B.Mask
  6
CONTINUOUS
100
AcDbLine
 10
90.222730999999996
 20
-97.9011890000000022
 30
0
 11
90.367291999999992
 21
-97.3146809999999931
 31
0
  0
LINE
  5
7A
330
1B
100
AcDbEntity
  8
B.Mask
  6
CONTINUOUS
100
AcDbLine
 10
90.367291999999992
 20
-97.3146809999999931
 30
0
 11
90.547001999999992
 21
-96.7379719999999992
 31
0
  0
LINE
  5
7B
330
1B
100
AcDbEntity
  8
B.Mask
  6
CONTINUOUS
100
AcDbLine
 10
90.547001999999992
 20
-96.7379719999999992
 30
0
 11
90.7612049999999897
 21
-96.1731659999999948
 31
0
  0
LINE
  5
7C
330
1B
100
AcDbEntity
  8
B.Mask
  6
CONTINUOUS
100
AcDbLine
 10
90.7612049999999897
 20
-96.1731659999999948
 30
0
 11
91.0091189999999983
 21
-95.6223229999999944
 31
0
  0
LINE
  5
7D
330
1B
100
AcDbEntity
  8
B.Mask
  6
CONTINUOUS
100
AcDbLine
 10
91.0091189999999983
 20
-95.6223229999999944
 30
0
 11
91.2898399999999981
 21
-95.0874539999999939
 31
0
  0
LINE
  5
7E
330
1B
100
AcDbEntity
  8
B.Mask
  6
CONTINUOUS
100
AcDbLine
 10
91.2898399999999981
 20
-95.0874539999999939
 30
0
 11
91.6023429999999905
 21
-94.5705099999999987
 31
0
  0
LINE
  5
7F
330
1B
100
AcDbEntity
  8
B.Mask
  6
CONTINUOUS
100
AcDbLine
 10
91.6023429999999905
 20
-94.5705099999999987
 30
0
 11
91.9454889999999949
 21
-94.0733779999999911
 31
0
  0
LINE
  5
80
330
1B
100
AcDbEntity
  8
B.Mask
  6
CONTINUOUS
100
AcDbLine
 10
91.9454889999999949
 20
-94.0733779999999911
 30
0
 11
92.3180239999999941
 21
-93.5978719999999953
 31
0
  0
LINE
  5
81
330
1B
100
AcDbEntity
  8
B.Mask
  6
CONTINUOUS
100
AcDbLine
 10
92.3180239999999941
 20
-93.5978719999999953
 30
0
 11
92.7185899999999918
 21
-93.1457259999999962
 31
0
  0
LINE
  5
82
330
1B
100
AcDbEntity
  8
B.Mask
  6
CONTINUOUS
100
AcDbLine
 10
92.7185899999999918
 20
-93.1457259999999962
 30
0
 11
93.1457259999999962
 21
-92.7185899999999918
 31
0
  0
LINE
  5
83
330
1B
100
AcDbEntity
  8
B.Mask
  6
CONTINUOUS
100
AcDbLine
 10
93.1457259999999962
 20
-92.7185899999999918
 30
0
 11
93.5978719999999953
 21
-92.3180239999999941
 31
0
  0
LINE
  5
84
330
1B
100
AcDbEntity
  8
B.Mask
  6
CONTINUOUS
100
AcDbLine
 10
93.5978719999999953
 20
-92.3180239999999941
 30
0
 11
94.0733779999999911
 21
-91.9454889999999949
 31
0
  0
LINE
  5
85
330
1B
100
AcDbEntity
  8
B.Mask
  6
CONTINUOUS
100
AcDbLine
 10
94.0733779999999911
 20
-91.9454889999999949
 30
0
 11
94.5705099999999987
 21
-91.6023429999999905
 31
0
  0
LINE
  5
86
330
1B
100
AcDbEntity
  8
B.Mask
  6
CONTINUOUS
100
AcDbLine
 10
94.5705099999999987
 20
-91.6023429999999905
 30
0
 11
95.0874539999999939
 21
-91.2898399999999981
 31
0
  0
LINE
  5
87
330
1B
100
AcDbEntity
  8
B.Mask
  6
CONTINUOUS
100
AcDbLine
 10
95.0874539999999939
 20
-91.2898399999999981
 30
0
 11
95.6223229999999944
 21
-91.0091189999999983
 31
0
  0
LINE
  5
88
330
1B
100
AcDbEntity
  8
B.Mask
  6
CONTINUOUS
100
AcDbLine
 10
95.6223229999999944
 20
-91.0091189999999983
 30
0
 11
96.1731659999999948
 21
-90.7612049999999897
 31
0
  0
LINE
  5
89
330
1B
100
AcDbEntity
  8
B.Mask
  6
CONTINUOUS
100
AcDbLine
 10
96.1731659999999948
 20
-90.7612049999999897
 30
0
 11
96.7379719999999992
 21
-90.547001999999992
 31
0
  0
LINE
  5
8A
330
1B
100
AcDbEntity
  8
B.Mask
  6
CONTINUOUS
100
AcDbLine
 10
96.7379719999999992
 20
-90.547001999999992
 30
0
 11
97.3146809999999931
 21
-90.367291999999992
 31
0
  0
LINE
  5
8B
330
1B
100
AcDbEntity
  8
B.Mask
  6
CONTINUOUS
100
AcDbLine
 10
97.3146809999999931
 20
-90.367291999999992
 30
0
 11
97.9011890000000022
 21
-90.222730999999996
 31
0
  0
LINE
  5
8C
330
1B
100
AcDbEntity
  8
B.Mask
  6
CONTINUOUS
100
AcDbLine
 10
97.9011890000000022
 20
-90.222730999999996
 30
0
 11
98.4953549999999893
 21
-90.1138459999999952
 31
0
  0
LINE
  5
8D
330
1B
100
AcDbEntity
  8
B.Mask
  6
CONTINUOUS
100
AcDbLine
 10
98.4953549999999893
 20
-90.1138459999999952
 30
0
 11
99.0950109999999995
 21
-90.0410339999999962
 31
0
  0
LINE
  5
8E
330
1B
100
AcDbEntity
  8
B.Mask
  6
CONTINUOUS
100
AcDbLine
 10
99.0950109999999995
 20
-90.0410339999999962
 30
0
 11
99.697969999999998
 21
-90.0045619999999928
 31
0
  0
LINE
  5
8F
330
1B
100
AcDbEntity
  8
B.Mask
  6
CONTINUOUS
100
AcDbLine
 10
99.697969999999998
 20
-90.0045619999999928
 30
0
 11
100.302030000000002
 21
-90.0045619999999928
 31
0
  0
LINE
  5
90
330
1B
100
AcDbEntity
  8
B.Mask
  6
CONTINUOUS
100
AcDbLine
 10
100.302030000000002
 20
-90.0045619999999928
 30
0
 11
100.9049890000000005
 21
-90.0410339999999962
 31
0
  0
LINE
  5
91
330
1B
100
AcDbEntity
  8
Edge.Cuts
  6
CONTINUOUS
100
AcDbLine
 10
115.0095669999999899
 20
-84.976902999999993
 30
0
 11
115.0230969999999928
 21
-84.9904329999999959
 31
0
  0
LINE
  5
92
330
1B
100
AcDbEntity
  8
Edge.Cuts
  6
CONTINUOUS
100
AcDbLine
 10
115.0230969999999928
 20
-84.9904329999999959
 30
0
 11
115.0249999999999915
 21
-85.
 31
0
  0
LINE
  5
93
330
1B
100
AcDbEntity
  8
Edge.Cuts
  6
CONTINUOUS
100
AcDbLine
 10
115.0249999999999915
 20
-85.
 30
0
 11
115.0249999999999915
 21
-115.
 31
0
  0
LINE
  5
94
330
1B
100
AcDbEntity
  8
Edge.Cuts
  6
CONTINUOUS
100
AcDbLine
 10
115.0249999999999915
 20
-115.
 30
0
 11
115.0230969999999928
 21
-115.0095669999999899
 31
0
  0
LINE
  5
95
330
1B
100
AcDbEntity
  8
Edge.Cuts
  6
CONTINUOUS
100
AcDbLine
 10
115.0230969999999928
 20
-115.0095669999999899
 30
0
 11
115.0095669999999899
 21
-115.0230969999999928
 31
0
  0
LINE
  5
96
330
1B
100
AcDbEntity
  8
Edge.Cuts
  6
CONTINUOUS
100
AcDbLine
 10
115.0095669999999899
 20
-115.0230969999999928
 30
0
 11
115.
 21
-115.0249999999999915
 31
0
  0
LINE
  5
97
330
1B
100
AcDbEntity
  8
Edge.Cuts
  6
CONTINUOUS
100
AcDbLine
 10
115.
 20
-115.0249999999999915
 30
0
 11
85.
 21
-115.0249999999999915
 31
0
  0
LINE
  5
98
330
1B
100
AcDbEntity
  8
Edge.Cuts
  6
CONTINUOUS
100
AcDbLine
 10
85.
 20
-115.0249999999999915
 30
0
 11
84.9904329999999959
 21
-115.0230969999999928
 31
0
  0
LINE
  5
99
330
1B
100
AcDbEntity
  8
Edge.Cuts
  6
CONTINUOUS
100
AcDbLine
 10
84.9904329999999959
 20
-115.0230969999999928
 30
0
 11
84.976902999999993
 21
-115.0095669999999899
 31
0
  0
LINE
  5
9A
330
1B
100
AcDbEntity
  8
Edge.Cuts
  6
CONTINUOUS
100
AcDbLine
 10
84.976902999999993
 20
-115.0095669999999899
 30
0
 11
84.9749999999999943
 21
-115.
 31
0
  0
LINE
  5
9B
330
1B
100
AcDbEntity
  8
Edge.Cuts
  6
CONTINUOUS
100
AcDbLine
 10
84.9749999999999943
 20
-115.
 30
0
 11
84.9749999999999943
 21
-85.
 31
0
  0
LINE
  5
9C
330
1B
100
AcDbEntity
  8
Edge.Cuts
  6
CONTINUOUS
100
AcDbLine
 10
84.9749999999999943
 20
-85.
 30
0
 11
84.976902999999993
 21
-84.9904329999999959
 31
0
  0
LINE
  5
9D
330
1B
100
AcDbEntity
  8
Edge.Cuts
  6
CONTINUOUS
100
AcDbLine
 10
84.976902999999993
 20
-84.9904329999999959
 30
0
 11
84.9904329999999959
 21
-84.976902999999993
 31
0
  0
LINE
  5
9E
330
1B
100
AcDbEntity
  8
Edge.Cuts
  6
CONTINUOUS
100
AcDbLine
 10
84.9904329999999959
 20
-84.976902999999993
 30
0
 11
85.
 21
-84.9749999999999943
 31
0
  0
LINE
  5
9F
330
1B
100
AcDbEntity
  8
Edge.Cuts
  6
CONTINUOUS
100
AcDbLine
 10
85.
 20
-84.9749999999999943
 30
0
 11
115.
 21
-84.9749999999999943
 31
0
  0
LINE
  5
A0
330
1B
100
AcDbEntity
  8
Edge.Cuts
  6
CONTINUOUS
100
AcDbLine
 10
115.
 20
-84.9749999999999943
 30
0
 11
115.0095669999999899
 21
-84.976902999999993
 31
0
  0
LINE
  5
A1
330
1B
100
AcDbEntity
  8
Edge.Cuts
  6
CONTINUOUS
100
AcDbLine
 10
85.0249999999999915
 20
-85.0249999999999915
 30
0
 11
85.0249999999999915
 21
-114.9749999999999943
 31
0
  0
LINE
  5
A2
330
1B
100
AcDbEntity
  8
Edge.Cuts
  6
CONTINUOUS
100
AcDbLine
 10
85.0249999999999915
 20
-114.9749999999999943
 30
0
 11
114.9749999999999943
 21
-114.9749999999999943
 31
0
  0
LINE
  5
A3
330
1B
100
AcDbEntity
  8
Edge.Cuts
  6
CONTINUOUS
100
AcDbLine
 10
114.9749999999999943
 20
-114.9749999999999943
 30
0
 11
114.9749999999999943
 21
-85.0249999999999915
 31
0
  0
LINE
  5
A4
330
1B
100
AcDbEntity
  8
Edge.Cuts
  6
CONTINUOUS
100
AcDbLine
 10
114.9749999999999943
 20
-85.0249999999999915
 30
0
 11
85.0249999999999915
 21
-85.0249999999999915
 31
0
  0
ENDSEC
  0
SECTION
  2
OBJECTS
  0
DICTIONARY
  5
21
330
0
100
AcDbDictionary
281
1
  3
ACAD_GROUP
350
A5
  3
ACAD_LAYOUT
350
22
  3
ACAD_PLOTSTYLENAME
350
11
  0
DICTIONARY
  5
A5
330
21
100
AcDbDictionary
281
1
  0
ACDBDICTIONARYWDFLT
  5
11
330
21
100
AcDbDictionary
281
1
  3
Normal
350
10
100
AcDbDictionaryWithDefault
340
10
  0
ACDBPLACEHOLDER
  5
10
330
11
  0
DICTIONARY
  5
22
330
21
100
AcDbDictionary
281
1
  3
Model
350
1E
  3
Layout1
350
1F
  3
Layout2
350
20
  0
LAYOUT
  5
1E
330
22
100
AcDbPlotSettings
  1

  2
none_device
  4
A3
  6

 40
0.0
 41
0.0
 42
0.0
 43
0.0
 44
420.0
 45
297.0
 46
0.0
 47
0.0
 48
0.0
 49
0.0
140
0.0
141
0.0
142
1.0
143
1.0
 70
1024
 72
1
 73
0
 74
5
  7

 75
16
 76
0
 77
2
 78
300
147
1.0
148
0.0
149
0.0
100
AcDbLayout
  1
Model
 70
1
 71
0
 10
0.0
 20
0.0
 11
420.0
 21
297.0
 12
0.0
 22
0.0
 32
0.0
 14
1e+20
 24
1e+20
 34
1e+20
 15
-1e+20
 25
-1e+20
 35
-1e+20
146
0.0
 13
0.0
 23
0.0
 33
0.0
 16
1.0
 26
0.0
 36
0.0
 17
0.0
 27
1.0
 37
0.0
 76
0
330
1B
  0
LAYOUT
  5
1F
330
22
100
AcDbPlotSettings
  1

  2
none_device
  4
A3
  6

 40
0.0
 41
0.0
 42
0.0
 43
0.0
 44
420.0
 45
297.0
 46
0.0
 47
0.0
 48
0.0
 49
0.0
140
0.0
141
0.0
142
1.0
143
1.0
 70
0
 72
1
 73
0
 74
5
  7

 75
16
 76
0
 77
2
 78
300
147
1.0
148
0.0
149
0.0
100
AcDbLayout
  1
Layout1
 70
1
 71
1
 10
0.0
 20
0.0
 11
420.0
 21
297.0
 12
0.0
 22
0.0
 32
0.0
 14
1e+20
 24
1e+20
 34
1e+20
 15
-1e+20
 25
-1e+20
 35
-1e+20
146
0.0
 13
0.0
 23
0.0
 33
0.0
 16
1.0
 26
0.0
 36
0.0
 17
0.0
 27
1.0
 37
0.0
 76
0
330
1C
  0
LAYOUT
  5
20
330
22
100
AcDbPlotSettings
  1

  2
none_device
  4
A3
  6

 40
0.0
 41
0.0
 42
0.0
 43
0.0
 44
420.0
 45
297.0
 46
0.0
 47
0.0
 48
0.0
 49
0.0
140
0.0
141
0.0
142
1.0
143
1.0
 70
0
 72
1
 73
0
 74
5
  7

 75
16
 76
0
 77
2
 78
300
147
1.0
148
0.0
149
0.0
100
AcDbLayout
  1
Layout2
 70
1
 71
2
 10
0.0
 20
0.0
 11
420.0
 21
297.0
 12
0.0
 22
0.0
 32
0.0
 14
1e+20
 24
1e+20
 34
1e+20
 15
-1e+20
 25
-1e+20
 35
-1e+20
146
0.0
 13
0.0
 23
0.0
 33
0.0
 16
1.0
 26
0.0
 36
0.0
 17
0.0
 27
1.0
 37
0.0
 76
0
330
1D
  0
ENDSEC
  0
EOF
