  0
SECTION
  2
HEADER
  9
$ACADVER
  1
AC1018
  9
$HANDSEED
  5
FFFFFFFF
  9
$ANGBASE
  50
0.0
  9
$ANGDIR
  70
1
  9
$MEASUREMENT
  70
1
  9
$INSUNITS
  70
4
  9
$EXTMIN
 10
83.472500000
 20
-116.527500000
 30
0.0
  9
$EXTMAX
 10
116.527500000
 20
-83.472500000
 30
0.0
  9
$LIMMIN
 10
83.472500000
 20
-116.527500000
  9
$LIMMAX
 10
116.527500000
 20
-83.472500000
  0
ENDSEC
  0
SECTION
  2
TABLES
  0
TABLE
  2
APPID
  5
1
330
0
100
AcDbSymbolTable
 70
1
  0
APPID
  5
2
330
1
100
AcDbSymbolTableRecord
100
AcDbRegAppTableRecord
  2
ACAD
 70
0
  0
ENDTAB
  0
TABLE
  2
LTYPE
  5
3
330
0
100
AcDbSymbolTable
 70
6
  0
LTYPE
  5
4
330
3
100
AcDbSymbolTableRecord
100
AcDbLinetypeTableRecord
  2
ByBlock
 70
0
  3

 72
65
 73
0
 40
0
  0
LTYPE
  5
5
330
3
100
AcDbSymbolTableRecord
100
AcDbLinetypeTableRecord
  2
ByLayer
 70
0
  3

 72
65
 73
0
 40
0
  0
LTYPE
  5
6
330
3
100
AcDbSymbolTableRecord
100
AcDbLinetypeTableRecord
  2
CONTINUOUS
 70
0
  3
Solid line
 72
65
 73
0
 40
0
  0
LTYPE
  5
7
330
3
100
AcDbSymbolTableRecord
100
AcDbLinetypeTableRecord
  2
DASHDOT
 70
0
  3
Dash Dot ____ _ ____ _
 72
65
 73
4
 40
2
 49
1.25
 74
0
 49
-0.25
 74
0
 49
0.25
 74
0
 49
-0.25
 74
0
  0
LTYPE
  5
8
330
3
100
AcDbSymbolTableRecord
100
AcDbLinetypeTableRecord
  2
DASHED
 70
0
  3
Dashed __ __ __ __ __
 72
65
 73
2
 40
0.75
 49
0.5
 74
0
 49
-0.25
 74
0
  0
LTYPE
  5
9
330
3
100
AcDbSymbolTableRecord
100
AcDbLinetypeTableRecord
  2
DOTTED
 70
0
  3
Dotted .  .  .  .
 72
65
 73
2
 40
0.2
 49
0.0
 74
0
 49
-0.2
 74
0
  0
ENDTAB
  0
TABLE
  2
STYLE
  5
A
330
0
100
AcDbSymbolTable
 70
4
  0
STYLE
  5
B
330
A
100
AcDbSymbolTableRecord
100
AcDbTextStyleTableRecord
  2
KICAD
 70
0
 40
0
 41
1
 42
1
 50
0
 71
0
  3
isocp.shx
  0
STYLE
  5
C
330
A
100
AcDbSymbolTableRecord
100
AcDbTextStyleTableRecord
  2
KICADB
 70
0
 40
0
 41
1
 42
1
 50
0
 71
0
  3
isocp.shx
  0
STYLE
  5
D
330
A
100
AcDbSymbolTableRecord
100
AcDbTextStyleTableRecord
  2
KICADI
 70
0
 40
0
 41
1
 42
1
 50
15
 71
0
  3
isocp.shx
  0
STYLE
  5
E
330
A
100
AcDbSymbolTableRecord
100
AcDbTextStyleTableRecord
  2
KICADBI
 70
0
 40
0
 41
1
 42
1
 50
15
 71
0
  3
isocp.shx
  0
ENDTAB
  0
TABLE
  2
LAYER
  5
F
330
0
100
AcDbSymbolTable
 70
3
  0
LAYER
  5
12
330
F
100
AcDbSymbolTableRecord
100
AcDbLayerTableRecord
  2
0
 70
0
 62
7
  6
CONTINUOUS
390
10
  0
LAYER
  5
13
330
F
100
AcDbSymbolTableRecord
100
AcDbLayerTableRecord
  2
F.Mask
 70
0
 62
201
420
14181631
  6
CONTINUOUS
390
10
  0
LAYER
  5
14
330
F
100
AcDbSymbolTableRecord
100
AcDbLayerTableRecord
  2
Edge.Cuts
 70
0
 62
254
420
13685453
  6
CONTINUOUS
390
10
  0
ENDTAB
  0
TABLE
  2
VPORT
  5
15
330
0
100
AcDbSymbolTable
 70
1
  0
VPORT
  5
F0000000
330
15
100
AcDbSymbolTableRecord
100
AcDbViewportTableRecord
  2
*Active
 70
0
 10
0.0
 20
0.0
 11
1.0
 21
1.0
 12
100.000000000
 22
-100.000000000
 13
0.0
 23
0.0
 14
0.5
 24
0.5
 15
0.5
 25
0.5
 16
0.0
 26
0.0
 36
1.0
 17
0.0
 27
0.0
 37
0.0
 40
33.055000000
 41
1.6
 42
50.0
 43
0.0
 44
0.0
 50
0.0
 51
0.0
 71
0
 72
1000
 73
1
 74
3
 75
0
 76
0
 77
0
 78
0
281
0
 65
0
146
0.0
  0
ENDTAB
  0
TABLE
  2
VIEW
  5
16
330
0
100
AcDbSymbolTable
 70
0
  0
ENDTAB
  0
TABLE
  2
UCS
  5
17
330
0
100
AcDbSymbolTable
 70
0
  0
ENDTAB
  0
TABLE
  2
DIMSTYLE
  5
18
330
0
100
AcDbSymbolTable
 70
1
100
AcDbDimStyleTable
 71
0
  0
DIMSTYLE
105
19
330
18
100
AcDbSymbolTableRecord
100
AcDbDimStyleTableRecord
  2
Standard
 70
0
  0
ENDTAB
  0
TABLE
  2
BLOCK_RECORD
  5
1A
330
0
100
AcDbSymbolTable
 70
3
  0
BLOCK_RECORD
  5
1B
330
1A
100
AcDbSymbolTableRecord
100
AcDbBlockTableRecord
  2
*Model_Space
340
1E
 70
0
280
1
281
0
  0
BLOCK_RECORD
  5
1C
330
1A
100
AcDbSymbolTableRecord
100
AcDbBlockTableRecord
  2
*Paper_Space
340
1F
 70
0
280
1
281
0
  0
BLOCK_RECORD
  5
1D
330
1A
100
AcDbSymbolTableRecord
100
AcDbBlockTableRecord
  2
*Paper_Space0
340
20
 70
0
280
1
281
0
  0
ENDTAB
  0
ENDSEC
  0
SECTION
  2
BLOCKS
  0
BLOCK
  5
23
330
1B
100
AcDbEntity
  8
0
100
AcDbBlockBegin
  2
*Model_Space
 70
0
 10
0.0
 20
0.0
 30
0.0
  3
*Model_Space
  1

  0
ENDBLK
  5
24
330
1B
100
AcDbEntity
  8
0
100
AcDbBlockEnd
  0
BLOCK
  5
25
330
1C
100
AcDbEntity
 67
1
  8
0
100
AcDbBlockBegin
  2
*Paper_Space
 70
0
 10
0.0
 20
0.0
 30
0.0
  3
*Paper_Space
  1

  0
ENDBLK
  5
26
330
1C
100
AcDbEntity
 67
1
  8
0
100
AcDbBlockEnd
  0
BLOCK
  5
27
330
1D
100
AcDbEntity
 67
1
  8
0
100
AcDbBlockBegin
  2
*Paper_Space0
 70
0
 10
0.0
 20
0.0
 30
0.0
  3
*Paper_Space0
  1

  0
ENDBLK
  5
28
330
1D
100
AcDbEntity
 67
1
  8
0
100
AcDbBlockEnd
  0
ENDSEC
  0
SECTION
  2
ENTITIES
  0
LINE
  5
29
330
1B
100
AcDbEntity
  8
F.Mask
  6
CONTINUOUS
100
AcDbLine
 10
100.5869220000000013
 20
-96.0432939999999888
 30
0
 11
100.9719209999999947
 21
-96.1198749999999933
 31
0
  0
LINE
  5
2A
330
1B
100
AcDbEntity
  8
F.Mask
  6
CONTINUOUS
100
AcDbLine
 10
100.9719209999999947
 20
-96.1198749999999933
 30
0
 11
101.3475589999999897
 21
-96.2338239999999985
 31
0
  0
LINE
  5
2B
330
1B
100
AcDbEntity
  8
F.Mask
  6
CONTINUOUS
100
AcDbLine
 10
101.3475589999999897
 20
-96.2338239999999985
 30
0
 11
101.7102199999999925
 21
-96.3840429999999913
 31
0
  0
LINE
  5
2C
330
1B
100
AcDbEntity
  8
F.Mask
  6
CONTINUOUS
100
AcDbLine
 10
101.7102199999999925
 20
-96.3840429999999913
 30
0
 11
102.0564109999999971
 21
-96.5690859999999986
 31
0
  0
LINE
  5
2D
330
1B
100
AcDbEntity
  8
F.Mask
  6
CONTINUOUS
100
AcDbLine
 10
102.0564109999999971
 20
-96.5690859999999986
 30
0
 11
102.3827969999999965
 21
-96.787169999999989
 31
0
  0
LINE
  5
2E
330
1B
100
AcDbEntity
  8
F.Mask
  6
CONTINUOUS
100
AcDbLine
 10
102.3827969999999965
 20
-96.787169999999989
 30
0
 11
102.6862359999999939
 21
-97.0361949999999922
 31
0
  0
LINE
  5
2F
330
1B
100
AcDbEntity
  8
F.Mask
  6
CONTINUOUS
100
AcDbLine
 10
102.6862359999999939
 20
-97.0361949999999922
 30
0
 11
102.9638049999999936
 21
-97.3137639999999919
 31
0
  0
LINE
  5
30
330
1B
100
AcDbEntity
  8
F.Mask
  6
CONTINUOUS
100
AcDbLine
 10
102.9638049999999936
 20
-97.3137639999999919
 30
0
 11
103.2128299999999967
 21
-97.6172029999999893
 31
0
  0
LINE
  5
31
330
1B
100
AcDbEntity
  8
F.Mask
  6
CONTINUOUS
100
AcDbLine
 10
103.2128299999999967
 20
-97.6172029999999893
 30
0
 11
103.4309140000000014
 21
-97.9435889999999887
 31
0
  0
LINE
  5
32
330
1B
100
AcDbEntity
  8
F.Mask
  6
CONTINUOUS
100
AcDbLine
 10
103.4309140000000014
 20
-97.9435889999999887
 30
0
 11
103.6159569999999945
 21
-98.2897799999999933
 31
0
  0
LINE
  5
33
330
1B
100
AcDbEntity
  8
F.Mask
  6
CONTINUOUS
100
AcDbLine
 10
103.6159569999999945
 20
-98.2897799999999933
 30
0
 11
103.7661760000000015
 21
-98.6524409999999961
 31
0
  0
LINE
  5
34
330
1B
100
AcDbEntity
  8
F.Mask
  6
CONTINUOUS
100
AcDbLine
 10
103.7661760000000015
 20
-98.6524409999999961
 30
0
 11
103.8801249999999925
 21
-99.0280789999999911
 31
0
  0
LINE
  5
35
330
1B
100
AcDbEntity
  8
F.Mask
  6
CONTINUOUS
100
AcDbLine
 10
103.8801249999999925
 20
-99.0280789999999911
 30
0
 11
103.9567059999999969
 21
-99.4130779999999987
 31
0
  0
LINE
  5
36
330
1B
100
AcDbEntity
  8
F.Mask
  6
CONTINUOUS
100
AcDbLine
 10
103.9567059999999969
 20
-99.4130779999999987
 30
0
 11
103.9951819999999998
 21
-99.8037289999999899
 31
0
  0
LINE
  5
37
330
1B
100
AcDbEntity
  8
F.Mask
  6
CONTINUOUS
100
AcDbLine
 10
103.9951819999999998
 20
-99.8037289999999899
 30
0
 11
103.9951819999999998
 21
-100.1962709999999959
 31
0
  0
LINE
  5
38
330
1B
100
AcDbEntity
  8
F.Mask
  6
CONTINUOUS
100
AcDbLine
 10
103.9951819999999998
 20
-100.1962709999999959
 30
0
 11
103.9567059999999969
 21
-100.5869220000000013
 31
0
  0
LINE
  5
39
330
1B
100
AcDbEntity
  8
F.Mask
  6
CONTINUOUS
100
AcDbLine
 10
103.9567059999999969
 20
-100.5869220000000013
 30
0
 11
103.8801249999999925
 21
-100.9719209999999947
 31
0
  0
LINE
  5
3A
330
1B
100
AcDbEntity
  8
F.Mask
  6
CONTINUOUS
100
AcDbLine
 10
103.8801249999999925
 20
-100.9719209999999947
 30
0
 11
103.7661760000000015
 21
-101.3475589999999897
 31
0
  0
LINE
  5
3B
330
1B
100
AcDbEntity
  8
F.Mask
  6
CONTINUOUS
100
AcDbLine
 10
103.7661760000000015
 20
-101.3475589999999897
 30
0
 11
103.6159569999999945
 21
-101.7102199999999925
 31
0
  0
LINE
  5
3C
330
1B
100
AcDbEntity
  8
F.Mask
  6
CONTINUOUS
100
AcDbLine
 10
103.6159569999999945
 20
-101.7102199999999925
 30
0
 11
103.4309140000000014
 21
-102.0564109999999971
 31
0
  0
LINE
  5
3D
330
1B
100
AcDbEntity
  8
F.Mask
  6
CONTINUOUS
100
AcDbLine
 10
103.4309140000000014
 20
-102.0564109999999971
 30
0
 11
103.2128299999999967
 21
-102.3827969999999965
 31
0
  0
LINE
  5
3E
330
1B
100
AcDbEntity
  8
F.Mask
  6
CONTINUOUS
100
AcDbLine
 10
103.2128299999999967
 20
-102.3827969999999965
 30
0
 11
102.9638049999999936
 21
-102.6862359999999939
 31
0
  0
LINE
  5
3F
330
1B
100
AcDbEntity
  8
F.Mask
  6
CONTINUOUS
100
AcDbLine
 10
102.9638049999999936
 20
-102.6862359999999939
 30
0
 11
102.6862359999999939
 21
-102.9638049999999936
 31
0
  0
LINE
  5
40
330
1B
100
AcDbEntity
  8
F.Mask
  6
CONTINUOUS
100
AcDbLine
 10
102.6862359999999939
 20
-102.9638049999999936
 30
0
 11
102.3827969999999965
 21
-103.2128299999999967
 31
0
  0
LINE
  5
41
330
1B
100
AcDbEntity
  8
F.Mask
  6
CONTINUOUS
100
AcDbLine
 10
102.3827969999999965
 20
-103.2128299999999967
 30
0
 11
102.0564109999999971
 21
-103.4309140000000014
 31
0
  0
LINE
  5
42
330
1B
100
AcDbEntity
  8
F.Mask
  6
CONTINUOUS
100
AcDbLine
 10
102.0564109999999971
 20
-103.4309140000000014
 30
0
 11
101.7102199999999925
 21
-103.6159569999999945
 31
0
  0
LINE
  5
43
330
1B
100
AcDbEntity
  8
F.Mask
  6
CONTINUOUS
100
AcDbLine
 10
101.7102199999999925
 20
-103.6159569999999945
 30
0
 11
101.3475589999999897
 21
-103.7661760000000015
 31
0
  0
LINE
  5
44
330
1B
100
AcDbEntity
  8
F.Mask
  6
CONTINUOUS
100
AcDbLine
 10
101.3475589999999897
 20
-103.7661760000000015
 30
0
 11
100.9719209999999947
 21
-103.8801249999999925
 31
0
  0
LINE
  5
45
330
1B
100
AcDbEntity
  8
F.Mask
  6
CONTINUOUS
100
AcDbLine
 10
100.9719209999999947
 20
-103.8801249999999925
 30
0
 11
100.5869220000000013
 21
-103.9567059999999969
 31
0
  0
LINE
  5
46
330
1B
100
AcDbEntity
  8
F.Mask
  6
CONTINUOUS
100
AcDbLine
 10
100.5869220000000013
 20
-103.9567059999999969
 30
0
 11
100.1962709999999959
 21
-103.9951819999999998
 31
0
  0
LINE
  5
47
330
1B
100
AcDbEntity
  8
F.Mask
  6
CONTINUOUS
100
AcDbLine
 10
100.1962709999999959
 20
-103.9951819999999998
 30
0
 11
99.8037289999999899
 21
-103.9951819999999998
 31
0
  0
LINE
  5
48
330
1B
100
AcDbEntity
  8
F.Mask
  6
CONTINUOUS
100
AcDbLine
 10
99.8037289999999899
 20
-103.9951819999999998
 30
0
 11
99.4130779999999987
 21
-103.9567059999999969
 31
0
  0
LINE
  5
49
330
1B
100
AcDbEntity
  8
F.Mask
  6
CONTINUOUS
100
AcDbLine
 10
99.4130779999999987
 20
-103.9567059999999969
 30
0
 11
99.0280789999999911
 21
-103.8801249999999925
 31
0
  0
LINE
  5
4A
330
1B
100
AcDbEntity
  8
F.Mask
  6
CONTINUOUS
100
AcDbLine
 10
99.0280789999999911
 20
-103.8801249999999925
 30
0
 11
98.6524409999999961
 21
-103.7661760000000015
 31
0
  0
LINE
  5
4B
330
1B
100
AcDbEntity
  8
F.Mask
  6
CONTINUOUS
100
AcDbLine
 10
98.6524409999999961
 20
-103.7661760000000015
 30
0
 11
98.2897799999999933
 21
-103.6159569999999945
 31
0
  0
LINE
  5
4C
330
1B
100
AcDbEntity
  8
F.Mask
  6
CONTINUOUS
100
AcDbLine
 10
98.2897799999999933
 20
-103.6159569999999945
 30
0
 11
97.9435889999999887
 21
-103.4309140000000014
 31
0
  0
LINE
  5
4D
330
1B
100
AcDbEntity
  8
F.Mask
  6
CONTINUOUS
100
AcDbLine
 10
97.9435889999999887
 20
-103.4309140000000014
 30
0
 11
97.6172029999999893
 21
-103.2128299999999967
 31
0
  0
LINE
  5
4E
330
1B
100
AcDbEntity
  8
F.Mask
  6
CONTINUOUS
100
AcDbLine
 10
97.6172029999999893
 20
-103.2128299999999967
 30
0
 11
97.3137639999999919
 21
-102.9638049999999936
 31
0
  0
LINE
  5
4F
330
1B
100
AcDbEntity
  8
F.Mask
  6
CONTINUOUS
100
AcDbLine
 10
97.3137639999999919
 20
-102.9638049999999936
 30
0
 11
97.0361949999999922
 21
-102.6862359999999939
 31
0
  0
LINE
  5
50
330
1B
100
AcDbEntity
  8
F.Mask
  6
CONTINUOUS
100
AcDbLine
 10
97.0361949999999922
 20
-102.6862359999999939
 30
0
 11
96.787169999999989
 21
-102.3827969999999965
 31
0
  0
LINE
  5
51
330
1B
100
AcDbEntity
  8
F.Mask
  6
CONTINUOUS
100
AcDbLine
 10
96.787169999999989
 20
-102.3827969999999965
 30
0
 11
96.5690859999999986
 21
-102.0564109999999971
 31
0
  0
LINE
  5
52
330
1B
100
AcDbEntity
  8
F.Mask
  6
CONTINUOUS
100
AcDbLine
 10
96.5690859999999986
 20
-102.0564109999999971
 30
0
 11
96.3840429999999913
 21
-101.7102199999999925
 31
0
  0
LINE
  5
53
330
1B
100
AcDbEntity
  8
F.Mask
  6
CONTINUOUS
100
AcDbLine
 10
96.3840429999999913
 20
-101.7102199999999925
 30
0
 11
96.2338239999999985
 21
-101.3475589999999897
 31
0
  0
LINE
  5
54
330
1B
100
AcDbEntity
  8
F.Mask
  6
CONTINUOUS
100
AcDbLine
 10
96.2338239999999985
 20
-101.3475589999999897
 30
0
 11
96.1198749999999933
 21
-100.9719209999999947
 31
0
  0
LINE
  5
55
330
1B
100
AcDbEntity
  8
F.Mask
  6
CONTINUOUS
100
AcDbLine
 10
96.1198749999999933
 20
-100.9719209999999947
 30
0
 11
96.0432939999999888
 21
-100.5869220000000013
 31
0
  0
LINE
  5
56
330
1B
100
AcDbEntity
  8
F.Mask
  6
CONTINUOUS
100
AcDbLine
 10
96.0432939999999888
 20
-100.5869220000000013
 30
0
 11
96.0048180000000002
 21
-100.1962709999999959
 31
0
  0
LINE
  5
57
330
1B
100
AcDbEntity
  8
F.Mask
  6
CONTINUOUS
100
AcDbLine
 10
96.0048180000000002
 20
-100.1962709999999959
 30
0
 11
96.0048180000000002
 21
-99.8037289999999899
 31
0
  0
LINE
  5
58
330
1B
100
AcDbEntity
  8
F.Mask
  6
CONTINUOUS
100
AcDbLine
 10
96.0048180000000002
 20
-99.8037289999999899
 30
0
 11
96.0432939999999888
 21
-99.4130779999999987
 31
0
  0
LINE
  5
59
330
1B
100
AcDbEntity
  8
F.Mask
  6
CONTINUOUS
100
AcDbLine
 10
96.0432939999999888
 20
-99.4130779999999987
 30
0
 11
96.1198749999999933
 21
-99.0280789999999911
 31
0
  0
LINE
  5
5A
330
1B
100
AcDbEntity
  8
F.Mask
  6
CONTINUOUS
100
AcDbLine
 10
96.1198749999999933
 20
-99.0280789999999911
 30
0
 11
96.2338239999999985
 21
-98.6524409999999961
 31
0
  0
LINE
  5
5B
330
1B
100
AcDbEntity
  8
F.Mask
  6
CONTINUOUS
100
AcDbLine
 10
96.2338239999999985
 20
-98.6524409999999961
 30
0
 11
96.3840429999999913
 21
-98.2897799999999933
 31
0
  0
LINE
  5
5C
330
1B
100
AcDbEntity
  8
F.Mask
  6
CONTINUOUS
100
AcDbLine
 10
96.3840429999999913
 20
-98.2897799999999933
 30
0
 11
96.5690859999999986
 21
-97.9435889999999887
 31
0
  0
LINE
  5
5D
330
1B
100
AcDbEntity
  8
F.Mask
  6
CONTINUOUS
100
AcDbLine
 10
96.5690859999999986
 20
-97.9435889999999887
 30
0
 11
96.787169999999989
 21
-97.6172029999999893
 31
0
  0
LINE
  5
5E
330
1B
100
AcDbEntity
  8
F.Mask
  6
CONTINUOUS
100
AcDbLine
 10
96.787169999999989
 20
-97.6172029999999893
 30
0
 11
97.0361949999999922
 21
-97.3137639999999919
 31
0
  0
LINE
  5
5F
330
1B
100
AcDbEntity
  8
F.Mask
  6
CONTINUOUS
100
AcDbLine
 10
97.0361949999999922
 20
-97.3137639999999919
 30
0
 11
97.3137639999999919
 21
-97.0361949999999922
 31
0
  0
LINE
  5
60
330
1B
100
AcDbEntity
  8
F.Mask
  6
CONTINUOUS
100
AcDbLine
 10
97.3137639999999919
 20
-97.0361949999999922
 30
0
 11
97.6172029999999893
 21
-96.787169999999989
 31
0
  0
LINE
  5
61
330
1B
100
AcDbEntity
  8
F.Mask
  6
CONTINUOUS
100
AcDbLine
 10
97.6172029999999893
 20
-96.787169999999989
 30
0
 11
97.9435889999999887
 21
-96.5690859999999986
 31
0
  0
LINE
  5
62
330
1B
100
AcDbEntity
  8
F.Mask
  6
CONTINUOUS
100
AcDbLine
 10
97.9435889999999887
 20
-96.5690859999999986
 30
0
 11
98.2897799999999933
 21
-96.3840429999999913
 31
0
  0
LINE
  5
63
330
1B
100
AcDbEntity
  8
F.Mask
  6
CONTINUOUS
100
AcDbLine
 10
98.2897799999999933
 20
-96.3840429999999913
 30
0
 11
98.6524409999999961
 21
-96.2338239999999985
 31
0
  0
LINE
  5
64
330
1B
100
AcDbEntity
  8
F.Mask
  6
CONTINUOUS
100
AcDbLine
 10
98.6524409999999961
 20
-96.2338239999999985
 30
0
 11
99.0280789999999911
 21
-96.1198749999999933
 31
0
  0
LINE
  5
65
330
1B
100
AcDbEntity
  8
F.Mask
  6
CONTINUOUS
100
AcDbLine
 10
99.0280789999999911
 20
-96.1198749999999933
 30
0
 11
99.4130779999999987
 21
-96.0432939999999888
 31
0
  0
LINE
  5
66
330
1B
100
AcDbEntity
  8
F.Mask
  6
CONTINUOUS
100
AcDbLine
 10
99.4130779999999987
 20
-96.0432939999999888
 30
0
 11
99.8037289999999899
 21
-96.0048180000000002
 31
0
  0
LINE
  5
67
330
1B
100
AcDbEntity
  8
F.Mask
  6
CONTINUOUS
100
AcDbLine
 10
99.8037289999999899
 20
-96.0048180000000002
 30
0
 11
100.1962709999999959
 21
-96.0048180000000002
 31
0
  0
LINE
  5
68
330
1B
100
AcDbEntity
  8
F.Mask
  6
CONTINUOUS
100
AcDbLine
 10
100.1962709999999959
 20
-96.0048180000000002
 30
0
 11
100.5869220000000013
 21
-96.0432939999999888
 31
0
  0
LINE
  5
69
330
1B
100
AcDbEntity
  8
Edge.Cuts
  6
CONTINUOUS
100
AcDbLine
 10
115.0095669999999899
 20
-84.976902999999993
 30
0
 11
115.0230969999999928
 21
-84.9904329999999959
 31
0
  0
LINE
  5
6A
330
1B
100
AcDbEntity
  8
Edge.Cuts
  6
CONTINUOUS
100
AcDbLine
 10
115.0230969999999928
 20
-84.9904329999999959
 30
0
 11
115.0249999999999915
 21
-85.
 31
0
  0
LINE
  5
6B
330
1B
100
AcDbEntity
  8
Edge.Cuts
  6
CONTINUOUS
100
AcDbLine
 10
115.0249999999999915
 20
-85.
 30
0
 11
115.0249999999999915
 21
-115.
 31
0
  0
LINE
  5
6C
330
1B
100
AcDbEntity
  8
Edge.Cuts
  6
CONTINUOUS
100
AcDbLine
 10
115.0249999999999915
 20
-115.
 30
0
 11
115.0230969999999928
 21
-115.0095669999999899
 31
0
  0
LINE
  5
6D
330
1B
100
AcDbEntity
  8
Edge.Cuts
  6
CONTINUOUS
100
AcDbLine
 10
115.0230969999999928
 20
-115.0095669999999899
 30
0
 11
115.0095669999999899
 21
-115.0230969999999928
 31
0
  0
LINE
  5
6E
330
1B
100
AcDbEntity
  8
Edge.Cuts
  6
CONTINUOUS
100
AcDbLine
 10
115.0095669999999899
 20
-115.0230969999999928
 30
0
 11
115.
 21
-115.0249999999999915
 31
0
  0
LINE
  5
6F
330
1B
100
AcDbEntity
  8
Edge.Cuts
  6
CONTINUOUS
100
AcDbLine
 10
115.
 20
-115.0249999999999915
 30
0
 11
85.
 21
-115.0249999999999915
 31
0
  0
LINE
  5
70
330
1B
100
AcDbEntity
  8
Edge.Cuts
  6
CONTINUOUS
100
AcDbLine
 10
85.
 20
-115.0249999999999915
 30
0
 11
84.9904329999999959
 21
-115.0230969999999928
 31
0
  0
LINE
  5
71
330
1B
100
AcDbEntity
  8
Edge.Cuts
  6
CONTINUOUS
100
AcDbLine
 10
84.9904329999999959
 20
-115.0230969999999928
 30
0
 11
84.976902999999993
 21
-115.0095669999999899
 31
0
  0
LINE
  5
72
330
1B
100
AcDbEntity
  8
Edge.Cuts
  6
CONTINUOUS
100
AcDbLine
 10
84.976902999999993
 20
-115.0095669999999899
 30
0
 11
84.9749999999999943
 21
-115.
 31
0
  0
LINE
  5
73
330
1B
100
AcDbEntity
  8
Edge.Cuts
  6
CONTINUOUS
100
AcDbLine
 10
84.9749999999999943
 20
-115.
 30
0
 11
84.9749999999999943
 21
-85.
 31
0
  0
LINE
  5
74
330
1B
100
AcDbEntity
  8
Edge.Cuts
  6
CONTINUOUS
100
AcDbLine
 10
84.9749999999999943
 20
-85.
 30
0
 11
84.976902999999993
 21
-84.9904329999999959
 31
0
  0
LINE
  5
75
330
1B
100
AcDbEntity
  8
Edge.Cuts
  6
CONTINUOUS
100
AcDbLine
 10
84.976902999999993
 20
-84.9904329999999959
 30
0
 11
84.9904329999999959
 21
-84.976902999999993
 31
0
  0
LINE
  5
76
330
1B
100
AcDbEntity
  8
Edge.Cuts
  6
CONTINUOUS
100
AcDbLine
 10
84.9904329999999959
 20
-84.976902999999993
 30
0
 11
85.
 21
-84.9749999999999943
 31
0
  0
LINE
  5
77
330
1B
100
AcDbEntity
  8
Edge.Cuts
  6
CONTINUOUS
100
AcDbLine
 10
85.
 20
-84.9749999999999943
 30
0
 11
115.
 21
-84.9749999999999943
 31
0
  0
LINE
  5
78
330
1B
100
AcDbEntity
  8
Edge.Cuts
  6
CONTINUOUS
100
AcDbLine
 10
115.
 20
-84.9749999999999943
 30
0
 11
115.0095669999999899
 21
-84.976902999999993
 31
0
  0
LINE
  5
79
330
1B
100
AcDbEntity
  8
Edge.Cuts
  6
CONTINUOUS
100
AcDbLine
 10
85.0249999999999915
 20
-85.0249999999999915
 30
0
 11
85.0249999999999915
 21
-114.9749999999999943
 31
0
  0
LINE
  5
7A
330
1B
100
AcDbEntity
  8
Edge.Cuts
  6
CONTINUOUS
100
AcDbLine
 10
85.0249999999999915
 20
-114.9749999999999943
 30
0
 11
114.9749999999999943
 21
-114.9749999999999943
 31
0
  0
LINE
  5
7B
330
1B
100
AcDbEntity
  8
Edge.Cuts
  6
CONTINUOUS
100
AcDbLine
 10
114.9749999999999943
 20
-114.9749999999999943
 30
0
 11
114.9749999999999943
 21
-85.0249999999999915
 31
0
  0
LINE
  5
7C
330
1B
100
AcDbEntity
  8
Edge.Cuts
  6
CONTINUOUS
100
AcDbLine
 10
114.9749999999999943
 20
-85.0249999999999915
 30
0
 11
85.0249999999999915
 21
-85.0249999999999915
 31
0
  0
ENDSEC
  0
SECTION
  2
OBJECTS
  0
DICTIONARY
  5
21
330
0
100
AcDbDictionary
281
1
  3
ACAD_GROUP
350
7D
  3
ACAD_LAYOUT
350
22
  3
ACAD_PLOTSTYLENAME
350
11
  0
DICTIONARY
  5
7D
330
21
100
AcDbDictionary
281
1
  0
ACDBDICTIONARYWDFLT
  5
11
330
21
100
AcDbDictionary
281
1
  3
Normal
350
10
100
AcDbDictionaryWithDefault
340
10
  0
ACDBPLACEHOLDER
  5
10
330
11
  0
DICTIONARY
  5
22
330
21
100
AcDbDictionary
281
1
  3
Model
350
1E
  3
Layout1
350
1F
  3
Layout2
350
20
  0
LAYOUT
  5
1E
330
22
100
AcDbPlotSettings
  1

  2
none_device
  4
A3
  6

 40
0.0
 41
0.0
 42
0.0
 43
0.0
 44
420.0
 45
297.0
 46
0.0
 47
0.0
 48
0.0
 49
0.0
140
0.0
141
0.0
142
1.0
143
1.0
 70
1024
 72
1
 73
0
 74
5
  7

 75
16
 76
0
 77
2
 78
300
147
1.0
148
0.0
149
0.0
100
AcDbLayout
  1
Model
 70
1
 71
0
 10
0.0
 20
0.0
 11
420.0
 21
297.0
 12
0.0
 22
0.0
 32
0.0
 14
1e+20
 24
1e+20
 34
1e+20
 15
-1e+20
 25
-1e+20
 35
-1e+20
146
0.0
 13
0.0
 23
0.0
 33
0.0
 16
1.0
 26
0.0
 36
0.0
 17
0.0
 27
1.0
 37
0.0
 76
0
330
1B
  0
LAYOUT
  5
1F
330
22
100
AcDbPlotSettings
  1

  2
none_device
  4
A3
  6

 40
0.0
 41
0.0
 42
0.0
 43
0.0
 44
420.0
 45
297.0
 46
0.0
 47
0.0
 48
0.0
 49
0.0
140
0.0
141
0.0
142
1.0
143
1.0
 70
0
 72
1
 73
0
 74
5
  7

 75
16
 76
0
 77
2
 78
300
147
1.0
148
0.0
149
0.0
100
AcDbLayout
  1
Layout1
 70
1
 71
1
 10
0.0
 20
0.0
 11
420.0
 21
297.0
 12
0.0
 22
0.0
 32
0.0
 14
1e+20
 24
1e+20
 34
1e+20
 15
-1e+20
 25
-1e+20
 35
-1e+20
146
0.0
 13
0.0
 23
0.0
 33
0.0
 16
1.0
 26
0.0
 36
0.0
 17
0.0
 27
1.0
 37
0.0
 76
0
330
1C
  0
LAYOUT
  5
20
330
22
100
AcDbPlotSettings
  1

  2
none_device
  4
A3
  6

 40
0.0
 41
0.0
 42
0.0
 43
0.0
 44
420.0
 45
297.0
 46
0.0
 47
0.0
 48
0.0
 49
0.0
140
0.0
141
0.0
142
1.0
143
1.0
 70
0
 72
1
 73
0
 74
5
  7

 75
16
 76
0
 77
2
 78
300
147
1.0
148
0.0
149
0.0
100
AcDbLayout
  1
Layout2
 70
1
 71
2
 10
0.0
 20
0.0
 11
420.0
 21
297.0
 12
0.0
 22
0.0
 32
0.0
 14
1e+20
 24
1e+20
 34
1e+20
 15
-1e+20
 25
-1e+20
 35
-1e+20
146
0.0
 13
0.0
 23
0.0
 33
0.0
 16
1.0
 26
0.0
 36
0.0
 17
0.0
 27
1.0
 37
0.0
 76
0
330
1D
  0
ENDSEC
  0
EOF
