  0
SECTION
  2
HEADER
  9
$ACADVER
  1
AC1018
  9
$HANDSEED
  5
FFFFFFFF
  9
$ANGBASE
  50
0.0
  9
$ANGDIR
  70
1
  9
$MEASUREMENT
  70
1
  9
$INSUNITS
  70
4
  9
$EXTMIN
 10
97.972500000
 20
-127.027500000
 30
0.0
  9
$EXTMAX
 10
142.027500000
 20
-97.972500000
 30
0.0
  9
$LIMMIN
 10
97.972500000
 20
-127.027500000
  9
$LIMMAX
 10
142.027500000
 20
-97.972500000
  0
ENDSEC
  0
SECTION
  2
TABLES
  0
TABLE
  2
APPID
  5
1
330
0
100
AcDbSymbolTable
 70
1
  0
APPID
  5
2
330
1
100
AcDbSymbolTableRecord
100
AcDbRegAppTableRecord
  2
ACAD
 70
0
  0
ENDTAB
  0
TABLE
  2
LTYPE
  5
3
330
0
100
AcDbSymbolTable
 70
6
  0
LTYPE
  5
4
330
3
100
AcDbSymbolTableRecord
100
AcDbLinetypeTableRecord
  2
ByBlock
 70
0
  3

 72
65
 73
0
 40
0
  0
LTYPE
  5
5
330
3
100
AcDbSymbolTableRecord
100
AcDbLinetypeTableRecord
  2
ByLayer
 70
0
  3

 72
65
 73
0
 40
0
  0
LTYPE
  5
6
330
3
100
AcDbSymbolTableRecord
100
AcDbLinetypeTableRecord
  2
CONTINUOUS
 70
0
  3
Solid line
 72
65
 73
0
 40
0
  0
LTYPE
  5
7
330
3
100
AcDbSymbolTableRecord
100
AcDbLinetypeTableRecord
  2
DASHDOT
 70
0
  3
Dash Dot ____ _ ____ _
 72
65
 73
4
 40
2
 49
1.25
 74
0
 49
-0.25
 74
0
 49
0.25
 74
0
 49
-0.25
 74
0
  0
LTYPE
  5
8
330
3
100
AcDbSymbolTableRecord
100
AcDbLinetypeTableRecord
  2
DASHED
 70
0
  3
Dashed __ __ __ __ __
 72
65
 73
2
 40
0.75
 49
0.5
 74
0
 49
-0.25
 74
0
  0
LTYPE
  5
9
330
3
100
AcDbSymbolTableRecord
100
AcDbLinetypeTableRecord
  2
DOTTED
 70
0
  3
Dotted .  .  .  .
 72
65
 73
2
 40
0.2
 49
0.0
 74
0
 49
-0.2
 74
0
  0
ENDTAB
  0
TABLE
  2
STYLE
  5
A
330
0
100
AcDbSymbolTable
 70
4
  0
STYLE
  5
B
330
A
100
AcDbSymbolTableRecord
100
AcDbTextStyleTableRecord
  2
KICAD
 70
0
 40
0
 41
1
 42
1
 50
0
 71
0
  3
isocp.shx
  0
STYLE
  5
C
330
A
100
AcDbSymbolTableRecord
100
AcDbTextStyleTableRecord
  2
KICADB
 70
0
 40
0
 41
1
 42
1
 50
0
 71
0
  3
isocp.shx
  0
STYLE
  5
D
330
A
100
AcDbSymbolTableRecord
100
AcDbTextStyleTableRecord
  2
KICADI
 70
0
 40
0
 41
1
 42
1
 50
15
 71
0
  3
isocp.shx
  0
STYLE
  5
E
330
A
100
AcDbSymbolTableRecord
100
AcDbTextStyleTableRecord
  2
KICADBI
 70
0
 40
0
 41
1
 42
1
 50
15
 71
0
  3
isocp.shx
  0
ENDTAB
  0
TABLE
  2
LAYER
  5
F
330
0
100
AcDbSymbolTable
 70
3
  0
LAYER
  5
12
330
F
100
AcDbSymbolTableRecord
100
AcDbLayerTableRecord
  2
0
 70
0
 62
7
  6
CONTINUOUS
390
10
  0
LAYER
  5
13
330
F
100
AcDbSymbolTableRecord
100
AcDbLayerTableRecord
  2
F.Mask
 70
0
 62
201
420
14181631
  6
CONTINUOUS
390
10
  0
LAYER
  5
14
330
F
100
AcDbSymbolTableRecord
100
AcDbLayerTableRecord
  2
Edge.Cuts
 70
0
 62
254
420
13685453
  6
CONTINUOUS
390
10
  0
ENDTAB
  0
TABLE
  2
VPORT
  5
15
330
0
100
AcDbSymbolTable
 70
1
  0
VPORT
  5
F0000000
330
15
100
AcDbSymbolTableRecord
100
AcDbViewportTableRecord
  2
*Active
 70
0
 10
0.0
 20
0.0
 11
1.0
 21
1.0
 12
120.000000000
 22
-112.500000000
 13
0.0
 23
0.0
 14
0.5
 24
0.5
 15
0.5
 25
0.5
 16
0.0
 26
0.0
 36
1.0
 17
0.0
 27
0.0
 37
0.0
 40
29.055000000
 41
1.6
 42
50.0
 43
0.0
 44
0.0
 50
0.0
 51
0.0
 71
0
 72
1000
 73
1
 74
3
 75
0
 76
0
 77
0
 78
0
281
0
 65
0
146
0.0
  0
ENDTAB
  0
TABLE
  2
VIEW
  5
16
330
0
100
AcDbSymbolTable
 70
0
  0
ENDTAB
  0
TABLE
  2
UCS
  5
17
330
0
100
AcDbSymbolTable
 70
0
  0
ENDTAB
  0
TABLE
  2
DIMSTYLE
  5
18
330
0
100
AcDbSymbolTable
 70
1
100
AcDbDimStyleTable
 71
0
  0
DIMSTYLE
105
19
330
18
100
AcDbSymbolTableRecord
100
AcDbDimStyleTableRecord
  2
Standard
 70
0
  0
ENDTAB
  0
TABLE
  2
BLOCK_RECORD
  5
1A
330
0
100
AcDbSymbolTable
 70
3
  0
BLOCK_RECORD
  5
1B
330
1A
100
AcDbSymbolTableRecord
100
AcDbBlockTableRecord
  2
*Model_Space
340
1E
 70
0
280
1
281
0
  0
BLOCK_RECORD
  5
1C
330
1A
100
AcDbSymbolTableRecord
100
AcDbBlockTableRecord
  2
*Paper_Space
340
1F
 70
0
280
1
281
0
  0
BLOCK_RECORD
  5
1D
330
1A
100
AcDbSymbolTableRecord
100
AcDbBlockTableRecord
  2
*Paper_Space0
340
20
 70
0
280
1
281
0
  0
ENDTAB
  0
ENDSEC
  0
SECTION
  2
BLOCKS
  0
BLOCK
  5
23
330
1B
100
AcDbEntity
  8
0
100
AcDbBlockBegin
  2
*Model_Space
 70
0
 10
0.0
 20
0.0
 30
0.0
  3
*Model_Space
  1

  0
ENDBLK
  5
24
330
1B
100
AcDbEntity
  8
0
100
AcDbBlockEnd
  0
BLOCK
  5
25
330
1C
100
AcDbEntity
 67
1
  8
0
100
AcDbBlockBegin
  2
*Paper_Space
 70
0
 10
0.0
 20
0.0
 30
0.0
  3
*Paper_Space
  1

  0
ENDBLK
  5
26
330
1C
100
AcDbEntity
 67
1
  8
0
100
AcDbBlockEnd
  0
BLOCK
  5
27
330
1D
100
AcDbEntity
 67
1
  8
0
100
AcDbBlockBegin
  2
*Paper_Space0
 70
0
 10
0.0
 20
0.0
 30
0.0
  3
*Paper_Space0
  1

  0
ENDBLK
  5
28
330
1D
100
AcDbEntity
 67
1
  8
0
100
AcDbBlockEnd
  0
ENDSEC
  0
SECTION
  2
ENTITIES
  0
LINE
  5
29
330
1B
100
AcDbEntity
  8
F.Mask
  6
CONTINUOUS
100
AcDbLine
 10
129.145670999999993
 20
-119.2190299999999894
 30
0
 11
129.2267769999999985
 21
-119.2732230000000015
 31
0
  0
LINE
  5
2A
330
1B
100
AcDbEntity
  8
F.Mask
  6
CONTINUOUS
100
AcDbLine
 10
129.2267769999999985
 20
-119.2732230000000015
 30
0
 11
129.2809699999999964
 21
-119.3543289999999928
 31
0
  0
LINE
  5
2B
330
1B
100
AcDbEntity
  8
F.Mask
  6
CONTINUOUS
100
AcDbLine
 10
129.2809699999999964
 20
-119.3543289999999928
 30
0
 11
129.2999999999999829
 21
-119.4499999999999886
 31
0
  0
LINE
  5
2C
330
1B
100
AcDbEntity
  8
F.Mask
  6
CONTINUOUS
100
AcDbLine
 10
129.2999999999999829
 20
-119.4499999999999886
 30
0
 11
129.2999999999999829
 21
-120.5499999999999972
 31
0
  0
LINE
  5
2D
330
1B
100
AcDbEntity
  8
F.Mask
  6
CONTINUOUS
100
AcDbLine
 10
129.2999999999999829
 20
-120.5499999999999972
 30
0
 11
129.2809699999999964
 21
-120.645670999999993
 31
0
  0
LINE
  5
2E
330
1B
100
AcDbEntity
  8
F.Mask
  6
CONTINUOUS
100
AcDbLine
 10
129.2809699999999964
 20
-120.645670999999993
 30
0
 11
129.2267769999999985
 21
-120.7267769999999985
 31
0
  0
LINE
  5
2F
330
1B
100
AcDbEntity
  8
F.Mask
  6
CONTINUOUS
100
AcDbLine
 10
129.2267769999999985
 20
-120.7267769999999985
 30
0
 11
129.145670999999993
 21
-120.7809699999999964
 31
0
  0
LINE
  5
30
330
1B
100
AcDbEntity
  8
F.Mask
  6
CONTINUOUS
100
AcDbLine
 10
129.145670999999993
 20
-120.7809699999999964
 30
0
 11
129.0499999999999829
 21
-120.7999999999999972
 31
0
  0
LINE
  5
31
330
1B
100
AcDbEntity
  8
F.Mask
  6
CONTINUOUS
100
AcDbLine
 10
129.0499999999999829
 20
-120.7999999999999972
 30
0
 11
126.5499999999999972
 21
-120.7999999999999972
 31
0
  0
LINE
  5
32
330
1B
100
AcDbEntity
  8
F.Mask
  6
CONTINUOUS
100
AcDbLine
 10
126.5499999999999972
 20
-120.7999999999999972
 30
0
 11
126.4543290000000013
 21
-120.7809699999999964
 31
0
  0
LINE
  5
33
330
1B
100
AcDbEntity
  8
F.Mask
  6
CONTINUOUS
100
AcDbLine
 10
126.4543290000000013
 20
-120.7809699999999964
 30
0
 11
126.3732229999999959
 21
-120.7267769999999985
 31
0
  0
LINE
  5
34
330
1B
100
AcDbEntity
  8
F.Mask
  6
CONTINUOUS
100
AcDbLine
 10
126.3732229999999959
 20
-120.7267769999999985
 30
0
 11
126.3190299999999979
 21
-120.645670999999993
 31
0
  0
LINE
  5
35
330
1B
100
AcDbEntity
  8
F.Mask
  6
CONTINUOUS
100
AcDbLine
 10
126.3190299999999979
 20
-120.645670999999993
 30
0
 11
126.2999999999999972
 21
-120.5499999999999972
 31
0
  0
LINE
  5
36
330
1B
100
AcDbEntity
  8
F.Mask
  6
CONTINUOUS
100
AcDbLine
 10
126.2999999999999972
 20
-120.5499999999999972
 30
0
 11
126.2999999999999972
 21
-119.4499999999999886
 31
0
  0
LINE
  5
37
330
1B
100
AcDbEntity
  8
F.Mask
  6
CONTINUOUS
100
AcDbLine
 10
126.2999999999999972
 20
-119.4499999999999886
 30
0
 11
126.3190299999999979
 21
-119.3543289999999928
 31
0
  0
LINE
  5
38
330
1B
100
AcDbEntity
  8
F.Mask
  6
CONTINUOUS
100
AcDbLine
 10
126.3190299999999979
 20
-119.3543289999999928
 30
0
 11
126.3732229999999959
 21
-119.2732230000000015
 31
0
  0
LINE
  5
39
330
1B
100
AcDbEntity
  8
F.Mask
  6
CONTINUOUS
100
AcDbLine
 10
126.3732229999999959
 20
-119.2732230000000015
 30
0
 11
126.4543290000000013
 21
-119.2190299999999894
 31
0
  0
LINE
  5
3A
330
1B
100
AcDbEntity
  8
F.Mask
  6
CONTINUOUS
100
AcDbLine
 10
126.4543290000000013
 20
-119.2190299999999894
 30
0
 11
126.5499999999999972
 21
-119.1999999999999886
 31
0
  0
LINE
  5
3B
330
1B
100
AcDbEntity
  8
F.Mask
  6
CONTINUOUS
100
AcDbLine
 10
126.5499999999999972
 20
-119.1999999999999886
 30
0
 11
129.0499999999999829
 21
-119.1999999999999886
 31
0
  0
LINE
  5
3C
330
1B
100
AcDbEntity
  8
F.Mask
  6
CONTINUOUS
100
AcDbLine
 10
129.0499999999999829
 20
-119.1999999999999886
 30
0
 11
129.145670999999993
 21
-119.2190299999999894
 31
0
  0
LINE
  5
3D
330
1B
100
AcDbEntity
  8
F.Mask
  6
CONTINUOUS
100
AcDbLine
 10
133.5456709999999987
 20
-119.2190299999999894
 30
0
 11
133.6267770000000041
 21
-119.2732230000000015
 31
0
  0
LINE
  5
3E
330
1B
100
AcDbEntity
  8
F.Mask
  6
CONTINUOUS
100
AcDbLine
 10
133.6267770000000041
 20
-119.2732230000000015
 30
0
 11
133.6809700000000021
 21
-119.3543289999999928
 31
0
  0
LINE
  5
3F
330
1B
100
AcDbEntity
  8
F.Mask
  6
CONTINUOUS
100
AcDbLine
 10
133.6809700000000021
 20
-119.3543289999999928
 30
0
 11
133.6999999999999886
 21
-119.4499999999999886
 31
0
  0
LINE
  5
40
330
1B
100
AcDbEntity
  8
F.Mask
  6
CONTINUOUS
100
AcDbLine
 10
133.6999999999999886
 20
-119.4499999999999886
 30
0
 11
133.6999999999999886
 21
-120.5499999999999972
 31
0
  0
LINE
  5
41
330
1B
100
AcDbEntity
  8
F.Mask
  6
CONTINUOUS
100
AcDbLine
 10
133.6999999999999886
 20
-120.5499999999999972
 30
0
 11
133.6809700000000021
 21
-120.645670999999993
 31
0
  0
LINE
  5
42
330
1B
100
AcDbEntity
  8
F.Mask
  6
CONTINUOUS
100
AcDbLine
 10
133.6809700000000021
 20
-120.645670999999993
 30
0
 11
133.6267770000000041
 21
-120.7267769999999985
 31
0
  0
LINE
  5
43
330
1B
100
AcDbEntity
  8
F.Mask
  6
CONTINUOUS
100
AcDbLine
 10
133.6267770000000041
 20
-120.7267769999999985
 30
0
 11
133.5456709999999987
 21
-120.7809699999999964
 31
0
  0
LINE
  5
44
330
1B
100
AcDbEntity
  8
F.Mask
  6
CONTINUOUS
100
AcDbLine
 10
133.5456709999999987
 20
-120.7809699999999964
 30
0
 11
133.4499999999999886
 21
-120.7999999999999972
 31
0
  0
LINE
  5
45
330
1B
100
AcDbEntity
  8
F.Mask
  6
CONTINUOUS
100
AcDbLine
 10
133.4499999999999886
 20
-120.7999999999999972
 30
0
 11
130.9499999999999886
 21
-120.7999999999999972
 31
0
  0
LINE
  5
46
330
1B
100
AcDbEntity
  8
F.Mask
  6
CONTINUOUS
100
AcDbLine
 10
130.9499999999999886
 20
-120.7999999999999972
 30
0
 11
130.854329000000007
 21
-120.7809699999999964
 31
0
  0
LINE
  5
47
330
1B
100
AcDbEntity
  8
F.Mask
  6
CONTINUOUS
100
AcDbLine
 10
130.854329000000007
 20
-120.7809699999999964
 30
0
 11
130.7732230000000015
 21
-120.7267769999999985
 31
0
  0
LINE
  5
48
330
1B
100
AcDbEntity
  8
F.Mask
  6
CONTINUOUS
100
AcDbLine
 10
130.7732230000000015
 20
-120.7267769999999985
 30
0
 11
130.7190300000000036
 21
-120.645670999999993
 31
0
  0
LINE
  5
49
330
1B
100
AcDbEntity
  8
F.Mask
  6
CONTINUOUS
100
AcDbLine
 10
130.7190300000000036
 20
-120.645670999999993
 30
0
 11
130.6999999999999886
 21
-120.5499999999999972
 31
0
  0
LINE
  5
4A
330
1B
100
AcDbEntity
  8
F.Mask
  6
CONTINUOUS
100
AcDbLine
 10
130.6999999999999886
 20
-120.5499999999999972
 30
0
 11
130.6999999999999886
 21
-119.4499999999999886
 31
0
  0
LINE
  5
4B
330
1B
100
AcDbEntity
  8
F.Mask
  6
CONTINUOUS
100
AcDbLine
 10
130.6999999999999886
 20
-119.4499999999999886
 30
0
 11
130.7190300000000036
 21
-119.3543289999999928
 31
0
  0
LINE
  5
4C
330
1B
100
AcDbEntity
  8
F.Mask
  6
CONTINUOUS
100
AcDbLine
 10
130.7190300000000036
 20
-119.3543289999999928
 30
0
 11
130.7732230000000015
 21
-119.2732230000000015
 31
0
  0
LINE
  5
4D
330
1B
100
AcDbEntity
  8
F.Mask
  6
CONTINUOUS
100
AcDbLine
 10
130.7732230000000015
 20
-119.2732230000000015
 30
0
 11
130.854329000000007
 21
-119.2190299999999894
 31
0
  0
LINE
  5
4E
330
1B
100
AcDbEntity
  8
F.Mask
  6
CONTINUOUS
100
AcDbLine
 10
130.854329000000007
 20
-119.2190299999999894
 30
0
 11
130.9499999999999886
 21
-119.1999999999999886
 31
0
  0
LINE
  5
4F
330
1B
100
AcDbEntity
  8
F.Mask
  6
CONTINUOUS
100
AcDbLine
 10
130.9499999999999886
 20
-119.1999999999999886
 30
0
 11
133.4499999999999886
 21
-119.1999999999999886
 31
0
  0
LINE
  5
50
330
1B
100
AcDbEntity
  8
F.Mask
  6
CONTINUOUS
100
AcDbLine
 10
133.4499999999999886
 20
-119.1999999999999886
 30
0
 11
133.5456709999999987
 21
-119.2190299999999894
 31
0
  0
LINE
  5
51
330
1B
100
AcDbEntity
  8
F.Mask
  6
CONTINUOUS
100
AcDbLine
 10
124.8361039999999917
 20
-119.3421269999999907
 30
0
 11
124.9090989999999977
 21
-119.3909009999999995
 31
0
  0
LINE
  5
52
330
1B
100
AcDbEntity
  8
F.Mask
  6
CONTINUOUS
100
AcDbLine
 10
124.9090989999999977
 20
-119.3909009999999995
 30
0
 11
124.9578729999999922
 21
-119.4638959999999912
 31
0
  0
LINE
  5
53
330
1B
100
AcDbEntity
  8
F.Mask
  6
CONTINUOUS
100
AcDbLine
 10
124.9578729999999922
 20
-119.4638959999999912
 30
0
 11
124.9749999999999943
 21
-119.5499999999999972
 31
0
  0
LINE
  5
54
330
1B
100
AcDbEntity
  8
F.Mask
  6
CONTINUOUS
100
AcDbLine
 10
124.9749999999999943
 20
-119.5499999999999972
 30
0
 11
124.9749999999999943
 21
-120.
 31
0
  0
LINE
  5
55
330
1B
100
AcDbEntity
  8
F.Mask
  6
CONTINUOUS
100
AcDbLine
 10
124.9749999999999943
 20
-120.
 30
0
 11
124.9578729999999922
 21
-120.0861039999999917
 31
0
  0
LINE
  5
56
330
1B
100
AcDbEntity
  8
F.Mask
  6
CONTINUOUS
100
AcDbLine
 10
124.9578729999999922
 20
-120.0861039999999917
 30
0
 11
124.9090989999999977
 21
-120.1590989999999977
 31
0
  0
LINE
  5
57
330
1B
100
AcDbEntity
  8
F.Mask
  6
CONTINUOUS
100
AcDbLine
 10
124.9090989999999977
 20
-120.1590989999999977
 30
0
 11
124.8361039999999917
 21
-120.2078729999999922
 31
0
  0
LINE
  5
58
330
1B
100
AcDbEntity
  8
F.Mask
  6
CONTINUOUS
100
AcDbLine
 10
124.8361039999999917
 20
-120.2078729999999922
 30
0
 11
124.75
 21
-120.2249999999999943
 31
0
  0
LINE
  5
59
330
1B
100
AcDbEntity
  8
F.Mask
  6
CONTINUOUS
100
AcDbLine
 10
124.75
 20
-120.2249999999999943
 30
0
 11
124.25
 21
-120.2249999999999943
 31
0
  0
LINE
  5
5A
330
1B
100
AcDbEntity
  8
F.Mask
  6
CONTINUOUS
100
AcDbLine
 10
124.25
 20
-120.2249999999999943
 30
0
 11
124.163895999999994
 21
-120.2078729999999922
 31
0
  0
LINE
  5
5B
330
1B
100
AcDbEntity
  8
F.Mask
  6
CONTINUOUS
100
AcDbLine
 10
124.163895999999994
 20
-120.2078729999999922
 30
0
 11
124.0909009999999881
 21
-120.1590989999999977
 31
0
  0
LINE
  5
5C
330
1B
100
AcDbEntity
  8
F.Mask
  6
CONTINUOUS
100
AcDbLine
 10
124.0909009999999881
 20
-120.1590989999999977
 30
0
 11
124.0421269999999936
 21
-120.0861039999999917
 31
0
  0
LINE
  5
5D
330
1B
100
AcDbEntity
  8
F.Mask
  6
CONTINUOUS
100
AcDbLine
 10
124.0421269999999936
 20
-120.0861039999999917
 30
0
 11
124.0249999999999915
 21
-120.
 31
0
  0
LINE
  5
5E
330
1B
100
AcDbEntity
  8
F.Mask
  6
CONTINUOUS
100
AcDbLine
 10
124.0249999999999915
 20
-120.
 30
0
 11
124.0249999999999915
 21
-119.5499999999999972
 31
0
  0
LINE
  5
5F
330
1B
100
AcDbEntity
  8
F.Mask
  6
CONTINUOUS
100
AcDbLine
 10
124.0249999999999915
 20
-119.5499999999999972
 30
0
 11
124.0421269999999936
 21
-119.4638959999999912
 31
0
  0
LINE
  5
60
330
1B
100
AcDbEntity
  8
F.Mask
  6
CONTINUOUS
100
AcDbLine
 10
124.0421269999999936
 20
-119.4638959999999912
 30
0
 11
124.0909009999999881
 21
-119.3909009999999995
 31
0
  0
LINE
  5
61
330
1B
100
AcDbEntity
  8
F.Mask
  6
CONTINUOUS
100
AcDbLine
 10
124.0909009999999881
 20
-119.3909009999999995
 30
0
 11
124.163895999999994
 21
-119.3421269999999907
 31
0
  0
LINE
  5
62
330
1B
100
AcDbEntity
  8
F.Mask
  6
CONTINUOUS
100
AcDbLine
 10
124.163895999999994
 20
-119.3421269999999907
 30
0
 11
124.25
 21
-119.3249999999999886
 31
0
  0
LINE
  5
63
330
1B
100
AcDbEntity
  8
F.Mask
  6
CONTINUOUS
100
AcDbLine
 10
124.25
 20
-119.3249999999999886
 30
0
 11
124.75
 21
-119.3249999999999886
 31
0
  0
LINE
  5
64
330
1B
100
AcDbEntity
  8
F.Mask
  6
CONTINUOUS
100
AcDbLine
 10
124.75
 20
-119.3249999999999886
 30
0
 11
124.8361039999999917
 21
-119.3421269999999907
 31
0
  0
LINE
  5
65
330
1B
100
AcDbEntity
  8
F.Mask
  6
CONTINUOUS
100
AcDbLine
 10
124.8361039999999917
 20
-117.7921269999999936
 30
0
 11
124.9090989999999977
 21
-117.8409009999999881
 31
0
  0
LINE
  5
66
330
1B
100
AcDbEntity
  8
F.Mask
  6
CONTINUOUS
100
AcDbLine
 10
124.9090989999999977
 20
-117.8409009999999881
 30
0
 11
124.9578729999999922
 21
-117.913895999999994
 31
0
  0
LINE
  5
67
330
1B
100
AcDbEntity
  8
F.Mask
  6
CONTINUOUS
100
AcDbLine
 10
124.9578729999999922
 20
-117.913895999999994
 30
0
 11
124.9749999999999943
 21
-118.
 31
0
  0
LINE
  5
68
330
1B
100
AcDbEntity
  8
F.Mask
  6
CONTINUOUS
100
AcDbLine
 10
124.9749999999999943
 20
-118.
 30
0
 11
124.9749999999999943
 21
-118.4499999999999886
 31
0
  0
LINE
  5
69
330
1B
100
AcDbEntity
  8
F.Mask
  6
CONTINUOUS
100
AcDbLine
 10
124.9749999999999943
 20
-118.4499999999999886
 30
0
 11
124.9578729999999922
 21
-118.5361039999999946
 31
0
  0
LINE
  5
6A
330
1B
100
AcDbEntity
  8
F.Mask
  6
CONTINUOUS
100
AcDbLine
 10
124.9578729999999922
 20
-118.5361039999999946
 30
0
 11
124.9090989999999977
 21
-118.6090990000000005
 31
0
  0
LINE
  5
6B
330
1B
100
AcDbEntity
  8
F.Mask
  6
CONTINUOUS
100
AcDbLine
 10
124.9090989999999977
 20
-118.6090990000000005
 30
0
 11
124.8361039999999917
 21
-118.657872999999995
 31
0
  0
LINE
  5
6C
330
1B
100
AcDbEntity
  8
F.Mask
  6
CONTINUOUS
100
AcDbLine
 10
124.8361039999999917
 20
-118.657872999999995
 30
0
 11
124.75
 21
-118.6749999999999972
 31
0
  0
LINE
  5
6D
330
1B
100
AcDbEntity
  8
F.Mask
  6
CONTINUOUS
100
AcDbLine
 10
124.75
 20
-118.6749999999999972
 30
0
 11
124.25
 21
-118.6749999999999972
 31
0
  0
LINE
  5
6E
330
1B
100
AcDbEntity
  8
F.Mask
  6
CONTINUOUS
100
AcDbLine
 10
124.25
 20
-118.6749999999999972
 30
0
 11
124.163895999999994
 21
-118.657872999999995
 31
0
  0
LINE
  5
6F
330
1B
100
AcDbEntity
  8
F.Mask
  6
CONTINUOUS
100
AcDbLine
 10
124.163895999999994
 20
-118.657872999999995
 30
0
 11
124.0909009999999881
 21
-118.6090990000000005
 31
0
  0
LINE
  5
70
330
1B
100
AcDbEntity
  8
F.Mask
  6
CONTINUOUS
100
AcDbLine
 10
124.0909009999999881
 20
-118.6090990000000005
 30
0
 11
124.0421269999999936
 21
-118.5361039999999946
 31
0
  0
LINE
  5
71
330
1B
100
AcDbEntity
  8
F.Mask
  6
CONTINUOUS
100
AcDbLine
 10
124.0421269999999936
 20
-118.5361039999999946
 30
0
 11
124.0249999999999915
 21
-118.4499999999999886
 31
0
  0
LINE
  5
72
330
1B
100
AcDbEntity
  8
F.Mask
  6
CONTINUOUS
100
AcDbLine
 10
124.0249999999999915
 20
-118.4499999999999886
 30
0
 11
124.0249999999999915
 21
-118.
 31
0
  0
LINE
  5
73
330
1B
100
AcDbEntity
  8
F.Mask
  6
CONTINUOUS
100
AcDbLine
 10
124.0249999999999915
 20
-118.
 30
0
 11
124.0421269999999936
 21
-117.913895999999994
 31
0
  0
LINE
  5
74
330
1B
100
AcDbEntity
  8
F.Mask
  6
CONTINUOUS
100
AcDbLine
 10
124.0421269999999936
 20
-117.913895999999994
 30
0
 11
124.0909009999999881
 21
-117.8409009999999881
 31
0
  0
LINE
  5
75
330
1B
100
AcDbEntity
  8
F.Mask
  6
CONTINUOUS
100
AcDbLine
 10
124.0909009999999881
 20
-117.8409009999999881
 30
0
 11
124.163895999999994
 21
-117.7921269999999936
 31
0
  0
LINE
  5
76
330
1B
100
AcDbEntity
  8
F.Mask
  6
CONTINUOUS
100
AcDbLine
 10
124.163895999999994
 20
-117.7921269999999936
 30
0
 11
124.25
 21
-117.7749999999999915
 31
0
  0
LINE
  5
77
330
1B
100
AcDbEntity
  8
F.Mask
  6
CONTINUOUS
100
AcDbLine
 10
124.25
 20
-117.7749999999999915
 30
0
 11
124.75
 21
-117.7749999999999915
 31
0
  0
LINE
  5
78
330
1B
100
AcDbEntity
  8
F.Mask
  6
CONTINUOUS
100
AcDbLine
 10
124.75
 20
-117.7749999999999915
 30
0
 11
124.8361039999999917
 21
-117.7921269999999936
 31
0
  0
LINE
  5
79
330
1B
100
AcDbEntity
  8
F.Mask
  6
CONTINUOUS
100
AcDbLine
 10
104.5956709999999958
 20
-115.1190299999999951
 30
0
 11
104.6767770000000013
 21
-115.173222999999993
 31
0
  0
LINE
  5
7A
330
1B
100
AcDbEntity
  8
F.Mask
  6
CONTINUOUS
100
AcDbLine
 10
104.6767770000000013
 20
-115.173222999999993
 30
0
 11
104.7309699999999992
 21
-115.2543289999999985
 31
0
  0
LINE
  5
7B
330
1B
100
AcDbEntity
  8
F.Mask
  6
CONTINUOUS
100
AcDbLine
 10
104.7309699999999992
 20
-115.2543289999999985
 30
0
 11
104.75
 21
-115.3499999999999943
 31
0
  0
LINE
  5
7C
330
1B
100
AcDbEntity
  8
F.Mask
  6
CONTINUOUS
100
AcDbLine
 10
104.75
 20
-115.3499999999999943
 30
0
 11
104.75
 21
-116.4499999999999886
 31
0
  0
LINE
  5
7D
330
1B
100
AcDbEntity
  8
F.Mask
  6
CONTINUOUS
100
AcDbLine
 10
104.75
 20
-116.4499999999999886
 30
0
 11
104.7309699999999992
 21
-116.5456709999999987
 31
0
  0
LINE
  5
7E
330
1B
100
AcDbEntity
  8
F.Mask
  6
CONTINUOUS
100
AcDbLine
 10
104.7309699999999992
 20
-116.5456709999999987
 30
0
 11
104.6767770000000013
 21
-116.6267769999999899
 31
0
  0
LINE
  5
7F
330
1B
100
AcDbEntity
  8
F.Mask
  6
CONTINUOUS
100
AcDbLine
 10
104.6767770000000013
 20
-116.6267769999999899
 30
0
 11
104.5956709999999958
 21
-116.6809699999999879
 31
0
  0
LINE
  5
80
330
1B
100
AcDbEntity
  8
F.Mask
  6
CONTINUOUS
100
AcDbLine
 10
104.5956709999999958
 20
-116.6809699999999879
 30
0
 11
104.5
 21
-116.6999999999999886
 31
0
  0
LINE
  5
81
330
1B
100
AcDbEntity
  8
F.Mask
  6
CONTINUOUS
100
AcDbLine
 10
104.5
 20
-116.6999999999999886
 30
0
 11
102.
 21
-116.6999999999999886
 31
0
  0
LINE
  5
82
330
1B
100
AcDbEntity
  8
F.Mask
  6
CONTINUOUS
100
AcDbLine
 10
102.
 20
-116.6999999999999886
 30
0
 11
101.9043289999999899
 21
-116.6809699999999879
 31
0
  0
LINE
  5
83
330
1B
100
AcDbEntity
  8
F.Mask
  6
CONTINUOUS
100
AcDbLine
 10
101.9043289999999899
 20
-116.6809699999999879
 30
0
 11
101.8232229999999987
 21
-116.6267769999999899
 31
0
  0
LINE
  5
84
330
1B
100
AcDbEntity
  8
F.Mask
  6
CONTINUOUS
100
AcDbLine
 10
101.8232229999999987
 20
-116.6267769999999899
 30
0
 11
101.7690300000000008
 21
-116.5456709999999987
 31
0
  0
LINE
  5
85
330
1B
100
AcDbEntity
  8
F.Mask
  6
CONTINUOUS
100
AcDbLine
 10
101.7690300000000008
 20
-116.5456709999999987
 30
0
 11
101.75
 21
-116.4499999999999886
 31
0
  0
LINE
  5
86
330
1B
100
AcDbEntity
  8
F.Mask
  6
CONTINUOUS
100
AcDbLine
 10
101.75
 20
-116.4499999999999886
 30
0
 11
101.75
 21
-115.3499999999999943
 31
0
  0
LINE
  5
87
330
1B
100
AcDbEntity
  8
F.Mask
  6
CONTINUOUS
100
AcDbLine
 10
101.75
 20
-115.3499999999999943
 30
0
 11
101.7690300000000008
 21
-115.2543289999999985
 31
0
  0
LINE
  5
88
330
1B
100
AcDbEntity
  8
F.Mask
  6
CONTINUOUS
100
AcDbLine
 10
101.7690300000000008
 20
-115.2543289999999985
 30
0
 11
101.8232229999999987
 21
-115.173222999999993
 31
0
  0
LINE
  5
89
330
1B
100
AcDbEntity
  8
F.Mask
  6
CONTINUOUS
100
AcDbLine
 10
101.8232229999999987
 20
-115.173222999999993
 30
0
 11
101.9043289999999899
 21
-115.1190299999999951
 31
0
  0
LINE
  5
8A
330
1B
100
AcDbEntity
  8
F.Mask
  6
CONTINUOUS
100
AcDbLine
 10
101.9043289999999899
 20
-115.1190299999999951
 30
0
 11
102.
 21
-115.0999999999999943
 31
0
  0
LINE
  5
8B
330
1B
100
AcDbEntity
  8
F.Mask
  6
CONTINUOUS
100
AcDbLine
 10
102.
 20
-115.0999999999999943
 30
0
 11
104.5
 21
-115.0999999999999943
 31
0
  0
LINE
  5
8C
330
1B
100
AcDbEntity
  8
F.Mask
  6
CONTINUOUS
100
AcDbLine
 10
104.5
 20
-115.0999999999999943
 30
0
 11
104.5956709999999958
 21
-115.1190299999999951
 31
0
  0
LINE
  5
8D
330
1B
100
AcDbEntity
  8
F.Mask
  6
CONTINUOUS
100
AcDbLine
 10
119.407402999999988
 20
-114.1164179999999959
 30
0
 11
119.4560659999999928
 21
-114.148933999999997
 31
0
  0
LINE
  5
8E
330
1B
100
AcDbEntity
  8
F.Mask
  6
CONTINUOUS
100
AcDbLine
 10
119.4560659999999928
 20
-114.148933999999997
 30
0
 11
119.4885819999999939
 21
-114.1975970000000018
 31
0
  0
LINE
  5
8F
330
1B
100
AcDbEntity
  8
F.Mask
  6
CONTINUOUS
100
AcDbLine
 10
119.4885819999999939
 20
-114.1975970000000018
 30
0
 11
119.5
 21
-114.2549999999999955
 31
0
  0
LINE
  5
90
330
1B
100
AcDbEntity
  8
F.Mask
  6
CONTINUOUS
100
AcDbLine
 10
119.5
 20
-114.2549999999999955
 30
0
 11
119.5
 21
-114.5549999999999926
 31
0
  0
LINE
  5
91
330
1B
100
AcDbEntity
  8
F.Mask
  6
CONTINUOUS
100
AcDbLine
 10
119.5
 20
-114.5549999999999926
 30
0
 11
119.4885819999999939
 21
-114.6124030000000005
 31
0
  0
LINE
  5
92
330
1B
100
AcDbEntity
  8
F.Mask
  6
CONTINUOUS
100
AcDbLine
 10
119.4885819999999939
 20
-114.6124030000000005
 30
0
 11
119.4560659999999928
 21
-114.661065999999991
 31
0
  0
LINE
  5
93
330
1B
100
AcDbEntity
  8
F.Mask
  6
CONTINUOUS
100
AcDbLine
 10
119.4560659999999928
 20
-114.661065999999991
 30
0
 11
119.407402999999988
 21
-114.6935819999999921
 31
0
  0
LINE
  5
94
330
1B
100
AcDbEntity
  8
F.Mask
  6
CONTINUOUS
100
AcDbLine
 10
119.407402999999988
 20
-114.6935819999999921
 30
0
 11
119.3499999999999943
 21
-114.7049999999999983
 31
0
  0
LINE
  5
95
330
1B
100
AcDbEntity
  8
F.Mask
  6
CONTINUOUS
100
AcDbLine
 10
119.3499999999999943
 20
-114.7049999999999983
 30
0
 11
117.6999999999999886
 21
-114.7049999999999983
 31
0
  0
LINE
  5
96
330
1B
100
AcDbEntity
  8
F.Mask
  6
CONTINUOUS
100
AcDbLine
 10
117.6999999999999886
 20
-114.7049999999999983
 30
0
 11
117.642596999999995
 21
-114.6935819999999921
 31
0
  0
LINE
  5
97
330
1B
100
AcDbEntity
  8
F.Mask
  6
CONTINUOUS
100
AcDbLine
 10
117.642596999999995
 20
-114.6935819999999921
 30
0
 11
117.5939339999999902
 21
-114.661065999999991
 31
0
  0
LINE
  5
98
330
1B
100
AcDbEntity
  8
F.Mask
  6
CONTINUOUS
100
AcDbLine
 10
117.5939339999999902
 20
-114.661065999999991
 30
0
 11
117.5614179999999891
 21
-114.6124030000000005
 31
0
  0
LINE
  5
99
330
1B
100
AcDbEntity
  8
F.Mask
  6
CONTINUOUS
100
AcDbLine
 10
117.5614179999999891
 20
-114.6124030000000005
 30
0
 11
117.5499999999999972
 21
-114.5549999999999926
 31
0
  0
LINE
  5
9A
330
1B
100
AcDbEntity
  8
F.Mask
  6
CONTINUOUS
100
AcDbLine
 10
117.5499999999999972
 20
-114.5549999999999926
 30
0
 11
117.5499999999999972
 21
-114.2549999999999955
 31
0
  0
LINE
  5
9B
330
1B
100
AcDbEntity
  8
F.Mask
  6
CONTINUOUS
100
AcDbLine
 10
117.5499999999999972
 20
-114.2549999999999955
 30
0
 11
117.5614179999999891
 21
-114.1975970000000018
 31
0
  0
LINE
  5
9C
330
1B
100
AcDbEntity
  8
F.Mask
  6
CONTINUOUS
100
AcDbLine
 10
117.5614179999999891
 20
-114.1975970000000018
 30
0
 11
117.5939339999999902
 21
-114.148933999999997
 31
0
  0
LINE
  5
9D
330
1B
100
AcDbEntity
  8
F.Mask
  6
CONTINUOUS
100
AcDbLine
 10
117.5939339999999902
 20
-114.148933999999997
 30
0
 11
117.642596999999995
 21
-114.1164179999999959
 31
0
  0
LINE
  5
9E
330
1B
100
AcDbEntity
  8
F.Mask
  6
CONTINUOUS
100
AcDbLine
 10
117.642596999999995
 20
-114.1164179999999959
 30
0
 11
117.6999999999999886
 21
-114.1049999999999898
 31
0
  0
LINE
  5
9F
330
1B
100
AcDbEntity
  8
F.Mask
  6
CONTINUOUS
100
AcDbLine
 10
117.6999999999999886
 20
-114.1049999999999898
 30
0
 11
119.3499999999999943
 21
-114.1049999999999898
 31
0
  0
LINE
  5
A0
330
1B
100
AcDbEntity
  8
F.Mask
  6
CONTINUOUS
100
AcDbLine
 10
119.3499999999999943
 20
-114.1049999999999898
 30
0
 11
119.407402999999988
 21
-114.1164179999999959
 31
0
  0
LINE
  5
A1
330
1B
100
AcDbEntity
  8
F.Mask
  6
CONTINUOUS
100
AcDbLine
 10
124.3574029999999908
 20
-114.1164179999999959
 30
0
 11
124.4060659999999956
 21
-114.148933999999997
 31
0
  0
LINE
  5
A2
330
1B
100
AcDbEntity
  8
F.Mask
  6
CONTINUOUS
100
AcDbLine
 10
124.4060659999999956
 20
-114.148933999999997
 30
0
 11
124.4385819999999967
 21
-114.1975970000000018
 31
0
  0
LINE
  5
A3
330
1B
100
AcDbEntity
  8
F.Mask
  6
CONTINUOUS
100
AcDbLine
 10
124.4385819999999967
 20
-114.1975970000000018
 30
0
 11
124.4499999999999886
 21
-114.2549999999999955
 31
0
  0
LINE
  5
A4
330
1B
100
AcDbEntity
  8
F.Mask
  6
CONTINUOUS
100
AcDbLine
 10
124.4499999999999886
 20
-114.2549999999999955
 30
0
 11
124.4499999999999886
 21
-114.5549999999999926
 31
0
  0
LINE
  5
A5
330
1B
100
AcDbEntity
  8
F.Mask
  6
CONTINUOUS
100
AcDbLine
 10
124.4499999999999886
 20
-114.5549999999999926
 30
0
 11
124.4385819999999967
 21
-114.6124030000000005
 31
0
  0
LINE
  5
A6
330
1B
100
AcDbEntity
  8
F.Mask
  6
CONTINUOUS
100
AcDbLine
 10
124.4385819999999967
 20
-114.6124030000000005
 30
0
 11
124.4060659999999956
 21
-114.661065999999991
 31
0
  0
LINE
  5
A7
330
1B
100
AcDbEntity
  8
F.Mask
  6
CONTINUOUS
100
AcDbLine
 10
124.4060659999999956
 20
-114.661065999999991
 30
0
 11
124.3574029999999908
 21
-114.6935819999999921
 31
0
  0
LINE
  5
A8
330
1B
100
AcDbEntity
  8
F.Mask
  6
CONTINUOUS
100
AcDbLine
 10
124.3574029999999908
 20
-114.6935819999999921
 30
0
 11
124.2999999999999972
 21
-114.7049999999999983
 31
0
  0
LINE
  5
A9
330
1B
100
AcDbEntity
  8
F.Mask
  6
CONTINUOUS
100
AcDbLine
 10
124.2999999999999972
 20
-114.7049999999999983
 30
0
 11
122.6499999999999915
 21
-114.7049999999999983
 31
0
  0
LINE
  5
AA
330
1B
100
AcDbEntity
  8
F.Mask
  6
CONTINUOUS
100
AcDbLine
 10
122.6499999999999915
 20
-114.7049999999999983
 30
0
 11
122.5925969999999978
 21
-114.6935819999999921
 31
0
  0
LINE
  5
AB
330
1B
100
AcDbEntity
  8
F.Mask
  6
CONTINUOUS
100
AcDbLine
 10
122.5925969999999978
 20
-114.6935819999999921
 30
0
 11
122.543933999999993
 21
-114.661065999999991
 31
0
  0
LINE
  5
AC
330
1B
100
AcDbEntity
  8
F.Mask
  6
CONTINUOUS
100
AcDbLine
 10
122.543933999999993
 20
-114.661065999999991
 30
0
 11
122.5114179999999919
 21
-114.6124030000000005
 31
0
  0
LINE
  5
AD
330
1B
100
AcDbEntity
  8
F.Mask
  6
CONTINUOUS
100
AcDbLine
 10
122.5114179999999919
 20
-114.6124030000000005
 30
0
 11
122.5
 21
-114.5549999999999926
 31
0
  0
LINE
  5
AE
330
1B
100
AcDbEntity
  8
F.Mask
  6
CONTINUOUS
100
AcDbLine
 10
122.5
 20
-114.5549999999999926
 30
0
 11
122.5
 21
-114.2549999999999955
 31
0
  0
LINE
  5
AF
330
1B
100
AcDbEntity
  8
F.Mask
  6
CONTINUOUS
100
AcDbLine
 10
122.5
 20
-114.2549999999999955
 30
0
 11
122.5114179999999919
 21
-114.1975970000000018
 31
0
  0
LINE
  5
B0
330
1B
100
AcDbEntity
  8
F.Mask
  6
CONTINUOUS
100
AcDbLine
 10
122.5114179999999919
 20
-114.1975970000000018
 30
0
 11
122.543933999999993
 21
-114.148933999999997
 31
0
  0
LINE
  5
B1
330
1B
100
AcDbEntity
  8
F.Mask
  6
CONTINUOUS
100
AcDbLine
 10
122.543933999999993
 20
-114.148933999999997
 30
0
 11
122.5925969999999978
 21
-114.1164179999999959
 31
0
  0
LINE
  5
B2
330
1B
100
AcDbEntity
  8
F.Mask
  6
CONTINUOUS
100
AcDbLine
 10
122.5925969999999978
 20
-114.1164179999999959
 30
0
 11
122.6499999999999915
 21
-114.1049999999999898
 31
0
  0
LINE
  5
B3
330
1B
100
AcDbEntity
  8
F.Mask
  6
CONTINUOUS
100
AcDbLine
 10
122.6499999999999915
 20
-114.1049999999999898
 30
0
 11
124.2999999999999972
 21
-114.1049999999999898
 31
0
  0
LINE
  5
B4
330
1B
100
AcDbEntity
  8
F.Mask
  6
CONTINUOUS
100
AcDbLine
 10
124.2999999999999972
 20
-114.1049999999999898
 30
0
 11
124.3574029999999908
 21
-114.1164179999999959
 31
0
  0
LINE
  5
B5
330
1B
100
AcDbEntity
  8
F.Mask
  6
CONTINUOUS
100
AcDbLine
 10
108.0956709999999958
 20
-113.0190300000000008
 30
0
 11
108.1767770000000013
 21
-113.0732229999999987
 31
0
  0
LINE
  5
B6
330
1B
100
AcDbEntity
  8
F.Mask
  6
CONTINUOUS
100
AcDbLine
 10
108.1767770000000013
 20
-113.0732229999999987
 30
0
 11
108.2309699999999992
 21
-113.1543289999999899
 31
0
  0
LINE
  5
B7
330
1B
100
AcDbEntity
  8
F.Mask
  6
CONTINUOUS
100
AcDbLine
 10
108.2309699999999992
 20
-113.1543289999999899
 30
0
 11
108.25
 21
-113.25
 31
0
  0
LINE
  5
B8
330
1B
100
AcDbEntity
  8
F.Mask
  6
CONTINUOUS
100
AcDbLine
 10
108.25
 20
-113.25
 30
0
 11
108.25
 21
-113.75
 31
0
  0
LINE
  5
B9
330
1B
100
AcDbEntity
  8
F.Mask
  6
CONTINUOUS
100
AcDbLine
 10
108.25
 20
-113.75
 30
0
 11
108.2309699999999992
 21
-113.8456709999999958
 31
0
  0
LINE
  5
BA
330
1B
100
AcDbEntity
  8
F.Mask
  6
CONTINUOUS
100
AcDbLine
 10
108.2309699999999992
 20
-113.8456709999999958
 30
0
 11
108.1767770000000013
 21
-113.9267770000000013
 31
0
  0
LINE
  5
BB
330
1B
100
AcDbEntity
  8
F.Mask
  6
CONTINUOUS
100
AcDbLine
 10
108.1767770000000013
 20
-113.9267770000000013
 30
0
 11
108.0956709999999958
 21
-113.9809699999999992
 31
0
  0
LINE
  5
BC
330
1B
100
AcDbEntity
  8
F.Mask
  6
CONTINUOUS
100
AcDbLine
 10
108.0956709999999958
 20
-113.9809699999999992
 30
0
 11
108.
 21
-114.
 31
0
  0
LINE
  5
BD
330
1B
100
AcDbEntity
  8
F.Mask
  6
CONTINUOUS
100
AcDbLine
 10
108.
 20
-114.
 30
0
 11
103.
 21
-114.
 31
0
  0
LINE
  5
BE
330
1B
100
AcDbEntity
  8
F.Mask
  6
CONTINUOUS
100
AcDbLine
 10
103.
 20
-114.
 30
0
 11
102.9043289999999899
 21
-113.9809699999999992
 31
0
  0
LINE
  5
BF
330
1B
100
AcDbEntity
  8
F.Mask
  6
CONTINUOUS
100
AcDbLine
 10
102.9043289999999899
 20
-113.9809699999999992
 30
0
 11
102.8232229999999987
 21
-113.9267770000000013
 31
0
  0
LINE
  5
C0
330
1B
100
AcDbEntity
  8
F.Mask
  6
CONTINUOUS
100
AcDbLine
 10
102.8232229999999987
 20
-113.9267770000000013
 30
0
 11
102.7690300000000008
 21
-113.8456709999999958
 31
0
  0
LINE
  5
C1
330
1B
100
AcDbEntity
  8
F.Mask
  6
CONTINUOUS
100
AcDbLine
 10
102.7690300000000008
 20
-113.8456709999999958
 30
0
 11
102.75
 21
-113.75
 31
0
  0
LINE
  5
C2
330
1B
100
AcDbEntity
  8
F.Mask
  6
CONTINUOUS
100
AcDbLine
 10
102.75
 20
-113.75
 30
0
 11
102.75
 21
-113.25
 31
0
  0
LINE
  5
C3
330
1B
100
AcDbEntity
  8
F.Mask
  6
CONTINUOUS
100
AcDbLine
 10
102.75
 20
-113.25
 30
0
 11
102.7690300000000008
 21
-113.1543289999999899
 31
0
  0
LINE
  5
C4
330
1B
100
AcDbEntity
  8
F.Mask
  6
CONTINUOUS
100
AcDbLine
 10
102.7690300000000008
 20
-113.1543289999999899
 30
0
 11
102.8232229999999987
 21
-113.0732229999999987
 31
0
  0
LINE
  5
C5
330
1B
100
AcDbEntity
  8
F.Mask
  6
CONTINUOUS
100
AcDbLine
 10
102.8232229999999987
 20
-113.0732229999999987
 30
0
 11
102.9043289999999899
 21
-113.0190300000000008
 31
0
  0
LINE
  5
C6
330
1B
100
AcDbEntity
  8
F.Mask
  6
CONTINUOUS
100
AcDbLine
 10
102.9043289999999899
 20
-113.0190300000000008
 30
0
 11
103.
 21
-113.
 31
0
  0
LINE
  5
C7
330
1B
100
AcDbEntity
  8
F.Mask
  6
CONTINUOUS
100
AcDbLine
 10
103.
 20
-113.
 30
0
 11
108.
 21
-113.
 31
0
  0
LINE
  5
C8
330
1B
100
AcDbEntity
  8
F.Mask
  6
CONTINUOUS
100
AcDbLine
 10
108.
 20
-113.
 30
0
 11
108.0956709999999958
 21
-113.0190300000000008
 31
0
  0
LINE
  5
C9
330
1B
100
AcDbEntity
  8
F.Mask
  6
CONTINUOUS
100
AcDbLine
 10
110.3995290000000011
 20
-112.4685539999999975
 30
0
 11
110.4786069999999967
 21
-112.5213929999999891
 31
0
  0
LINE
  5
CA
330
1B
100
AcDbEntity
  8
F.Mask
  6
CONTINUOUS
100
AcDbLine
 10
110.4786069999999967
 20
-112.5213929999999891
 30
0
 11
110.5314459999999883
 21
-112.6004709999999989
 31
0
  0
LINE
  5
CB
330
1B
100
AcDbEntity
  8
F.Mask
  6
CONTINUOUS
100
AcDbLine
 10
110.5314459999999883
 20
-112.6004709999999989
 30
0
 11
110.5499999999999972
 21
-112.6937499999999943
 31
0
  0
LINE
  5
CC
330
1B
100
AcDbEntity
  8
F.Mask
  6
CONTINUOUS
100
AcDbLine
 10
110.5499999999999972
 20
-112.6937499999999943
 30
0
 11
110.5499999999999972
 21
-113.6062499999999886
 31
0
  0
LINE
  5
CD
330
1B
100
AcDbEntity
  8
F.Mask
  6
CONTINUOUS
100
AcDbLine
 10
110.5499999999999972
 20
-113.6062499999999886
 30
0
 11
110.5314459999999883
 21
-113.6995289999999983
 31
0
  0
LINE
  5
CE
330
1B
100
AcDbEntity
  8
F.Mask
  6
CONTINUOUS
100
AcDbLine
 10
110.5314459999999883
 20
-113.6995289999999983
 30
0
 11
110.4786069999999967
 21
-113.7786069999999938
 31
0
  0
LINE
  5
CF
330
1B
100
AcDbEntity
  8
F.Mask
  6
CONTINUOUS
100
AcDbLine
 10
110.4786069999999967
 20
-113.7786069999999938
 30
0
 11
110.3995290000000011
 21
-113.8314459999999997
 31
0
  0
LINE
  5
D0
330
1B
100
AcDbEntity
  8
F.Mask
  6
CONTINUOUS
100
AcDbLine
 10
110.3995290000000011
 20
-113.8314459999999997
 30
0
 11
110.3062499999999915
 21
-113.8499999999999943
 31
0
  0
LINE
  5
D1
330
1B
100
AcDbEntity
  8
F.Mask
  6
CONTINUOUS
100
AcDbLine
 10
110.3062499999999915
 20
-113.8499999999999943
 30
0
 11
109.8187499999999943
 21
-113.8499999999999943
 31
0
  0
LINE
  5
D2
330
1B
100
AcDbEntity
  8
F.Mask
  6
CONTINUOUS
100
AcDbLine
 10
109.8187499999999943
 20
-113.8499999999999943
 30
0
 11
109.7254709999999989
 21
-113.8314459999999997
 31
0
  0
LINE
  5
D3
330
1B
100
AcDbEntity
  8
F.Mask
  6
CONTINUOUS
100
AcDbLine
 10
109.7254709999999989
 20
-113.8314459999999997
 30
0
 11
109.6463929999999891
 21
-113.7786069999999938
 31
0
  0
LINE
  5
D4
330
1B
100
AcDbEntity
  8
F.Mask
  6
CONTINUOUS
100
AcDbLine
 10
109.6463929999999891
 20
-113.7786069999999938
 30
0
 11
109.5935539999999975
 21
-113.6995289999999983
 31
0
  0
LINE
  5
D5
330
1B
100
AcDbEntity
  8
F.Mask
  6
CONTINUOUS
100
AcDbLine
 10
109.5935539999999975
 20
-113.6995289999999983
 30
0
 11
109.5749999999999886
 21
-113.6062499999999886
 31
0
  0
LINE
  5
D6
330
1B
100
AcDbEntity
  8
F.Mask
  6
CONTINUOUS
100
AcDbLine
 10
109.5749999999999886
 20
-113.6062499999999886
 30
0
 11
109.5749999999999886
 21
-112.6937499999999943
 31
0
  0
LINE
  5
D7
330
1B
100
AcDbEntity
  8
F.Mask
  6
CONTINUOUS
100
AcDbLine
 10
109.5749999999999886
 20
-112.6937499999999943
 30
0
 11
109.5935539999999975
 21
-112.6004709999999989
 31
0
  0
LINE
  5
D8
330
1B
100
AcDbEntity
  8
F.Mask
  6
CONTINUOUS
100
AcDbLine
 10
109.5935539999999975
 20
-112.6004709999999989
 30
0
 11
109.6463929999999891
 21
-112.5213929999999891
 31
0
  0
LINE
  5
D9
330
1B
100
AcDbEntity
  8
F.Mask
  6
CONTINUOUS
100
AcDbLine
 10
109.6463929999999891
 20
-112.5213929999999891
 30
0
 11
109.7254709999999989
 21
-112.4685539999999975
 31
0
  0
LINE
  5
DA
330
1B
100
AcDbEntity
  8
F.Mask
  6
CONTINUOUS
100
AcDbLine
 10
109.7254709999999989
 20
-112.4685539999999975
 30
0
 11
109.8187499999999943
 21
-112.4499999999999886
 31
0
  0
LINE
  5
DB
330
1B
100
AcDbEntity
  8
F.Mask
  6
CONTINUOUS
100
AcDbLine
 10
109.8187499999999943
 20
-112.4499999999999886
 30
0
 11
110.3062499999999915
 21
-112.4499999999999886
 31
0
  0
LINE
  5
DC
330
1B
100
AcDbEntity
  8
F.Mask
  6
CONTINUOUS
100
AcDbLine
 10
110.3062499999999915
 20
-112.4499999999999886
 30
0
 11
110.3995290000000011
 21
-112.4685539999999975
 31
0
  0
LINE
  5
DD
330
1B
100
AcDbEntity
  8
F.Mask
  6
CONTINUOUS
100
AcDbLine
 10
112.2745290000000011
 20
-112.4685539999999975
 30
0
 11
112.3536069999999967
 21
-112.5213929999999891
 31
0
  0
LINE
  5
DE
330
1B
100
AcDbEntity
  8
F.Mask
  6
CONTINUOUS
100
AcDbLine
 10
112.3536069999999967
 20
-112.5213929999999891
 30
0
 11
112.4064459999999883
 21
-112.6004709999999989
 31
0
  0
LINE
  5
DF
330
1B
100
AcDbEntity
  8
F.Mask
  6
CONTINUOUS
100
AcDbLine
 10
112.4064459999999883
 20
-112.6004709999999989
 30
0
 11
112.4249999999999972
 21
-112.6937499999999943
 31
0
  0
LINE
  5
E0
330
1B
100
AcDbEntity
  8
F.Mask
  6
CONTINUOUS
100
AcDbLine
 10
112.4249999999999972
 20
-112.6937499999999943
 30
0
 11
112.4249999999999972
 21
-113.6062499999999886
 31
0
  0
LINE
  5
E1
330
1B
100
AcDbEntity
  8
F.Mask
  6
CONTINUOUS
100
AcDbLine
 10
112.4249999999999972
 20
-113.6062499999999886
 30
0
 11
112.4064459999999883
 21
-113.6995289999999983
 31
0
  0
LINE
  5
E2
330
1B
100
AcDbEntity
  8
F.Mask
  6
CONTINUOUS
100
AcDbLine
 10
112.4064459999999883
 20
-113.6995289999999983
 30
0
 11
112.3536069999999967
 21
-113.7786069999999938
 31
0
  0
LINE
  5
E3
330
1B
100
AcDbEntity
  8
F.Mask
  6
CONTINUOUS
100
AcDbLine
 10
112.3536069999999967
 20
-113.7786069999999938
 30
0
 11
112.2745290000000011
 21
-113.8314459999999997
 31
0
  0
LINE
  5
E4
330
1B
100
AcDbEntity
  8
F.Mask
  6
CONTINUOUS
100
AcDbLine
 10
112.2745290000000011
 20
-113.8314459999999997
 30
0
 11
112.1812499999999915
 21
-113.8499999999999943
 31
0
  0
LINE
  5
E5
330
1B
100
AcDbEntity
  8
F.Mask
  6
CONTINUOUS
100
AcDbLine
 10
112.1812499999999915
 20
-113.8499999999999943
 30
0
 11
111.6937499999999943
 21
-113.8499999999999943
 31
0
  0
LINE
  5
E6
330
1B
100
AcDbEntity
  8
F.Mask
  6
CONTINUOUS
100
AcDbLine
 10
111.6937499999999943
 20
-113.8499999999999943
 30
0
 11
111.6004709999999989
 21
-113.8314459999999997
 31
0
  0
LINE
  5
E7
330
1B
100
AcDbEntity
  8
F.Mask
  6
CONTINUOUS
100
AcDbLine
 10
111.6004709999999989
 20
-113.8314459999999997
 30
0
 11
111.5213929999999891
 21
-113.7786069999999938
 31
0
  0
LINE
  5
E8
330
1B
100
AcDbEntity
  8
F.Mask
  6
CONTINUOUS
100
AcDbLine
 10
111.5213929999999891
 20
-113.7786069999999938
 30
0
 11
111.4685539999999975
 21
-113.6995289999999983
 31
0
  0
LINE
  5
E9
330
1B
100
AcDbEntity
  8
F.Mask
  6
CONTINUOUS
100
AcDbLine
 10
111.4685539999999975
 20
-113.6995289999999983
 30
0
 11
111.4499999999999886
 21
-113.6062499999999886
 31
0
  0
LINE
  5
EA
330
1B
100
AcDbEntity
  8
F.Mask
  6
CONTINUOUS
100
AcDbLine
 10
111.4499999999999886
 20
-113.6062499999999886
 30
0
 11
111.4499999999999886
 21
-112.6937499999999943
 31
0
  0
LINE
  5
EB
330
1B
100
AcDbEntity
  8
F.Mask
  6
CONTINUOUS
100
AcDbLine
 10
111.4499999999999886
 20
-112.6937499999999943
 30
0
 11
111.4685539999999975
 21
-112.6004709999999989
 31
0
  0
LINE
  5
EC
330
1B
100
AcDbEntity
  8
F.Mask
  6
CONTINUOUS
100
AcDbLine
 10
111.4685539999999975
 20
-112.6004709999999989
 30
0
 11
111.5213929999999891
 21
-112.5213929999999891
 31
0
  0
LINE
  5
ED
330
1B
100
AcDbEntity
  8
F.Mask
  6
CONTINUOUS
100
AcDbLine
 10
111.5213929999999891
 20
-112.5213929999999891
 30
0
 11
111.6004709999999989
 21
-112.4685539999999975
 31
0
  0
LINE
  5
EE
330
1B
100
AcDbEntity
  8
F.Mask
  6
CONTINUOUS
100
AcDbLine
 10
111.6004709999999989
 20
-112.4685539999999975
 30
0
 11
111.6937499999999943
 21
-112.4499999999999886
 31
0
  0
LINE
  5
EF
330
1B
100
AcDbEntity
  8
F.Mask
  6
CONTINUOUS
100
AcDbLine
 10
111.6937499999999943
 20
-112.4499999999999886
 30
0
 11
112.1812499999999915
 21
-112.4499999999999886
 31
0
  0
LINE
  5
F0
330
1B
100
AcDbEntity
  8
F.Mask
  6
CONTINUOUS
100
AcDbLine
 10
112.1812499999999915
 20
-112.4499999999999886
 30
0
 11
112.2745290000000011
 21
-112.4685539999999975
 31
0
  0
LINE
  5
F1
330
1B
100
AcDbEntity
  8
F.Mask
  6
CONTINUOUS
100
AcDbLine
 10
114.4515370000000019
 20
-112.6902240000000006
 30
0
 11
114.516420999999994
 21
-112.7335789999999918
 31
0
  0
LINE
  5
F2
330
1B
100
AcDbEntity
  8
F.Mask
  6
CONTINUOUS
100
AcDbLine
 10
114.516420999999994
 20
-112.7335789999999918
 30
0
 11
114.5597759999999994
 21
-112.7984629999999981
 31
0
  0
LINE
  5
F3
330
1B
100
AcDbEntity
  8
F.Mask
  6
CONTINUOUS
100
AcDbLine
 10
114.5597759999999994
 20
-112.7984629999999981
 30
0
 11
114.5749999999999886
 21
-112.875
 31
0
  0
LINE
  5
F4
330
1B
100
AcDbEntity
  8
F.Mask
  6
CONTINUOUS
100
AcDbLine
 10
114.5749999999999886
 20
-112.875
 30
0
 11
114.5749999999999886
 21
-113.4249999999999972
 31
0
  0
LINE
  5
F5
330
1B
100
AcDbEntity
  8
F.Mask
  6
CONTINUOUS
100
AcDbLine
 10
114.5749999999999886
 20
-113.4249999999999972
 30
0
 11
114.5597759999999994
 21
-113.501536999999999
 31
0
  0
LINE
  5
F6
330
1B
100
AcDbEntity
  8
F.Mask
  6
CONTINUOUS
100
AcDbLine
 10
114.5597759999999994
 20
-113.501536999999999
 30
0
 11
114.516420999999994
 21
-113.5664209999999912
 31
0
  0
LINE
  5
F7
330
1B
100
AcDbEntity
  8
F.Mask
  6
CONTINUOUS
100
AcDbLine
 10
114.516420999999994
 20
-113.5664209999999912
 30
0
 11
114.4515370000000019
 21
-113.6097759999999965
 31
0
  0
LINE
  5
F8
330
1B
100
AcDbEntity
  8
F.Mask
  6
CONTINUOUS
100
AcDbLine
 10
114.4515370000000019
 20
-113.6097759999999965
 30
0
 11
114.375
 21
-113.625
 31
0
  0
LINE
  5
F9
330
1B
100
AcDbEntity
  8
F.Mask
  6
CONTINUOUS
100
AcDbLine
 10
114.375
 20
-113.625
 30
0
 11
113.9749999999999943
 21
-113.625
 31
0
  0
LINE
  5
FA
330
1B
100
AcDbEntity
  8
F.Mask
  6
CONTINUOUS
100
AcDbLine
 10
113.9749999999999943
 20
-113.625
 30
0
 11
113.8984629999999925
 21
-113.6097759999999965
 31
0
  0
LINE
  5
FB
330
1B
100
AcDbEntity
  8
F.Mask
  6
CONTINUOUS
100
AcDbLine
 10
113.8984629999999925
 20
-113.6097759999999965
 30
0
 11
113.8335790000000003
 21
-113.5664209999999912
 31
0
  0
LINE
  5
FC
330
1B
100
AcDbEntity
  8
F.Mask
  6
CONTINUOUS
100
AcDbLine
 10
113.8335790000000003
 20
-113.5664209999999912
 30
0
 11
113.7902239999999949
 21
-113.501536999999999
 31
0
  0
LINE
  5
FD
330
1B
100
AcDbEntity
  8
F.Mask
  6
CONTINUOUS
100
AcDbLine
 10
113.7902239999999949
 20
-113.501536999999999
 30
0
 11
113.7749999999999915
 21
-113.4249999999999972
 31
0
  0
LINE
  5
FE
330
1B
100
AcDbEntity
  8
F.Mask
  6
CONTINUOUS
100
AcDbLine
 10
113.7749999999999915
 20
-113.4249999999999972
 30
0
 11
113.7749999999999915
 21
-112.875
 31
0
  0
LINE
  5
FF
330
1B
100
AcDbEntity
  8
F.Mask
  6
CONTINUOUS
100
AcDbLine
 10
113.7749999999999915
 20
-112.875
 30
0
 11
113.7902239999999949
 21
-112.7984629999999981
 31
0
  0
LINE
  5
100
330
1B
100
AcDbEntity
  8
F.Mask
  6
CONTINUOUS
100
AcDbLine
 10
113.7902239999999949
 20
-112.7984629999999981
 30
0
 11
113.8335790000000003
 21
-112.7335789999999918
 31
0
  0
LINE
  5
101
330
1B
100
AcDbEntity
  8
F.Mask
  6
CONTINUOUS
100
AcDbLine
 10
113.8335790000000003
 20
-112.7335789999999918
 30
0
 11
113.8984629999999925
 21
-112.6902240000000006
 31
0
  0
LINE
  5
102
330
1B
100
AcDbEntity
  8
F.Mask
  6
CONTINUOUS
100
AcDbLine
 10
113.8984629999999925
 20
-112.6902240000000006
 30
0
 11
113.9749999999999943
 21
-112.6749999999999972
 31
0
  0
LINE
  5
103
330
1B
100
AcDbEntity
  8
F.Mask
  6
CONTINUOUS
100
AcDbLine
 10
113.9749999999999943
 20
-112.6749999999999972
 30
0
 11
114.375
 21
-112.6749999999999972
 31
0
  0
LINE
  5
104
330
1B
100
AcDbEntity
  8
F.Mask
  6
CONTINUOUS
100
AcDbLine
 10
114.375
 20
-112.6749999999999972
 30
0
 11
114.4515370000000019
 21
-112.6902240000000006
 31
0
  0
LINE
  5
105
330
1B
100
AcDbEntity
  8
F.Mask
  6
CONTINUOUS
100
AcDbLine
 10
116.1015369999999933
 20
-112.6902240000000006
 30
0
 11
116.1664209999999997
 21
-112.7335789999999918
 31
0
  0
LINE
  5
106
330
1B
100
AcDbEntity
  8
F.Mask
  6
CONTINUOUS
100
AcDbLine
 10
116.1664209999999997
 20
-112.7335789999999918
 30
0
 11
116.2097759999999909
 21
-112.7984629999999981
 31
0
  0
LINE
  5
107
330
1B
100
AcDbEntity
  8
F.Mask
  6
CONTINUOUS
100
AcDbLine
 10
116.2097759999999909
 20
-112.7984629999999981
 30
0
 11
116.2249999999999943
 21
-112.875
 31
0
  0
LINE
  5
108
330
1B
100
AcDbEntity
  8
F.Mask
  6
CONTINUOUS
100
AcDbLine
 10
116.2249999999999943
 20
-112.875
 30
0
 11
116.2249999999999943
 21
-113.4249999999999972
 31
0
  0
LINE
  5
109
330
1B
100
AcDbEntity
  8
F.Mask
  6
CONTINUOUS
100
AcDbLine
 10
116.2249999999999943
 20
-113.4249999999999972
 30
0
 11
116.2097759999999909
 21
-113.501536999999999
 31
0
  0
LINE
  5
10A
330
1B
100
AcDbEntity
  8
F.Mask
  6
CONTINUOUS
100
AcDbLine
 10
116.2097759999999909
 20
-113.501536999999999
 30
0
 11
116.1664209999999997
 21
-113.5664209999999912
 31
0
  0
LINE
  5
10B
330
1B
100
AcDbEntity
  8
F.Mask
  6
CONTINUOUS
100
AcDbLine
 10
116.1664209999999997
 20
-113.5664209999999912
 30
0
 11
116.1015369999999933
 21
-113.6097759999999965
 31
0
  0
LINE
  5
10C
330
1B
100
AcDbEntity
  8
F.Mask
  6
CONTINUOUS
100
AcDbLine
 10
116.1015369999999933
 20
-113.6097759999999965
 30
0
 11
116.0249999999999915
 21
-113.625
 31
0
  0
LINE
  5
10D
330
1B
100
AcDbEntity
  8
F.Mask
  6
CONTINUOUS
100
AcDbLine
 10
116.0249999999999915
 20
-113.625
 30
0
 11
115.625
 21
-113.625
 31
0
  0
LINE
  5
10E
330
1B
100
AcDbEntity
  8
F.Mask
  6
CONTINUOUS
100
AcDbLine
 10
115.625
 20
-113.625
 30
0
 11
115.5484629999999981
 21
-113.6097759999999965
 31
0
  0
LINE
  5
10F
330
1B
100
AcDbEntity
  8
F.Mask
  6
CONTINUOUS
100
AcDbLine
 10
115.5484629999999981
 20
-113.6097759999999965
 30
0
 11
115.4835789999999918
 21
-113.5664209999999912
 31
0
  0
LINE
  5
110
330
1B
100
AcDbEntity
  8
F.Mask
  6
CONTINUOUS
100
AcDbLine
 10
115.4835789999999918
 20
-113.5664209999999912
 30
0
 11
115.4402240000000006
 21
-113.501536999999999
 31
0
  0
LINE
  5
111
330
1B
100
AcDbEntity
  8
F.Mask
  6
CONTINUOUS
100
AcDbLine
 10
115.4402240000000006
 20
-113.501536999999999
 30
0
 11
115.4249999999999972
 21
-113.4249999999999972
 31
0
  0
LINE
  5
112
330
1B
100
AcDbEntity
  8
F.Mask
  6
CONTINUOUS
100
AcDbLine
 10
115.4249999999999972
 20
-113.4249999999999972
 30
0
 11
115.4249999999999972
 21
-112.875
 31
0
  0
LINE
  5
113
330
1B
100
AcDbEntity
  8
F.Mask
  6
CONTINUOUS
100
AcDbLine
 10
115.4249999999999972
 20
-112.875
 30
0
 11
115.4402240000000006
 21
-112.7984629999999981
 31
0
  0
LINE
  5
114
330
1B
100
AcDbEntity
  8
F.Mask
  6
CONTINUOUS
100
AcDbLine
 10
115.4402240000000006
 20
-112.7984629999999981
 30
0
 11
115.4835789999999918
 21
-112.7335789999999918
 31
0
  0
LINE
  5
115
330
1B
100
AcDbEntity
  8
F.Mask
  6
CONTINUOUS
100
AcDbLine
 10
115.4835789999999918
 20
-112.7335789999999918
 30
0
 11
115.5484629999999981
 21
-112.6902240000000006
 31
0
  0
LINE
  5
116
330
1B
100
AcDbEntity
  8
F.Mask
  6
CONTINUOUS
100
AcDbLine
 10
115.5484629999999981
 20
-112.6902240000000006
 30
0
 11
115.625
 21
-112.6749999999999972
 31
0
  0
LINE
  5
117
330
1B
100
AcDbEntity
  8
F.Mask
  6
CONTINUOUS
100
AcDbLine
 10
115.625
 20
-112.6749999999999972
 30
0
 11
116.0249999999999915
 21
-112.6749999999999972
 31
0
  0
LINE
  5
118
330
1B
100
AcDbEntity
  8
F.Mask
  6
CONTINUOUS
100
AcDbLine
 10
116.0249999999999915
 20
-112.6749999999999972
 30
0
 11
116.1015369999999933
 21
-112.6902240000000006
 31
0
  0
LINE
  5
119
330
1B
100
AcDbEntity
  8
F.Mask
  6
CONTINUOUS
100
AcDbLine
 10
119.407402999999988
 20
-112.8464179999999999
 30
0
 11
119.4560659999999928
 21
-112.878934000000001
 31
0
  0
LINE
  5
11A
330
1B
100
AcDbEntity
  8
F.Mask
  6
CONTINUOUS
100
AcDbLine
 10
119.4560659999999928
 20
-112.878934000000001
 30
0
 11
119.4885819999999939
 21
-112.9275969999999916
 31
0
  0
LINE
  5
11B
330
1B
100
AcDbEntity
  8
F.Mask
  6
CONTINUOUS
100
AcDbLine
 10
119.4885819999999939
 20
-112.9275969999999916
 30
0
 11
119.5
 21
-112.9849999999999994
 31
0
  0
LINE
  5
11C
330
1B
100
AcDbEntity
  8
F.Mask
  6
CONTINUOUS
100
AcDbLine
 10
119.5
 20
-112.9849999999999994
 30
0
 11
119.5
 21
-113.2849999999999966
 31
0
  0
LINE
  5
11D
330
1B
100
AcDbEntity
  8
F.Mask
  6
CONTINUOUS
100
AcDbLine
 10
119.5
 20
-113.2849999999999966
 30
0
 11
119.4885819999999939
 21
-113.3424029999999902
 31
0
  0
LINE
  5
11E
330
1B
100
AcDbEntity
  8
F.Mask
  6
CONTINUOUS
100
AcDbLine
 10
119.4885819999999939
 20
-113.3424029999999902
 30
0
 11
119.4560659999999928
 21
-113.391065999999995
 31
0
  0
LINE
  5
11F
330
1B
100
AcDbEntity
  8
F.Mask
  6
CONTINUOUS
100
AcDbLine
 10
119.4560659999999928
 20
-113.391065999999995
 30
0
 11
119.407402999999988
 21
-113.4235819999999961
 31
0
  0
LINE
  5
120
330
1B
100
AcDbEntity
  8
F.Mask
  6
CONTINUOUS
100
AcDbLine
 10
119.407402999999988
 20
-113.4235819999999961
 30
0
 11
119.3499999999999943
 21
-113.4349999999999881
 31
0
  0
LINE
  5
121
330
1B
100
AcDbEntity
  8
F.Mask
  6
CONTINUOUS
100
AcDbLine
 10
119.3499999999999943
 20
-113.4349999999999881
 30
0
 11
117.6999999999999886
 21
-113.4349999999999881
 31
0
  0
LINE
  5
122
330
1B
100
AcDbEntity
  8
F.Mask
  6
CONTINUOUS
100
AcDbLine
 10
117.6999999999999886
 20
-113.4349999999999881
 30
0
 11
117.642596999999995
 21
-113.4235819999999961
 31
0
  0
LINE
  5
123
330
1B
100
AcDbEntity
  8
F.Mask
  6
CONTINUOUS
100
AcDbLine
 10
117.642596999999995
 20
-113.4235819999999961
 30
0
 11
117.5939339999999902
 21
-113.391065999999995
 31
0
  0
LINE
  5
124
330
1B
100
AcDbEntity
  8
F.Mask
  6
CONTINUOUS
100
AcDbLine
 10
117.5939339999999902
 20
-113.391065999999995
 30
0
 11
117.5614179999999891
 21
-113.3424029999999902
 31
0
  0
LINE
  5
125
330
1B
100
AcDbEntity
  8
F.Mask
  6
CONTINUOUS
100
AcDbLine
 10
117.5614179999999891
 20
-113.3424029999999902
 30
0
 11
117.5499999999999972
 21
-113.2849999999999966
 31
0
  0
LINE
  5
126
330
1B
100
AcDbEntity
  8
F.Mask
  6
CONTINUOUS
100
AcDbLine
 10
117.5499999999999972
 20
-113.2849999999999966
 30
0
 11
117.5499999999999972
 21
-112.9849999999999994
 31
0
  0
LINE
  5
127
330
1B
100
AcDbEntity
  8
F.Mask
  6
CONTINUOUS
100
AcDbLine
 10
117.5499999999999972
 20
-112.9849999999999994
 30
0
 11
117.5614179999999891
 21
-112.9275969999999916
 31
0
  0
LINE
  5
128
330
1B
100
AcDbEntity
  8
F.Mask
  6
CONTINUOUS
100
AcDbLine
 10
117.5614179999999891
 20
-112.9275969999999916
 30
0
 11
117.5939339999999902
 21
-112.878934000000001
 31
0
  0
LINE
  5
129
330
1B
100
AcDbEntity
  8
F.Mask
  6
CONTINUOUS
100
AcDbLine
 10
117.5939339999999902
 20
-112.878934000000001
 30
0
 11
117.642596999999995
 21
-112.8464179999999999
 31
0
  0
LINE
  5
12A
330
1B
100
AcDbEntity
  8
F.Mask
  6
CONTINUOUS
100
AcDbLine
 10
117.642596999999995
 20
-112.8464179999999999
 30
0
 11
117.6999999999999886
 21
-112.8349999999999937
 31
0
  0
LINE
  5
12B
330
1B
100
AcDbEntity
  8
F.Mask
  6
CONTINUOUS
100
AcDbLine
 10
117.6999999999999886
 20
-112.8349999999999937
 30
0
 11
119.3499999999999943
 21
-112.8349999999999937
 31
0
  0
LINE
  5
12C
330
1B
100
AcDbEntity
  8
F.Mask
  6
CONTINUOUS
100
AcDbLine
 10
119.3499999999999943
 20
-112.8349999999999937
 30
0
 11
119.407402999999988
 21
-112.8464179999999999
 31
0
  0
LINE
  5
12D
330
1B
100
AcDbEntity
  8
F.Mask
  6
CONTINUOUS
100
AcDbLine
 10
124.3574029999999908
 20
-112.8464179999999999
 30
0
 11
124.4060659999999956
 21
-112.878934000000001
 31
0
  0
LINE
  5
12E
330
1B
100
AcDbEntity
  8
F.Mask
  6
CONTINUOUS
100
AcDbLine
 10
124.4060659999999956
 20
-112.878934000000001
 30
0
 11
124.4385819999999967
 21
-112.9275969999999916
 31
0
  0
LINE
  5
12F
330
1B
100
AcDbEntity
  8
F.Mask
  6
CONTINUOUS
100
AcDbLine
 10
124.4385819999999967
 20
-112.9275969999999916
 30
0
 11
124.4499999999999886
 21
-112.9849999999999994
 31
0
  0
LINE
  5
130
330
1B
100
AcDbEntity
  8
F.Mask
  6
CONTINUOUS
100
AcDbLine
 10
124.4499999999999886
 20
-112.9849999999999994
 30
0
 11
124.4499999999999886
 21
-113.2849999999999966
 31
0
  0
LINE
  5
131
330
1B
100
AcDbEntity
  8
F.Mask
  6
CONTINUOUS
100
AcDbLine
 10
124.4499999999999886
 20
-113.2849999999999966
 30
0
 11
124.4385819999999967
 21
-113.3424029999999902
 31
0
  0
LINE
  5
132
330
1B
100
AcDbEntity
  8
F.Mask
  6
CONTINUOUS
100
AcDbLine
 10
124.4385819999999967
 20
-113.3424029999999902
 30
0
 11
124.4060659999999956
 21
-113.391065999999995
 31
0
  0
LINE
  5
133
330
1B
100
AcDbEntity
  8
F.Mask
  6
CONTINUOUS
100
AcDbLine
 10
124.4060659999999956
 20
-113.391065999999995
 30
0
 11
124.3574029999999908
 21
-113.4235819999999961
 31
0
  0
LINE
  5
134
330
1B
100
AcDbEntity
  8
F.Mask
  6
CONTINUOUS
100
AcDbLine
 10
124.3574029999999908
 20
-113.4235819999999961
 30
0
 11
124.2999999999999972
 21
-113.4349999999999881
 31
0
  0
LINE
  5
135
330
1B
100
AcDbEntity
  8
F.Mask
  6
CONTINUOUS
100
AcDbLine
 10
124.2999999999999972
 20
-113.4349999999999881
 30
0
 11
122.6499999999999915
 21
-113.4349999999999881
 31
0
  0
LINE
  5
136
330
1B
100
AcDbEntity
  8
F.Mask
  6
CONTINUOUS
100
AcDbLine
 10
122.6499999999999915
 20
-113.4349999999999881
 30
0
 11
122.5925969999999978
 21
-113.4235819999999961
 31
0
  0
LINE
  5
137
330
1B
100
AcDbEntity
  8
F.Mask
  6
CONTINUOUS
100
AcDbLine
 10
122.5925969999999978
 20
-113.4235819999999961
 30
0
 11
122.543933999999993
 21
-113.391065999999995
 31
0
  0
LINE
  5
138
330
1B
100
AcDbEntity
  8
F.Mask
  6
CONTINUOUS
100
AcDbLine
 10
122.543933999999993
 20
-113.391065999999995
 30
0
 11
122.5114179999999919
 21
-113.3424029999999902
 31
0
  0
LINE
  5
139
330
1B
100
AcDbEntity
  8
F.Mask
  6
CONTINUOUS
100
AcDbLine
 10
122.5114179999999919
 20
-113.3424029999999902
 30
0
 11
122.5
 21
-113.2849999999999966
 31
0
  0
LINE
  5
13A
330
1B
100
AcDbEntity
  8
F.Mask
  6
CONTINUOUS
100
AcDbLine
 10
122.5
 20
-113.2849999999999966
 30
0
 11
122.5
 21
-112.9849999999999994
 31
0
  0
LINE
  5
13B
330
1B
100
AcDbEntity
  8
F.Mask
  6
CONTINUOUS
100
AcDbLine
 10
122.5
 20
-112.9849999999999994
 30
0
 11
122.5114179999999919
 21
-112.9275969999999916
 31
0
  0
LINE
  5
13C
330
1B
100
AcDbEntity
  8
F.Mask
  6
CONTINUOUS
100
AcDbLine
 10
122.5114179999999919
 20
-112.9275969999999916
 30
0
 11
122.543933999999993
 21
-112.878934000000001
 31
0
  0
LINE
  5
13D
330
1B
100
AcDbEntity
  8
F.Mask
  6
CONTINUOUS
100
AcDbLine
 10
122.543933999999993
 20
-112.878934000000001
 30
0
 11
122.5925969999999978
 21
-112.8464179999999999
 31
0
  0
LINE
  5
13E
330
1B
100
AcDbEntity
  8
F.Mask
  6
CONTINUOUS
100
AcDbLine
 10
122.5925969999999978
 20
-112.8464179999999999
 30
0
 11
122.6499999999999915
 21
-112.8349999999999937
 31
0
  0
LINE
  5
13F
330
1B
100
AcDbEntity
  8
F.Mask
  6
CONTINUOUS
100
AcDbLine
 10
122.6499999999999915
 20
-112.8349999999999937
 30
0
 11
124.2999999999999972
 21
-112.8349999999999937
 31
0
  0
LINE
  5
140
330
1B
100
AcDbEntity
  8
F.Mask
  6
CONTINUOUS
100
AcDbLine
 10
124.2999999999999972
 20
-112.8349999999999937
 30
0
 11
124.3574029999999908
 21
-112.8464179999999999
 31
0
  0
LINE
  5
141
330
1B
100
AcDbEntity
  8
F.Mask
  6
CONTINUOUS
100
AcDbLine
 10
127.3515369999999933
 20
-112.4402240000000006
 30
0
 11
127.4164209999999997
 21
-112.4835789999999918
 31
0
  0
LINE
  5
142
330
1B
100
AcDbEntity
  8
F.Mask
  6
CONTINUOUS
100
AcDbLine
 10
127.4164209999999997
 20
-112.4835789999999918
 30
0
 11
127.4597759999999909
 21
-112.5484629999999981
 31
0
  0
LINE
  5
143
330
1B
100
AcDbEntity
  8
F.Mask
  6
CONTINUOUS
100
AcDbLine
 10
127.4597759999999909
 20
-112.5484629999999981
 30
0
 11
127.4749999999999943
 21
-112.625
 31
0
  0
LINE
  5
144
330
1B
100
AcDbEntity
  8
F.Mask
  6
CONTINUOUS
100
AcDbLine
 10
127.4749999999999943
 20
-112.625
 30
0
 11
127.4749999999999943
 21
-113.0249999999999915
 31
0
  0
LINE
  5
145
330
1B
100
AcDbEntity
  8
F.Mask
  6
CONTINUOUS
100
AcDbLine
 10
127.4749999999999943
 20
-113.0249999999999915
 30
0
 11
127.4597759999999909
 21
-113.1015369999999933
 31
0
  0
LINE
  5
146
330
1B
100
AcDbEntity
  8
F.Mask
  6
CONTINUOUS
100
AcDbLine
 10
127.4597759999999909
 20
-113.1015369999999933
 30
0
 11
127.4164209999999997
 21
-113.1664209999999997
 31
0
  0
LINE
  5
147
330
1B
100
AcDbEntity
  8
F.Mask
  6
CONTINUOUS
100
AcDbLine
 10
127.4164209999999997
 20
-113.1664209999999997
 30
0
 11
127.3515369999999933
 21
-113.2097759999999909
 31
0
  0
LINE
  5
148
330
1B
100
AcDbEntity
  8
F.Mask
  6
CONTINUOUS
100
AcDbLine
 10
127.3515369999999933
 20
-113.2097759999999909
 30
0
 11
127.2749999999999915
 21
-113.2249999999999943
 31
0
  0
LINE
  5
149
330
1B
100
AcDbEntity
  8
F.Mask
  6
CONTINUOUS
100
AcDbLine
 10
127.2749999999999915
 20
-113.2249999999999943
 30
0
 11
126.7249999999999943
 21
-113.2249999999999943
 31
0
  0
LINE
  5
14A
330
1B
100
AcDbEntity
  8
F.Mask
  6
CONTINUOUS
100
AcDbLine
 10
126.7249999999999943
 20
-113.2249999999999943
 30
0
 11
126.6484629999999925
 21
-113.2097759999999909
 31
0
  0
LINE
  5
14B
330
1B
100
AcDbEntity
  8
F.Mask
  6
CONTINUOUS
100
AcDbLine
 10
126.6484629999999925
 20
-113.2097759999999909
 30
0
 11
126.5835790000000003
 21
-113.1664209999999997
 31
0
  0
LINE
  5
14C
330
1B
100
AcDbEntity
  8
F.Mask
  6
CONTINUOUS
100
AcDbLine
 10
126.5835790000000003
 20
-113.1664209999999997
 30
0
 11
126.5402239999999949
 21
-113.1015369999999933
 31
0
  0
LINE
  5
14D
330
1B
100
AcDbEntity
  8
F.Mask
  6
CONTINUOUS
100
AcDbLine
 10
126.5402239999999949
 20
-113.1015369999999933
 30
0
 11
126.5249999999999915
 21
-113.0249999999999915
 31
0
  0
LINE
  5
14E
330
1B
100
AcDbEntity
  8
F.Mask
  6
CONTINUOUS
100
AcDbLine
 10
126.5249999999999915
 20
-113.0249999999999915
 30
0
 11
126.5249999999999915
 21
-112.625
 31
0
  0
LINE
  5
14F
330
1B
100
AcDbEntity
  8
F.Mask
  6
CONTINUOUS
100
AcDbLine
 10
126.5249999999999915
 20
-112.625
 30
0
 11
126.5402239999999949
 21
-112.5484629999999981
 31
0
  0
LINE
  5
150
330
1B
100
AcDbEntity
  8
F.Mask
  6
CONTINUOUS
100
AcDbLine
 10
126.5402239999999949
 20
-112.5484629999999981
 30
0
 11
126.5835790000000003
 21
-112.4835789999999918
 31
0
  0
LINE
  5
151
330
1B
100
AcDbEntity
  8
F.Mask
  6
CONTINUOUS
100
AcDbLine
 10
126.5835790000000003
 20
-112.4835789999999918
 30
0
 11
126.6484629999999925
 21
-112.4402240000000006
 31
0
  0
LINE
  5
152
330
1B
100
AcDbEntity
  8
F.Mask
  6
CONTINUOUS
100
AcDbLine
 10
126.6484629999999925
 20
-112.4402240000000006
 30
0
 11
126.7249999999999943
 21
-112.4249999999999972
 31
0
  0
LINE
  5
153
330
1B
100
AcDbEntity
  8
F.Mask
  6
CONTINUOUS
100
AcDbLine
 10
126.7249999999999943
 20
-112.4249999999999972
 30
0
 11
127.2749999999999915
 21
-112.4249999999999972
 31
0
  0
LINE
  5
154
330
1B
100
AcDbEntity
  8
F.Mask
  6
CONTINUOUS
100
AcDbLine
 10
127.2749999999999915
 20
-112.4249999999999972
 30
0
 11
127.3515369999999933
 21
-112.4402240000000006
 31
0
  0
LINE
  5
155
330
1B
100
AcDbEntity
  8
F.Mask
  6
CONTINUOUS
100
AcDbLine
 10
119.407402999999988
 20
-111.5764179999999897
 30
0
 11
119.4560659999999928
 21
-111.6089339999999908
 31
0
  0
LINE
  5
156
330
1B
100
AcDbEntity
  8
F.Mask
  6
CONTINUOUS
100
AcDbLine
 10
119.4560659999999928
 20
-111.6089339999999908
 30
0
 11
119.4885819999999939
 21
-111.6575969999999955
 31
0
  0
LINE
  5
157
330
1B
100
AcDbEntity
  8
F.Mask
  6
CONTINUOUS
100
AcDbLine
 10
119.4885819999999939
 20
-111.6575969999999955
 30
0
 11
119.5
 21
-111.7149999999999892
 31
0
  0
LINE
  5
158
330
1B
100
AcDbEntity
  8
F.Mask
  6
CONTINUOUS
100
AcDbLine
 10
119.5
 20
-111.7149999999999892
 30
0
 11
119.5
 21
-112.0150000000000006
 31
0
  0
LINE
  5
159
330
1B
100
AcDbEntity
  8
F.Mask
  6
CONTINUOUS
100
AcDbLine
 10
119.5
 20
-112.0150000000000006
 30
0
 11
119.4885819999999939
 21
-112.0724029999999942
 31
0
  0
LINE
  5
15A
330
1B
100
AcDbEntity
  8
F.Mask
  6
CONTINUOUS
100
AcDbLine
 10
119.4885819999999939
 20
-112.0724029999999942
 30
0
 11
119.4560659999999928
 21
-112.121065999999999
 31
0
  0
LINE
  5
15B
330
1B
100
AcDbEntity
  8
F.Mask
  6
CONTINUOUS
100
AcDbLine
 10
119.4560659999999928
 20
-112.121065999999999
 30
0
 11
119.407402999999988
 21
-112.1535820000000001
 31
0
  0
LINE
  5
15C
330
1B
100
AcDbEntity
  8
F.Mask
  6
CONTINUOUS
100
AcDbLine
 10
119.407402999999988
 20
-112.1535820000000001
 30
0
 11
119.3499999999999943
 21
-112.164999999999992
 31
0
  0
LINE
  5
15D
330
1B
100
AcDbEntity
  8
F.Mask
  6
CONTINUOUS
100
AcDbLine
 10
119.3499999999999943
 20
-112.164999999999992
 30
0
 11
117.6999999999999886
 21
-112.164999999999992
 31
0
  0
LINE
  5
15E
330
1B
100
AcDbEntity
  8
F.Mask
  6
CONTINUOUS
100
AcDbLine
 10
117.6999999999999886
 20
-112.164999999999992
 30
0
 11
117.642596999999995
 21
-112.1535820000000001
 31
0
  0
LINE
  5
15F
330
1B
100
AcDbEntity
  8
F.Mask
  6
CONTINUOUS
100
AcDbLine
 10
117.642596999999995
 20
-112.1535820000000001
 30
0
 11
117.5939339999999902
 21
-112.121065999999999
 31
0
  0
LINE
  5
160
330
1B
100
AcDbEntity
  8
F.Mask
  6
CONTINUOUS
100
AcDbLine
 10
117.5939339999999902
 20
-112.121065999999999
 30
0
 11
117.5614179999999891
 21
-112.0724029999999942
 31
0
  0
LINE
  5
161
330
1B
100
AcDbEntity
  8
F.Mask
  6
CONTINUOUS
100
AcDbLine
 10
117.5614179999999891
 20
-112.0724029999999942
 30
0
 11
117.5499999999999972
 21
-112.0150000000000006
 31
0
  0
LINE
  5
162
330
1B
100
AcDbEntity
  8
F.Mask
  6
CONTINUOUS
100
AcDbLine
 10
117.5499999999999972
 20
-112.0150000000000006
 30
0
 11
117.5499999999999972
 21
-111.7149999999999892
 31
0
  0
LINE
  5
163
330
1B
100
AcDbEntity
  8
F.Mask
  6
CONTINUOUS
100
AcDbLine
 10
117.5499999999999972
 20
-111.7149999999999892
 30
0
 11
117.5614179999999891
 21
-111.6575969999999955
 31
0
  0
LINE
  5
164
330
1B
100
AcDbEntity
  8
F.Mask
  6
CONTINUOUS
100
AcDbLine
 10
117.5614179999999891
 20
-111.6575969999999955
 30
0
 11
117.5939339999999902
 21
-111.6089339999999908
 31
0
  0
LINE
  5
165
330
1B
100
AcDbEntity
  8
F.Mask
  6
CONTINUOUS
100
AcDbLine
 10
117.5939339999999902
 20
-111.6089339999999908
 30
0
 11
117.642596999999995
 21
-111.5764179999999897
 31
0
  0
LINE
  5
166
330
1B
100
AcDbEntity
  8
F.Mask
  6
CONTINUOUS
100
AcDbLine
 10
117.642596999999995
 20
-111.5764179999999897
 30
0
 11
117.6999999999999886
 21
-111.5649999999999977
 31
0
  0
LINE
  5
167
330
1B
100
AcDbEntity
  8
F.Mask
  6
CONTINUOUS
100
AcDbLine
 10
117.6999999999999886
 20
-111.5649999999999977
 30
0
 11
119.3499999999999943
 21
-111.5649999999999977
 31
0
  0
LINE
  5
168
330
1B
100
AcDbEntity
  8
F.Mask
  6
CONTINUOUS
100
AcDbLine
 10
119.3499999999999943
 20
-111.5649999999999977
 30
0
 11
119.407402999999988
 21
-111.5764179999999897
 31
0
  0
LINE
  5
169
330
1B
100
AcDbEntity
  8
F.Mask
  6
CONTINUOUS
100
AcDbLine
 10
124.3574029999999908
 20
-111.5764179999999897
 30
0
 11
124.4060659999999956
 21
-111.6089339999999908
 31
0
  0
LINE
  5
16A
330
1B
100
AcDbEntity
  8
F.Mask
  6
CONTINUOUS
100
AcDbLine
 10
124.4060659999999956
 20
-111.6089339999999908
 30
0
 11
124.4385819999999967
 21
-111.6575969999999955
 31
0
  0
LINE
  5
16B
330
1B
100
AcDbEntity
  8
F.Mask
  6
CONTINUOUS
100
AcDbLine
 10
124.4385819999999967
 20
-111.6575969999999955
 30
0
 11
124.4499999999999886
 21
-111.7149999999999892
 31
0
  0
LINE
  5
16C
330
1B
100
AcDbEntity
  8
F.Mask
  6
CONTINUOUS
100
AcDbLine
 10
124.4499999999999886
 20
-111.7149999999999892
 30
0
 11
124.4499999999999886
 21
-112.0150000000000006
 31
0
  0
LINE
  5
16D
330
1B
100
AcDbEntity
  8
F.Mask
  6
CONTINUOUS
100
AcDbLine
 10
124.4499999999999886
 20
-112.0150000000000006
 30
0
 11
124.4385819999999967
 21
-112.0724029999999942
 31
0
  0
LINE
  5
16E
330
1B
100
AcDbEntity
  8
F.Mask
  6
CONTINUOUS
100
AcDbLine
 10
124.4385819999999967
 20
-112.0724029999999942
 30
0
 11
124.4060659999999956
 21
-112.121065999999999
 31
0
  0
LINE
  5
16F
330
1B
100
AcDbEntity
  8
F.Mask
  6
CONTINUOUS
100
AcDbLine
 10
124.4060659999999956
 20
-112.121065999999999
 30
0
 11
124.3574029999999908
 21
-112.1535820000000001
 31
0
  0
LINE
  5
170
330
1B
100
AcDbEntity
  8
F.Mask
  6
CONTINUOUS
100
AcDbLine
 10
124.3574029999999908
 20
-112.1535820000000001
 30
0
 11
124.2999999999999972
 21
-112.164999999999992
 31
0
  0
LINE
  5
171
330
1B
100
AcDbEntity
  8
F.Mask
  6
CONTINUOUS
100
AcDbLine
 10
124.2999999999999972
 20
-112.164999999999992
 30
0
 11
122.6499999999999915
 21
-112.164999999999992
 31
0
  0
LINE
  5
172
330
1B
100
AcDbEntity
  8
F.Mask
  6
CONTINUOUS
100
AcDbLine
 10
122.6499999999999915
 20
-112.164999999999992
 30
0
 11
122.5925969999999978
 21
-112.1535820000000001
 31
0
  0
LINE
  5
173
330
1B
100
AcDbEntity
  8
F.Mask
  6
CONTINUOUS
100
AcDbLine
 10
122.5925969999999978
 20
-112.1535820000000001
 30
0
 11
122.543933999999993
 21
-112.121065999999999
 31
0
  0
LINE
  5
174
330
1B
100
AcDbEntity
  8
F.Mask
  6
CONTINUOUS
100
AcDbLine
 10
122.543933999999993
 20
-112.121065999999999
 30
0
 11
122.5114179999999919
 21
-112.0724029999999942
 31
0
  0
LINE
  5
175
330
1B
100
AcDbEntity
  8
F.Mask
  6
CONTINUOUS
100
AcDbLine
 10
122.5114179999999919
 20
-112.0724029999999942
 30
0
 11
122.5
 21
-112.0150000000000006
 31
0
  0
LINE
  5
176
330
1B
100
AcDbEntity
  8
F.Mask
  6
CONTINUOUS
100
AcDbLine
 10
122.5
 20
-112.0150000000000006
 30
0
 11
122.5
 21
-111.7149999999999892
 31
0
  0
LINE
  5
177
330
1B
100
AcDbEntity
  8
F.Mask
  6
CONTINUOUS
100
AcDbLine
 10
122.5
 20
-111.7149999999999892
 30
0
 11
122.5114179999999919
 21
-111.6575969999999955
 31
0
  0
LINE
  5
178
330
1B
100
AcDbEntity
  8
F.Mask
  6
CONTINUOUS
100
AcDbLine
 10
122.5114179999999919
 20
-111.6575969999999955
 30
0
 11
122.543933999999993
 21
-111.6089339999999908
 31
0
  0
LINE
  5
179
330
1B
100
AcDbEntity
  8
F.Mask
  6
CONTINUOUS
100
AcDbLine
 10
122.543933999999993
 20
-111.6089339999999908
 30
0
 11
122.5925969999999978
 21
-111.5764179999999897
 31
0
  0
LINE
  5
17A
330
1B
100
AcDbEntity
  8
F.Mask
  6
CONTINUOUS
100
AcDbLine
 10
122.5925969999999978
 20
-111.5764179999999897
 30
0
 11
122.6499999999999915
 21
-111.5649999999999977
 31
0
  0
LINE
  5
17B
330
1B
100
AcDbEntity
  8
F.Mask
  6
CONTINUOUS
100
AcDbLine
 10
122.6499999999999915
 20
-111.5649999999999977
 30
0
 11
124.2999999999999972
 21
-111.5649999999999977
 31
0
  0
LINE
  5
17C
330
1B
100
AcDbEntity
  8
F.Mask
  6
CONTINUOUS
100
AcDbLine
 10
124.2999999999999972
 20
-111.5649999999999977
 30
0
 11
124.3574029999999908
 21
-111.5764179999999897
 31
0
  0
LINE
  5
17D
330
1B
100
AcDbEntity
  8
F.Mask
  6
CONTINUOUS
100
AcDbLine
 10
108.0956709999999958
 20
-111.0190300000000008
 30
0
 11
108.1767770000000013
 21
-111.0732229999999987
 31
0
  0
LINE
  5
17E
330
1B
100
AcDbEntity
  8
F.Mask
  6
CONTINUOUS
100
AcDbLine
 10
108.1767770000000013
 20
-111.0732229999999987
 30
0
 11
108.2309699999999992
 21
-111.1543289999999899
 31
0
  0
LINE
  5
17F
330
1B
100
AcDbEntity
  8
F.Mask
  6
CONTINUOUS
100
AcDbLine
 10
108.2309699999999992
 20
-111.1543289999999899
 30
0
 11
108.25
 21
-111.25
 31
0
  0
LINE
  5
180
330
1B
100
AcDbEntity
  8
F.Mask
  6
CONTINUOUS
100
AcDbLine
 10
108.25
 20
-111.25
 30
0
 11
108.25
 21
-111.75
 31
0
  0
LINE
  5
181
330
1B
100
AcDbEntity
  8
F.Mask
  6
CONTINUOUS
100
AcDbLine
 10
108.25
 20
-111.75
 30
0
 11
108.2309699999999992
 21
-111.8456709999999958
 31
0
  0
LINE
  5
182
330
1B
100
AcDbEntity
  8
F.Mask
  6
CONTINUOUS
100
AcDbLine
 10
108.2309699999999992
 20
-111.8456709999999958
 30
0
 11
108.1767770000000013
 21
-111.9267770000000013
 31
0
  0
LINE
  5
183
330
1B
100
AcDbEntity
  8
F.Mask
  6
CONTINUOUS
100
AcDbLine
 10
108.1767770000000013
 20
-111.9267770000000013
 30
0
 11
108.0956709999999958
 21
-111.9809699999999992
 31
0
  0
LINE
  5
184
330
1B
100
AcDbEntity
  8
F.Mask
  6
CONTINUOUS
100
AcDbLine
 10
108.0956709999999958
 20
-111.9809699999999992
 30
0
 11
108.
 21
-112.
 31
0
  0
LINE
  5
185
330
1B
100
AcDbEntity
  8
F.Mask
  6
CONTINUOUS
100
AcDbLine
 10
108.
 20
-112.
 30
0
 11
103.
 21
-112.
 31
0
  0
LINE
  5
186
330
1B
100
AcDbEntity
  8
F.Mask
  6
CONTINUOUS
100
AcDbLine
 10
103.
 20
-112.
 30
0
 11
102.9043289999999899
 21
-111.9809699999999992
 31
0
  0
LINE
  5
187
330
1B
100
AcDbEntity
  8
F.Mask
  6
CONTINUOUS
100
AcDbLine
 10
102.9043289999999899
 20
-111.9809699999999992
 30
0
 11
102.8232229999999987
 21
-111.9267770000000013
 31
0
  0
LINE
  5
188
330
1B
100
AcDbEntity
  8
F.Mask
  6
CONTINUOUS
100
AcDbLine
 10
102.8232229999999987
 20
-111.9267770000000013
 30
0
 11
102.7690300000000008
 21
-111.8456709999999958
 31
0
  0
LINE
  5
189
330
1B
100
AcDbEntity
  8
F.Mask
  6
CONTINUOUS
100
AcDbLine
 10
102.7690300000000008
 20
-111.8456709999999958
 30
0
 11
102.75
 21
-111.75
 31
0
  0
LINE
  5
18A
330
1B
100
AcDbEntity
  8
F.Mask
  6
CONTINUOUS
100
AcDbLine
 10
102.75
 20
-111.75
 30
0
 11
102.75
 21
-111.25
 31
0
  0
LINE
  5
18B
330
1B
100
AcDbEntity
  8
F.Mask
  6
CONTINUOUS
100
AcDbLine
 10
102.75
 20
-111.25
 30
0
 11
102.7690300000000008
 21
-111.1543289999999899
 31
0
  0
LINE
  5
18C
330
1B
100
AcDbEntity
  8
F.Mask
  6
CONTINUOUS
100
AcDbLine
 10
102.7690300000000008
 20
-111.1543289999999899
 30
0
 11
102.8232229999999987
 21
-111.0732229999999987
 31
0
  0
LINE
  5
18D
330
1B
100
AcDbEntity
  8
F.Mask
  6
CONTINUOUS
100
AcDbLine
 10
102.8232229999999987
 20
-111.0732229999999987
 30
0
 11
102.9043289999999899
 21
-111.0190300000000008
 31
0
  0
LINE
  5
18E
330
1B
100
AcDbEntity
  8
F.Mask
  6
CONTINUOUS
100
AcDbLine
 10
102.9043289999999899
 20
-111.0190300000000008
 30
0
 11
103.
 21
-111.
 31
0
  0
LINE
  5
18F
330
1B
100
AcDbEntity
  8
F.Mask
  6
CONTINUOUS
100
AcDbLine
 10
103.
 20
-111.
 30
0
 11
108.
 21
-111.
 31
0
  0
LINE
  5
190
330
1B
100
AcDbEntity
  8
F.Mask
  6
CONTINUOUS
100
AcDbLine
 10
108.
 20
-111.
 30
0
 11
108.0956709999999958
 21
-111.0190300000000008
 31
0
  0
LINE
  5
191
330
1B
100
AcDbEntity
  8
F.Mask
  6
CONTINUOUS
100
AcDbLine
 10
127.3515369999999933
 20
-110.7902239999999949
 30
0
 11
127.4164209999999997
 21
-110.8335790000000003
 31
0
  0
LINE
  5
192
330
1B
100
AcDbEntity
  8
F.Mask
  6
CONTINUOUS
100
AcDbLine
 10
127.4164209999999997
 20
-110.8335790000000003
 30
0
 11
127.4597759999999909
 21
-110.8984629999999925
 31
0
  0
LINE
  5
193
330
1B
100
AcDbEntity
  8
F.Mask
  6
CONTINUOUS
100
AcDbLine
 10
127.4597759999999909
 20
-110.8984629999999925
 30
0
 11
127.4749999999999943
 21
-110.9749999999999943
 31
0
  0
LINE
  5
194
330
1B
100
AcDbEntity
  8
F.Mask
  6
CONTINUOUS
100
AcDbLine
 10
127.4749999999999943
 20
-110.9749999999999943
 30
0
 11
127.4749999999999943
 21
-111.375
 31
0
  0
LINE
  5
195
330
1B
100
AcDbEntity
  8
F.Mask
  6
CONTINUOUS
100
AcDbLine
 10
127.4749999999999943
 20
-111.375
 30
0
 11
127.4597759999999909
 21
-111.4515370000000019
 31
0
  0
LINE
  5
196
330
1B
100
AcDbEntity
  8
F.Mask
  6
CONTINUOUS
100
AcDbLine
 10
127.4597759999999909
 20
-111.4515370000000019
 30
0
 11
127.4164209999999997
 21
-111.516420999999994
 31
0
  0
LINE
  5
197
330
1B
100
AcDbEntity
  8
F.Mask
  6
CONTINUOUS
100
AcDbLine
 10
127.4164209999999997
 20
-111.516420999999994
 30
0
 11
127.3515369999999933
 21
-111.5597759999999994
 31
0
  0
LINE
  5
198
330
1B
100
AcDbEntity
  8
F.Mask
  6
CONTINUOUS
100
AcDbLine
 10
127.3515369999999933
 20
-111.5597759999999994
 30
0
 11
127.2749999999999915
 21
-111.5749999999999886
 31
0
  0
LINE
  5
199
330
1B
100
AcDbEntity
  8
F.Mask
  6
CONTINUOUS
100
AcDbLine
 10
127.2749999999999915
 20
-111.5749999999999886
 30
0
 11
126.7249999999999943
 21
-111.5749999999999886
 31
0
  0
LINE
  5
19A
330
1B
100
AcDbEntity
  8
F.Mask
  6
CONTINUOUS
100
AcDbLine
 10
126.7249999999999943
 20
-111.5749999999999886
 30
0
 11
126.6484629999999925
 21
-111.5597759999999994
 31
0
  0
LINE
  5
19B
330
1B
100
AcDbEntity
  8
F.Mask
  6
CONTINUOUS
100
AcDbLine
 10
126.6484629999999925
 20
-111.5597759999999994
 30
0
 11
126.5835790000000003
 21
-111.516420999999994
 31
0
  0
LINE
  5
19C
330
1B
100
AcDbEntity
  8
F.Mask
  6
CONTINUOUS
100
AcDbLine
 10
126.5835790000000003
 20
-111.516420999999994
 30
0
 11
126.5402239999999949
 21
-111.4515370000000019
 31
0
  0
LINE
  5
19D
330
1B
100
AcDbEntity
  8
F.Mask
  6
CONTINUOUS
100
AcDbLine
 10
126.5402239999999949
 20
-111.4515370000000019
 30
0
 11
126.5249999999999915
 21
-111.375
 31
0
  0
LINE
  5
19E
330
1B
100
AcDbEntity
  8
F.Mask
  6
CONTINUOUS
100
AcDbLine
 10
126.5249999999999915
 20
-111.375
 30
0
 11
126.5249999999999915
 21
-110.9749999999999943
 31
0
  0
LINE
  5
19F
330
1B
100
AcDbEntity
  8
F.Mask
  6
CONTINUOUS
100
AcDbLine
 10
126.5249999999999915
 20
-110.9749999999999943
 30
0
 11
126.5402239999999949
 21
-110.8984629999999925
 31
0
  0
LINE
  5
1A0
330
1B
100
AcDbEntity
  8
F.Mask
  6
CONTINUOUS
100
AcDbLine
 10
126.5402239999999949
 20
-110.8984629999999925
 30
0
 11
126.5835790000000003
 21
-110.8335790000000003
 31
0
  0
LINE
  5
1A1
330
1B
100
AcDbEntity
  8
F.Mask
  6
CONTINUOUS
100
AcDbLine
 10
126.5835790000000003
 20
-110.8335790000000003
 30
0
 11
126.6484629999999925
 21
-110.7902239999999949
 31
0
  0
LINE
  5
1A2
330
1B
100
AcDbEntity
  8
F.Mask
  6
CONTINUOUS
100
AcDbLine
 10
126.6484629999999925
 20
-110.7902239999999949
 30
0
 11
126.7249999999999943
 21
-110.7749999999999915
 31
0
  0
LINE
  5
1A3
330
1B
100
AcDbEntity
  8
F.Mask
  6
CONTINUOUS
100
AcDbLine
 10
126.7249999999999943
 20
-110.7749999999999915
 30
0
 11
127.2749999999999915
 21
-110.7749999999999915
 31
0
  0
LINE
  5
1A4
330
1B
100
AcDbEntity
  8
F.Mask
  6
CONTINUOUS
100
AcDbLine
 10
127.2749999999999915
 20
-110.7749999999999915
 30
0
 11
127.3515369999999933
 21
-110.7902239999999949
 31
0
  0
LINE
  5
1A5
330
1B
100
AcDbEntity
  8
F.Mask
  6
CONTINUOUS
100
AcDbLine
 10
119.407402999999988
 20
-110.3064179999999936
 30
0
 11
119.4560659999999928
 21
-110.3389339999999947
 31
0
  0
LINE
  5
1A6
330
1B
100
AcDbEntity
  8
F.Mask
  6
CONTINUOUS
100
AcDbLine
 10
119.4560659999999928
 20
-110.3389339999999947
 30
0
 11
119.4885819999999939
 21
-110.3875969999999995
 31
0
  0
LINE
  5
1A7
330
1B
100
AcDbEntity
  8
F.Mask
  6
CONTINUOUS
100
AcDbLine
 10
119.4885819999999939
 20
-110.3875969999999995
 30
0
 11
119.5
 21
-110.4449999999999932
 31
0
  0
LINE
  5
1A8
330
1B
100
AcDbEntity
  8
F.Mask
  6
CONTINUOUS
100
AcDbLine
 10
119.5
 20
-110.4449999999999932
 30
0
 11
119.5
 21
-110.7449999999999903
 31
0
  0
LINE
  5
1A9
330
1B
100
AcDbEntity
  8
F.Mask
  6
CONTINUOUS
100
AcDbLine
 10
119.5
 20
-110.7449999999999903
 30
0
 11
119.4885819999999939
 21
-110.8024029999999982
 31
0
  0
LINE
  5
1AA
330
1B
100
AcDbEntity
  8
F.Mask
  6
CONTINUOUS
100
AcDbLine
 10
119.4885819999999939
 20
-110.8024029999999982
 30
0
 11
119.4560659999999928
 21
-110.8510659999999888
 31
0
  0
LINE
  5
1AB
330
1B
100
AcDbEntity
  8
F.Mask
  6
CONTINUOUS
100
AcDbLine
 10
119.4560659999999928
 20
-110.8510659999999888
 30
0
 11
119.407402999999988
 21
-110.8835819999999899
 31
0
  0
LINE
  5
1AC
330
1B
100
AcDbEntity
  8
F.Mask
  6
CONTINUOUS
100
AcDbLine
 10
119.407402999999988
 20
-110.8835819999999899
 30
0
 11
119.3499999999999943
 21
-110.894999999999996
 31
0
  0
LINE
  5
1AD
330
1B
100
AcDbEntity
  8
F.Mask
  6
CONTINUOUS
100
AcDbLine
 10
119.3499999999999943
 20
-110.894999999999996
 30
0
 11
117.6999999999999886
 21
-110.894999999999996
 31
0
  0
LINE
  5
1AE
330
1B
100
AcDbEntity
  8
F.Mask
  6
CONTINUOUS
100
AcDbLine
 10
117.6999999999999886
 20
-110.894999999999996
 30
0
 11
117.642596999999995
 21
-110.8835819999999899
 31
0
  0
LINE
  5
1AF
330
1B
100
AcDbEntity
  8
F.Mask
  6
CONTINUOUS
100
AcDbLine
 10
117.642596999999995
 20
-110.8835819999999899
 30
0
 11
117.5939339999999902
 21
-110.8510659999999888
 31
0
  0
LINE
  5
1B0
330
1B
100
AcDbEntity
  8
F.Mask
  6
CONTINUOUS
100
AcDbLine
 10
117.5939339999999902
 20
-110.8510659999999888
 30
0
 11
117.5614179999999891
 21
-110.8024029999999982
 31
0
  0
LINE
  5
1B1
330
1B
100
AcDbEntity
  8
F.Mask
  6
CONTINUOUS
100
AcDbLine
 10
117.5614179999999891
 20
-110.8024029999999982
 30
0
 11
117.5499999999999972
 21
-110.7449999999999903
 31
0
  0
LINE
  5
1B2
330
1B
100
AcDbEntity
  8
F.Mask
  6
CONTINUOUS
100
AcDbLine
 10
117.5499999999999972
 20
-110.7449999999999903
 30
0
 11
117.5499999999999972
 21
-110.4449999999999932
 31
0
  0
LINE
  5
1B3
330
1B
100
AcDbEntity
  8
F.Mask
  6
CONTINUOUS
100
AcDbLine
 10
117.5499999999999972
 20
-110.4449999999999932
 30
0
 11
117.5614179999999891
 21
-110.3875969999999995
 31
0
  0
LINE
  5
1B4
330
1B
100
AcDbEntity
  8
F.Mask
  6
CONTINUOUS
100
AcDbLine
 10
117.5614179999999891
 20
-110.3875969999999995
 30
0
 11
117.5939339999999902
 21
-110.3389339999999947
 31
0
  0
LINE
  5
1B5
330
1B
100
AcDbEntity
  8
F.Mask
  6
CONTINUOUS
100
AcDbLine
 10
117.5939339999999902
 20
-110.3389339999999947
 30
0
 11
117.642596999999995
 21
-110.3064179999999936
 31
0
  0
LINE
  5
1B6
330
1B
100
AcDbEntity
  8
F.Mask
  6
CONTINUOUS
100
AcDbLine
 10
117.642596999999995
 20
-110.3064179999999936
 30
0
 11
117.6999999999999886
 21
-110.2950000000000017
 31
0
  0
LINE
  5
1B7
330
1B
100
AcDbEntity
  8
F.Mask
  6
CONTINUOUS
100
AcDbLine
 10
117.6999999999999886
 20
-110.2950000000000017
 30
0
 11
119.3499999999999943
 21
-110.2950000000000017
 31
0
  0
LINE
  5
1B8
330
1B
100
AcDbEntity
  8
F.Mask
  6
CONTINUOUS
100
AcDbLine
 10
119.3499999999999943
 20
-110.2950000000000017
 30
0
 11
119.407402999999988
 21
-110.3064179999999936
 31
0
  0
LINE
  5
1B9
330
1B
100
AcDbEntity
  8
F.Mask
  6
CONTINUOUS
100
AcDbLine
 10
124.3574029999999908
 20
-110.3064179999999936
 30
0
 11
124.4060659999999956
 21
-110.3389339999999947
 31
0
  0
LINE
  5
1BA
330
1B
100
AcDbEntity
  8
F.Mask
  6
CONTINUOUS
100
AcDbLine
 10
124.4060659999999956
 20
-110.3389339999999947
 30
0
 11
124.4385819999999967
 21
-110.3875969999999995
 31
0
  0
LINE
  5
1BB
330
1B
100
AcDbEntity
  8
F.Mask
  6
CONTINUOUS
100
AcDbLine
 10
124.4385819999999967
 20
-110.3875969999999995
 30
0
 11
124.4499999999999886
 21
-110.4449999999999932
 31
0
  0
LINE
  5
1BC
330
1B
100
AcDbEntity
  8
F.Mask
  6
CONTINUOUS
100
AcDbLine
 10
124.4499999999999886
 20
-110.4449999999999932
 30
0
 11
124.4499999999999886
 21
-110.7449999999999903
 31
0
  0
LINE
  5
1BD
330
1B
100
AcDbEntity
  8
F.Mask
  6
CONTINUOUS
100
AcDbLine
 10
124.4499999999999886
 20
-110.7449999999999903
 30
0
 11
124.4385819999999967
 21
-110.8024029999999982
 31
0
  0
LINE
  5
1BE
330
1B
100
AcDbEntity
  8
F.Mask
  6
CONTINUOUS
100
AcDbLine
 10
124.4385819999999967
 20
-110.8024029999999982
 30
0
 11
124.4060659999999956
 21
-110.8510659999999888
 31
0
  0
LINE
  5
1BF
330
1B
100
AcDbEntity
  8
F.Mask
  6
CONTINUOUS
100
AcDbLine
 10
124.4060659999999956
 20
-110.8510659999999888
 30
0
 11
124.3574029999999908
 21
-110.8835819999999899
 31
0
  0
LINE
  5
1C0
330
1B
100
AcDbEntity
  8
F.Mask
  6
CONTINUOUS
100
AcDbLine
 10
124.3574029999999908
 20
-110.8835819999999899
 30
0
 11
124.2999999999999972
 21
-110.894999999999996
 31
0
  0
LINE
  5
1C1
330
1B
100
AcDbEntity
  8
F.Mask
  6
CONTINUOUS
100
AcDbLine
 10
124.2999999999999972
 20
-110.894999999999996
 30
0
 11
122.6499999999999915
 21
-110.894999999999996
 31
0
  0
LINE
  5
1C2
330
1B
100
AcDbEntity
  8
F.Mask
  6
CONTINUOUS
100
AcDbLine
 10
122.6499999999999915
 20
-110.894999999999996
 30
0
 11
122.5925969999999978
 21
-110.8835819999999899
 31
0
  0
LINE
  5
1C3
330
1B
100
AcDbEntity
  8
F.Mask
  6
CONTINUOUS
100
AcDbLine
 10
122.5925969999999978
 20
-110.8835819999999899
 30
0
 11
122.543933999999993
 21
-110.8510659999999888
 31
0
  0
LINE
  5
1C4
330
1B
100
AcDbEntity
  8
F.Mask
  6
CONTINUOUS
100
AcDbLine
 10
122.543933999999993
 20
-110.8510659999999888
 30
0
 11
122.5114179999999919
 21
-110.8024029999999982
 31
0
  0
LINE
  5
1C5
330
1B
100
AcDbEntity
  8
F.Mask
  6
CONTINUOUS
100
AcDbLine
 10
122.5114179999999919
 20
-110.8024029999999982
 30
0
 11
122.5
 21
-110.7449999999999903
 31
0
  0
LINE
  5
1C6
330
1B
100
AcDbEntity
  8
F.Mask
  6
CONTINUOUS
100
AcDbLine
 10
122.5
 20
-110.7449999999999903
 30
0
 11
122.5
 21
-110.4449999999999932
 31
0
  0
LINE
  5
1C7
330
1B
100
AcDbEntity
  8
F.Mask
  6
CONTINUOUS
100
AcDbLine
 10
122.5
 20
-110.4449999999999932
 30
0
 11
122.5114179999999919
 21
-110.3875969999999995
 31
0
  0
LINE
  5
1C8
330
1B
100
AcDbEntity
  8
F.Mask
  6
CONTINUOUS
100
AcDbLine
 10
122.5114179999999919
 20
-110.3875969999999995
 30
0
 11
122.543933999999993
 21
-110.3389339999999947
 31
0
  0
LINE
  5
1C9
330
1B
100
AcDbEntity
  8
F.Mask
  6
CONTINUOUS
100
AcDbLine
 10
122.543933999999993
 20
-110.3389339999999947
 30
0
 11
122.5925969999999978
 21
-110.3064179999999936
 31
0
  0
LINE
  5
1CA
330
1B
100
AcDbEntity
  8
F.Mask
  6
CONTINUOUS
100
AcDbLine
 10
122.5925969999999978
 20
-110.3064179999999936
 30
0
 11
122.6499999999999915
 21
-110.2950000000000017
 31
0
  0
LINE
  5
1CB
330
1B
100
AcDbEntity
  8
F.Mask
  6
CONTINUOUS
100
AcDbLine
 10
122.6499999999999915
 20
-110.2950000000000017
 30
0
 11
124.2999999999999972
 21
-110.2950000000000017
 31
0
  0
LINE
  5
1CC
330
1B
100
AcDbEntity
  8
F.Mask
  6
CONTINUOUS
100
AcDbLine
 10
124.2999999999999972
 20
-110.2950000000000017
 30
0
 11
124.3574029999999908
 21
-110.3064179999999936
 31
0
  0
LINE
  5
1CD
330
1B
100
AcDbEntity
  8
F.Mask
  6
CONTINUOUS
100
AcDbLine
 10
104.5956709999999958
 20
-108.3190299999999979
 30
0
 11
104.6767770000000013
 21
-108.3732229999999959
 31
0
  0
LINE
  5
1CE
330
1B
100
AcDbEntity
  8
F.Mask
  6
CONTINUOUS
100
AcDbLine
 10
104.6767770000000013
 20
-108.3732229999999959
 30
0
 11
104.7309699999999992
 21
-108.4543290000000013
 31
0
  0
LINE
  5
1CF
330
1B
100
AcDbEntity
  8
F.Mask
  6
CONTINUOUS
100
AcDbLine
 10
104.7309699999999992
 20
-108.4543290000000013
 30
0
 11
104.75
 21
-108.5499999999999972
 31
0
  0
LINE
  5
1D0
330
1B
100
AcDbEntity
  8
F.Mask
  6
CONTINUOUS
100
AcDbLine
 10
104.75
 20
-108.5499999999999972
 30
0
 11
104.75
 21
-109.6499999999999915
 31
0
  0
LINE
  5
1D1
330
1B
100
AcDbEntity
  8
F.Mask
  6
CONTINUOUS
100
AcDbLine
 10
104.75
 20
-109.6499999999999915
 30
0
 11
104.7309699999999992
 21
-109.7456710000000015
 31
0
  0
LINE
  5
1D2
330
1B
100
AcDbEntity
  8
F.Mask
  6
CONTINUOUS
100
AcDbLine
 10
104.7309699999999992
 20
-109.7456710000000015
 30
0
 11
104.6767770000000013
 21
-109.8267769999999928
 31
0
  0
LINE
  5
1D3
330
1B
100
AcDbEntity
  8
F.Mask
  6
CONTINUOUS
100
AcDbLine
 10
104.6767770000000013
 20
-109.8267769999999928
 30
0
 11
104.5956709999999958
 21
-109.8809699999999907
 31
0
  0
LINE
  5
1D4
330
1B
100
AcDbEntity
  8
F.Mask
  6
CONTINUOUS
100
AcDbLine
 10
104.5956709999999958
 20
-109.8809699999999907
 30
0
 11
104.5
 21
-109.8999999999999915
 31
0
  0
LINE
  5
1D5
330
1B
100
AcDbEntity
  8
F.Mask
  6
CONTINUOUS
100
AcDbLine
 10
104.5
 20
-109.8999999999999915
 30
0
 11
102.
 21
-109.8999999999999915
 31
0
  0
LINE
  5
1D6
330
1B
100
AcDbEntity
  8
F.Mask
  6
CONTINUOUS
100
AcDbLine
 10
102.
 20
-109.8999999999999915
 30
0
 11
101.9043289999999899
 21
-109.8809699999999907
 31
0
  0
LINE
  5
1D7
330
1B
100
AcDbEntity
  8
F.Mask
  6
CONTINUOUS
100
AcDbLine
 10
101.9043289999999899
 20
-109.8809699999999907
 30
0
 11
101.8232229999999987
 21
-109.8267769999999928
 31
0
  0
LINE
  5
1D8
330
1B
100
AcDbEntity
  8
F.Mask
  6
CONTINUOUS
100
AcDbLine
 10
101.8232229999999987
 20
-109.8267769999999928
 30
0
 11
101.7690300000000008
 21
-109.7456710000000015
 31
0
  0
LINE
  5
1D9
330
1B
100
AcDbEntity
  8
F.Mask
  6
CONTINUOUS
100
AcDbLine
 10
101.7690300000000008
 20
-109.7456710000000015
 30
0
 11
101.75
 21
-109.6499999999999915
 31
0
  0
LINE
  5
1DA
330
1B
100
AcDbEntity
  8
F.Mask
  6
CONTINUOUS
100
AcDbLine
 10
101.75
 20
-109.6499999999999915
 30
0
 11
101.75
 21
-108.5499999999999972
 31
0
  0
LINE
  5
1DB
330
1B
100
AcDbEntity
  8
F.Mask
  6
CONTINUOUS
100
AcDbLine
 10
101.75
 20
-108.5499999999999972
 30
0
 11
101.7690300000000008
 21
-108.4543290000000013
 31
0
  0
LINE
  5
1DC
330
1B
100
AcDbEntity
  8
F.Mask
  6
CONTINUOUS
100
AcDbLine
 10
101.7690300000000008
 20
-108.4543290000000013
 30
0
 11
101.8232229999999987
 21
-108.3732229999999959
 31
0
  0
LINE
  5
1DD
330
1B
100
AcDbEntity
  8
F.Mask
  6
CONTINUOUS
100
AcDbLine
 10
101.8232229999999987
 20
-108.3732229999999959
 30
0
 11
101.9043289999999899
 21
-108.3190299999999979
 31
0
  0
LINE
  5
1DE
330
1B
100
AcDbEntity
  8
F.Mask
  6
CONTINUOUS
100
AcDbLine
 10
101.9043289999999899
 20
-108.3190299999999979
 30
0
 11
102.
 21
-108.2999999999999972
 31
0
  0
LINE
  5
1DF
330
1B
100
AcDbEntity
  8
F.Mask
  6
CONTINUOUS
100
AcDbLine
 10
102.
 20
-108.2999999999999972
 30
0
 11
104.5
 21
-108.2999999999999972
 31
0
  0
LINE
  5
1E0
330
1B
100
AcDbEntity
  8
F.Mask
  6
CONTINUOUS
100
AcDbLine
 10
104.5
 20
-108.2999999999999972
 30
0
 11
104.5956709999999958
 21
-108.3190299999999979
 31
0
  0
LINE
  5
1E1
330
1B
100
AcDbEntity
  8
F.Mask
  6
CONTINUOUS
100
AcDbLine
 10
127.3515369999999933
 20
-107.9402240000000006
 30
0
 11
127.4164209999999997
 21
-107.9835789999999918
 31
0
  0
LINE
  5
1E2
330
1B
100
AcDbEntity
  8
F.Mask
  6
CONTINUOUS
100
AcDbLine
 10
127.4164209999999997
 20
-107.9835789999999918
 30
0
 11
127.4597759999999909
 21
-108.0484629999999981
 31
0
  0
LINE
  5
1E3
330
1B
100
AcDbEntity
  8
F.Mask
  6
CONTINUOUS
100
AcDbLine
 10
127.4597759999999909
 20
-108.0484629999999981
 30
0
 11
127.4749999999999943
 21
-108.125
 31
0
  0
LINE
  5
1E4
330
1B
100
AcDbEntity
  8
F.Mask
  6
CONTINUOUS
100
AcDbLine
 10
127.4749999999999943
 20
-108.125
 30
0
 11
127.4749999999999943
 21
-108.5249999999999915
 31
0
  0
LINE
  5
1E5
330
1B
100
AcDbEntity
  8
F.Mask
  6
CONTINUOUS
100
AcDbLine
 10
127.4749999999999943
 20
-108.5249999999999915
 30
0
 11
127.4597759999999909
 21
-108.6015369999999933
 31
0
  0
LINE
  5
1E6
330
1B
100
AcDbEntity
  8
F.Mask
  6
CONTINUOUS
100
AcDbLine
 10
127.4597759999999909
 20
-108.6015369999999933
 30
0
 11
127.4164209999999997
 21
-108.6664209999999997
 31
0
  0
LINE
  5
1E7
330
1B
100
AcDbEntity
  8
F.Mask
  6
CONTINUOUS
100
AcDbLine
 10
127.4164209999999997
 20
-108.6664209999999997
 30
0
 11
127.3515369999999933
 21
-108.7097759999999909
 31
0
  0
LINE
  5
1E8
330
1B
100
AcDbEntity
  8
F.Mask
  6
CONTINUOUS
100
AcDbLine
 10
127.3515369999999933
 20
-108.7097759999999909
 30
0
 11
127.2749999999999915
 21
-108.7249999999999943
 31
0
  0
LINE
  5
1E9
330
1B
100
AcDbEntity
  8
F.Mask
  6
CONTINUOUS
100
AcDbLine
 10
127.2749999999999915
 20
-108.7249999999999943
 30
0
 11
126.7249999999999943
 21
-108.7249999999999943
 31
0
  0
LINE
  5
1EA
330
1B
100
AcDbEntity
  8
F.Mask
  6
CONTINUOUS
100
AcDbLine
 10
126.7249999999999943
 20
-108.7249999999999943
 30
0
 11
126.6484629999999925
 21
-108.7097759999999909
 31
0
  0
LINE
  5
1EB
330
1B
100
AcDbEntity
  8
F.Mask
  6
CONTINUOUS
100
AcDbLine
 10
126.6484629999999925
 20
-108.7097759999999909
 30
0
 11
126.5835790000000003
 21
-108.6664209999999997
 31
0
  0
LINE
  5
1EC
330
1B
100
AcDbEntity
  8
F.Mask
  6
CONTINUOUS
100
AcDbLine
 10
126.5835790000000003
 20
-108.6664209999999997
 30
0
 11
126.5402239999999949
 21
-108.6015369999999933
 31
0
  0
LINE
  5
1ED
330
1B
100
AcDbEntity
  8
F.Mask
  6
CONTINUOUS
100
AcDbLine
 10
126.5402239999999949
 20
-108.6015369999999933
 30
0
 11
126.5249999999999915
 21
-108.5249999999999915
 31
0
  0
LINE
  5
1EE
330
1B
100
AcDbEntity
  8
F.Mask
  6
CONTINUOUS
100
AcDbLine
 10
126.5249999999999915
 20
-108.5249999999999915
 30
0
 11
126.5249999999999915
 21
-108.125
 31
0
  0
LINE
  5
1EF
330
1B
100
AcDbEntity
  8
F.Mask
  6
CONTINUOUS
100
AcDbLine
 10
126.5249999999999915
 20
-108.125
 30
0
 11
126.5402239999999949
 21
-108.0484629999999981
 31
0
  0
LINE
  5
1F0
330
1B
100
AcDbEntity
  8
F.Mask
  6
CONTINUOUS
100
AcDbLine
 10
126.5402239999999949
 20
-108.0484629999999981
 30
0
 11
126.5835790000000003
 21
-107.9835789999999918
 31
0
  0
LINE
  5
1F1
330
1B
100
AcDbEntity
  8
F.Mask
  6
CONTINUOUS
100
AcDbLine
 10
126.5835790000000003
 20
-107.9835789999999918
 30
0
 11
126.6484629999999925
 21
-107.9402240000000006
 31
0
  0
LINE
  5
1F2
330
1B
100
AcDbEntity
  8
F.Mask
  6
CONTINUOUS
100
AcDbLine
 10
126.6484629999999925
 20
-107.9402240000000006
 30
0
 11
126.7249999999999943
 21
-107.9249999999999972
 31
0
  0
LINE
  5
1F3
330
1B
100
AcDbEntity
  8
F.Mask
  6
CONTINUOUS
100
AcDbLine
 10
126.7249999999999943
 20
-107.9249999999999972
 30
0
 11
127.2749999999999915
 21
-107.9249999999999972
 31
0
  0
LINE
  5
1F4
330
1B
100
AcDbEntity
  8
F.Mask
  6
CONTINUOUS
100
AcDbLine
 10
127.2749999999999915
 20
-107.9249999999999972
 30
0
 11
127.3515369999999933
 21
-107.9402240000000006
 31
0
  0
LINE
  5
1F5
330
1B
100
AcDbEntity
  8
F.Mask
  6
CONTINUOUS
100
AcDbLine
 10
127.3515369999999933
 20
-106.2902239999999949
 30
0
 11
127.4164209999999997
 21
-106.3335790000000003
 31
0
  0
LINE
  5
1F6
330
1B
100
AcDbEntity
  8
F.Mask
  6
CONTINUOUS
100
AcDbLine
 10
127.4164209999999997
 20
-106.3335790000000003
 30
0
 11
127.4597759999999909
 21
-106.3984629999999925
 31
0
  0
LINE
  5
1F7
330
1B
100
AcDbEntity
  8
F.Mask
  6
CONTINUOUS
100
AcDbLine
 10
127.4597759999999909
 20
-106.3984629999999925
 30
0
 11
127.4749999999999943
 21
-106.4749999999999943
 31
0
  0
LINE
  5
1F8
330
1B
100
AcDbEntity
  8
F.Mask
  6
CONTINUOUS
100
AcDbLine
 10
127.4749999999999943
 20
-106.4749999999999943
 30
0
 11
127.4749999999999943
 21
-106.875
 31
0
  0
LINE
  5
1F9
330
1B
100
AcDbEntity
  8
F.Mask
  6
CONTINUOUS
100
AcDbLine
 10
127.4749999999999943
 20
-106.875
 30
0
 11
127.4597759999999909
 21
-106.9515370000000019
 31
0
  0
LINE
  5
1FA
330
1B
100
AcDbEntity
  8
F.Mask
  6
CONTINUOUS
100
AcDbLine
 10
127.4597759999999909
 20
-106.9515370000000019
 30
0
 11
127.4164209999999997
 21
-107.016420999999994
 31
0
  0
LINE
  5
1FB
330
1B
100
AcDbEntity
  8
F.Mask
  6
CONTINUOUS
100
AcDbLine
 10
127.4164209999999997
 20
-107.016420999999994
 30
0
 11
127.3515369999999933
 21
-107.0597759999999994
 31
0
  0
LINE
  5
1FC
330
1B
100
AcDbEntity
  8
F.Mask
  6
CONTINUOUS
100
AcDbLine
 10
127.3515369999999933
 20
-107.0597759999999994
 30
0
 11
127.2749999999999915
 21
-107.0749999999999886
 31
0
  0
LINE
  5
1FD
330
1B
100
AcDbEntity
  8
F.Mask
  6
CONTINUOUS
100
AcDbLine
 10
127.2749999999999915
 20
-107.0749999999999886
 30
0
 11
126.7249999999999943
 21
-107.0749999999999886
 31
0
  0
LINE
  5
1FE
330
1B
100
AcDbEntity
  8
F.Mask
  6
CONTINUOUS
100
AcDbLine
 10
126.7249999999999943
 20
-107.0749999999999886
 30
0
 11
126.6484629999999925
 21
-107.0597759999999994
 31
0
  0
LINE
  5
1FF
330
1B
100
AcDbEntity
  8
F.Mask
  6
CONTINUOUS
100
AcDbLine
 10
126.6484629999999925
 20
-107.0597759999999994
 30
0
 11
126.5835790000000003
 21
-107.016420999999994
 31
0
  0
LINE
  5
200
330
1B
100
AcDbEntity
  8
F.Mask
  6
CONTINUOUS
100
AcDbLine
 10
126.5835790000000003
 20
-107.016420999999994
 30
0
 11
126.5402239999999949
 21
-106.9515370000000019
 31
0
  0
LINE
  5
201
330
1B
100
AcDbEntity
  8
F.Mask
  6
CONTINUOUS
100
AcDbLine
 10
126.5402239999999949
 20
-106.9515370000000019
 30
0
 11
126.5249999999999915
 21
-106.875
 31
0
  0
LINE
  5
202
330
1B
100
AcDbEntity
  8
F.Mask
  6
CONTINUOUS
100
AcDbLine
 10
126.5249999999999915
 20
-106.875
 30
0
 11
126.5249999999999915
 21
-106.4749999999999943
 31
0
  0
LINE
  5
203
330
1B
100
AcDbEntity
  8
F.Mask
  6
CONTINUOUS
100
AcDbLine
 10
126.5249999999999915
 20
-106.4749999999999943
 30
0
 11
126.5402239999999949
 21
-106.3984629999999925
 31
0
  0
LINE
  5
204
330
1B
100
AcDbEntity
  8
F.Mask
  6
CONTINUOUS
100
AcDbLine
 10
126.5402239999999949
 20
-106.3984629999999925
 30
0
 11
126.5835790000000003
 21
-106.3335790000000003
 31
0
  0
LINE
  5
205
330
1B
100
AcDbEntity
  8
F.Mask
  6
CONTINUOUS
100
AcDbLine
 10
126.5835790000000003
 20
-106.3335790000000003
 30
0
 11
126.6484629999999925
 21
-106.2902239999999949
 31
0
  0
LINE
  5
206
330
1B
100
AcDbEntity
  8
F.Mask
  6
CONTINUOUS
100
AcDbLine
 10
126.6484629999999925
 20
-106.2902239999999949
 30
0
 11
126.7249999999999943
 21
-106.2749999999999915
 31
0
  0
LINE
  5
207
330
1B
100
AcDbEntity
  8
F.Mask
  6
CONTINUOUS
100
AcDbLine
 10
126.7249999999999943
 20
-106.2749999999999915
 30
0
 11
127.2749999999999915
 21
-106.2749999999999915
 31
0
  0
LINE
  5
208
330
1B
100
AcDbEntity
  8
F.Mask
  6
CONTINUOUS
100
AcDbLine
 10
127.2749999999999915
 20
-106.2749999999999915
 30
0
 11
127.3515369999999933
 21
-106.2902239999999949
 31
0
  0
LINE
  5
209
330
1B
100
AcDbEntity
  8
Edge.Cuts
  6
CONTINUOUS
100
AcDbLine
 10
138.
 20
-99.9749999999999943
 30
0
 11
138.2643159999999796
 21
-99.9923239999999964
 31
0
  0
LINE
  5
20A
330
1B
100
AcDbEntity
  8
Edge.Cuts
  6
CONTINUOUS
100
AcDbLine
 10
138.2643159999999796
 20
-99.9923239999999964
 30
0
 11
138.5241089999999815
 21
-100.0439999999999969
 31
0
  0
LINE
  5
20B
330
1B
100
AcDbEntity
  8
Edge.Cuts
  6
CONTINUOUS
100
AcDbLine
 10
138.5241089999999815
 20
-100.0439999999999969
 30
0
 11
138.7749340000000018
 21
-100.1291439999999966
 31
0
  0
LINE
  5
20C
330
1B
100
AcDbEntity
  8
Edge.Cuts
  6
CONTINUOUS
100
AcDbLine
 10
138.7749340000000018
 20
-100.1291439999999966
 30
0
 11
139.0124999999999886
 21
-100.2462989999999934
 31
0
  0
LINE
  5
20D
330
1B
100
AcDbEntity
  8
Edge.Cuts
  6
CONTINUOUS
100
AcDbLine
 10
139.0124999999999886
 20
-100.2462989999999934
 30
0
 11
139.2327420000000018
 21
-100.3934599999999904
 31
0
  0
LINE
  5
20E
330
1B
100
AcDbEntity
  8
Edge.Cuts
  6
CONTINUOUS
100
AcDbLine
 10
139.2327420000000018
 20
-100.3934599999999904
 30
0
 11
139.4318910000000074
 21
-100.5681089999999926
 31
0
  0
LINE
  5
20F
330
1B
100
AcDbEntity
  8
Edge.Cuts
  6
CONTINUOUS
100
AcDbLine
 10
139.4318910000000074
 20
-100.5681089999999926
 30
0
 11
139.6065399999999954
 21
-100.7672579999999982
 31
0
  0
LINE
  5
210
330
1B
100
AcDbEntity
  8
Edge.Cuts
  6
CONTINUOUS
100
AcDbLine
 10
139.6065399999999954
 20
-100.7672579999999982
 30
0
 11
139.7537010000000066
 21
-100.9874999999999972
 31
0
  0
LINE
  5
211
330
1B
100
AcDbEntity
  8
Edge.Cuts
  6
CONTINUOUS
100
AcDbLine
 10
139.7537010000000066
 20
-100.9874999999999972
 30
0
 11
139.8708560000000034
 21
-101.2250659999999982
 31
0
  0
LINE
  5
212
330
1B
100
AcDbEntity
  8
Edge.Cuts
  6
CONTINUOUS
100
AcDbLine
 10
139.8708560000000034
 20
-101.2250659999999982
 30
0
 11
139.9559999999999889
 21
-101.4758909999999901
 31
0
  0
LINE
  5
213
330
1B
100
AcDbEntity
  8
Edge.Cuts
  6
CONTINUOUS
100
AcDbLine
 10
139.9559999999999889
 20
-101.4758909999999901
 30
0
 11
140.0076760000000036
 21
-101.735683999999992
 31
0
  0
LINE
  5
214
330
1B
100
AcDbEntity
  8
Edge.Cuts
  6
CONTINUOUS
100
AcDbLine
 10
140.0076760000000036
 20
-101.735683999999992
 30
0
 11
140.0250000000000057
 21
-102.
 31
0
  0
LINE
  5
215
330
1B
100
AcDbEntity
  8
Edge.Cuts
  6
CONTINUOUS
100
AcDbLine
 10
140.0250000000000057
 20
-102.
 30
0
 11
140.0250000000000057
 21
-123.
 31
0
  0
LINE
  5
216
330
1B
100
AcDbEntity
  8
Edge.Cuts
  6
CONTINUOUS
100
AcDbLine
 10
140.0250000000000057
 20
-123.
 30
0
 11
140.0076760000000036
 21
-123.2643149999999963
 31
0
  0
LINE
  5
217
330
1B
100
AcDbEntity
  8
Edge.Cuts
  6
CONTINUOUS
100
AcDbLine
 10
140.0076760000000036
 20
-123.2643149999999963
 30
0
 11
139.9559989999999914
 21
-123.5241079999999982
 31
0
  0
LINE
  5
218
330
1B
100
AcDbEntity
  8
Edge.Cuts
  6
CONTINUOUS
100
AcDbLine
 10
139.9559989999999914
 20
-123.5241079999999982
 30
0
 11
139.8708560000000034
 21
-123.7749339999999876
 31
0
  0
LINE
  5
219
330
1B
100
AcDbEntity
  8
Edge.Cuts
  6
CONTINUOUS
100
AcDbLine
 10
139.8708560000000034
 20
-123.7749339999999876
 30
0
 11
139.7537010000000066
 21
-124.0124999999999886
 31
0
  0
LINE
  5
21A
330
1B
100
AcDbEntity
  8
Edge.Cuts
  6
CONTINUOUS
100
AcDbLine
 10
139.7537010000000066
 20
-124.0124999999999886
 30
0
 11
139.6065399999999954
 21
-124.2327409999999901
 31
0
  0
LINE
  5
21B
330
1B
100
AcDbEntity
  8
Edge.Cuts
  6
CONTINUOUS
100
AcDbLine
 10
139.6065399999999954
 20
-124.2327409999999901
 30
0
 11
139.4318910000000074
 21
-124.4318909999999931
 31
0
  0
LINE
  5
21C
330
1B
100
AcDbEntity
  8
Edge.Cuts
  6
CONTINUOUS
100
AcDbLine
 10
139.4318910000000074
 20
-124.4318909999999931
 30
0
 11
139.2327410000000043
 21
-124.6065399999999954
 31
0
  0
LINE
  5
21D
330
1B
100
AcDbEntity
  8
Edge.Cuts
  6
CONTINUOUS
100
AcDbLine
 10
139.2327410000000043
 20
-124.6065399999999954
 30
0
 11
139.0124999999999886
 21
-124.7537009999999924
 31
0
  0
LINE
  5
21E
330
1B
100
AcDbEntity
  8
Edge.Cuts
  6
CONTINUOUS
100
AcDbLine
 10
139.0124999999999886
 20
-124.7537009999999924
 30
0
 11
138.7749340000000018
 21
-124.8708559999999892
 31
0
  0
LINE
  5
21F
330
1B
100
AcDbEntity
  8
Edge.Cuts
  6
CONTINUOUS
100
AcDbLine
 10
138.7749340000000018
 20
-124.8708559999999892
 30
0
 11
138.524107999999984
 21
-124.9559989999999914
 31
0
  0
LINE
  5
220
330
1B
100
AcDbEntity
  8
Edge.Cuts
  6
CONTINUOUS
100
AcDbLine
 10
138.524107999999984
 20
-124.9559989999999914
 30
0
 11
138.2643149999999821
 21
-125.0076759999999894
 31
0
  0
LINE
  5
221
330
1B
100
AcDbEntity
  8
Edge.Cuts
  6
CONTINUOUS
100
AcDbLine
 10
138.2643149999999821
 20
-125.0076759999999894
 30
0
 11
138.
 21
-125.0249999999999915
 31
0
  0
LINE
  5
222
330
1B
100
AcDbEntity
  8
Edge.Cuts
  6
CONTINUOUS
100
AcDbLine
 10
138.
 20
-125.0249999999999915
 30
0
 11
102.
 21
-125.0249999999999915
 31
0
  0
LINE
  5
223
330
1B
100
AcDbEntity
  8
Edge.Cuts
  6
CONTINUOUS
100
AcDbLine
 10
102.
 20
-125.0249999999999915
 30
0
 11
101.735683999999992
 21
-125.0076759999999894
 31
0
  0
LINE
  5
224
330
1B
100
AcDbEntity
  8
Edge.Cuts
  6
CONTINUOUS
100
AcDbLine
 10
101.735683999999992
 20
-125.0076759999999894
 30
0
 11
101.4758909999999901
 21
-124.9559999999999889
 31
0
  0
LINE
  5
225
330
1B
100
AcDbEntity
  8
Edge.Cuts
  6
CONTINUOUS
100
AcDbLine
 10
101.4758909999999901
 20
-124.9559999999999889
 30
0
 11
101.2250659999999982
 21
-124.8708559999999892
 31
0
  0
LINE
  5
226
330
1B
100
AcDbEntity
  8
Edge.Cuts
  6
CONTINUOUS
100
AcDbLine
 10
101.2250659999999982
 20
-124.8708559999999892
 30
0
 11
100.9874999999999972
 21
-124.7537009999999924
 31
0
  0
LINE
  5
227
330
1B
100
AcDbEntity
  8
Edge.Cuts
  6
CONTINUOUS
100
AcDbLine
 10
100.9874999999999972
 20
-124.7537009999999924
 30
0
 11
100.7672579999999982
 21
-124.6065399999999954
 31
0
  0
LINE
  5
228
330
1B
100
AcDbEntity
  8
Edge.Cuts
  6
CONTINUOUS
100
AcDbLine
 10
100.7672579999999982
 20
-124.6065399999999954
 30
0
 11
100.5681089999999926
 21
-124.4318909999999931
 31
0
  0
LINE
  5
229
330
1B
100
AcDbEntity
  8
Edge.Cuts
  6
CONTINUOUS
100
AcDbLine
 10
100.5681089999999926
 20
-124.4318909999999931
 30
0
 11
100.3934599999999904
 21
-124.2327419999999876
 31
0
  0
LINE
  5
22A
330
1B
100
AcDbEntity
  8
Edge.Cuts
  6
CONTINUOUS
100
AcDbLine
 10
100.3934599999999904
 20
-124.2327419999999876
 30
0
 11
100.2462989999999934
 21
-124.0124999999999886
 31
0
  0
LINE
  5
22B
330
1B
100
AcDbEntity
  8
Edge.Cuts
  6
CONTINUOUS
100
AcDbLine
 10
100.2462989999999934
 20
-124.0124999999999886
 30
0
 11
100.1291439999999966
 21
-123.7749339999999876
 31
0
  0
LINE
  5
22C
330
1B
100
AcDbEntity
  8
Edge.Cuts
  6
CONTINUOUS
100
AcDbLine
 10
100.1291439999999966
 20
-123.7749339999999876
 30
0
 11
100.0439999999999969
 21
-123.5241089999999957
 31
0
  0
LINE
  5
22D
330
1B
100
AcDbEntity
  8
Edge.Cuts
  6
CONTINUOUS
100
AcDbLine
 10
100.0439999999999969
 20
-123.5241089999999957
 30
0
 11
99.9923239999999964
 21
-123.2643159999999938
 31
0
  0
LINE
  5
22E
330
1B
100
AcDbEntity
  8
Edge.Cuts
  6
CONTINUOUS
100
AcDbLine
 10
99.9923239999999964
 20
-123.2643159999999938
 30
0
 11
99.9749999999999943
 21
-123.
 31
0
  0
LINE
  5
22F
330
1B
100
AcDbEntity
  8
Edge.Cuts
  6
CONTINUOUS
100
AcDbLine
 10
99.9749999999999943
 20
-123.
 30
0
 11
99.9749999999999943
 21
-102.
 31
0
  0
LINE
  5
230
330
1B
100
AcDbEntity
  8
Edge.Cuts
  6
CONTINUOUS
100
AcDbLine
 10
99.9749999999999943
 20
-102.
 30
0
 11
99.9923239999999964
 21
-101.735683999999992
 31
0
  0
LINE
  5
231
330
1B
100
AcDbEntity
  8
Edge.Cuts
  6
CONTINUOUS
100
AcDbLine
 10
99.9923239999999964
 20
-101.735683999999992
 30
0
 11
100.0439999999999969
 21
-101.4758909999999901
 31
0
  0
LINE
  5
232
330
1B
100
AcDbEntity
  8
Edge.Cuts
  6
CONTINUOUS
100
AcDbLine
 10
100.0439999999999969
 20
-101.4758909999999901
 30
0
 11
100.1291439999999966
 21
-101.2250659999999982
 31
0
  0
LINE
  5
233
330
1B
100
AcDbEntity
  8
Edge.Cuts
  6
CONTINUOUS
100
AcDbLine
 10
100.1291439999999966
 20
-101.2250659999999982
 30
0
 11
100.2462979999999959
 21
-100.9874999999999972
 31
0
  0
LINE
  5
234
330
1B
100
AcDbEntity
  8
Edge.Cuts
  6
CONTINUOUS
100
AcDbLine
 10
100.2462979999999959
 20
-100.9874999999999972
 30
0
 11
100.3934589999999929
 21
-100.7672579999999982
 31
0
  0
LINE
  5
235
330
1B
100
AcDbEntity
  8
Edge.Cuts
  6
CONTINUOUS
100
AcDbLine
 10
100.3934589999999929
 20
-100.7672579999999982
 30
0
 11
100.5681079999999952
 21
-100.5681079999999952
 31
0
  0
LINE
  5
236
330
1B
100
AcDbEntity
  8
Edge.Cuts
  6
CONTINUOUS
100
AcDbLine
 10
100.5681079999999952
 20
-100.5681079999999952
 30
0
 11
100.7672579999999982
 21
-100.3934589999999929
 31
0
  0
LINE
  5
237
330
1B
100
AcDbEntity
  8
Edge.Cuts
  6
CONTINUOUS
100
AcDbLine
 10
100.7672579999999982
 20
-100.3934589999999929
 30
0
 11
100.9874999999999972
 21
-100.2462979999999959
 31
0
  0
LINE
  5
238
330
1B
100
AcDbEntity
  8
Edge.Cuts
  6
CONTINUOUS
100
AcDbLine
 10
100.9874999999999972
 20
-100.2462979999999959
 30
0
 11
101.2250659999999982
 21
-100.1291439999999966
 31
0
  0
LINE
  5
239
330
1B
100
AcDbEntity
  8
Edge.Cuts
  6
CONTINUOUS
100
AcDbLine
 10
101.2250659999999982
 20
-100.1291439999999966
 30
0
 11
101.4758909999999901
 21
-100.0439999999999969
 31
0
  0
LINE
  5
23A
330
1B
100
AcDbEntity
  8
Edge.Cuts
  6
CONTINUOUS
100
AcDbLine
 10
101.4758909999999901
 20
-100.0439999999999969
 30
0
 11
101.735683999999992
 21
-99.9923239999999964
 31
0
  0
LINE
  5
23B
330
1B
100
AcDbEntity
  8
Edge.Cuts
  6
CONTINUOUS
100
AcDbLine
 10
101.735683999999992
 20
-99.9923239999999964
 30
0
 11
102.
 21
-99.9749999999999943
 31
0
  0
LINE
  5
23C
330
1B
100
AcDbEntity
  8
Edge.Cuts
  6
CONTINUOUS
100
AcDbLine
 10
102.
 20
-99.9749999999999943
 30
0
 11
138.
 21
-99.9749999999999943
 31
0
  0
LINE
  5
23D
330
1B
100
AcDbEntity
  8
Edge.Cuts
  6
CONTINUOUS
100
AcDbLine
 10
102.
 20
-100.0249999999999915
 30
0
 11
101.8705519999999893
 21
-100.0249999999999915
 31
0
  0
LINE
  5
23E
330
1B
100
AcDbEntity
  8
Edge.Cuts
  6
CONTINUOUS
100
AcDbLine
 10
101.8705519999999893
 20
-100.0249999999999915
 30
0
 11
101.6138699999999915
 21
-100.0587919999999968
 31
0
  0
LINE
  5
23F
330
1B
100
AcDbEntity
  8
Edge.Cuts
  6
CONTINUOUS
100
AcDbLine
 10
101.6138699999999915
 20
-100.0587919999999968
 30
0
 11
101.3637949999999961
 21
-100.1257999999999981
 31
0
  0
LINE
  5
240
330
1B
100
AcDbEntity
  8
Edge.Cuts
  6
CONTINUOUS
100
AcDbLine
 10
101.3637949999999961
 20
-100.1257999999999981
 30
0
 11
101.1246050000000025
 21
-100.2248749999999973
 31
0
  0
LINE
  5
241
330
1B
100
AcDbEntity
  8
Edge.Cuts
  6
CONTINUOUS
100
AcDbLine
 10
101.1246050000000025
 20
-100.2248749999999973
 30
0
 11
100.9003939999999915
 21
-100.3543229999999937
 31
0
  0
LINE
  5
242
330
1B
100
AcDbEntity
  8
Edge.Cuts
  6
CONTINUOUS
100
AcDbLine
 10
100.9003939999999915
 20
-100.3543229999999937
 30
0
 11
100.6949970000000008
 21
-100.5119299999999924
 31
0
  0
LINE
  5
243
330
1B
100
AcDbEntity
  8
Edge.Cuts
  6
CONTINUOUS
100
AcDbLine
 10
100.6949970000000008
 20
-100.5119299999999924
 30
0
 11
100.5119299999999924
 21
-100.6949970000000008
 31
0
  0
LINE
  5
244
330
1B
100
AcDbEntity
  8
Edge.Cuts
  6
CONTINUOUS
100
AcDbLine
 10
100.5119299999999924
 20
-100.6949970000000008
 30
0
 11
100.3543229999999937
 21
-100.9003939999999915
 31
0
  0
LINE
  5
245
330
1B
100
AcDbEntity
  8
Edge.Cuts
  6
CONTINUOUS
100
AcDbLine
 10
100.3543229999999937
 20
-100.9003939999999915
 30
0
 11
100.2248749999999973
 21
-101.1246050000000025
 31
0
  0
LINE
  5
246
330
1B
100
AcDbEntity
  8
Edge.Cuts
  6
CONTINUOUS
100
AcDbLine
 10
100.2248749999999973
 20
-101.1246050000000025
 30
0
 11
100.1257999999999981
 21
-101.3637949999999961
 31
0
  0
LINE
  5
247
330
1B
100
AcDbEntity
  8
Edge.Cuts
  6
CONTINUOUS
100
AcDbLine
 10
100.1257999999999981
 20
-101.3637949999999961
 30
0
 11
100.0587919999999968
 21
-101.6138699999999915
 31
0
  0
LINE
  5
248
330
1B
100
AcDbEntity
  8
Edge.Cuts
  6
CONTINUOUS
100
AcDbLine
 10
100.0587919999999968
 20
-101.6138699999999915
 30
0
 11
100.0249999999999915
 21
-101.8705519999999893
 31
0
  0
LINE
  5
249
330
1B
100
AcDbEntity
  8
Edge.Cuts
  6
CONTINUOUS
100
AcDbLine
 10
100.0249999999999915
 20
-101.8705519999999893
 30
0
 11
100.0249999999999915
 21
-102.
 31
0
  0
LINE
  5
24A
330
1B
100
AcDbEntity
  8
Edge.Cuts
  6
CONTINUOUS
100
AcDbLine
 10
100.0249999999999915
 20
-102.
 30
0
 11
100.0249999999999915
 21
-123.
 31
0
  0
LINE
  5
24B
330
1B
100
AcDbEntity
  8
Edge.Cuts
  6
CONTINUOUS
100
AcDbLine
 10
100.0249999999999915
 20
-123.
 30
0
 11
100.0249999999999915
 21
-123.1294479999999965
 31
0
  0
LINE
  5
24C
330
1B
100
AcDbEntity
  8
Edge.Cuts
  6
CONTINUOUS
100
AcDbLine
 10
100.0249999999999915
 20
-123.1294479999999965
 30
0
 11
100.0587929999999943
 21
-123.3861299999999943
 31
0
  0
LINE
  5
24D
330
1B
100
AcDbEntity
  8
Edge.Cuts
  6
CONTINUOUS
100
AcDbLine
 10
100.0587929999999943
 20
-123.3861299999999943
 30
0
 11
100.1257999999999981
 21
-123.6362049999999897
 31
0
  0
LINE
  5
24E
330
1B
100
AcDbEntity
  8
Edge.Cuts
  6
CONTINUOUS
100
AcDbLine
 10
100.1257999999999981
 20
-123.6362049999999897
 30
0
 11
100.2248749999999973
 21
-123.8753949999999975
 31
0
  0
LINE
  5
24F
330
1B
100
AcDbEntity
  8
Edge.Cuts
  6
CONTINUOUS
100
AcDbLine
 10
100.2248749999999973
 20
-123.8753949999999975
 30
0
 11
100.3543239999999912
 21
-124.0996059999999943
 31
0
  0
LINE
  5
250
330
1B
100
AcDbEntity
  8
Edge.Cuts
  6
CONTINUOUS
100
AcDbLine
 10
100.3543239999999912
 20
-124.0996059999999943
 30
0
 11
100.5119299999999924
 21
-124.3050019999999876
 31
0
  0
LINE
  5
251
330
1B
100
AcDbEntity
  8
Edge.Cuts
  6
CONTINUOUS
100
AcDbLine
 10
100.5119299999999924
 20
-124.3050019999999876
 30
0
 11
100.6949979999999982
 21
-124.4880699999999933
 31
0
  0
LINE
  5
252
330
1B
100
AcDbEntity
  8
Edge.Cuts
  6
CONTINUOUS
100
AcDbLine
 10
100.6949979999999982
 20
-124.4880699999999933
 30
0
 11
100.9003939999999915
 21
-124.6456759999999946
 31
0
  0
LINE
  5
253
330
1B
100
AcDbEntity
  8
Edge.Cuts
  6
CONTINUOUS
100
AcDbLine
 10
100.9003939999999915
 20
-124.6456759999999946
 30
0
 11
101.1246050000000025
 21
-124.7751249999999885
 31
0
  0
LINE
  5
254
330
1B
100
AcDbEntity
  8
Edge.Cuts
  6
CONTINUOUS
100
AcDbLine
 10
101.1246050000000025
 20
-124.7751249999999885
 30
0
 11
101.3637949999999961
 21
-124.8741999999999877
 31
0
  0
LINE
  5
255
330
1B
100
AcDbEntity
  8
Edge.Cuts
  6
CONTINUOUS
100
AcDbLine
 10
101.3637949999999961
 20
-124.8741999999999877
 30
0
 11
101.6138699999999915
 21
-124.9412069999999915
 31
0
  0
LINE
  5
256
330
1B
100
AcDbEntity
  8
Edge.Cuts
  6
CONTINUOUS
100
AcDbLine
 10
101.6138699999999915
 20
-124.9412069999999915
 30
0
 11
101.8705519999999893
 21
-124.9749999999999943
 31
0
  0
LINE
  5
257
330
1B
100
AcDbEntity
  8
Edge.Cuts
  6
CONTINUOUS
100
AcDbLine
 10
101.8705519999999893
 20
-124.9749999999999943
 30
0
 11
102.
 21
-124.9749999999999943
 31
0
  0
LINE
  5
258
330
1B
100
AcDbEntity
  8
Edge.Cuts
  6
CONTINUOUS
100
AcDbLine
 10
102.
 20
-124.9749999999999943
 30
0
 11
138.
 21
-124.9749999999999943
 31
0
  0
LINE
  5
259
330
1B
100
AcDbEntity
  8
Edge.Cuts
  6
CONTINUOUS
100
AcDbLine
 10
138.
 20
-124.9749999999999943
 30
0
 11
138.1294479999999965
 21
-124.9749999999999943
 31
0
  0
LINE
  5
25A
330
1B
100
AcDbEntity
  8
Edge.Cuts
  6
CONTINUOUS
100
AcDbLine
 10
138.1294479999999965
 20
-124.9749999999999943
 30
0
 11
138.3861299999999801
 21
-124.9412069999999915
 31
0
  0
LINE
  5
25B
330
1B
100
AcDbEntity
  8
Edge.Cuts
  6
CONTINUOUS
100
AcDbLine
 10
138.3861299999999801
 20
-124.9412069999999915
 30
0
 11
138.6362049999999897
 21
-124.8741999999999877
 31
0
  0
LINE
  5
25C
330
1B
100
AcDbEntity
  8
Edge.Cuts
  6
CONTINUOUS
100
AcDbLine
 10
138.6362049999999897
 20
-124.8741999999999877
 30
0
 11
138.875394
 21
-124.775123999999991
 31
0
  0
LINE
  5
25D
330
1B
100
AcDbEntity
  8
Edge.Cuts
  6
CONTINUOUS
100
AcDbLine
 10
138.875394
 20
-124.775123999999991
 30
0
 11
139.0996049999999968
 21
-124.6456759999999946
 31
0
  0
LINE
  5
25E
330
1B
100
AcDbEntity
  8
Edge.Cuts
  6
CONTINUOUS
100
AcDbLine
 10
139.0996049999999968
 20
-124.6456759999999946
 30
0
 11
139.3050020000000018
 21
-124.4880689999999959
 31
0
  0
LINE
  5
25F
330
1B
100
AcDbEntity
  8
Edge.Cuts
  6
CONTINUOUS
100
AcDbLine
 10
139.3050020000000018
 20
-124.4880689999999959
 30
0
 11
139.4880689999999959
 21
-124.3050019999999876
 31
0
  0
LINE
  5
260
330
1B
100
AcDbEntity
  8
Edge.Cuts
  6
CONTINUOUS
100
AcDbLine
 10
139.4880689999999959
 20
-124.3050019999999876
 30
0
 11
139.6456759999999804
 21
-124.0996049999999968
 31
0
  0
LINE
  5
261
330
1B
100
AcDbEntity
  8
Edge.Cuts
  6
CONTINUOUS
100
AcDbLine
 10
139.6456759999999804
 20
-124.0996049999999968
 30
0
 11
139.7751240000000053
 21
-123.875394
 31
0
  0
LINE
  5
262
330
1B
100
AcDbEntity
  8
Edge.Cuts
  6
CONTINUOUS
100
AcDbLine
 10
139.7751240000000053
 20
-123.875394
 30
0
 11
139.8742000000000019
 21
-123.6362049999999897
 31
0
  0
LINE
  5
263
330
1B
100
AcDbEntity
  8
Edge.Cuts
  6
CONTINUOUS
100
AcDbLine
 10
139.8742000000000019
 20
-123.6362049999999897
 30
0
 11
139.9412069999999915
 21
-123.3861299999999943
 31
0
  0
LINE
  5
264
330
1B
100
AcDbEntity
  8
Edge.Cuts
  6
CONTINUOUS
100
AcDbLine
 10
139.9412069999999915
 20
-123.3861299999999943
 30
0
 11
139.9749999999999943
 21
-123.1294479999999965
 31
0
  0
LINE
  5
265
330
1B
100
AcDbEntity
  8
Edge.Cuts
  6
CONTINUOUS
100
AcDbLine
 10
139.9749999999999943
 20
-123.1294479999999965
 30
0
 11
139.9749999999999943
 21
-123.
 31
0
  0
LINE
  5
266
330
1B
100
AcDbEntity
  8
Edge.Cuts
  6
CONTINUOUS
100
AcDbLine
 10
139.9749999999999943
 20
-123.
 30
0
 11
139.9749999999999943
 21
-102.
 31
0
  0
LINE
  5
267
330
1B
100
AcDbEntity
  8
Edge.Cuts
  6
CONTINUOUS
100
AcDbLine
 10
139.9749999999999943
 20
-102.
 30
0
 11
139.9749999999999943
 21
-101.8705519999999893
 31
0
  0
LINE
  5
268
330
1B
100
AcDbEntity
  8
Edge.Cuts
  6
CONTINUOUS
100
AcDbLine
 10
139.9749999999999943
 20
-101.8705519999999893
 30
0
 11
139.9412069999999915
 21
-101.6138699999999915
 31
0
  0
LINE
  5
269
330
1B
100
AcDbEntity
  8
Edge.Cuts
  6
CONTINUOUS
100
AcDbLine
 10
139.9412069999999915
 20
-101.6138699999999915
 30
0
 11
139.8742000000000019
 21
-101.3637949999999961
 31
0
  0
LINE
  5
26A
330
1B
100
AcDbEntity
  8
Edge.Cuts
  6
CONTINUOUS
100
AcDbLine
 10
139.8742000000000019
 20
-101.3637949999999961
 30
0
 11
139.7751250000000027
 21
-101.1246050000000025
 31
0
  0
LINE
  5
26B
330
1B
100
AcDbEntity
  8
Edge.Cuts
  6
CONTINUOUS
100
AcDbLine
 10
139.7751250000000027
 20
-101.1246050000000025
 30
0
 11
139.6456759999999804
 21
-100.9003939999999915
 31
0
  0
LINE
  5
26C
330
1B
100
AcDbEntity
  8
Edge.Cuts
  6
CONTINUOUS
100
AcDbLine
 10
139.6456759999999804
 20
-100.9003939999999915
 30
0
 11
139.4880699999999933
 21
-100.6949979999999982
 31
0
  0
LINE
  5
26D
330
1B
100
AcDbEntity
  8
Edge.Cuts
  6
CONTINUOUS
100
AcDbLine
 10
139.4880699999999933
 20
-100.6949979999999982
 30
0
 11
139.3050020000000018
 21
-100.5119299999999924
 31
0
  0
LINE
  5
26E
330
1B
100
AcDbEntity
  8
Edge.Cuts
  6
CONTINUOUS
100
AcDbLine
 10
139.3050020000000018
 20
-100.5119299999999924
 30
0
 11
139.0996059999999943
 21
-100.3543239999999912
 31
0
  0
LINE
  5
26F
330
1B
100
AcDbEntity
  8
Edge.Cuts
  6
CONTINUOUS
100
AcDbLine
 10
139.0996059999999943
 20
-100.3543239999999912
 30
0
 11
138.8753949999999975
 21
-100.2248749999999973
 31
0
  0
LINE
  5
270
330
1B
100
AcDbEntity
  8
Edge.Cuts
  6
CONTINUOUS
100
AcDbLine
 10
138.8753949999999975
 20
-100.2248749999999973
 30
0
 11
138.6362049999999897
 21
-100.1257999999999981
 31
0
  0
LINE
  5
271
330
1B
100
AcDbEntity
  8
Edge.Cuts
  6
CONTINUOUS
100
AcDbLine
 10
138.6362049999999897
 20
-100.1257999999999981
 30
0
 11
138.3861299999999801
 21
-100.0587929999999943
 31
0
  0
LINE
  5
272
330
1B
100
AcDbEntity
  8
Edge.Cuts
  6
CONTINUOUS
100
AcDbLine
 10
138.3861299999999801
 20
-100.0587929999999943
 30
0
 11
138.1294479999999965
 21
-100.0249999999999915
 31
0
  0
LINE
  5
273
330
1B
100
AcDbEntity
  8
Edge.Cuts
  6
CONTINUOUS
100
AcDbLine
 10
138.1294479999999965
 20
-100.0249999999999915
 30
0
 11
138.
 21
-100.0249999999999915
 31
0
  0
LINE
  5
274
330
1B
100
AcDbEntity
  8
Edge.Cuts
  6
CONTINUOUS
100
AcDbLine
 10
138.
 20
-100.0249999999999915
 30
0
 11
102.
 21
-100.0249999999999915
 31
0
  0
ENDSEC
  0
SECTION
  2
OBJECTS
  0
DICTIONARY
  5
21
330
0
100
AcDbDictionary
281
1
  3
ACAD_GROUP
350
275
  3
ACAD_LAYOUT
350
22
  3
ACAD_PLOTSTYLENAME
350
11
  0
DICTIONARY
  5
275
330
21
100
AcDbDictionary
281
1
  0
ACDBDICTIONARYWDFLT
  5
11
330
21
100
AcDbDictionary
281
1
  3
Normal
350
10
100
AcDbDictionaryWithDefault
340
10
  0
ACDBPLACEHOLDER
  5
10
330
11
  0
DICTIONARY
  5
22
330
21
100
AcDbDictionary
281
1
  3
Model
350
1E
  3
Layout1
350
1F
  3
Layout2
350
20
  0
LAYOUT
  5
1E
330
22
100
AcDbPlotSettings
  1

  2
none_device
  4
A3
  6

 40
0.0
 41
0.0
 42
0.0
 43
0.0
 44
420.0
 45
297.0
 46
0.0
 47
0.0
 48
0.0
 49
0.0
140
0.0
141
0.0
142
1.0
143
1.0
 70
1024
 72
1
 73
0
 74
5
  7

 75
16
 76
0
 77
2
 78
300
147
1.0
148
0.0
149
0.0
100
AcDbLayout
  1
Model
 70
1
 71
0
 10
0.0
 20
0.0
 11
420.0
 21
297.0
 12
0.0
 22
0.0
 32
0.0
 14
1e+20
 24
1e+20
 34
1e+20
 15
-1e+20
 25
-1e+20
 35
-1e+20
146
0.0
 13
0.0
 23
0.0
 33
0.0
 16
1.0
 26
0.0
 36
0.0
 17
0.0
 27
1.0
 37
0.0
 76
0
330
1B
  0
LAYOUT
  5
1F
330
22
100
AcDbPlotSettings
  1

  2
none_device
  4
A3
  6

 40
0.0
 41
0.0
 42
0.0
 43
0.0
 44
420.0
 45
297.0
 46
0.0
 47
0.0
 48
0.0
 49
0.0
140
0.0
141
0.0
142
1.0
143
1.0
 70
0
 72
1
 73
0
 74
5
  7

 75
16
 76
0
 77
2
 78
300
147
1.0
148
0.0
149
0.0
100
AcDbLayout
  1
Layout1
 70
1
 71
1
 10
0.0
 20
0.0
 11
420.0
 21
297.0
 12
0.0
 22
0.0
 32
0.0
 14
1e+20
 24
1e+20
 34
1e+20
 15
-1e+20
 25
-1e+20
 35
-1e+20
146
0.0
 13
0.0
 23
0.0
 33
0.0
 16
1.0
 26
0.0
 36
0.0
 17
0.0
 27
1.0
 37
0.0
 76
0
330
1C
  0
LAYOUT
  5
20
330
22
100
AcDbPlotSettings
  1

  2
none_device
  4
A3
  6

 40
0.0
 41
0.0
 42
0.0
 43
0.0
 44
420.0
 45
297.0
 46
0.0
 47
0.0
 48
0.0
 49
0.0
140
0.0
141
0.0
142
1.0
143
1.0
 70
0
 72
1
 73
0
 74
5
  7

 75
16
 76
0
 77
2
 78
300
147
1.0
148
0.0
149
0.0
100
AcDbLayout
  1
Layout2
 70
1
 71
2
 10
0.0
 20
0.0
 11
420.0
 21
297.0
 12
0.0
 22
0.0
 32
0.0
 14
1e+20
 24
1e+20
 34
1e+20
 15
-1e+20
 25
-1e+20
 35
-1e+20
146
0.0
 13
0.0
 23
0.0
 33
0.0
 16
1.0
 26
0.0
 36
0.0
 17
0.0
 27
1.0
 37
0.0
 76
0
330
1D
  0
ENDSEC
  0
EOF
