%TF.GenerationSoftware,KiCad,Pcbnew,10.0.6*%
%TF.CreationDate,2026-09-19T11:41:58-05:00*%
%TF.ProjectId,LM555_LED_Flasher,4c4d3535-355f-44c4-9544-5f466c617368,rev?*%
%TF.SameCoordinates,Original*%
%TF.FileFunction,Copper,L1,Top*%
%TF.FilePolarity,Positive*%
%FSLAX46Y46*%
G04 Gerber Fmt 4.6, Leading zero omitted, Abs format (unit mm)*
G04 Created by KiCad (PCBNEW 10.0.6) date 2026-09-19 11:41:58*
%MOMM*%
%LPD*%
G01*
G04 APERTURE LIST*
G04 Aperture macros list*
%AMRoundRect*
0 Rectangle with rounded corners*
0 $1 Rounding radius*
0 $2 $3 $4 $5 $6 $7 $8 $9 X,Y pos of 4 corners*
0 Add a 4 corners polygon primitive as box body*
4,1,4,$2,$3,$4,$5,$6,$7,$8,$9,$2,$3,0*
0 Add four circle primitives for the rounded corners*
1,1,$1+$1,$2,$3*
1,1,$1+$1,$4,$5*
1,1,$1+$1,$6,$7*
1,1,$1+$1,$8,$9*
0 Add four rect primitives between the rounded corners*
20,1,$1+$1,$2,$3,$4,$5,0*
20,1,$1+$1,$4,$5,$6,$7,0*
20,1,$1+$1,$6,$7,$8,$9,0*
20,1,$1+$1,$8,$9,$2,$3,0*%
G04 Aperture macros list end*
%TA.AperFunction,SMDPad,CuDef*%
%ADD10RoundRect,0.150000X-0.825000X-0.150000X0.825000X-0.150000X0.825000X0.150000X-0.825000X0.150000X0*%
%TD*%
%TA.AperFunction,SMDPad,CuDef*%
%ADD11RoundRect,0.200000X0.275000X-0.200000X0.275000X0.200000X-0.275000X0.200000X-0.275000X-0.200000X0*%
%TD*%
%TA.AperFunction,SMDPad,CuDef*%
%ADD12RoundRect,0.250000X-1.250000X-0.550000X1.250000X-0.550000X1.250000X0.550000X-1.250000X0.550000X0*%
%TD*%
%TA.AperFunction,SMDPad,CuDef*%
%ADD13RoundRect,0.250000X2.500000X-0.250000X2.500000X0.250000X-2.500000X0.250000X-2.500000X-0.250000X0*%
%TD*%
%TA.AperFunction,SMDPad,CuDef*%
%ADD14RoundRect,0.250000X1.250000X-0.550000X1.250000X0.550000X-1.250000X0.550000X-1.250000X-0.550000X0*%
%TD*%
%TA.AperFunction,SMDPad,CuDef*%
%ADD15RoundRect,0.225000X0.250000X-0.225000X0.250000X0.225000X-0.250000X0.225000X-0.250000X-0.225000X0*%
%TD*%
%TA.AperFunction,SMDPad,CuDef*%
%ADD16RoundRect,0.200000X0.200000X0.275000X-0.200000X0.275000X-0.200000X-0.275000X0.200000X-0.275000X0*%
%TD*%
%TA.AperFunction,SMDPad,CuDef*%
%ADD17RoundRect,0.243750X-0.243750X-0.456250X0.243750X-0.456250X0.243750X0.456250X-0.243750X0.456250X0*%
%TD*%
%TA.AperFunction,Conductor*%
%ADD18C,0.250000*%
%TD*%
G04 APERTURE END LIST*
D10*
%TO.P,U1,1*%
%TO.N,GND*%
X118525000Y-110595000D03*
%TO.P,U1,2*%
%TO.N,Net-(U1-THRES)*%
X118525000Y-111865000D03*
%TO.P,U1,3*%
%TO.N,Net-(U1-OUT)*%
X118525000Y-113135000D03*
%TO.P,U1,4*%
%TO.N,VCC*%
X118525000Y-114405000D03*
%TO.P,U1,5*%
%TO.N,Net-(U1-CONT)*%
X123475000Y-114405000D03*
%TO.P,U1,6*%
%TO.N,Net-(U1-THRES)*%
X123475000Y-113135000D03*
%TO.P,U1,7*%
%TO.N,Net-(U1-DISCH)*%
X123475000Y-111865000D03*
%TO.P,U1,8*%
%TO.N,VCC*%
X123475000Y-110595000D03*
%TD*%
D11*
%TO.P,R1,1*%
%TO.N,VCC*%
X127000000Y-108325000D03*
%TO.P,R1,2*%
%TO.N,Net-(U1-DISCH)*%
X127000000Y-106675000D03*
%TD*%
D12*
%TO.P,C1,1*%
%TO.N,Net-(U1-THRES)*%
X127800000Y-120000000D03*
%TO.P,C1,2*%
%TO.N,GND*%
X132200000Y-120000000D03*
%TD*%
D13*
%TO.P,BT1,1*%
%TO.N,VCC*%
X105500000Y-113500000D03*
%TO.P,BT1,2*%
%TO.N,GND*%
X105500000Y-111500000D03*
D14*
%TO.P,BT1,MP*%
%TO.N,N/C*%
X103250000Y-115900000D03*
X103250000Y-109100000D03*
%TD*%
D15*
%TO.P,C2,1*%
%TO.N,Net-(U1-CONT)*%
X124500000Y-119775000D03*
%TO.P,C2,2*%
%TO.N,GND*%
X124500000Y-118225000D03*
%TD*%
D11*
%TO.P,R2,1*%
%TO.N,Net-(U1-DISCH)*%
X127000000Y-112825000D03*
%TO.P,R2,2*%
%TO.N,Net-(U1-THRES)*%
X127000000Y-111175000D03*
%TD*%
D16*
%TO.P,R3,1*%
%TO.N,Net-(U1-OUT)*%
X115825000Y-113150000D03*
%TO.P,R3,2*%
%TO.N,Net-(D1-A)*%
X114175000Y-113150000D03*
%TD*%
D17*
%TO.P,D1,1*%
%TO.N,GND*%
X110062500Y-113150000D03*
%TO.P,D1,2*%
%TO.N,Net-(D1-A)*%
X111937500Y-113150000D03*
%TD*%
%TO.N,GND*%
D18*
X105166100Y-115089000D02*
X104442400Y-114365300D01*
X103863300Y-111500000D02*
X105500000Y-111500000D01*
X106673800Y-112673800D02*
X105500000Y-111500000D01*
X123691500Y-120271900D02*
X123691500Y-118225000D01*
X119860000Y-115089000D02*
X122996000Y-118225000D01*
X109747200Y-112834700D02*
X109747200Y-112727433D01*
X118144900Y-110595000D02*
X117222700Y-111517200D01*
X122996000Y-118225000D02*
X123691500Y-118225000D01*
X119860000Y-112817000D02*
X119860000Y-115089000D01*
X110062500Y-113150000D02*
X109747200Y-112834700D01*
X117502200Y-112492300D02*
X119535300Y-112492300D01*
X132200000Y-120000000D02*
X131055900Y-121144100D01*
X124563700Y-121144100D02*
X123691500Y-120271900D01*
X118525000Y-110595000D02*
X118144900Y-110595000D01*
X117222700Y-112212800D02*
X117502200Y-112492300D01*
X131055900Y-121144100D02*
X124563700Y-121144100D01*
X104442400Y-114365300D02*
X102759800Y-114365300D01*
X109693567Y-112673800D02*
X106673800Y-112673800D01*
X119860000Y-115089000D02*
X105166100Y-115089000D01*
X102407500Y-112955800D02*
X103863300Y-111500000D01*
X123691500Y-118225000D02*
X124500000Y-118225000D01*
X109747200Y-112727433D02*
X109693567Y-112673800D01*
X102407500Y-114013000D02*
X102407500Y-112955800D01*
X117222700Y-111517200D02*
X117222700Y-112212800D01*
X119535300Y-112492300D02*
X119860000Y-112817000D01*
X102759800Y-114365300D02*
X102407500Y-114013000D01*
%TO.N,Net-(U1-THRES)*%
X122364800Y-113135000D02*
X121094800Y-111865000D01*
X123475000Y-113135000D02*
X122364800Y-113135000D01*
X123718200Y-113378200D02*
X123475000Y-113135000D01*
X125945000Y-114526400D02*
X126521700Y-114526400D01*
X126521700Y-118721700D02*
X127800000Y-120000000D01*
X126521700Y-114526400D02*
X127808500Y-113239600D01*
X124796800Y-113378200D02*
X123718200Y-113378200D01*
X126521700Y-114526400D02*
X126521700Y-118721700D01*
X124796800Y-113378200D02*
X125945000Y-114526400D01*
X121094800Y-111865000D02*
X118525000Y-111865000D01*
X127808500Y-113239600D02*
X127808500Y-111983500D01*
X127808500Y-111983500D02*
X127000000Y-111175000D01*
%TO.N,Net-(U1-OUT)*%
X118510000Y-113150000D02*
X118525000Y-113135000D01*
X115825000Y-113150000D02*
X118510000Y-113150000D01*
%TO.N,VCC*%
X115076300Y-114178700D02*
X115076300Y-112313900D01*
X127000000Y-108325000D02*
X124730000Y-110595000D01*
X106178700Y-114178700D02*
X105500000Y-113500000D01*
X115076300Y-114178700D02*
X106178700Y-114178700D01*
X122829800Y-109949800D02*
X123475000Y-110595000D01*
X124730000Y-110595000D02*
X123475000Y-110595000D01*
X117440400Y-109949800D02*
X122829800Y-109949800D01*
X115076300Y-112313900D02*
X117440400Y-109949800D01*
X115302600Y-114405000D02*
X115076300Y-114178700D01*
X118525000Y-114405000D02*
X115302600Y-114405000D01*
%TO.N,Net-(U1-CONT)*%
X125307700Y-116237700D02*
X125307700Y-118967300D01*
X125307700Y-118967300D02*
X124500000Y-119775000D01*
X123475000Y-114405000D02*
X125307700Y-116237700D01*
%TO.N,Net-(U1-DISCH)*%
X127801000Y-108600600D02*
X127988500Y-108413100D01*
X127988500Y-108413100D02*
X127988500Y-107663500D01*
X127000000Y-112825000D02*
X126040000Y-111865000D01*
X126040000Y-110586800D02*
X127801000Y-108825800D01*
X127801000Y-108825800D02*
X127801000Y-108600600D01*
X127988500Y-107663500D02*
X127000000Y-106675000D01*
X126040000Y-111865000D02*
X126040000Y-110586800D01*
X126040000Y-111865000D02*
X123475000Y-111865000D01*
%TO.N,Net-(D1-A)*%
X111937500Y-113150000D02*
X114175000Y-113150000D01*
%TD*%
M02*
