%TF.GenerationSoftware,KiCad,Pcbnew,10.0.6*%
%TF.CreationDate,2026-09-19T11:41:58-05:00*%
%TF.ProjectId,LM555_LED_Flasher,4c4d3535-355f-44c4-9544-5f466c617368,rev?*%
%TF.SameCoordinates,Original*%
%TF.FileFunction,Legend,Top*%
%TF.FilePolarity,Positive*%
%FSLAX46Y46*%
G04 Gerber Fmt 4.6, Leading zero omitted, Abs format (unit mm)*
G04 Created by KiCad (PCBNEW 10.0.6) date 2026-09-19 11:41:58*
%MOMM*%
%LPD*%
G01*
G04 APERTURE LIST*
G04 Aperture macros list*
%AMRoundRect*
0 Rectangle with rounded corners*
0 $1 Rounding radius*
0 $2 $3 $4 $5 $6 $7 $8 $9 X,Y pos of 4 corners*
0 Add a 4 corners polygon primitive as box body*
4,1,4,$2,$3,$4,$5,$6,$7,$8,$9,$2,$3,0*
0 Add four circle primitives for the rounded corners*
1,1,$1+$1,$2,$3*
1,1,$1+$1,$4,$5*
1,1,$1+$1,$6,$7*
1,1,$1+$1,$8,$9*
0 Add four rect primitives between the rounded corners*
20,1,$1+$1,$2,$3,$4,$5,0*
20,1,$1+$1,$4,$5,$6,$7,0*
20,1,$1+$1,$6,$7,$8,$9,0*
20,1,$1+$1,$8,$9,$2,$3,0*%
G04 Aperture macros list end*
%ADD10C,0.125000*%
%ADD11C,0.120000*%
%ADD12RoundRect,0.150000X-0.825000X-0.150000X0.825000X-0.150000X0.825000X0.150000X-0.825000X0.150000X0*%
%ADD13RoundRect,0.200000X0.275000X-0.200000X0.275000X0.200000X-0.275000X0.200000X-0.275000X-0.200000X0*%
%ADD14RoundRect,0.250000X-1.250000X-0.550000X1.250000X-0.550000X1.250000X0.550000X-1.250000X0.550000X0*%
%ADD15RoundRect,0.250000X2.500000X-0.250000X2.500000X0.250000X-2.500000X0.250000X-2.500000X-0.250000X0*%
%ADD16RoundRect,0.250000X1.250000X-0.550000X1.250000X0.550000X-1.250000X0.550000X-1.250000X-0.550000X0*%
%ADD17RoundRect,0.225000X0.250000X-0.225000X0.250000X0.225000X-0.250000X0.225000X-0.250000X-0.225000X0*%
%ADD18RoundRect,0.200000X0.200000X0.275000X-0.200000X0.275000X-0.200000X-0.275000X0.200000X-0.275000X0*%
%ADD19RoundRect,0.243750X-0.243750X-0.456250X0.243750X-0.456250X0.243750X0.456250X-0.243750X0.456250X0*%
G04 APERTURE END LIST*
D10*
X120238095Y-108556119D02*
X120238095Y-109365642D01*
X120238095Y-109365642D02*
X120285714Y-109460880D01*
X120285714Y-109460880D02*
X120333333Y-109508500D01*
X120333333Y-109508500D02*
X120428571Y-109556119D01*
X120428571Y-109556119D02*
X120619047Y-109556119D01*
X120619047Y-109556119D02*
X120714285Y-109508500D01*
X120714285Y-109508500D02*
X120761904Y-109460880D01*
X120761904Y-109460880D02*
X120809523Y-109365642D01*
X120809523Y-109365642D02*
X120809523Y-108556119D01*
X121809523Y-109556119D02*
X121238095Y-109556119D01*
X121523809Y-109556119D02*
X121523809Y-108556119D01*
X121523809Y-108556119D02*
X121428571Y-108698976D01*
X121428571Y-108698976D02*
X121333333Y-108794214D01*
X121333333Y-108794214D02*
X121238095Y-108841833D01*
X126026119Y-107666666D02*
X125549928Y-107999999D01*
X126026119Y-108238094D02*
X125026119Y-108238094D01*
X125026119Y-108238094D02*
X125026119Y-107857142D01*
X125026119Y-107857142D02*
X125073738Y-107761904D01*
X125073738Y-107761904D02*
X125121357Y-107714285D01*
X125121357Y-107714285D02*
X125216595Y-107666666D01*
X125216595Y-107666666D02*
X125359452Y-107666666D01*
X125359452Y-107666666D02*
X125454690Y-107714285D01*
X125454690Y-107714285D02*
X125502309Y-107761904D01*
X125502309Y-107761904D02*
X125549928Y-107857142D01*
X125549928Y-107857142D02*
X125549928Y-108238094D01*
X126026119Y-106714285D02*
X126026119Y-107285713D01*
X126026119Y-106999999D02*
X125026119Y-106999999D01*
X125026119Y-106999999D02*
X125168976Y-107095237D01*
X125168976Y-107095237D02*
X125264214Y-107190475D01*
X125264214Y-107190475D02*
X125311833Y-107285713D01*
X129833333Y-116660881D02*
X129785714Y-116708501D01*
X129785714Y-116708501D02*
X129642857Y-116756120D01*
X129642857Y-116756120D02*
X129547619Y-116756120D01*
X129547619Y-116756120D02*
X129404762Y-116708501D01*
X129404762Y-116708501D02*
X129309524Y-116613262D01*
X129309524Y-116613262D02*
X129261905Y-116518024D01*
X129261905Y-116518024D02*
X129214286Y-116327548D01*
X129214286Y-116327548D02*
X129214286Y-116184691D01*
X129214286Y-116184691D02*
X129261905Y-115994215D01*
X129261905Y-115994215D02*
X129309524Y-115898977D01*
X129309524Y-115898977D02*
X129404762Y-115803739D01*
X129404762Y-115803739D02*
X129547619Y-115756120D01*
X129547619Y-115756120D02*
X129642857Y-115756120D01*
X129642857Y-115756120D02*
X129785714Y-115803739D01*
X129785714Y-115803739D02*
X129833333Y-115851358D01*
X130785714Y-116756120D02*
X130214286Y-116756120D01*
X130500000Y-116756120D02*
X130500000Y-115756120D01*
X130500000Y-115756120D02*
X130404762Y-115898977D01*
X130404762Y-115898977D02*
X130309524Y-115994215D01*
X130309524Y-115994215D02*
X130214286Y-116041834D01*
X104214285Y-107432309D02*
X104357142Y-107479928D01*
X104357142Y-107479928D02*
X104404761Y-107527547D01*
X104404761Y-107527547D02*
X104452380Y-107622785D01*
X104452380Y-107622785D02*
X104452380Y-107765642D01*
X104452380Y-107765642D02*
X104404761Y-107860880D01*
X104404761Y-107860880D02*
X104357142Y-107908500D01*
X104357142Y-107908500D02*
X104261904Y-107956119D01*
X104261904Y-107956119D02*
X103880952Y-107956119D01*
X103880952Y-107956119D02*
X103880952Y-106956119D01*
X103880952Y-106956119D02*
X104214285Y-106956119D01*
X104214285Y-106956119D02*
X104309523Y-107003738D01*
X104309523Y-107003738D02*
X104357142Y-107051357D01*
X104357142Y-107051357D02*
X104404761Y-107146595D01*
X104404761Y-107146595D02*
X104404761Y-107241833D01*
X104404761Y-107241833D02*
X104357142Y-107337071D01*
X104357142Y-107337071D02*
X104309523Y-107384690D01*
X104309523Y-107384690D02*
X104214285Y-107432309D01*
X104214285Y-107432309D02*
X103880952Y-107432309D01*
X104738095Y-106956119D02*
X105309523Y-106956119D01*
X105023809Y-107956119D02*
X105023809Y-106956119D01*
X106166666Y-107956119D02*
X105595238Y-107956119D01*
X105880952Y-107956119D02*
X105880952Y-106956119D01*
X105880952Y-106956119D02*
X105785714Y-107098976D01*
X105785714Y-107098976D02*
X105690476Y-107194214D01*
X105690476Y-107194214D02*
X105595238Y-107241833D01*
X123430880Y-119166666D02*
X123478500Y-119214285D01*
X123478500Y-119214285D02*
X123526119Y-119357142D01*
X123526119Y-119357142D02*
X123526119Y-119452380D01*
X123526119Y-119452380D02*
X123478500Y-119595237D01*
X123478500Y-119595237D02*
X123383261Y-119690475D01*
X123383261Y-119690475D02*
X123288023Y-119738094D01*
X123288023Y-119738094D02*
X123097547Y-119785713D01*
X123097547Y-119785713D02*
X122954690Y-119785713D01*
X122954690Y-119785713D02*
X122764214Y-119738094D01*
X122764214Y-119738094D02*
X122668976Y-119690475D01*
X122668976Y-119690475D02*
X122573738Y-119595237D01*
X122573738Y-119595237D02*
X122526119Y-119452380D01*
X122526119Y-119452380D02*
X122526119Y-119357142D01*
X122526119Y-119357142D02*
X122573738Y-119214285D01*
X122573738Y-119214285D02*
X122621357Y-119166666D01*
X122621357Y-118785713D02*
X122573738Y-118738094D01*
X122573738Y-118738094D02*
X122526119Y-118642856D01*
X122526119Y-118642856D02*
X122526119Y-118404761D01*
X122526119Y-118404761D02*
X122573738Y-118309523D01*
X122573738Y-118309523D02*
X122621357Y-118261904D01*
X122621357Y-118261904D02*
X122716595Y-118214285D01*
X122716595Y-118214285D02*
X122811833Y-118214285D01*
X122811833Y-118214285D02*
X122954690Y-118261904D01*
X122954690Y-118261904D02*
X123526119Y-118833332D01*
X123526119Y-118833332D02*
X123526119Y-118214285D01*
X126026119Y-112166666D02*
X125549928Y-112499999D01*
X126026119Y-112738094D02*
X125026119Y-112738094D01*
X125026119Y-112738094D02*
X125026119Y-112357142D01*
X125026119Y-112357142D02*
X125073738Y-112261904D01*
X125073738Y-112261904D02*
X125121357Y-112214285D01*
X125121357Y-112214285D02*
X125216595Y-112166666D01*
X125216595Y-112166666D02*
X125359452Y-112166666D01*
X125359452Y-112166666D02*
X125454690Y-112214285D01*
X125454690Y-112214285D02*
X125502309Y-112261904D01*
X125502309Y-112261904D02*
X125549928Y-112357142D01*
X125549928Y-112357142D02*
X125549928Y-112738094D01*
X125121357Y-111785713D02*
X125073738Y-111738094D01*
X125073738Y-111738094D02*
X125026119Y-111642856D01*
X125026119Y-111642856D02*
X125026119Y-111404761D01*
X125026119Y-111404761D02*
X125073738Y-111309523D01*
X125073738Y-111309523D02*
X125121357Y-111261904D01*
X125121357Y-111261904D02*
X125216595Y-111214285D01*
X125216595Y-111214285D02*
X125311833Y-111214285D01*
X125311833Y-111214285D02*
X125454690Y-111261904D01*
X125454690Y-111261904D02*
X126026119Y-111833332D01*
X126026119Y-111833332D02*
X126026119Y-111214285D01*
X114833333Y-115036119D02*
X114500000Y-114559928D01*
X114261905Y-115036119D02*
X114261905Y-114036119D01*
X114261905Y-114036119D02*
X114642857Y-114036119D01*
X114642857Y-114036119D02*
X114738095Y-114083738D01*
X114738095Y-114083738D02*
X114785714Y-114131357D01*
X114785714Y-114131357D02*
X114833333Y-114226595D01*
X114833333Y-114226595D02*
X114833333Y-114369452D01*
X114833333Y-114369452D02*
X114785714Y-114464690D01*
X114785714Y-114464690D02*
X114738095Y-114512309D01*
X114738095Y-114512309D02*
X114642857Y-114559928D01*
X114642857Y-114559928D02*
X114261905Y-114559928D01*
X115166667Y-114036119D02*
X115785714Y-114036119D01*
X115785714Y-114036119D02*
X115452381Y-114417071D01*
X115452381Y-114417071D02*
X115595238Y-114417071D01*
X115595238Y-114417071D02*
X115690476Y-114464690D01*
X115690476Y-114464690D02*
X115738095Y-114512309D01*
X115738095Y-114512309D02*
X115785714Y-114607547D01*
X115785714Y-114607547D02*
X115785714Y-114845642D01*
X115785714Y-114845642D02*
X115738095Y-114940880D01*
X115738095Y-114940880D02*
X115690476Y-114988500D01*
X115690476Y-114988500D02*
X115595238Y-115036119D01*
X115595238Y-115036119D02*
X115309524Y-115036119D01*
X115309524Y-115036119D02*
X115214286Y-114988500D01*
X115214286Y-114988500D02*
X115166667Y-114940880D01*
X110261905Y-111956119D02*
X110261905Y-110956119D01*
X110261905Y-110956119D02*
X110500000Y-110956119D01*
X110500000Y-110956119D02*
X110642857Y-111003738D01*
X110642857Y-111003738D02*
X110738095Y-111098976D01*
X110738095Y-111098976D02*
X110785714Y-111194214D01*
X110785714Y-111194214D02*
X110833333Y-111384690D01*
X110833333Y-111384690D02*
X110833333Y-111527547D01*
X110833333Y-111527547D02*
X110785714Y-111718023D01*
X110785714Y-111718023D02*
X110738095Y-111813261D01*
X110738095Y-111813261D02*
X110642857Y-111908500D01*
X110642857Y-111908500D02*
X110500000Y-111956119D01*
X110500000Y-111956119D02*
X110261905Y-111956119D01*
X111785714Y-111956119D02*
X111214286Y-111956119D01*
X111500000Y-111956119D02*
X111500000Y-110956119D01*
X111500000Y-110956119D02*
X111404762Y-111098976D01*
X111404762Y-111098976D02*
X111309524Y-111194214D01*
X111309524Y-111194214D02*
X111214286Y-111241833D01*
%TO.C,U1*%
D11*
X118940000Y-109940000D02*
X123060000Y-109940000D01*
X118940000Y-110035000D02*
X118940000Y-109940000D01*
X118940000Y-115060000D02*
X118940000Y-114965000D01*
X123060000Y-109940000D02*
X123060000Y-110035000D01*
X123060000Y-114965000D02*
X123060000Y-115060000D01*
X123060000Y-115060000D02*
X118940000Y-115060000D01*
X118400000Y-110030000D02*
X118160000Y-109700000D01*
X118640000Y-109700000D01*
X118400000Y-110030000D01*
G36*
X118400000Y-110030000D02*
G01*
X118160000Y-109700000D01*
X118640000Y-109700000D01*
X118400000Y-110030000D01*
G37*
%TO.C,R1*%
X126477500Y-107737258D02*
X126477500Y-107262742D01*
X127522500Y-107737258D02*
X127522500Y-107262742D01*
%TO.C,C1*%
X126375000Y-118315000D02*
X127000000Y-118315000D01*
X126687500Y-118002500D02*
X126687500Y-118627500D01*
X127240000Y-118304437D02*
X127240000Y-118940000D01*
X127240000Y-118304437D02*
X128304437Y-117240000D01*
X127240000Y-121695563D02*
X127240000Y-121060000D01*
X127240000Y-121695563D02*
X128304437Y-122760000D01*
X128304437Y-117240000D02*
X132760000Y-117240000D01*
X128304437Y-122760000D02*
X132760000Y-122760000D01*
X132760000Y-117240000D02*
X132760000Y-118940000D01*
X132760000Y-122760000D02*
X132760000Y-121060000D01*
%TO.C,BT1*%
X100640000Y-108415000D02*
X101490000Y-108415000D01*
X100640000Y-116585000D02*
X100640000Y-108415000D01*
X101490000Y-116585000D02*
X100640000Y-116585000D01*
X105010000Y-108415000D02*
X105860000Y-108415000D01*
X105010000Y-116585000D02*
X105860000Y-116585000D01*
X105860000Y-108415000D02*
X105860000Y-110740000D01*
X105860000Y-114260000D02*
X108250000Y-114260000D01*
X105860000Y-116585000D02*
X105860000Y-114260000D01*
%TO.C,C2*%
X123990000Y-119140580D02*
X123990000Y-118859420D01*
X125010000Y-119140580D02*
X125010000Y-118859420D01*
%TO.C,R2*%
X126477500Y-112237258D02*
X126477500Y-111762742D01*
X127522500Y-112237258D02*
X127522500Y-111762742D01*
%TO.C,R3*%
X115237258Y-112627500D02*
X114762742Y-112627500D01*
X115237258Y-113672500D02*
X114762742Y-113672500D01*
%TO.C,D1*%
X109315000Y-112190000D02*
X109315000Y-114110000D01*
X109315000Y-114110000D02*
X112000000Y-114110000D01*
X112000000Y-112190000D02*
X109315000Y-112190000D01*
%TD*%
%LPC*%
D12*
%TO.C,U1*%
X118525000Y-110595000D03*
X118525000Y-111865000D03*
X118525000Y-113135000D03*
X118525000Y-114405000D03*
X123475000Y-114405000D03*
X123475000Y-113135000D03*
X123475000Y-111865000D03*
X123475000Y-110595000D03*
%TD*%
D13*
%TO.C,R1*%
X127000000Y-108325000D03*
X127000000Y-106675000D03*
%TD*%
D14*
%TO.C,C1*%
X127800000Y-120000000D03*
X132200000Y-120000000D03*
%TD*%
D15*
%TO.C,BT1*%
X105500000Y-113500000D03*
X105500000Y-111500000D03*
D16*
X103250000Y-115900000D03*
X103250000Y-109100000D03*
%TD*%
D17*
%TO.C,C2*%
X124500000Y-119775000D03*
X124500000Y-118225000D03*
%TD*%
D13*
%TO.C,R2*%
X127000000Y-112825000D03*
X127000000Y-111175000D03*
%TD*%
D18*
%TO.C,R3*%
X115825000Y-113150000D03*
X114175000Y-113150000D03*
%TD*%
D19*
%TO.C,D1*%
X110062500Y-113150000D03*
X111937500Y-113150000D03*
%TD*%
%LPD*%
M02*
