  0
SECTION
  2
HEADER
  9
$ACADVER
  1
AC1018
  9
$HANDSEED
  5
FFFFFFFF
  9
$ANGBASE
  50
0.0
  9
$ANGDIR
  70
1
  9
$MEASUREMENT
  70
1
  9
$INSUNITS
  70
4
  9
$EXTMIN
 10
94.472500000
 20
-105.527500000
 30
0.0
  9
$EXTMAX
 10
105.527500000
 20
-94.472500000
 30
0.0
  9
$LIMMIN
 10
94.472500000
 20
-105.527500000
  9
$LIMMAX
 10
105.527500000
 20
-94.472500000
  0
ENDSEC
  0
SECTION
  2
TABLES
  0
TABLE
  2
APPID
  5
1
330
0
100
AcDbSymbolTable
 70
1
  0
APPID
  5
2
330
1
100
AcDbSymbolTableRecord
100
AcDbRegAppTableRecord
  2
ACAD
 70
0
  0
ENDTAB
  0
TABLE
  2
LTYPE
  5
3
330
0
100
AcDbSymbolTable
 70
6
  0
LTYPE
  5
4
330
3
100
AcDbSymbolTableRecord
100
AcDbLinetypeTableRecord
  2
ByBlock
 70
0
  3

 72
65
 73
0
 40
0
  0
LTYPE
  5
5
330
3
100
AcDbSymbolTableRecord
100
AcDbLinetypeTableRecord
  2
ByLayer
 70
0
  3

 72
65
 73
0
 40
0
  0
LTYPE
  5
6
330
3
100
AcDbSymbolTableRecord
100
AcDbLinetypeTableRecord
  2
CONTINUOUS
 70
0
  3
Solid line
 72
65
 73
0
 40
0
  0
LTYPE
  5
7
330
3
100
AcDbSymbolTableRecord
100
AcDbLinetypeTableRecord
  2
DASHDOT
 70
0
  3
Dash Dot ____ _ ____ _
 72
65
 73
4
 40
2
 49
1.25
 74
0
 49
-0.25
 74
0
 49
0.25
 74
0
 49
-0.25
 74
0
  0
LTYPE
  5
8
330
3
100
AcDbSymbolTableRecord
100
AcDbLinetypeTableRecord
  2
DASHED
 70
0
  3
Dashed __ __ __ __ __
 72
65
 73
2
 40
0.75
 49
0.5
 74
0
 49
-0.25
 74
0
  0
LTYPE
  5
9
330
3
100
AcDbSymbolTableRecord
100
AcDbLinetypeTableRecord
  2
DOTTED
 70
0
  3
Dotted .  .  .  .
 72
65
 73
2
 40
0.2
 49
0.0
 74
0
 49
-0.2
 74
0
  0
ENDTAB
  0
TABLE
  2
STYLE
  5
A
330
0
100
AcDbSymbolTable
 70
4
  0
STYLE
  5
B
330
A
100
AcDbSymbolTableRecord
100
AcDbTextStyleTableRecord
  2
KICAD
 70
0
 40
0
 41
1
 42
1
 50
0
 71
0
  3
isocp.shx
  0
STYLE
  5
C
330
A
100
AcDbSymbolTableRecord
100
AcDbTextStyleTableRecord
  2
KICADB
 70
0
 40
0
 41
1
 42
1
 50
0
 71
0
  3
isocp.shx
  0
STYLE
  5
D
330
A
100
AcDbSymbolTableRecord
100
AcDbTextStyleTableRecord
  2
KICADI
 70
0
 40
0
 41
1
 42
1
 50
15
 71
0
  3
isocp.shx
  0
STYLE
  5
E
330
A
100
AcDbSymbolTableRecord
100
AcDbTextStyleTableRecord
  2
KICADBI
 70
0
 40
0
 41
1
 42
1
 50
15
 71
0
  3
isocp.shx
  0
ENDTAB
  0
TABLE
  2
LAYER
  5
F
330
0
100
AcDbSymbolTable
 70
3
  0
LAYER
  5
12
330
F
100
AcDbSymbolTableRecord
100
AcDbLayerTableRecord
  2
0
 70
0
 62
7
  6
CONTINUOUS
390
10
  0
LAYER
  5
13
330
F
100
AcDbSymbolTableRecord
100
AcDbLayerTableRecord
  2
B.Mask
 70
0
 62
4
420
196590
  6
CONTINUOUS
390
10
  0
LAYER
  5
14
330
F
100
AcDbSymbolTableRecord
100
AcDbLayerTableRecord
  2
Edge.Cuts
 70
0
 62
254
420
13685453
  6
CONTINUOUS
390
10
  0
ENDTAB
  0
TABLE
  2
VPORT
  5
15
330
0
100
AcDbSymbolTable
 70
1
  0
VPORT
  5
F0000000
330
15
100
AcDbSymbolTableRecord
100
AcDbViewportTableRecord
  2
*Active
 70
0
 10
0.0
 20
0.0
 11
1.0
 21
1.0
 12
100.000000000
 22
-100.000000000
 13
0.0
 23
0.0
 14
0.5
 24
0.5
 15
0.5
 25
0.5
 16
0.0
 26
0.0
 36
1.0
 17
0.0
 27
0.0
 37
0.0
 40
11.055000000
 41
1.6
 42
50.0
 43
0.0
 44
0.0
 50
0.0
 51
0.0
 71
0
 72
1000
 73
1
 74
3
 75
0
 76
0
 77
0
 78
0
281
0
 65
0
146
0.0
  0
ENDTAB
  0
TABLE
  2
VIEW
  5
16
330
0
100
AcDbSymbolTable
 70
0
  0
ENDTAB
  0
TABLE
  2
UCS
  5
17
330
0
100
AcDbSymbolTable
 70
0
  0
ENDTAB
  0
TABLE
  2
DIMSTYLE
  5
18
330
0
100
AcDbSymbolTable
 70
1
100
AcDbDimStyleTable
 71
0
  0
DIMSTYLE
105
19
330
18
100
AcDbSymbolTableRecord
100
AcDbDimStyleTableRecord
  2
Standard
 70
0
  0
ENDTAB
  0
TABLE
  2
BLOCK_RECORD
  5
1A
330
0
100
AcDbSymbolTable
 70
3
  0
BLOCK_RECORD
  5
1B
330
1A
100
AcDbSymbolTableRecord
100
AcDbBlockTableRecord
  2
*Model_Space
340
1E
 70
0
280
1
281
0
  0
BLOCK_RECORD
  5
1C
330
1A
100
AcDbSymbolTableRecord
100
AcDbBlockTableRecord
  2
*Paper_Space
340
1F
 70
0
280
1
281
0
  0
BLOCK_RECORD
  5
1D
330
1A
100
AcDbSymbolTableRecord
100
AcDbBlockTableRecord
  2
*Paper_Space0
340
20
 70
0
280
1
281
0
  0
ENDTAB
  0
ENDSEC
  0
SECTION
  2
BLOCKS
  0
BLOCK
  5
23
330
1B
100
AcDbEntity
  8
0
100
AcDbBlockBegin
  2
*Model_Space
 70
0
 10
0.0
 20
0.0
 30
0.0
  3
*Model_Space
  1

  0
ENDBLK
  5
24
330
1B
100
AcDbEntity
  8
0
100
AcDbBlockEnd
  0
BLOCK
  5
25
330
1C
100
AcDbEntity
 67
1
  8
0
100
AcDbBlockBegin
  2
*Paper_Space
 70
0
 10
0.0
 20
0.0
 30
0.0
  3
*Paper_Space
  1

  0
ENDBLK
  5
26
330
1C
100
AcDbEntity
 67
1
  8
0
100
AcDbBlockEnd
  0
BLOCK
  5
27
330
1D
100
AcDbEntity
 67
1
  8
0
100
AcDbBlockBegin
  2
*Paper_Space0
 70
0
 10
0.0
 20
0.0
 30
0.0
  3
*Paper_Space0
  1

  0
ENDBLK
  5
28
330
1D
100
AcDbEntity
 67
1
  8
0
100
AcDbBlockEnd
  0
ENDSEC
  0
SECTION
  2
ENTITIES
  0
LINE
  5
29
330
1B
100
AcDbEntity
  8
B.Mask
  6
CONTINUOUS
100
AcDbLine
 10
100.4187659999999909
 20
-97.5353219999999936
 30
0
 11
100.6920889999999957
 21
-97.5977069999999998
 31
0
  0
LINE
  5
2A
330
1B
100
AcDbEntity
  8
B.Mask
  6
CONTINUOUS
100
AcDbLine
 10
100.6920889999999957
 20
-97.5977069999999998
 30
0
 11
100.9567089999999894
 21
-97.6903009999999909
 31
0
  0
LINE
  5
2B
330
1B
100
AcDbEntity
  8
B.Mask
  6
CONTINUOUS
100
AcDbLine
 10
100.9567089999999894
 20
-97.6903009999999909
 30
0
 11
101.2092969999999923
 21
-97.8119409999999903
 31
0
  0
LINE
  5
2C
330
1B
100
AcDbEntity
  8
B.Mask
  6
CONTINUOUS
100
AcDbLine
 10
101.2092969999999923
 20
-97.8119409999999903
 30
0
 11
101.4466779999999915
 21
-97.9610979999999927
 31
0
  0
LINE
  5
2D
330
1B
100
AcDbEntity
  8
B.Mask
  6
CONTINUOUS
100
AcDbLine
 10
101.4466779999999915
 20
-97.9610979999999927
 30
0
 11
101.6658659999999941
 21
-98.1358949999999908
 31
0
  0
LINE
  5
2E
330
1B
100
AcDbEntity
  8
B.Mask
  6
CONTINUOUS
100
AcDbLine
 10
101.6658659999999941
 20
-98.1358949999999908
 30
0
 11
101.864104999999995
 21
-98.3341339999999917
 31
0
  0
LINE
  5
2F
330
1B
100
AcDbEntity
  8
B.Mask
  6
CONTINUOUS
100
AcDbLine
 10
101.864104999999995
 20
-98.3341339999999917
 30
0
 11
102.0389019999999931
 21
-98.5533219999999943
 31
0
  0
LINE
  5
30
330
1B
100
AcDbEntity
  8
B.Mask
  6
CONTINUOUS
100
AcDbLine
 10
102.0389019999999931
 20
-98.5533219999999943
 30
0
 11
102.1880589999999955
 21
-98.7907029999999935
 31
0
  0
LINE
  5
31
330
1B
100
AcDbEntity
  8
B.Mask
  6
CONTINUOUS
100
AcDbLine
 10
102.1880589999999955
 20
-98.7907029999999935
 30
0
 11
102.3096989999999948
 21
-99.0432909999999964
 31
0
  0
LINE
  5
32
330
1B
100
AcDbEntity
  8
B.Mask
  6
CONTINUOUS
100
AcDbLine
 10
102.3096989999999948
 20
-99.0432909999999964
 30
0
 11
102.4022930000000002
 21
-99.3079109999999901
 31
0
  0
LINE
  5
33
330
1B
100
AcDbEntity
  8
B.Mask
  6
CONTINUOUS
100
AcDbLine
 10
102.4022930000000002
 20
-99.3079109999999901
 30
0
 11
102.4646779999999922
 21
-99.5812339999999949
 31
0
  0
LINE
  5
34
330
1B
100
AcDbEntity
  8
B.Mask
  6
CONTINUOUS
100
AcDbLine
 10
102.4646779999999922
 20
-99.5812339999999949
 30
0
 11
102.4960669999999965
 21
-99.859823999999989
 31
0
  0
LINE
  5
35
330
1B
100
AcDbEntity
  8
B.Mask
  6
CONTINUOUS
100
AcDbLine
 10
102.4960669999999965
 20
-99.859823999999989
 30
0
 11
102.4960669999999965
 21
-100.1401759999999967
 31
0
  0
LINE
  5
36
330
1B
100
AcDbEntity
  8
B.Mask
  6
CONTINUOUS
100
AcDbLine
 10
102.4960669999999965
 20
-100.1401759999999967
 30
0
 11
102.4646779999999922
 21
-100.4187659999999909
 31
0
  0
LINE
  5
37
330
1B
100
AcDbEntity
  8
B.Mask
  6
CONTINUOUS
100
AcDbLine
 10
102.4646779999999922
 20
-100.4187659999999909
 30
0
 11
102.4022930000000002
 21
-100.6920889999999957
 31
0
  0
LINE
  5
38
330
1B
100
AcDbEntity
  8
B.Mask
  6
CONTINUOUS
100
AcDbLine
 10
102.4022930000000002
 20
-100.6920889999999957
 30
0
 11
102.3096989999999948
 21
-100.9567089999999894
 31
0
  0
LINE
  5
39
330
1B
100
AcDbEntity
  8
B.Mask
  6
CONTINUOUS
100
AcDbLine
 10
102.3096989999999948
 20
-100.9567089999999894
 30
0
 11
102.1880589999999955
 21
-101.2092969999999923
 31
0
  0
LINE
  5
3A
330
1B
100
AcDbEntity
  8
B.Mask
  6
CONTINUOUS
100
AcDbLine
 10
102.1880589999999955
 20
-101.2092969999999923
 30
0
 11
102.0389019999999931
 21
-101.4466779999999915
 31
0
  0
LINE
  5
3B
330
1B
100
AcDbEntity
  8
B.Mask
  6
CONTINUOUS
100
AcDbLine
 10
102.0389019999999931
 20
-101.4466779999999915
 30
0
 11
101.864104999999995
 21
-101.6658659999999941
 31
0
  0
LINE
  5
3C
330
1B
100
AcDbEntity
  8
B.Mask
  6
CONTINUOUS
100
AcDbLine
 10
101.864104999999995
 20
-101.6658659999999941
 30
0
 11
101.6658659999999941
 21
-101.864104999999995
 31
0
  0
LINE
  5
3D
330
1B
100
AcDbEntity
  8
B.Mask
  6
CONTINUOUS
100
AcDbLine
 10
101.6658659999999941
 20
-101.864104999999995
 30
0
 11
101.4466779999999915
 21
-102.0389019999999931
 31
0
  0
LINE
  5
3E
330
1B
100
AcDbEntity
  8
B.Mask
  6
CONTINUOUS
100
AcDbLine
 10
101.4466779999999915
 20
-102.0389019999999931
 30
0
 11
101.2092969999999923
 21
-102.1880589999999955
 31
0
  0
LINE
  5
3F
330
1B
100
AcDbEntity
  8
B.Mask
  6
CONTINUOUS
100
AcDbLine
 10
101.2092969999999923
 20
-102.1880589999999955
 30
0
 11
100.9567089999999894
 21
-102.3096989999999948
 31
0
  0
LINE
  5
40
330
1B
100
AcDbEntity
  8
B.Mask
  6
CONTINUOUS
100
AcDbLine
 10
100.9567089999999894
 20
-102.3096989999999948
 30
0
 11
100.6920889999999957
 21
-102.4022930000000002
 31
0
  0
LINE
  5
41
330
1B
100
AcDbEntity
  8
B.Mask
  6
CONTINUOUS
100
AcDbLine
 10
100.6920889999999957
 20
-102.4022930000000002
 30
0
 11
100.4187659999999909
 21
-102.4646779999999922
 31
0
  0
LINE
  5
42
330
1B
100
AcDbEntity
  8
B.Mask
  6
CONTINUOUS
100
AcDbLine
 10
100.4187659999999909
 20
-102.4646779999999922
 30
0
 11
100.1401759999999967
 21
-102.4960669999999965
 31
0
  0
LINE
  5
43
330
1B
100
AcDbEntity
  8
B.Mask
  6
CONTINUOUS
100
AcDbLine
 10
100.1401759999999967
 20
-102.4960669999999965
 30
0
 11
99.859823999999989
 21
-102.4960669999999965
 31
0
  0
LINE
  5
44
330
1B
100
AcDbEntity
  8
B.Mask
  6
CONTINUOUS
100
AcDbLine
 10
99.859823999999989
 20
-102.4960669999999965
 30
0
 11
99.5812339999999949
 21
-102.4646779999999922
 31
0
  0
LINE
  5
45
330
1B
100
AcDbEntity
  8
B.Mask
  6
CONTINUOUS
100
AcDbLine
 10
99.5812339999999949
 20
-102.4646779999999922
 30
0
 11
99.3079109999999901
 21
-102.4022930000000002
 31
0
  0
LINE
  5
46
330
1B
100
AcDbEntity
  8
B.Mask
  6
CONTINUOUS
100
AcDbLine
 10
99.3079109999999901
 20
-102.4022930000000002
 30
0
 11
99.0432909999999964
 21
-102.3096989999999948
 31
0
  0
LINE
  5
47
330
1B
100
AcDbEntity
  8
B.Mask
  6
CONTINUOUS
100
AcDbLine
 10
99.0432909999999964
 20
-102.3096989999999948
 30
0
 11
98.7907029999999935
 21
-102.1880589999999955
 31
0
  0
LINE
  5
48
330
1B
100
AcDbEntity
  8
B.Mask
  6
CONTINUOUS
100
AcDbLine
 10
98.7907029999999935
 20
-102.1880589999999955
 30
0
 11
98.5533219999999943
 21
-102.0389019999999931
 31
0
  0
LINE
  5
49
330
1B
100
AcDbEntity
  8
B.Mask
  6
CONTINUOUS
100
AcDbLine
 10
98.5533219999999943
 20
-102.0389019999999931
 30
0
 11
98.3341339999999917
 21
-101.864104999999995
 31
0
  0
LINE
  5
4A
330
1B
100
AcDbEntity
  8
B.Mask
  6
CONTINUOUS
100
AcDbLine
 10
98.3341339999999917
 20
-101.864104999999995
 30
0
 11
98.1358949999999908
 21
-101.6658659999999941
 31
0
  0
LINE
  5
4B
330
1B
100
AcDbEntity
  8
B.Mask
  6
CONTINUOUS
100
AcDbLine
 10
98.1358949999999908
 20
-101.6658659999999941
 30
0
 11
97.9610979999999927
 21
-101.4466779999999915
 31
0
  0
LINE
  5
4C
330
1B
100
AcDbEntity
  8
B.Mask
  6
CONTINUOUS
100
AcDbLine
 10
97.9610979999999927
 20
-101.4466779999999915
 30
0
 11
97.8119409999999903
 21
-101.2092969999999923
 31
0
  0
LINE
  5
4D
330
1B
100
AcDbEntity
  8
B.Mask
  6
CONTINUOUS
100
AcDbLine
 10
97.8119409999999903
 20
-101.2092969999999923
 30
0
 11
97.6903009999999909
 21
-100.9567089999999894
 31
0
  0
LINE
  5
4E
330
1B
100
AcDbEntity
  8
B.Mask
  6
CONTINUOUS
100
AcDbLine
 10
97.6903009999999909
 20
-100.9567089999999894
 30
0
 11
97.5977069999999998
 21
-100.6920889999999957
 31
0
  0
LINE
  5
4F
330
1B
100
AcDbEntity
  8
B.Mask
  6
CONTINUOUS
100
AcDbLine
 10
97.5977069999999998
 20
-100.6920889999999957
 30
0
 11
97.5353219999999936
 21
-100.4187659999999909
 31
0
  0
LINE
  5
50
330
1B
100
AcDbEntity
  8
B.Mask
  6
CONTINUOUS
100
AcDbLine
 10
97.5353219999999936
 20
-100.4187659999999909
 30
0
 11
97.5039329999999893
 21
-100.1401759999999967
 31
0
  0
LINE
  5
51
330
1B
100
AcDbEntity
  8
B.Mask
  6
CONTINUOUS
100
AcDbLine
 10
97.5039329999999893
 20
-100.1401759999999967
 30
0
 11
97.5039329999999893
 21
-99.859823999999989
 31
0
  0
LINE
  5
52
330
1B
100
AcDbEntity
  8
B.Mask
  6
CONTINUOUS
100
AcDbLine
 10
97.5039329999999893
 20
-99.859823999999989
 30
0
 11
97.5353219999999936
 21
-99.5812339999999949
 31
0
  0
LINE
  5
53
330
1B
100
AcDbEntity
  8
B.Mask
  6
CONTINUOUS
100
AcDbLine
 10
97.5353219999999936
 20
-99.5812339999999949
 30
0
 11
97.5977069999999998
 21
-99.3079109999999901
 31
0
  0
LINE
  5
54
330
1B
100
AcDbEntity
  8
B.Mask
  6
CONTINUOUS
100
AcDbLine
 10
97.5977069999999998
 20
-99.3079109999999901
 30
0
 11
97.6903009999999909
 21
-99.0432909999999964
 31
0
  0
LINE
  5
55
330
1B
100
AcDbEntity
  8
B.Mask
  6
CONTINUOUS
100
AcDbLine
 10
97.6903009999999909
 20
-99.0432909999999964
 30
0
 11
97.8119409999999903
 21
-98.7907029999999935
 31
0
  0
LINE
  5
56
330
1B
100
AcDbEntity
  8
B.Mask
  6
CONTINUOUS
100
AcDbLine
 10
97.8119409999999903
 20
-98.7907029999999935
 30
0
 11
97.9610979999999927
 21
-98.5533219999999943
 31
0
  0
LINE
  5
57
330
1B
100
AcDbEntity
  8
B.Mask
  6
CONTINUOUS
100
AcDbLine
 10
97.9610979999999927
 20
-98.5533219999999943
 30
0
 11
98.1358949999999908
 21
-98.3341339999999917
 31
0
  0
LINE
  5
58
330
1B
100
AcDbEntity
  8
B.Mask
  6
CONTINUOUS
100
AcDbLine
 10
98.1358949999999908
 20
-98.3341339999999917
 30
0
 11
98.3341339999999917
 21
-98.1358949999999908
 31
0
  0
LINE
  5
59
330
1B
100
AcDbEntity
  8
B.Mask
  6
CONTINUOUS
100
AcDbLine
 10
98.3341339999999917
 20
-98.1358949999999908
 30
0
 11
98.5533219999999943
 21
-97.9610979999999927
 31
0
  0
LINE
  5
5A
330
1B
100
AcDbEntity
  8
B.Mask
  6
CONTINUOUS
100
AcDbLine
 10
98.5533219999999943
 20
-97.9610979999999927
 30
0
 11
98.7907029999999935
 21
-97.8119409999999903
 31
0
  0
LINE
  5
5B
330
1B
100
AcDbEntity
  8
B.Mask
  6
CONTINUOUS
100
AcDbLine
 10
98.7907029999999935
 20
-97.8119409999999903
 30
0
 11
99.0432909999999964
 21
-97.6903009999999909
 31
0
  0
LINE
  5
5C
330
1B
100
AcDbEntity
  8
B.Mask
  6
CONTINUOUS
100
AcDbLine
 10
99.0432909999999964
 20
-97.6903009999999909
 30
0
 11
99.3079109999999901
 21
-97.5977069999999998
 31
0
  0
LINE
  5
5D
330
1B
100
AcDbEntity
  8
B.Mask
  6
CONTINUOUS
100
AcDbLine
 10
99.3079109999999901
 20
-97.5977069999999998
 30
0
 11
99.5812339999999949
 21
-97.5353219999999936
 31
0
  0
LINE
  5
5E
330
1B
100
AcDbEntity
  8
B.Mask
  6
CONTINUOUS
100
AcDbLine
 10
99.5812339999999949
 20
-97.5353219999999936
 30
0
 11
99.859823999999989
 21
-97.5039329999999893
 31
0
  0
LINE
  5
5F
330
1B
100
AcDbEntity
  8
B.Mask
  6
CONTINUOUS
100
AcDbLine
 10
99.859823999999989
 20
-97.5039329999999893
 30
0
 11
100.1401759999999967
 21
-97.5039329999999893
 31
0
  0
LINE
  5
60
330
1B
100
AcDbEntity
  8
B.Mask
  6
CONTINUOUS
100
AcDbLine
 10
100.1401759999999967
 20
-97.5039329999999893
 30
0
 11
100.4187659999999909
 21
-97.5353219999999936
 31
0
  0
LINE
  5
61
330
1B
100
AcDbEntity
  8
Edge.Cuts
  6
CONTINUOUS
100
AcDbLine
 10
105.0095669999999899
 20
-94.976902999999993
 30
0
 11
105.0230969999999928
 21
-94.9904329999999959
 31
0
  0
LINE
  5
62
330
1B
100
AcDbEntity
  8
Edge.Cuts
  6
CONTINUOUS
100
AcDbLine
 10
105.0230969999999928
 20
-94.9904329999999959
 30
0
 11
105.0249999999999915
 21
-95.
 31
0
  0
LINE
  5
63
330
1B
100
AcDbEntity
  8
Edge.Cuts
  6
CONTINUOUS
100
AcDbLine
 10
105.0249999999999915
 20
-95.
 30
0
 11
105.0249999999999915
 21
-105.
 31
0
  0
LINE
  5
64
330
1B
100
AcDbEntity
  8
Edge.Cuts
  6
CONTINUOUS
100
AcDbLine
 10
105.0249999999999915
 20
-105.
 30
0
 11
105.0230969999999928
 21
-105.0095669999999899
 31
0
  0
LINE
  5
65
330
1B
100
AcDbEntity
  8
Edge.Cuts
  6
CONTINUOUS
100
AcDbLine
 10
105.0230969999999928
 20
-105.0095669999999899
 30
0
 11
105.0095669999999899
 21
-105.0230969999999928
 31
0
  0
LINE
  5
66
330
1B
100
AcDbEntity
  8
Edge.Cuts
  6
CONTINUOUS
100
AcDbLine
 10
105.0095669999999899
 20
-105.0230969999999928
 30
0
 11
105.
 21
-105.0249999999999915
 31
0
  0
LINE
  5
67
330
1B
100
AcDbEntity
  8
Edge.Cuts
  6
CONTINUOUS
100
AcDbLine
 10
105.
 20
-105.0249999999999915
 30
0
 11
95.
 21
-105.0249999999999915
 31
0
  0
LINE
  5
68
330
1B
100
AcDbEntity
  8
Edge.Cuts
  6
CONTINUOUS
100
AcDbLine
 10
95.
 20
-105.0249999999999915
 30
0
 11
94.9904329999999959
 21
-105.0230969999999928
 31
0
  0
LINE
  5
69
330
1B
100
AcDbEntity
  8
Edge.Cuts
  6
CONTINUOUS
100
AcDbLine
 10
94.9904329999999959
 20
-105.0230969999999928
 30
0
 11
94.976902999999993
 21
-105.0095669999999899
 31
0
  0
LINE
  5
6A
330
1B
100
AcDbEntity
  8
Edge.Cuts
  6
CONTINUOUS
100
AcDbLine
 10
94.976902999999993
 20
-105.0095669999999899
 30
0
 11
94.9749999999999943
 21
-105.
 31
0
  0
LINE
  5
6B
330
1B
100
AcDbEntity
  8
Edge.Cuts
  6
CONTINUOUS
100
AcDbLine
 10
94.9749999999999943
 20
-105.
 30
0
 11
94.9749999999999943
 21
-95.
 31
0
  0
LINE
  5
6C
330
1B
100
AcDbEntity
  8
Edge.Cuts
  6
CONTINUOUS
100
AcDbLine
 10
94.9749999999999943
 20
-95.
 30
0
 11
94.976902999999993
 21
-94.9904329999999959
 31
0
  0
LINE
  5
6D
330
1B
100
AcDbEntity
  8
Edge.Cuts
  6
CONTINUOUS
100
AcDbLine
 10
94.976902999999993
 20
-94.9904329999999959
 30
0
 11
94.9904329999999959
 21
-94.976902999999993
 31
0
  0
LINE
  5
6E
330
1B
100
AcDbEntity
  8
Edge.Cuts
  6
CONTINUOUS
100
AcDbLine
 10
94.9904329999999959
 20
-94.976902999999993
 30
0
 11
95.
 21
-94.9749999999999943
 31
0
  0
LINE
  5
6F
330
1B
100
AcDbEntity
  8
Edge.Cuts
  6
CONTINUOUS
100
AcDbLine
 10
95.
 20
-94.9749999999999943
 30
0
 11
105.
 21
-94.9749999999999943
 31
0
  0
LINE
  5
70
330
1B
100
AcDbEntity
  8
Edge.Cuts
  6
CONTINUOUS
100
AcDbLine
 10
105.
 20
-94.9749999999999943
 30
0
 11
105.0095669999999899
 21
-94.976902999999993
 31
0
  0
LINE
  5
71
330
1B
100
AcDbEntity
  8
Edge.Cuts
  6
CONTINUOUS
100
AcDbLine
 10
95.0249999999999915
 20
-95.0249999999999915
 30
0
 11
95.0249999999999915
 21
-104.9749999999999943
 31
0
  0
LINE
  5
72
330
1B
100
AcDbEntity
  8
Edge.Cuts
  6
CONTINUOUS
100
AcDbLine
 10
95.0249999999999915
 20
-104.9749999999999943
 30
0
 11
104.9749999999999943
 21
-104.9749999999999943
 31
0
  0
LINE
  5
73
330
1B
100
AcDbEntity
  8
Edge.Cuts
  6
CONTINUOUS
100
AcDbLine
 10
104.9749999999999943
 20
-104.9749999999999943
 30
0
 11
104.9749999999999943
 21
-95.0249999999999915
 31
0
  0
LINE
  5
74
330
1B
100
AcDbEntity
  8
Edge.Cuts
  6
CONTINUOUS
100
AcDbLine
 10
104.9749999999999943
 20
-95.0249999999999915
 30
0
 11
95.0249999999999915
 21
-95.0249999999999915
 31
0
  0
ENDSEC
  0
SECTION
  2
OBJECTS
  0
DICTIONARY
  5
21
330
0
100
AcDbDictionary
281
1
  3
ACAD_GROUP
350
75
  3
ACAD_LAYOUT
350
22
  3
ACAD_PLOTSTYLENAME
350
11
  0
DICTIONARY
  5
75
330
21
100
AcDbDictionary
281
1
  0
ACDBDICTIONARYWDFLT
  5
11
330
21
100
AcDbDictionary
281
1
  3
Normal
350
10
100
AcDbDictionaryWithDefault
340
10
  0
ACDBPLACEHOLDER
  5
10
330
11
  0
DICTIONARY
  5
22
330
21
100
AcDbDictionary
281
1
  3
Model
350
1E
  3
Layout1
350
1F
  3
Layout2
350
20
  0
LAYOUT
  5
1E
330
22
100
AcDbPlotSettings
  1

  2
none_device
  4
A3
  6

 40
0.0
 41
0.0
 42
0.0
 43
0.0
 44
420.0
 45
297.0
 46
0.0
 47
0.0
 48
0.0
 49
0.0
140
0.0
141
0.0
142
1.0
143
1.0
 70
1024
 72
1
 73
0
 74
5
  7

 75
16
 76
0
 77
2
 78
300
147
1.0
148
0.0
149
0.0
100
AcDbLayout
  1
Model
 70
1
 71
0
 10
0.0
 20
0.0
 11
420.0
 21
297.0
 12
0.0
 22
0.0
 32
0.0
 14
1e+20
 24
1e+20
 34
1e+20
 15
-1e+20
 25
-1e+20
 35
-1e+20
146
0.0
 13
0.0
 23
0.0
 33
0.0
 16
1.0
 26
0.0
 36
0.0
 17
0.0
 27
1.0
 37
0.0
 76
0
330
1B
  0
LAYOUT
  5
1F
330
22
100
AcDbPlotSettings
  1

  2
none_device
  4
A3
  6

 40
0.0
 41
0.0
 42
0.0
 43
0.0
 44
420.0
 45
297.0
 46
0.0
 47
0.0
 48
0.0
 49
0.0
140
0.0
141
0.0
142
1.0
143
1.0
 70
0
 72
1
 73
0
 74
5
  7

 75
16
 76
0
 77
2
 78
300
147
1.0
148
0.0
149
0.0
100
AcDbLayout
  1
Layout1
 70
1
 71
1
 10
0.0
 20
0.0
 11
420.0
 21
297.0
 12
0.0
 22
0.0
 32
0.0
 14
1e+20
 24
1e+20
 34
1e+20
 15
-1e+20
 25
-1e+20
 35
-1e+20
146
0.0
 13
0.0
 23
0.0
 33
0.0
 16
1.0
 26
0.0
 36
0.0
 17
0.0
 27
1.0
 37
0.0
 76
0
330
1C
  0
LAYOUT
  5
20
330
22
100
AcDbPlotSettings
  1

  2
none_device
  4
A3
  6

 40
0.0
 41
0.0
 42
0.0
 43
0.0
 44
420.0
 45
297.0
 46
0.0
 47
0.0
 48
0.0
 49
0.0
140
0.0
141
0.0
142
1.0
143
1.0
 70
0
 72
1
 73
0
 74
5
  7

 75
16
 76
0
 77
2
 78
300
147
1.0
148
0.0
149
0.0
100
AcDbLayout
  1
Layout2
 70
1
 71
2
 10
0.0
 20
0.0
 11
420.0
 21
297.0
 12
0.0
 22
0.0
 32
0.0
 14
1e+20
 24
1e+20
 34
1e+20
 15
-1e+20
 25
-1e+20
 35
-1e+20
146
0.0
 13
0.0
 23
0.0
 33
0.0
 16
1.0
 26
0.0
 36
0.0
 17
0.0
 27
1.0
 37
0.0
 76
0
330
1D
  0
ENDSEC
  0
EOF
