  0
SECTION
  2
HEADER
  9
$ACADVER
  1
AC1018
  9
$HANDSEED
  5
FFFFFFFF
  9
$ANGBASE
  50
0.0
  9
$ANGDIR
  70
1
  9
$MEASUREMENT
  70
1
  9
$INSUNITS
  70
4
  9
$EXTMIN
 10
89.660000000
 20
-110.340000000
 30
0.0
  9
$EXTMAX
 10
110.340000000
 20
-89.660000000
 30
0.0
  9
$LIMMIN
 10
89.660000000
 20
-110.340000000
  9
$LIMMAX
 10
110.340000000
 20
-89.660000000
  0
ENDSEC
  0
SECTION
  2
TABLES
  0
TABLE
  2
APPID
  5
1
330
0
100
AcDbSymbolTable
 70
1
  0
APPID
  5
2
330
1
100
AcDbSymbolTableRecord
100
AcDbRegAppTableRecord
  2
ACAD
 70
0
  0
ENDTAB
  0
TABLE
  2
LTYPE
  5
3
330
0
100
AcDbSymbolTable
 70
6
  0
LTYPE
  5
4
330
3
100
AcDbSymbolTableRecord
100
AcDbLinetypeTableRecord
  2
ByBlock
 70
0
  3

 72
65
 73
0
 40
0
  0
LTYPE
  5
5
330
3
100
AcDbSymbolTableRecord
100
AcDbLinetypeTableRecord
  2
ByLayer
 70
0
  3

 72
65
 73
0
 40
0
  0
LTYPE
  5
6
330
3
100
AcDbSymbolTableRecord
100
AcDbLinetypeTableRecord
  2
CONTINUOUS
 70
0
  3
Solid line
 72
65
 73
0
 40
0
  0
LTYPE
  5
7
330
3
100
AcDbSymbolTableRecord
100
AcDbLinetypeTableRecord
  2
DASHDOT
 70
0
  3
Dash Dot ____ _ ____ _
 72
65
 73
4
 40
2
 49
1.25
 74
0
 49
-0.25
 74
0
 49
0.25
 74
0
 49
-0.25
 74
0
  0
LTYPE
  5
8
330
3
100
AcDbSymbolTableRecord
100
AcDbLinetypeTableRecord
  2
DASHED
 70
0
  3
Dashed __ __ __ __ __
 72
65
 73
2
 40
0.75
 49
0.5
 74
0
 49
-0.25
 74
0
  0
LTYPE
  5
9
330
3
100
AcDbSymbolTableRecord
100
AcDbLinetypeTableRecord
  2
DOTTED
 70
0
  3
Dotted .  .  .  .
 72
65
 73
2
 40
0.2
 49
0.0
 74
0
 49
-0.2
 74
0
  0
ENDTAB
  0
TABLE
  2
STYLE
  5
A
330
0
100
AcDbSymbolTable
 70
4
  0
STYLE
  5
B
330
A
100
AcDbSymbolTableRecord
100
AcDbTextStyleTableRecord
  2
KICAD
 70
0
 40
0
 41
1
 42
1
 50
0
 71
0
  3
isocp.shx
  0
STYLE
  5
C
330
A
100
AcDbSymbolTableRecord
100
AcDbTextStyleTableRecord
  2
KICADB
 70
0
 40
0
 41
1
 42
1
 50
0
 71
0
  3
isocp.shx
  0
STYLE
  5
D
330
A
100
AcDbSymbolTableRecord
100
AcDbTextStyleTableRecord
  2
KICADI
 70
0
 40
0
 41
1
 42
1
 50
15
 71
0
  3
isocp.shx
  0
STYLE
  5
E
330
A
100
AcDbSymbolTableRecord
100
AcDbTextStyleTableRecord
  2
KICADBI
 70
0
 40
0
 41
1
 42
1
 50
15
 71
0
  3
isocp.shx
  0
ENDTAB
  0
TABLE
  2
LAYER
  5
F
330
0
100
AcDbSymbolTable
 70
3
  0
LAYER
  5
12
330
F
100
AcDbSymbolTableRecord
100
AcDbLayerTableRecord
  2
0
 70
0
 62
7
  6
CONTINUOUS
390
10
  0
LAYER
  5
13
330
F
100
AcDbSymbolTableRecord
100
AcDbLayerTableRecord
  2
B.Mask
 70
0
 62
4
420
196590
  6
CONTINUOUS
390
10
  0
LAYER
  5
14
330
F
100
AcDbSymbolTableRecord
100
AcDbLayerTableRecord
  2
Edge.Cuts
 70
0
 62
254
420
13685453
  6
CONTINUOUS
390
10
  0
ENDTAB
  0
TABLE
  2
VPORT
  5
15
330
0
100
AcDbSymbolTable
 70
1
  0
VPORT
  5
F0000000
330
15
100
AcDbSymbolTableRecord
100
AcDbViewportTableRecord
  2
*Active
 70
0
 10
0.0
 20
0.0
 11
1.0
 21
1.0
 12
100.000000000
 22
-100.000000000
 13
0.0
 23
0.0
 14
0.5
 24
0.5
 15
0.5
 25
0.5
 16
0.0
 26
0.0
 36
1.0
 17
0.0
 27
0.0
 37
0.0
 40
20.680000000
 41
1.6
 42
50.0
 43
0.0
 44
0.0
 50
0.0
 51
0.0
 71
0
 72
1000
 73
1
 74
3
 75
0
 76
0
 77
0
 78
0
281
0
 65
0
146
0.0
  0
ENDTAB
  0
TABLE
  2
VIEW
  5
16
330
0
100
AcDbSymbolTable
 70
0
  0
ENDTAB
  0
TABLE
  2
UCS
  5
17
330
0
100
AcDbSymbolTable
 70
0
  0
ENDTAB
  0
TABLE
  2
DIMSTYLE
  5
18
330
0
100
AcDbSymbolTable
 70
1
100
AcDbDimStyleTable
 71
0
  0
DIMSTYLE
105
19
330
18
100
AcDbSymbolTableRecord
100
AcDbDimStyleTableRecord
  2
Standard
 70
0
  0
ENDTAB
  0
TABLE
  2
BLOCK_RECORD
  5
1A
330
0
100
AcDbSymbolTable
 70
3
  0
BLOCK_RECORD
  5
1B
330
1A
100
AcDbSymbolTableRecord
100
AcDbBlockTableRecord
  2
*Model_Space
340
1E
 70
0
280
1
281
0
  0
BLOCK_RECORD
  5
1C
330
1A
100
AcDbSymbolTableRecord
100
AcDbBlockTableRecord
  2
*Paper_Space
340
1F
 70
0
280
1
281
0
  0
BLOCK_RECORD
  5
1D
330
1A
100
AcDbSymbolTableRecord
100
AcDbBlockTableRecord
  2
*Paper_Space0
340
20
 70
0
280
1
281
0
  0
ENDTAB
  0
ENDSEC
  0
SECTION
  2
BLOCKS
  0
BLOCK
  5
23
330
1B
100
AcDbEntity
  8
0
100
AcDbBlockBegin
  2
*Model_Space
 70
0
 10
0.0
 20
0.0
 30
0.0
  3
*Model_Space
  1

  0
ENDBLK
  5
24
330
1B
100
AcDbEntity
  8
0
100
AcDbBlockEnd
  0
BLOCK
  5
25
330
1C
100
AcDbEntity
 67
1
  8
0
100
AcDbBlockBegin
  2
*Paper_Space
 70
0
 10
0.0
 20
0.0
 30
0.0
  3
*Paper_Space
  1

  0
ENDBLK
  5
26
330
1C
100
AcDbEntity
 67
1
  8
0
100
AcDbBlockEnd
  0
BLOCK
  5
27
330
1D
100
AcDbEntity
 67
1
  8
0
100
AcDbBlockBegin
  2
*Paper_Space0
 70
0
 10
0.0
 20
0.0
 30
0.0
  3
*Paper_Space0
  1

  0
ENDBLK
  5
28
330
1D
100
AcDbEntity
 67
1
  8
0
100
AcDbBlockEnd
  0
ENDSEC
  0
SECTION
  2
ENTITIES
  0
LINE
  5
29
330
1B
100
AcDbEntity
  8
B.Mask
  6
CONTINUOUS
100
AcDbLine
 10
100.6526309999999995
 20
-95.0427759999999893
 30
0
 11
101.0821979999999911
 21
-95.1185199999999895
 31
0
  0
LINE
  5
2A
330
1B
100
AcDbEntity
  8
B.Mask
  6
CONTINUOUS
100
AcDbLine
 10
101.0821979999999911
 20
-95.1185199999999895
 30
0
 11
101.5035290000000003
 21
-95.2314149999999984
 31
0
  0
LINE
  5
2B
330
1B
100
AcDbEntity
  8
B.Mask
  6
CONTINUOUS
100
AcDbLine
 10
101.5035290000000003
 20
-95.2314149999999984
 30
0
 11
101.9134169999999955
 21
-95.3806019999999961
 31
0
  0
LINE
  5
2C
330
1B
100
AcDbEntity
  8
B.Mask
  6
CONTINUOUS
100
AcDbLine
 10
101.9134169999999955
 20
-95.3806019999999961
 30
0
 11
102.3087429999999927
 21
-95.564945999999992
 31
0
  0
LINE
  5
2D
330
1B
100
AcDbEntity
  8
B.Mask
  6
CONTINUOUS
100
AcDbLine
 10
102.3087429999999927
 20
-95.564945999999992
 30
0
 11
102.6864980000000003
 21
-95.7830429999999922
 31
0
  0
LINE
  5
2E
330
1B
100
AcDbEntity
  8
B.Mask
  6
CONTINUOUS
100
AcDbLine
 10
102.6864980000000003
 20
-95.7830429999999922
 30
0
 11
103.043807000000001
 21
-96.0332329999999956
 31
0
  0
LINE
  5
2F
330
1B
100
AcDbEntity
  8
B.Mask
  6
CONTINUOUS
100
AcDbLine
 10
103.043807000000001
 20
-96.0332329999999956
 30
0
 11
103.3779509999999959
 21
-96.3136129999999895
 31
0
  0
LINE
  5
30
330
1B
100
AcDbEntity
  8
B.Mask
  6
CONTINUOUS
100
AcDbLine
 10
103.3779509999999959
 20
-96.3136129999999895
 30
0
 11
103.6863869999999963
 21
-96.6220489999999899
 31
0
  0
LINE
  5
31
330
1B
100
AcDbEntity
  8
B.Mask
  6
CONTINUOUS
100
AcDbLine
 10
103.6863869999999963
 20
-96.6220489999999899
 30
0
 11
103.9667669999999902
 21
-96.956192999999999
 31
0
  0
LINE
  5
32
330
1B
100
AcDbEntity
  8
B.Mask
  6
CONTINUOUS
100
AcDbLine
 10
103.9667669999999902
 20
-96.956192999999999
 30
0
 11
104.2169569999999936
 21
-97.3135019999999997
 31
0
  0
LINE
  5
33
330
1B
100
AcDbEntity
  8
B.Mask
  6
CONTINUOUS
100
AcDbLine
 10
104.2169569999999936
 20
-97.3135019999999997
 30
0
 11
104.4350539999999938
 21
-97.6912569999999931
 31
0
  0
LINE
  5
34
330
1B
100
AcDbEntity
  8
B.Mask
  6
CONTINUOUS
100
AcDbLine
 10
104.4350539999999938
 20
-97.6912569999999931
 30
0
 11
104.6193979999999897
 21
-98.0865829999999903
 31
0
  0
LINE
  5
35
330
1B
100
AcDbEntity
  8
B.Mask
  6
CONTINUOUS
100
AcDbLine
 10
104.6193979999999897
 20
-98.0865829999999903
 30
0
 11
104.7685850000000016
 21
-98.4964709999999997
 31
0
  0
LINE
  5
36
330
1B
100
AcDbEntity
  8
B.Mask
  6
CONTINUOUS
100
AcDbLine
 10
104.7685850000000016
 20
-98.4964709999999997
 30
0
 11
104.8814799999999963
 21
-98.9178019999999947
 31
0
  0
LINE
  5
37
330
1B
100
AcDbEntity
  8
B.Mask
  6
CONTINUOUS
100
AcDbLine
 10
104.8814799999999963
 20
-98.9178019999999947
 30
0
 11
104.9572239999999965
 21
-99.3473690000000005
 31
0
  0
LINE
  5
38
330
1B
100
AcDbEntity
  8
B.Mask
  6
CONTINUOUS
100
AcDbLine
 10
104.9572239999999965
 20
-99.3473690000000005
 30
0
 11
104.9952409999999929
 21
-99.7819029999999998
 31
0
  0
LINE
  5
39
330
1B
100
AcDbEntity
  8
B.Mask
  6
CONTINUOUS
100
AcDbLine
 10
104.9952409999999929
 20
-99.7819029999999998
 30
0
 11
104.9952409999999929
 21
-100.2180970000000002
 31
0
  0
LINE
  5
3A
330
1B
100
AcDbEntity
  8
B.Mask
  6
CONTINUOUS
100
AcDbLine
 10
104.9952409999999929
 20
-100.2180970000000002
 30
0
 11
104.9572239999999965
 21
-100.6526309999999995
 31
0
  0
LINE
  5
3B
330
1B
100
AcDbEntity
  8
B.Mask
  6
CONTINUOUS
100
AcDbLine
 10
104.9572239999999965
 20
-100.6526309999999995
 30
0
 11
104.8814799999999963
 21
-101.0821979999999911
 31
0
  0
LINE
  5
3C
330
1B
100
AcDbEntity
  8
B.Mask
  6
CONTINUOUS
100
AcDbLine
 10
104.8814799999999963
 20
-101.0821979999999911
 30
0
 11
104.7685850000000016
 21
-101.5035290000000003
 31
0
  0
LINE
  5
3D
330
1B
100
AcDbEntity
  8
B.Mask
  6
CONTINUOUS
100
AcDbLine
 10
104.7685850000000016
 20
-101.5035290000000003
 30
0
 11
104.6193979999999897
 21
-101.9134169999999955
 31
0
  0
LINE
  5
3E
330
1B
100
AcDbEntity
  8
B.Mask
  6
CONTINUOUS
100
AcDbLine
 10
104.6193979999999897
 20
-101.9134169999999955
 30
0
 11
104.4350539999999938
 21
-102.3087429999999927
 31
0
  0
LINE
  5
3F
330
1B
100
AcDbEntity
  8
B.Mask
  6
CONTINUOUS
100
AcDbLine
 10
104.4350539999999938
 20
-102.3087429999999927
 30
0
 11
104.2169569999999936
 21
-102.6864980000000003
 31
0
  0
LINE
  5
40
330
1B
100
AcDbEntity
  8
B.Mask
  6
CONTINUOUS
100
AcDbLine
 10
104.2169569999999936
 20
-102.6864980000000003
 30
0
 11
103.9667669999999902
 21
-103.043807000000001
 31
0
  0
LINE
  5
41
330
1B
100
AcDbEntity
  8
B.Mask
  6
CONTINUOUS
100
AcDbLine
 10
103.9667669999999902
 20
-103.043807000000001
 30
0
 11
103.6863869999999963
 21
-103.3779509999999959
 31
0
  0
LINE
  5
42
330
1B
100
AcDbEntity
  8
B.Mask
  6
CONTINUOUS
100
AcDbLine
 10
103.6863869999999963
 20
-103.3779509999999959
 30
0
 11
103.3779509999999959
 21
-103.6863869999999963
 31
0
  0
LINE
  5
43
330
1B
100
AcDbEntity
  8
B.Mask
  6
CONTINUOUS
100
AcDbLine
 10
103.3779509999999959
 20
-103.6863869999999963
 30
0
 11
103.043807000000001
 21
-103.9667669999999902
 31
0
  0
LINE
  5
44
330
1B
100
AcDbEntity
  8
B.Mask
  6
CONTINUOUS
100
AcDbLine
 10
103.043807000000001
 20
-103.9667669999999902
 30
0
 11
102.6864980000000003
 21
-104.2169569999999936
 31
0
  0
LINE
  5
45
330
1B
100
AcDbEntity
  8
B.Mask
  6
CONTINUOUS
100
AcDbLine
 10
102.6864980000000003
 20
-104.2169569999999936
 30
0
 11
102.3087429999999927
 21
-104.4350539999999938
 31
0
  0
LINE
  5
46
330
1B
100
AcDbEntity
  8
B.Mask
  6
CONTINUOUS
100
AcDbLine
 10
102.3087429999999927
 20
-104.4350539999999938
 30
0
 11
101.9134169999999955
 21
-104.6193979999999897
 31
0
  0
LINE
  5
47
330
1B
100
AcDbEntity
  8
B.Mask
  6
CONTINUOUS
100
AcDbLine
 10
101.9134169999999955
 20
-104.6193979999999897
 30
0
 11
101.5035290000000003
 21
-104.7685850000000016
 31
0
  0
LINE
  5
48
330
1B
100
AcDbEntity
  8
B.Mask
  6
CONTINUOUS
100
AcDbLine
 10
101.5035290000000003
 20
-104.7685850000000016
 30
0
 11
101.0821979999999911
 21
-104.8814799999999963
 31
0
  0
LINE
  5
49
330
1B
100
AcDbEntity
  8
B.Mask
  6
CONTINUOUS
100
AcDbLine
 10
101.0821979999999911
 20
-104.8814799999999963
 30
0
 11
100.6526309999999995
 21
-104.9572239999999965
 31
0
  0
LINE
  5
4A
330
1B
100
AcDbEntity
  8
B.Mask
  6
CONTINUOUS
100
AcDbLine
 10
100.6526309999999995
 20
-104.9572239999999965
 30
0
 11
100.2180970000000002
 21
-104.9952409999999929
 31
0
  0
LINE
  5
4B
330
1B
100
AcDbEntity
  8
B.Mask
  6
CONTINUOUS
100
AcDbLine
 10
100.2180970000000002
 20
-104.9952409999999929
 30
0
 11
99.7819029999999998
 21
-104.9952409999999929
 31
0
  0
LINE
  5
4C
330
1B
100
AcDbEntity
  8
B.Mask
  6
CONTINUOUS
100
AcDbLine
 10
99.7819029999999998
 20
-104.9952409999999929
 30
0
 11
99.3473690000000005
 21
-104.9572239999999965
 31
0
  0
LINE
  5
4D
330
1B
100
AcDbEntity
  8
B.Mask
  6
CONTINUOUS
100
AcDbLine
 10
99.3473690000000005
 20
-104.9572239999999965
 30
0
 11
98.9178019999999947
 21
-104.8814799999999963
 31
0
  0
LINE
  5
4E
330
1B
100
AcDbEntity
  8
B.Mask
  6
CONTINUOUS
100
AcDbLine
 10
98.9178019999999947
 20
-104.8814799999999963
 30
0
 11
98.4964709999999997
 21
-104.7685850000000016
 31
0
  0
LINE
  5
4F
330
1B
100
AcDbEntity
  8
B.Mask
  6
CONTINUOUS
100
AcDbLine
 10
98.4964709999999997
 20
-104.7685850000000016
 30
0
 11
98.0865829999999903
 21
-104.6193979999999897
 31
0
  0
LINE
  5
50
330
1B
100
AcDbEntity
  8
B.Mask
  6
CONTINUOUS
100
AcDbLine
 10
98.0865829999999903
 20
-104.6193979999999897
 30
0
 11
97.6912569999999931
 21
-104.4350539999999938
 31
0
  0
LINE
  5
51
330
1B
100
AcDbEntity
  8
B.Mask
  6
CONTINUOUS
100
AcDbLine
 10
97.6912569999999931
 20
-104.4350539999999938
 30
0
 11
97.3135019999999997
 21
-104.2169569999999936
 31
0
  0
LINE
  5
52
330
1B
100
AcDbEntity
  8
B.Mask
  6
CONTINUOUS
100
AcDbLine
 10
97.3135019999999997
 20
-104.2169569999999936
 30
0
 11
96.956192999999999
 21
-103.9667669999999902
 31
0
  0
LINE
  5
53
330
1B
100
AcDbEntity
  8
B.Mask
  6
CONTINUOUS
100
AcDbLine
 10
96.956192999999999
 20
-103.9667669999999902
 30
0
 11
96.6220489999999899
 21
-103.6863869999999963
 31
0
  0
LINE
  5
54
330
1B
100
AcDbEntity
  8
B.Mask
  6
CONTINUOUS
100
AcDbLine
 10
96.6220489999999899
 20
-103.6863869999999963
 30
0
 11
96.3136129999999895
 21
-103.3779509999999959
 31
0
  0
LINE
  5
55
330
1B
100
AcDbEntity
  8
B.Mask
  6
CONTINUOUS
100
AcDbLine
 10
96.3136129999999895
 20
-103.3779509999999959
 30
0
 11
96.0332329999999956
 21
-103.043807000000001
 31
0
  0
LINE
  5
56
330
1B
100
AcDbEntity
  8
B.Mask
  6
CONTINUOUS
100
AcDbLine
 10
96.0332329999999956
 20
-103.043807000000001
 30
0
 11
95.7830429999999922
 21
-102.6864980000000003
 31
0
  0
LINE
  5
57
330
1B
100
AcDbEntity
  8
B.Mask
  6
CONTINUOUS
100
AcDbLine
 10
95.7830429999999922
 20
-102.6864980000000003
 30
0
 11
95.564945999999992
 21
-102.3087429999999927
 31
0
  0
LINE
  5
58
330
1B
100
AcDbEntity
  8
B.Mask
  6
CONTINUOUS
100
AcDbLine
 10
95.564945999999992
 20
-102.3087429999999927
 30
0
 11
95.3806019999999961
 21
-101.9134169999999955
 31
0
  0
LINE
  5
59
330
1B
100
AcDbEntity
  8
B.Mask
  6
CONTINUOUS
100
AcDbLine
 10
95.3806019999999961
 20
-101.9134169999999955
 30
0
 11
95.2314149999999984
 21
-101.5035290000000003
 31
0
  0
LINE
  5
5A
330
1B
100
AcDbEntity
  8
B.Mask
  6
CONTINUOUS
100
AcDbLine
 10
95.2314149999999984
 20
-101.5035290000000003
 30
0
 11
95.1185199999999895
 21
-101.0821979999999911
 31
0
  0
LINE
  5
5B
330
1B
100
AcDbEntity
  8
B.Mask
  6
CONTINUOUS
100
AcDbLine
 10
95.1185199999999895
 20
-101.0821979999999911
 30
0
 11
95.0427759999999893
 21
-100.6526309999999995
 31
0
  0
LINE
  5
5C
330
1B
100
AcDbEntity
  8
B.Mask
  6
CONTINUOUS
100
AcDbLine
 10
95.0427759999999893
 20
-100.6526309999999995
 30
0
 11
95.0047589999999929
 21
-100.2180970000000002
 31
0
  0
LINE
  5
5D
330
1B
100
AcDbEntity
  8
B.Mask
  6
CONTINUOUS
100
AcDbLine
 10
95.0047589999999929
 20
-100.2180970000000002
 30
0
 11
95.0047589999999929
 21
-99.7819029999999998
 31
0
  0
LINE
  5
5E
330
1B
100
AcDbEntity
  8
B.Mask
  6
CONTINUOUS
100
AcDbLine
 10
95.0047589999999929
 20
-99.7819029999999998
 30
0
 11
95.0427759999999893
 21
-99.3473690000000005
 31
0
  0
LINE
  5
5F
330
1B
100
AcDbEntity
  8
B.Mask
  6
CONTINUOUS
100
AcDbLine
 10
95.0427759999999893
 20
-99.3473690000000005
 30
0
 11
95.1185199999999895
 21
-98.9178019999999947
 31
0
  0
LINE
  5
60
330
1B
100
AcDbEntity
  8
B.Mask
  6
CONTINUOUS
100
AcDbLine
 10
95.1185199999999895
 20
-98.9178019999999947
 30
0
 11
95.2314149999999984
 21
-98.4964709999999997
 31
0
  0
LINE
  5
61
330
1B
100
AcDbEntity
  8
B.Mask
  6
CONTINUOUS
100
AcDbLine
 10
95.2314149999999984
 20
-98.4964709999999997
 30
0
 11
95.3806019999999961
 21
-98.0865829999999903
 31
0
  0
LINE
  5
62
330
1B
100
AcDbEntity
  8
B.Mask
  6
CONTINUOUS
100
AcDbLine
 10
95.3806019999999961
 20
-98.0865829999999903
 30
0
 11
95.564945999999992
 21
-97.6912569999999931
 31
0
  0
LINE
  5
63
330
1B
100
AcDbEntity
  8
B.Mask
  6
CONTINUOUS
100
AcDbLine
 10
95.564945999999992
 20
-97.6912569999999931
 30
0
 11
95.7830429999999922
 21
-97.3135019999999997
 31
0
  0
LINE
  5
64
330
1B
100
AcDbEntity
  8
B.Mask
  6
CONTINUOUS
100
AcDbLine
 10
95.7830429999999922
 20
-97.3135019999999997
 30
0
 11
96.0332329999999956
 21
-96.956192999999999
 31
0
  0
LINE
  5
65
330
1B
100
AcDbEntity
  8
B.Mask
  6
CONTINUOUS
100
AcDbLine
 10
96.0332329999999956
 20
-96.956192999999999
 30
0
 11
96.3136129999999895
 21
-96.6220489999999899
 31
0
  0
LINE
  5
66
330
1B
100
AcDbEntity
  8
B.Mask
  6
CONTINUOUS
100
AcDbLine
 10
96.3136129999999895
 20
-96.6220489999999899
 30
0
 11
96.6220489999999899
 21
-96.3136129999999895
 31
0
  0
LINE
  5
67
330
1B
100
AcDbEntity
  8
B.Mask
  6
CONTINUOUS
100
AcDbLine
 10
96.6220489999999899
 20
-96.3136129999999895
 30
0
 11
96.956192999999999
 21
-96.0332329999999956
 31
0
  0
LINE
  5
68
330
1B
100
AcDbEntity
  8
B.Mask
  6
CONTINUOUS
100
AcDbLine
 10
96.956192999999999
 20
-96.0332329999999956
 30
0
 11
97.3135019999999997
 21
-95.7830429999999922
 31
0
  0
LINE
  5
69
330
1B
100
AcDbEntity
  8
B.Mask
  6
CONTINUOUS
100
AcDbLine
 10
97.3135019999999997
 20
-95.7830429999999922
 30
0
 11
97.6912569999999931
 21
-95.564945999999992
 31
0
  0
LINE
  5
6A
330
1B
100
AcDbEntity
  8
B.Mask
  6
CONTINUOUS
100
AcDbLine
 10
97.6912569999999931
 20
-95.564945999999992
 30
0
 11
98.0865829999999903
 21
-95.3806019999999961
 31
0
  0
LINE
  5
6B
330
1B
100
AcDbEntity
  8
B.Mask
  6
CONTINUOUS
100
AcDbLine
 10
98.0865829999999903
 20
-95.3806019999999961
 30
0
 11
98.4964709999999997
 21
-95.2314149999999984
 31
0
  0
LINE
  5
6C
330
1B
100
AcDbEntity
  8
B.Mask
  6
CONTINUOUS
100
AcDbLine
 10
98.4964709999999997
 20
-95.2314149999999984
 30
0
 11
98.9178019999999947
 21
-95.1185199999999895
 31
0
  0
LINE
  5
6D
330
1B
100
AcDbEntity
  8
B.Mask
  6
CONTINUOUS
100
AcDbLine
 10
98.9178019999999947
 20
-95.1185199999999895
 30
0
 11
99.3473690000000005
 21
-95.0427759999999893
 31
0
  0
LINE
  5
6E
330
1B
100
AcDbEntity
  8
B.Mask
  6
CONTINUOUS
100
AcDbLine
 10
99.3473690000000005
 20
-95.0427759999999893
 30
0
 11
99.7819029999999998
 21
-95.0047589999999929
 31
0
  0
LINE
  5
6F
330
1B
100
AcDbEntity
  8
B.Mask
  6
CONTINUOUS
100
AcDbLine
 10
99.7819029999999998
 20
-95.0047589999999929
 30
0
 11
100.2180970000000002
 21
-95.0047589999999929
 31
0
  0
LINE
  5
70
330
1B
100
AcDbEntity
  8
B.Mask
  6
CONTINUOUS
100
AcDbLine
 10
100.2180970000000002
 20
-95.0047589999999929
 30
0
 11
100.6526309999999995
 21
-95.0427759999999893
 31
0
  0
LINE
  5
71
330
1B
100
AcDbEntity
  8
Edge.Cuts
  6
CONTINUOUS
100
AcDbLine
 10
109.3845669999999899
 20
-90.601902999999993
 30
0
 11
109.3980969999999928
 21
-90.6154329999999959
 31
0
  0
LINE
  5
72
330
1B
100
AcDbEntity
  8
Edge.Cuts
  6
CONTINUOUS
100
AcDbLine
 10
109.3980969999999928
 20
-90.6154329999999959
 30
0
 11
109.3999999999999915
 21
-90.625
 31
0
  0
LINE
  5
73
330
1B
100
AcDbEntity
  8
Edge.Cuts
  6
CONTINUOUS
100
AcDbLine
 10
109.3999999999999915
 20
-90.625
 30
0
 11
109.3999999999999915
 21
-109.375
 31
0
  0
LINE
  5
74
330
1B
100
AcDbEntity
  8
Edge.Cuts
  6
CONTINUOUS
100
AcDbLine
 10
109.3999999999999915
 20
-109.375
 30
0
 11
109.3980969999999928
 21
-109.3845669999999899
 31
0
  0
LINE
  5
75
330
1B
100
AcDbEntity
  8
Edge.Cuts
  6
CONTINUOUS
100
AcDbLine
 10
109.3980969999999928
 20
-109.3845669999999899
 30
0
 11
109.3845669999999899
 21
-109.3980969999999928
 31
0
  0
LINE
  5
76
330
1B
100
AcDbEntity
  8
Edge.Cuts
  6
CONTINUOUS
100
AcDbLine
 10
109.3845669999999899
 20
-109.3980969999999928
 30
0
 11
109.375
 21
-109.3999999999999915
 31
0
  0
LINE
  5
77
330
1B
100
AcDbEntity
  8
Edge.Cuts
  6
CONTINUOUS
100
AcDbLine
 10
109.375
 20
-109.3999999999999915
 30
0
 11
90.625
 21
-109.3999999999999915
 31
0
  0
LINE
  5
78
330
1B
100
AcDbEntity
  8
Edge.Cuts
  6
CONTINUOUS
100
AcDbLine
 10
90.625
 20
-109.3999999999999915
 30
0
 11
90.6154329999999959
 21
-109.3980969999999928
 31
0
  0
LINE
  5
79
330
1B
100
AcDbEntity
  8
Edge.Cuts
  6
CONTINUOUS
100
AcDbLine
 10
90.6154329999999959
 20
-109.3980969999999928
 30
0
 11
90.601902999999993
 21
-109.3845669999999899
 31
0
  0
LINE
  5
7A
330
1B
100
AcDbEntity
  8
Edge.Cuts
  6
CONTINUOUS
100
AcDbLine
 10
90.601902999999993
 20
-109.3845669999999899
 30
0
 11
90.5999999999999943
 21
-109.375
 31
0
  0
LINE
  5
7B
330
1B
100
AcDbEntity
  8
Edge.Cuts
  6
CONTINUOUS
100
AcDbLine
 10
90.5999999999999943
 20
-109.375
 30
0
 11
90.5999999999999943
 21
-90.625
 31
0
  0
LINE
  5
7C
330
1B
100
AcDbEntity
  8
Edge.Cuts
  6
CONTINUOUS
100
AcDbLine
 10
90.5999999999999943
 20
-90.625
 30
0
 11
90.601902999999993
 21
-90.6154329999999959
 31
0
  0
LINE
  5
7D
330
1B
100
AcDbEntity
  8
Edge.Cuts
  6
CONTINUOUS
100
AcDbLine
 10
90.601902999999993
 20
-90.6154329999999959
 30
0
 11
90.6154329999999959
 21
-90.601902999999993
 31
0
  0
LINE
  5
7E
330
1B
100
AcDbEntity
  8
Edge.Cuts
  6
CONTINUOUS
100
AcDbLine
 10
90.6154329999999959
 20
-90.601902999999993
 30
0
 11
90.625
 21
-90.5999999999999943
 31
0
  0
LINE
  5
7F
330
1B
100
AcDbEntity
  8
Edge.Cuts
  6
CONTINUOUS
100
AcDbLine
 10
90.625
 20
-90.5999999999999943
 30
0
 11
109.375
 21
-90.5999999999999943
 31
0
  0
LINE
  5
80
330
1B
100
AcDbEntity
  8
Edge.Cuts
  6
CONTINUOUS
100
AcDbLine
 10
109.375
 20
-90.5999999999999943
 30
0
 11
109.3845669999999899
 21
-90.601902999999993
 31
0
  0
LINE
  5
81
330
1B
100
AcDbEntity
  8
Edge.Cuts
  6
CONTINUOUS
100
AcDbLine
 10
90.6499999999999915
 20
-90.6499999999999915
 30
0
 11
90.6499999999999915
 21
-109.3499999999999943
 31
0
  0
LINE
  5
82
330
1B
100
AcDbEntity
  8
Edge.Cuts
  6
CONTINUOUS
100
AcDbLine
 10
90.6499999999999915
 20
-109.3499999999999943
 30
0
 11
109.3499999999999943
 21
-109.3499999999999943
 31
0
  0
LINE
  5
83
330
1B
100
AcDbEntity
  8
Edge.Cuts
  6
CONTINUOUS
100
AcDbLine
 10
109.3499999999999943
 20
-109.3499999999999943
 30
0
 11
109.3499999999999943
 21
-90.6499999999999915
 31
0
  0
LINE
  5
84
330
1B
100
AcDbEntity
  8
Edge.Cuts
  6
CONTINUOUS
100
AcDbLine
 10
109.3499999999999943
 20
-90.6499999999999915
 30
0
 11
90.6499999999999915
 21
-90.6499999999999915
 31
0
  0
ENDSEC
  0
SECTION
  2
OBJECTS
  0
DICTIONARY
  5
21
330
0
100
AcDbDictionary
281
1
  3
ACAD_GROUP
350
85
  3
ACAD_LAYOUT
350
22
  3
ACAD_PLOTSTYLENAME
350
11
  0
DICTIONARY
  5
85
330
21
100
AcDbDictionary
281
1
  0
ACDBDICTIONARYWDFLT
  5
11
330
21
100
AcDbDictionary
281
1
  3
Normal
350
10
100
AcDbDictionaryWithDefault
340
10
  0
ACDBPLACEHOLDER
  5
10
330
11
  0
DICTIONARY
  5
22
330
21
100
AcDbDictionary
281
1
  3
Model
350
1E
  3
Layout1
350
1F
  3
Layout2
350
20
  0
LAYOUT
  5
1E
330
22
100
AcDbPlotSettings
  1

  2
none_device
  4
A3
  6

 40
0.0
 41
0.0
 42
0.0
 43
0.0
 44
420.0
 45
297.0
 46
0.0
 47
0.0
 48
0.0
 49
0.0
140
0.0
141
0.0
142
1.0
143
1.0
 70
1024
 72
1
 73
0
 74
5
  7

 75
16
 76
0
 77
2
 78
300
147
1.0
148
0.0
149
0.0
100
AcDbLayout
  1
Model
 70
1
 71
0
 10
0.0
 20
0.0
 11
420.0
 21
297.0
 12
0.0
 22
0.0
 32
0.0
 14
1e+20
 24
1e+20
 34
1e+20
 15
-1e+20
 25
-1e+20
 35
-1e+20
146
0.0
 13
0.0
 23
0.0
 33
0.0
 16
1.0
 26
0.0
 36
0.0
 17
0.0
 27
1.0
 37
0.0
 76
0
330
1B
  0
LAYOUT
  5
1F
330
22
100
AcDbPlotSettings
  1

  2
none_device
  4
A3
  6

 40
0.0
 41
0.0
 42
0.0
 43
0.0
 44
420.0
 45
297.0
 46
0.0
 47
0.0
 48
0.0
 49
0.0
140
0.0
141
0.0
142
1.0
143
1.0
 70
0
 72
1
 73
0
 74
5
  7

 75
16
 76
0
 77
2
 78
300
147
1.0
148
0.0
149
0.0
100
AcDbLayout
  1
Layout1
 70
1
 71
1
 10
0.0
 20
0.0
 11
420.0
 21
297.0
 12
0.0
 22
0.0
 32
0.0
 14
1e+20
 24
1e+20
 34
1e+20
 15
-1e+20
 25
-1e+20
 35
-1e+20
146
0.0
 13
0.0
 23
0.0
 33
0.0
 16
1.0
 26
0.0
 36
0.0
 17
0.0
 27
1.0
 37
0.0
 76
0
330
1C
  0
LAYOUT
  5
20
330
22
100
AcDbPlotSettings
  1

  2
none_device
  4
A3
  6

 40
0.0
 41
0.0
 42
0.0
 43
0.0
 44
420.0
 45
297.0
 46
0.0
 47
0.0
 48
0.0
 49
0.0
140
0.0
141
0.0
142
1.0
143
1.0
 70
0
 72
1
 73
0
 74
5
  7

 75
16
 76
0
 77
2
 78
300
147
1.0
148
0.0
149
0.0
100
AcDbLayout
  1
Layout2
 70
1
 71
2
 10
0.0
 20
0.0
 11
420.0
 21
297.0
 12
0.0
 22
0.0
 32
0.0
 14
1e+20
 24
1e+20
 34
1e+20
 15
-1e+20
 25
-1e+20
 35
-1e+20
146
0.0
 13
0.0
 23
0.0
 33
0.0
 16
1.0
 26
0.0
 36
0.0
 17
0.0
 27
1.0
 37
0.0
 76
0
330
1D
  0
ENDSEC
  0
EOF
