  0
SECTION
  2
HEADER
  9
$ACADVER
  1
AC1018
  9
$HANDSEED
  5
FFFFFFFF
  9
$ANGBASE
  50
0.0
  9
$ANGDIR
  70
1
  9
$MEASUREMENT
  70
1
  9
$INSUNITS
  70
4
  9
$EXTMIN
 10
18.622500000
 20
-41.377500000
 30
0.0
  9
$EXTMAX
 10
48.377500000
 20
-18.622500000
 30
0.0
  9
$LIMMIN
 10
18.622500000
 20
-41.377500000
  9
$LIMMAX
 10
48.377500000
 20
-18.622500000
  0
ENDSEC
  0
SECTION
  2
TABLES
  0
TABLE
  2
APPID
  5
1
330
0
100
AcDbSymbolTable
 70
1
  0
APPID
  5
2
330
1
100
AcDbSymbolTableRecord
100
AcDbRegAppTableRecord
  2
ACAD
 70
0
  0
ENDTAB
  0
TABLE
  2
LTYPE
  5
3
330
0
100
AcDbSymbolTable
 70
6
  0
LTYPE
  5
4
330
3
100
AcDbSymbolTableRecord
100
AcDbLinetypeTableRecord
  2
ByBlock
 70
0
  3

 72
65
 73
0
 40
0
  0
LTYPE
  5
5
330
3
100
AcDbSymbolTableRecord
100
AcDbLinetypeTableRecord
  2
ByLayer
 70
0
  3

 72
65
 73
0
 40
0
  0
LTYPE
  5
6
330
3
100
AcDbSymbolTableRecord
100
AcDbLinetypeTableRecord
  2
CONTINUOUS
 70
0
  3
Solid line
 72
65
 73
0
 40
0
  0
LTYPE
  5
7
330
3
100
AcDbSymbolTableRecord
100
AcDbLinetypeTableRecord
  2
DASHDOT
 70
0
  3
Dash Dot ____ _ ____ _
 72
65
 73
4
 40
2
 49
1.25
 74
0
 49
-0.25
 74
0
 49
0.25
 74
0
 49
-0.25
 74
0
  0
LTYPE
  5
8
330
3
100
AcDbSymbolTableRecord
100
AcDbLinetypeTableRecord
  2
DASHED
 70
0
  3
Dashed __ __ __ __ __
 72
65
 73
2
 40
0.75
 49
0.5
 74
0
 49
-0.25
 74
0
  0
LTYPE
  5
9
330
3
100
AcDbSymbolTableRecord
100
AcDbLinetypeTableRecord
  2
DOTTED
 70
0
  3
Dotted .  .  .  .
 72
65
 73
2
 40
0.2
 49
0.0
 74
0
 49
-0.2
 74
0
  0
ENDTAB
  0
TABLE
  2
STYLE
  5
A
330
0
100
AcDbSymbolTable
 70
4
  0
STYLE
  5
B
330
A
100
AcDbSymbolTableRecord
100
AcDbTextStyleTableRecord
  2
KICAD
 70
0
 40
0
 41
1
 42
1
 50
0
 71
0
  3
isocp.shx
  0
STYLE
  5
C
330
A
100
AcDbSymbolTableRecord
100
AcDbTextStyleTableRecord
  2
KICADB
 70
0
 40
0
 41
1
 42
1
 50
0
 71
0
  3
isocp.shx
  0
STYLE
  5
D
330
A
100
AcDbSymbolTableRecord
100
AcDbTextStyleTableRecord
  2
KICADI
 70
0
 40
0
 41
1
 42
1
 50
15
 71
0
  3
isocp.shx
  0
STYLE
  5
E
330
A
100
AcDbSymbolTableRecord
100
AcDbTextStyleTableRecord
  2
KICADBI
 70
0
 40
0
 41
1
 42
1
 50
15
 71
0
  3
isocp.shx
  0
ENDTAB
  0
TABLE
  2
LAYER
  5
F
330
0
100
AcDbSymbolTable
 70
3
  0
LAYER
  5
12
330
F
100
AcDbSymbolTableRecord
100
AcDbLayerTableRecord
  2
0
 70
0
 62
7
  6
CONTINUOUS
390
10
  0
LAYER
  5
13
330
F
100
AcDbSymbolTableRecord
100
AcDbLayerTableRecord
  2
F.Mask
 70
0
 62
201
420
14181631
  6
CONTINUOUS
390
10
  0
LAYER
  5
14
330
F
100
AcDbSymbolTableRecord
100
AcDbLayerTableRecord
  2
Edge.Cuts
 70
0
 62
254
420
13685453
  6
CONTINUOUS
390
10
  0
ENDTAB
  0
TABLE
  2
VPORT
  5
15
330
0
100
AcDbSymbolTable
 70
1
  0
VPORT
  5
F0000000
330
15
100
AcDbSymbolTableRecord
100
AcDbViewportTableRecord
  2
*Active
 70
0
 10
0.0
 20
0.0
 11
1.0
 21
1.0
 12
33.500000000
 22
-30.000000000
 13
0.0
 23
0.0
 14
0.5
 24
0.5
 15
0.5
 25
0.5
 16
0.0
 26
0.0
 36
1.0
 17
0.0
 27
0.0
 37
0.0
 40
22.755000000
 41
1.6
 42
50.0
 43
0.0
 44
0.0
 50
0.0
 51
0.0
 71
0
 72
1000
 73
1
 74
3
 75
0
 76
0
 77
0
 78
0
281
0
 65
0
146
0.0
  0
ENDTAB
  0
TABLE
  2
VIEW
  5
16
330
0
100
AcDbSymbolTable
 70
0
  0
ENDTAB
  0
TABLE
  2
UCS
  5
17
330
0
100
AcDbSymbolTable
 70
0
  0
ENDTAB
  0
TABLE
  2
DIMSTYLE
  5
18
330
0
100
AcDbSymbolTable
 70
1
100
AcDbDimStyleTable
 71
0
  0
DIMSTYLE
105
19
330
18
100
AcDbSymbolTableRecord
100
AcDbDimStyleTableRecord
  2
Standard
 70
0
  0
ENDTAB
  0
TABLE
  2
BLOCK_RECORD
  5
1A
330
0
100
AcDbSymbolTable
 70
3
  0
BLOCK_RECORD
  5
1B
330
1A
100
AcDbSymbolTableRecord
100
AcDbBlockTableRecord
  2
*Model_Space
340
1E
 70
0
280
1
281
0
  0
BLOCK_RECORD
  5
1C
330
1A
100
AcDbSymbolTableRecord
100
AcDbBlockTableRecord
  2
*Paper_Space
340
1F
 70
0
280
1
281
0
  0
BLOCK_RECORD
  5
1D
330
1A
100
AcDbSymbolTableRecord
100
AcDbBlockTableRecord
  2
*Paper_Space0
340
20
 70
0
280
1
281
0
  0
ENDTAB
  0
ENDSEC
  0
SECTION
  2
BLOCKS
  0
BLOCK
  5
23
330
1B
100
AcDbEntity
  8
0
100
AcDbBlockBegin
  2
*Model_Space
 70
0
 10
0.0
 20
0.0
 30
0.0
  3
*Model_Space
  1

  0
ENDBLK
  5
24
330
1B
100
AcDbEntity
  8
0
100
AcDbBlockEnd
  0
BLOCK
  5
25
330
1C
100
AcDbEntity
 67
1
  8
0
100
AcDbBlockBegin
  2
*Paper_Space
 70
0
 10
0.0
 20
0.0
 30
0.0
  3
*Paper_Space
  1

  0
ENDBLK
  5
26
330
1C
100
AcDbEntity
 67
1
  8
0
100
AcDbBlockEnd
  0
BLOCK
  5
27
330
1D
100
AcDbEntity
 67
1
  8
0
100
AcDbBlockBegin
  2
*Paper_Space0
 70
0
 10
0.0
 20
0.0
 30
0.0
  3
*Paper_Space0
  1

  0
ENDBLK
  5
28
330
1D
100
AcDbEntity
 67
1
  8
0
100
AcDbBlockEnd
  0
ENDSEC
  0
SECTION
  2
ENTITIES
  0
LINE
  5
29
330
1B
100
AcDbEntity
  8
F.Mask
  6
CONTINUOUS
100
AcDbLine
 10
26.7300000000000004
 20
-38.1000000000000014
 30
0
 11
25.7300000000000004
 21
-38.1000000000000014
 31
0
  0
LINE
  5
2A
330
1B
100
AcDbEntity
  8
F.Mask
  6
CONTINUOUS
100
AcDbLine
 10
25.7300000000000004
 20
-38.1000000000000014
 30
0
 11
25.7300000000000004
 21
-36.1999999999999957
 31
0
  0
LINE
  5
2B
330
1B
100
AcDbEntity
  8
F.Mask
  6
CONTINUOUS
100
AcDbLine
 10
25.7300000000000004
 20
-36.1999999999999957
 30
0
 11
26.7300000000000004
 21
-36.1999999999999957
 31
0
  0
LINE
  5
2C
330
1B
100
AcDbEntity
  8
F.Mask
  6
CONTINUOUS
100
AcDbLine
 10
26.7300000000000004
 20
-36.1999999999999957
 30
0
 11
26.7300000000000004
 21
-38.1000000000000014
 31
0
  0
LINE
  5
2D
330
1B
100
AcDbEntity
  8
F.Mask
  6
CONTINUOUS
100
AcDbLine
 10
29.2699999999999996
 20
-34.7999999999999972
 30
0
 11
28.2699999999999996
 21
-34.7999999999999972
 31
0
  0
LINE
  5
2E
330
1B
100
AcDbEntity
  8
F.Mask
  6
CONTINUOUS
100
AcDbLine
 10
28.2699999999999996
 20
-34.7999999999999972
 30
0
 11
28.2699999999999996
 21
-32.8999999999999986
 31
0
  0
LINE
  5
2F
330
1B
100
AcDbEntity
  8
F.Mask
  6
CONTINUOUS
100
AcDbLine
 10
28.2699999999999996
 20
-32.8999999999999986
 30
0
 11
29.2699999999999996
 21
-32.8999999999999986
 31
0
  0
LINE
  5
30
330
1B
100
AcDbEntity
  8
F.Mask
  6
CONTINUOUS
100
AcDbLine
 10
29.2699999999999996
 20
-32.8999999999999986
 30
0
 11
29.2699999999999996
 21
-34.7999999999999972
 31
0
  0
LINE
  5
31
330
1B
100
AcDbEntity
  8
F.Mask
  6
CONTINUOUS
100
AcDbLine
 10
45.269999999999996
 20
-32.9099999999999966
 30
0
 11
44.269999999999996
 21
-32.9099999999999966
 31
0
  0
LINE
  5
32
330
1B
100
AcDbEntity
  8
F.Mask
  6
CONTINUOUS
100
AcDbLine
 10
44.269999999999996
 20
-32.9099999999999966
 30
0
 11
44.269999999999996
 21
-30.3999999999999986
 31
0
  0
LINE
  5
33
330
1B
100
AcDbEntity
  8
F.Mask
  6
CONTINUOUS
100
AcDbLine
 10
44.269999999999996
 20
-30.3999999999999986
 30
0
 11
45.269999999999996
 21
-30.3999999999999986
 31
0
  0
LINE
  5
34
330
1B
100
AcDbEntity
  8
F.Mask
  6
CONTINUOUS
100
AcDbLine
 10
45.269999999999996
 20
-30.3999999999999986
 30
0
 11
45.269999999999996
 21
-32.9099999999999966
 31
0
  0
LINE
  5
35
330
1B
100
AcDbEntity
  8
F.Mask
  6
CONTINUOUS
100
AcDbLine
 10
39.1700000000000017
 20
-32.4299999999999997
 30
0
 11
38.1700000000000017
 21
-32.4299999999999997
 31
0
  0
LINE
  5
36
330
1B
100
AcDbEntity
  8
F.Mask
  6
CONTINUOUS
100
AcDbLine
 10
38.1700000000000017
 20
-32.4299999999999997
 30
0
 11
38.1700000000000017
 21
-29.9199999999999982
 31
0
  0
LINE
  5
37
330
1B
100
AcDbEntity
  8
F.Mask
  6
CONTINUOUS
100
AcDbLine
 10
38.1700000000000017
 20
-29.9199999999999982
 30
0
 11
39.1700000000000017
 21
-29.9199999999999982
 31
0
  0
LINE
  5
38
330
1B
100
AcDbEntity
  8
F.Mask
  6
CONTINUOUS
100
AcDbLine
 10
39.1700000000000017
 20
-29.9199999999999982
 30
0
 11
39.1700000000000017
 21
-32.4299999999999997
 31
0
  0
LINE
  5
39
330
1B
100
AcDbEntity
  8
F.Mask
  6
CONTINUOUS
100
AcDbLine
 10
31.4324019999999997
 20
-30.1614179999999976
 30
0
 11
31.4810649999999974
 21
-30.1939339999999987
 31
0
  0
LINE
  5
3A
330
1B
100
AcDbEntity
  8
F.Mask
  6
CONTINUOUS
100
AcDbLine
 10
31.4810649999999974
 20
-30.1939339999999987
 30
0
 11
31.5135809999999985
 21
-30.242597
 31
0
  0
LINE
  5
3B
330
1B
100
AcDbEntity
  8
F.Mask
  6
CONTINUOUS
100
AcDbLine
 10
31.5135809999999985
 20
-30.242597
 30
0
 11
31.5249989999999976
 21
-30.2999999999999972
 31
0
  0
LINE
  5
3C
330
1B
100
AcDbEntity
  8
F.Mask
  6
CONTINUOUS
100
AcDbLine
 10
31.5249989999999976
 20
-30.2999999999999972
 30
0
 11
31.5249989999999976
 21
-30.5999999999999979
 31
0
  0
LINE
  5
3D
330
1B
100
AcDbEntity
  8
F.Mask
  6
CONTINUOUS
100
AcDbLine
 10
31.5249989999999976
 20
-30.5999999999999979
 30
0
 11
31.5135809999999985
 21
-30.6574029999999986
 31
0
  0
LINE
  5
3E
330
1B
100
AcDbEntity
  8
F.Mask
  6
CONTINUOUS
100
AcDbLine
 10
31.5135809999999985
 20
-30.6574029999999986
 30
0
 11
31.4810649999999974
 21
-30.7060659999999999
 31
0
  0
LINE
  5
3F
330
1B
100
AcDbEntity
  8
F.Mask
  6
CONTINUOUS
100
AcDbLine
 10
31.4810649999999974
 20
-30.7060659999999999
 30
0
 11
31.4324019999999997
 21
-30.7385819999999974
 31
0
  0
LINE
  5
40
330
1B
100
AcDbEntity
  8
F.Mask
  6
CONTINUOUS
100
AcDbLine
 10
31.4324019999999997
 20
-30.7385819999999974
 30
0
 11
31.374998999999999
 21
-30.75
 31
0
  0
LINE
  5
41
330
1B
100
AcDbEntity
  8
F.Mask
  6
CONTINUOUS
100
AcDbLine
 10
31.374998999999999
 20
-30.75
 30
0
 11
30.3499990000000004
 21
-30.75
 31
0
  0
LINE
  5
42
330
1B
100
AcDbEntity
  8
F.Mask
  6
CONTINUOUS
100
AcDbLine
 10
30.3499990000000004
 20
-30.75
 30
0
 11
30.2925959999999996
 21
-30.7385819999999974
 31
0
  0
LINE
  5
43
330
1B
100
AcDbEntity
  8
F.Mask
  6
CONTINUOUS
100
AcDbLine
 10
30.2925959999999996
 20
-30.7385819999999974
 30
0
 11
30.2439329999999984
 21
-30.7060659999999999
 31
0
  0
LINE
  5
44
330
1B
100
AcDbEntity
  8
F.Mask
  6
CONTINUOUS
100
AcDbLine
 10
30.2439329999999984
 20
-30.7060659999999999
 30
0
 11
30.2114169999999973
 21
-30.6574029999999986
 31
0
  0
LINE
  5
45
330
1B
100
AcDbEntity
  8
F.Mask
  6
CONTINUOUS
100
AcDbLine
 10
30.2114169999999973
 20
-30.6574029999999986
 30
0
 11
30.1999989999999983
 21
-30.5999999999999979
 31
0
  0
LINE
  5
46
330
1B
100
AcDbEntity
  8
F.Mask
  6
CONTINUOUS
100
AcDbLine
 10
30.1999989999999983
 20
-30.5999999999999979
 30
0
 11
30.1999989999999983
 21
-30.2999999999999972
 31
0
  0
LINE
  5
47
330
1B
100
AcDbEntity
  8
F.Mask
  6
CONTINUOUS
100
AcDbLine
 10
30.1999989999999983
 20
-30.2999999999999972
 30
0
 11
30.2114169999999973
 21
-30.242597
 31
0
  0
LINE
  5
48
330
1B
100
AcDbEntity
  8
F.Mask
  6
CONTINUOUS
100
AcDbLine
 10
30.2114169999999973
 20
-30.242597
 30
0
 11
30.2439329999999984
 21
-30.1939339999999987
 31
0
  0
LINE
  5
49
330
1B
100
AcDbEntity
  8
F.Mask
  6
CONTINUOUS
100
AcDbLine
 10
30.2439329999999984
 20
-30.1939339999999987
 30
0
 11
30.2925959999999996
 21
-30.1614179999999976
 31
0
  0
LINE
  5
4A
330
1B
100
AcDbEntity
  8
F.Mask
  6
CONTINUOUS
100
AcDbLine
 10
30.2925959999999996
 20
-30.1614179999999976
 30
0
 11
30.3499990000000004
 21
-30.1499999999999986
 31
0
  0
LINE
  5
4B
330
1B
100
AcDbEntity
  8
F.Mask
  6
CONTINUOUS
100
AcDbLine
 10
30.3499990000000004
 20
-30.1499999999999986
 30
0
 11
31.374998999999999
 21
-30.1499999999999986
 31
0
  0
LINE
  5
4C
330
1B
100
AcDbEntity
  8
F.Mask
  6
CONTINUOUS
100
AcDbLine
 10
31.374998999999999
 20
-30.1499999999999986
 30
0
 11
31.4324019999999997
 21
-30.1614179999999976
 31
0
  0
LINE
  5
4D
330
1B
100
AcDbEntity
  8
F.Mask
  6
CONTINUOUS
100
AcDbLine
 10
33.7074029999999993
 20
-30.1614179999999976
 30
0
 11
33.756065999999997
 21
-30.1939339999999987
 31
0
  0
LINE
  5
4E
330
1B
100
AcDbEntity
  8
F.Mask
  6
CONTINUOUS
100
AcDbLine
 10
33.756065999999997
 20
-30.1939339999999987
 30
0
 11
33.7885819999999981
 21
-30.242597
 31
0
  0
LINE
  5
4F
330
1B
100
AcDbEntity
  8
F.Mask
  6
CONTINUOUS
100
AcDbLine
 10
33.7885819999999981
 20
-30.242597
 30
0
 11
33.7999999999999972
 21
-30.2999999999999972
 31
0
  0
LINE
  5
50
330
1B
100
AcDbEntity
  8
F.Mask
  6
CONTINUOUS
100
AcDbLine
 10
33.7999999999999972
 20
-30.2999999999999972
 30
0
 11
33.7999999999999972
 21
-30.5999999999999979
 31
0
  0
LINE
  5
51
330
1B
100
AcDbEntity
  8
F.Mask
  6
CONTINUOUS
100
AcDbLine
 10
33.7999999999999972
 20
-30.5999999999999979
 30
0
 11
33.7885819999999981
 21
-30.6574029999999986
 31
0
  0
LINE
  5
52
330
1B
100
AcDbEntity
  8
F.Mask
  6
CONTINUOUS
100
AcDbLine
 10
33.7885819999999981
 20
-30.6574029999999986
 30
0
 11
33.756065999999997
 21
-30.7060659999999999
 31
0
  0
LINE
  5
53
330
1B
100
AcDbEntity
  8
F.Mask
  6
CONTINUOUS
100
AcDbLine
 10
33.756065999999997
 20
-30.7060659999999999
 30
0
 11
33.7074029999999993
 21
-30.7385819999999974
 31
0
  0
LINE
  5
54
330
1B
100
AcDbEntity
  8
F.Mask
  6
CONTINUOUS
100
AcDbLine
 10
33.7074029999999993
 20
-30.7385819999999974
 30
0
 11
33.6499999999999986
 21
-30.75
 31
0
  0
LINE
  5
55
330
1B
100
AcDbEntity
  8
F.Mask
  6
CONTINUOUS
100
AcDbLine
 10
33.6499999999999986
 20
-30.75
 30
0
 11
32.625
 21
-30.75
 31
0
  0
LINE
  5
56
330
1B
100
AcDbEntity
  8
F.Mask
  6
CONTINUOUS
100
AcDbLine
 10
32.625
 20
-30.75
 30
0
 11
32.5675969999999992
 21
-30.7385819999999974
 31
0
  0
LINE
  5
57
330
1B
100
AcDbEntity
  8
F.Mask
  6
CONTINUOUS
100
AcDbLine
 10
32.5675969999999992
 20
-30.7385819999999974
 30
0
 11
32.5189340000000016
 21
-30.7060659999999999
 31
0
  0
LINE
  5
58
330
1B
100
AcDbEntity
  8
F.Mask
  6
CONTINUOUS
100
AcDbLine
 10
32.5189340000000016
 20
-30.7060659999999999
 30
0
 11
32.4864180000000005
 21
-30.6574029999999986
 31
0
  0
LINE
  5
59
330
1B
100
AcDbEntity
  8
F.Mask
  6
CONTINUOUS
100
AcDbLine
 10
32.4864180000000005
 20
-30.6574029999999986
 30
0
 11
32.4750000000000014
 21
-30.5999999999999979
 31
0
  0
LINE
  5
5A
330
1B
100
AcDbEntity
  8
F.Mask
  6
CONTINUOUS
100
AcDbLine
 10
32.4750000000000014
 20
-30.5999999999999979
 30
0
 11
32.4750000000000014
 21
-30.2999999999999972
 31
0
  0
LINE
  5
5B
330
1B
100
AcDbEntity
  8
F.Mask
  6
CONTINUOUS
100
AcDbLine
 10
32.4750000000000014
 20
-30.2999999999999972
 30
0
 11
32.4864180000000005
 21
-30.242597
 31
0
  0
LINE
  5
5C
330
1B
100
AcDbEntity
  8
F.Mask
  6
CONTINUOUS
100
AcDbLine
 10
32.4864180000000005
 20
-30.242597
 30
0
 11
32.5189340000000016
 21
-30.1939339999999987
 31
0
  0
LINE
  5
5D
330
1B
100
AcDbEntity
  8
F.Mask
  6
CONTINUOUS
100
AcDbLine
 10
32.5189340000000016
 20
-30.1939339999999987
 30
0
 11
32.5675969999999992
 21
-30.1614179999999976
 31
0
  0
LINE
  5
5E
330
1B
100
AcDbEntity
  8
F.Mask
  6
CONTINUOUS
100
AcDbLine
 10
32.5675969999999992
 20
-30.1614179999999976
 30
0
 11
32.625
 21
-30.1499999999999986
 31
0
  0
LINE
  5
5F
330
1B
100
AcDbEntity
  8
F.Mask
  6
CONTINUOUS
100
AcDbLine
 10
32.625
 20
-30.1499999999999986
 30
0
 11
33.6499999999999986
 21
-30.1499999999999986
 31
0
  0
LINE
  5
60
330
1B
100
AcDbEntity
  8
F.Mask
  6
CONTINUOUS
100
AcDbLine
 10
33.6499999999999986
 20
-30.1499999999999986
 30
0
 11
33.7074029999999993
 21
-30.1614179999999976
 31
0
  0
LINE
  5
61
330
1B
100
AcDbEntity
  8
F.Mask
  6
CONTINUOUS
100
AcDbLine
 10
31.4324019999999997
 20
-29.2114179999999983
 30
0
 11
31.4810649999999974
 21
-29.2439339999999994
 31
0
  0
LINE
  5
62
330
1B
100
AcDbEntity
  8
F.Mask
  6
CONTINUOUS
100
AcDbLine
 10
31.4810649999999974
 20
-29.2439339999999994
 30
0
 11
31.5135809999999985
 21
-29.2925969999999971
 31
0
  0
LINE
  5
63
330
1B
100
AcDbEntity
  8
F.Mask
  6
CONTINUOUS
100
AcDbLine
 10
31.5135809999999985
 20
-29.2925969999999971
 30
0
 11
31.5249989999999976
 21
-29.3499999999999979
 31
0
  0
LINE
  5
64
330
1B
100
AcDbEntity
  8
F.Mask
  6
CONTINUOUS
100
AcDbLine
 10
31.5249989999999976
 20
-29.3499999999999979
 30
0
 11
31.5249989999999976
 21
-29.6499999999999986
 31
0
  0
LINE
  5
65
330
1B
100
AcDbEntity
  8
F.Mask
  6
CONTINUOUS
100
AcDbLine
 10
31.5249989999999976
 20
-29.6499999999999986
 30
0
 11
31.5135809999999985
 21
-29.7074029999999993
 31
0
  0
LINE
  5
66
330
1B
100
AcDbEntity
  8
F.Mask
  6
CONTINUOUS
100
AcDbLine
 10
31.5135809999999985
 20
-29.7074029999999993
 30
0
 11
31.4810649999999974
 21
-29.756065999999997
 31
0
  0
LINE
  5
67
330
1B
100
AcDbEntity
  8
F.Mask
  6
CONTINUOUS
100
AcDbLine
 10
31.4810649999999974
 20
-29.756065999999997
 30
0
 11
31.4324019999999997
 21
-29.7885819999999981
 31
0
  0
LINE
  5
68
330
1B
100
AcDbEntity
  8
F.Mask
  6
CONTINUOUS
100
AcDbLine
 10
31.4324019999999997
 20
-29.7885819999999981
 30
0
 11
31.374998999999999
 21
-29.7999999999999972
 31
0
  0
LINE
  5
69
330
1B
100
AcDbEntity
  8
F.Mask
  6
CONTINUOUS
100
AcDbLine
 10
31.374998999999999
 20
-29.7999999999999972
 30
0
 11
30.3499990000000004
 21
-29.7999999999999972
 31
0
  0
LINE
  5
6A
330
1B
100
AcDbEntity
  8
F.Mask
  6
CONTINUOUS
100
AcDbLine
 10
30.3499990000000004
 20
-29.7999999999999972
 30
0
 11
30.2925959999999996
 21
-29.7885819999999981
 31
0
  0
LINE
  5
6B
330
1B
100
AcDbEntity
  8
F.Mask
  6
CONTINUOUS
100
AcDbLine
 10
30.2925959999999996
 20
-29.7885819999999981
 30
0
 11
30.2439329999999984
 21
-29.756065999999997
 31
0
  0
LINE
  5
6C
330
1B
100
AcDbEntity
  8
F.Mask
  6
CONTINUOUS
100
AcDbLine
 10
30.2439329999999984
 20
-29.756065999999997
 30
0
 11
30.2114169999999973
 21
-29.7074029999999993
 31
0
  0
LINE
  5
6D
330
1B
100
AcDbEntity
  8
F.Mask
  6
CONTINUOUS
100
AcDbLine
 10
30.2114169999999973
 20
-29.7074029999999993
 30
0
 11
30.1999989999999983
 21
-29.6499999999999986
 31
0
  0
LINE
  5
6E
330
1B
100
AcDbEntity
  8
F.Mask
  6
CONTINUOUS
100
AcDbLine
 10
30.1999989999999983
 20
-29.6499999999999986
 30
0
 11
30.1999989999999983
 21
-29.3499999999999979
 31
0
  0
LINE
  5
6F
330
1B
100
AcDbEntity
  8
F.Mask
  6
CONTINUOUS
100
AcDbLine
 10
30.1999989999999983
 20
-29.3499999999999979
 30
0
 11
30.2114169999999973
 21
-29.2925969999999971
 31
0
  0
LINE
  5
70
330
1B
100
AcDbEntity
  8
F.Mask
  6
CONTINUOUS
100
AcDbLine
 10
30.2114169999999973
 20
-29.2925969999999971
 30
0
 11
30.2439329999999984
 21
-29.2439339999999994
 31
0
  0
LINE
  5
71
330
1B
100
AcDbEntity
  8
F.Mask
  6
CONTINUOUS
100
AcDbLine
 10
30.2439329999999984
 20
-29.2439339999999994
 30
0
 11
30.2925959999999996
 21
-29.2114179999999983
 31
0
  0
LINE
  5
72
330
1B
100
AcDbEntity
  8
F.Mask
  6
CONTINUOUS
100
AcDbLine
 10
30.2925959999999996
 20
-29.2114179999999983
 30
0
 11
30.3499990000000004
 21
-29.1999999999999993
 31
0
  0
LINE
  5
73
330
1B
100
AcDbEntity
  8
F.Mask
  6
CONTINUOUS
100
AcDbLine
 10
30.3499990000000004
 20
-29.1999999999999993
 30
0
 11
31.374998999999999
 21
-29.1999999999999993
 31
0
  0
LINE
  5
74
330
1B
100
AcDbEntity
  8
F.Mask
  6
CONTINUOUS
100
AcDbLine
 10
31.374998999999999
 20
-29.1999999999999993
 30
0
 11
31.4324019999999997
 21
-29.2114179999999983
 31
0
  0
LINE
  5
75
330
1B
100
AcDbEntity
  8
F.Mask
  6
CONTINUOUS
100
AcDbLine
 10
33.7074029999999993
 20
-29.2114179999999983
 30
0
 11
33.756065999999997
 21
-29.2439339999999994
 31
0
  0
LINE
  5
76
330
1B
100
AcDbEntity
  8
F.Mask
  6
CONTINUOUS
100
AcDbLine
 10
33.756065999999997
 20
-29.2439339999999994
 30
0
 11
33.7885819999999981
 21
-29.2925969999999971
 31
0
  0
LINE
  5
77
330
1B
100
AcDbEntity
  8
F.Mask
  6
CONTINUOUS
100
AcDbLine
 10
33.7885819999999981
 20
-29.2925969999999971
 30
0
 11
33.7999999999999972
 21
-29.3499999999999979
 31
0
  0
LINE
  5
78
330
1B
100
AcDbEntity
  8
F.Mask
  6
CONTINUOUS
100
AcDbLine
 10
33.7999999999999972
 20
-29.3499999999999979
 30
0
 11
33.7999999999999972
 21
-29.6499999999999986
 31
0
  0
LINE
  5
79
330
1B
100
AcDbEntity
  8
F.Mask
  6
CONTINUOUS
100
AcDbLine
 10
33.7999999999999972
 20
-29.6499999999999986
 30
0
 11
33.7885819999999981
 21
-29.7074029999999993
 31
0
  0
LINE
  5
7A
330
1B
100
AcDbEntity
  8
F.Mask
  6
CONTINUOUS
100
AcDbLine
 10
33.7885819999999981
 20
-29.7074029999999993
 30
0
 11
33.756065999999997
 21
-29.756065999999997
 31
0
  0
LINE
  5
7B
330
1B
100
AcDbEntity
  8
F.Mask
  6
CONTINUOUS
100
AcDbLine
 10
33.756065999999997
 20
-29.756065999999997
 30
0
 11
33.7074029999999993
 21
-29.7885819999999981
 31
0
  0
LINE
  5
7C
330
1B
100
AcDbEntity
  8
F.Mask
  6
CONTINUOUS
100
AcDbLine
 10
33.7074029999999993
 20
-29.7885819999999981
 30
0
 11
33.6499999999999986
 21
-29.7999999999999972
 31
0
  0
LINE
  5
7D
330
1B
100
AcDbEntity
  8
F.Mask
  6
CONTINUOUS
100
AcDbLine
 10
33.6499999999999986
 20
-29.7999999999999972
 30
0
 11
32.625
 21
-29.7999999999999972
 31
0
  0
LINE
  5
7E
330
1B
100
AcDbEntity
  8
F.Mask
  6
CONTINUOUS
100
AcDbLine
 10
32.625
 20
-29.7999999999999972
 30
0
 11
32.5675969999999992
 21
-29.7885819999999981
 31
0
  0
LINE
  5
7F
330
1B
100
AcDbEntity
  8
F.Mask
  6
CONTINUOUS
100
AcDbLine
 10
32.5675969999999992
 20
-29.7885819999999981
 30
0
 11
32.5189340000000016
 21
-29.756065999999997
 31
0
  0
LINE
  5
80
330
1B
100
AcDbEntity
  8
F.Mask
  6
CONTINUOUS
100
AcDbLine
 10
32.5189340000000016
 20
-29.756065999999997
 30
0
 11
32.4864180000000005
 21
-29.7074029999999993
 31
0
  0
LINE
  5
81
330
1B
100
AcDbEntity
  8
F.Mask
  6
CONTINUOUS
100
AcDbLine
 10
32.4864180000000005
 20
-29.7074029999999993
 30
0
 11
32.4750000000000014
 21
-29.6499999999999986
 31
0
  0
LINE
  5
82
330
1B
100
AcDbEntity
  8
F.Mask
  6
CONTINUOUS
100
AcDbLine
 10
32.4750000000000014
 20
-29.6499999999999986
 30
0
 11
32.4750000000000014
 21
-29.3499999999999979
 31
0
  0
LINE
  5
83
330
1B
100
AcDbEntity
  8
F.Mask
  6
CONTINUOUS
100
AcDbLine
 10
32.4750000000000014
 20
-29.3499999999999979
 30
0
 11
32.4864180000000005
 21
-29.2925969999999971
 31
0
  0
LINE
  5
84
330
1B
100
AcDbEntity
  8
F.Mask
  6
CONTINUOUS
100
AcDbLine
 10
32.4864180000000005
 20
-29.2925969999999971
 30
0
 11
32.5189340000000016
 21
-29.2439339999999994
 31
0
  0
LINE
  5
85
330
1B
100
AcDbEntity
  8
F.Mask
  6
CONTINUOUS
100
AcDbLine
 10
32.5189340000000016
 20
-29.2439339999999994
 30
0
 11
32.5675969999999992
 21
-29.2114179999999983
 31
0
  0
LINE
  5
86
330
1B
100
AcDbEntity
  8
F.Mask
  6
CONTINUOUS
100
AcDbLine
 10
32.5675969999999992
 20
-29.2114179999999983
 30
0
 11
32.625
 21
-29.1999999999999993
 31
0
  0
LINE
  5
87
330
1B
100
AcDbEntity
  8
F.Mask
  6
CONTINUOUS
100
AcDbLine
 10
32.625
 20
-29.1999999999999993
 30
0
 11
33.6499999999999986
 21
-29.1999999999999993
 31
0
  0
LINE
  5
88
330
1B
100
AcDbEntity
  8
F.Mask
  6
CONTINUOUS
100
AcDbLine
 10
33.6499999999999986
 20
-29.1999999999999993
 30
0
 11
33.7074029999999993
 21
-29.2114179999999983
 31
0
  0
LINE
  5
89
330
1B
100
AcDbEntity
  8
F.Mask
  6
CONTINUOUS
100
AcDbLine
 10
42.7299999999999969
 20
-29.5999999999999979
 30
0
 11
41.7299999999999969
 21
-29.5999999999999979
 31
0
  0
LINE
  5
8A
330
1B
100
AcDbEntity
  8
F.Mask
  6
CONTINUOUS
100
AcDbLine
 10
41.7299999999999969
 20
-29.5999999999999979
 30
0
 11
41.7299999999999969
 21
-27.0899999999999999
 31
0
  0
LINE
  5
8B
330
1B
100
AcDbEntity
  8
F.Mask
  6
CONTINUOUS
100
AcDbLine
 10
41.7299999999999969
 20
-27.0899999999999999
 30
0
 11
42.7299999999999969
 21
-27.0899999999999999
 31
0
  0
LINE
  5
8C
330
1B
100
AcDbEntity
  8
F.Mask
  6
CONTINUOUS
100
AcDbLine
 10
42.7299999999999969
 20
-27.0899999999999999
 30
0
 11
42.7299999999999969
 21
-29.5999999999999979
 31
0
  0
LINE
  5
8D
330
1B
100
AcDbEntity
  8
F.Mask
  6
CONTINUOUS
100
AcDbLine
 10
36.6299999999999955
 20
-29.1199999999999974
 30
0
 11
35.6299999999999955
 21
-29.1199999999999974
 31
0
  0
LINE
  5
8E
330
1B
100
AcDbEntity
  8
F.Mask
  6
CONTINUOUS
100
AcDbLine
 10
35.6299999999999955
 20
-29.1199999999999974
 30
0
 11
35.6299999999999955
 21
-26.6099999999999994
 31
0
  0
LINE
  5
8F
330
1B
100
AcDbEntity
  8
F.Mask
  6
CONTINUOUS
100
AcDbLine
 10
35.6299999999999955
 20
-26.6099999999999994
 30
0
 11
36.6299999999999955
 21
-26.6099999999999994
 31
0
  0
LINE
  5
90
330
1B
100
AcDbEntity
  8
F.Mask
  6
CONTINUOUS
100
AcDbLine
 10
36.6299999999999955
 20
-26.6099999999999994
 30
0
 11
36.6299999999999955
 21
-29.1199999999999974
 31
0
  0
LINE
  5
91
330
1B
100
AcDbEntity
  8
F.Mask
  6
CONTINUOUS
100
AcDbLine
 10
31.4324019999999997
 20
-28.261417999999999
 30
0
 11
31.4810649999999974
 21
-28.2939340000000001
 31
0
  0
LINE
  5
92
330
1B
100
AcDbEntity
  8
F.Mask
  6
CONTINUOUS
100
AcDbLine
 10
31.4810649999999974
 20
-28.2939340000000001
 30
0
 11
31.5135809999999985
 21
-28.3425969999999978
 31
0
  0
LINE
  5
93
330
1B
100
AcDbEntity
  8
F.Mask
  6
CONTINUOUS
100
AcDbLine
 10
31.5135809999999985
 20
-28.3425969999999978
 30
0
 11
31.5249989999999976
 21
-28.3999999999999986
 31
0
  0
LINE
  5
94
330
1B
100
AcDbEntity
  8
F.Mask
  6
CONTINUOUS
100
AcDbLine
 10
31.5249989999999976
 20
-28.3999999999999986
 30
0
 11
31.5249989999999976
 21
-28.6999999999999993
 31
0
  0
LINE
  5
95
330
1B
100
AcDbEntity
  8
F.Mask
  6
CONTINUOUS
100
AcDbLine
 10
31.5249989999999976
 20
-28.6999999999999993
 30
0
 11
31.5135809999999985
 21
-28.757403
 31
0
  0
LINE
  5
96
330
1B
100
AcDbEntity
  8
F.Mask
  6
CONTINUOUS
100
AcDbLine
 10
31.5135809999999985
 20
-28.757403
 30
0
 11
31.4810649999999974
 21
-28.8060659999999977
 31
0
  0
LINE
  5
97
330
1B
100
AcDbEntity
  8
F.Mask
  6
CONTINUOUS
100
AcDbLine
 10
31.4810649999999974
 20
-28.8060659999999977
 30
0
 11
31.4324019999999997
 21
-28.8385819999999988
 31
0
  0
LINE
  5
98
330
1B
100
AcDbEntity
  8
F.Mask
  6
CONTINUOUS
100
AcDbLine
 10
31.4324019999999997
 20
-28.8385819999999988
 30
0
 11
31.374998999999999
 21
-28.8499999999999979
 31
0
  0
LINE
  5
99
330
1B
100
AcDbEntity
  8
F.Mask
  6
CONTINUOUS
100
AcDbLine
 10
31.374998999999999
 20
-28.8499999999999979
 30
0
 11
30.3499990000000004
 21
-28.8499999999999979
 31
0
  0
LINE
  5
9A
330
1B
100
AcDbEntity
  8
F.Mask
  6
CONTINUOUS
100
AcDbLine
 10
30.3499990000000004
 20
-28.8499999999999979
 30
0
 11
30.2925959999999996
 21
-28.8385819999999988
 31
0
  0
LINE
  5
9B
330
1B
100
AcDbEntity
  8
F.Mask
  6
CONTINUOUS
100
AcDbLine
 10
30.2925959999999996
 20
-28.8385819999999988
 30
0
 11
30.2439329999999984
 21
-28.8060659999999977
 31
0
  0
LINE
  5
9C
330
1B
100
AcDbEntity
  8
F.Mask
  6
CONTINUOUS
100
AcDbLine
 10
30.2439329999999984
 20
-28.8060659999999977
 30
0
 11
30.2114169999999973
 21
-28.757403
 31
0
  0
LINE
  5
9D
330
1B
100
AcDbEntity
  8
F.Mask
  6
CONTINUOUS
100
AcDbLine
 10
30.2114169999999973
 20
-28.757403
 30
0
 11
30.1999989999999983
 21
-28.6999999999999993
 31
0
  0
LINE
  5
9E
330
1B
100
AcDbEntity
  8
F.Mask
  6
CONTINUOUS
100
AcDbLine
 10
30.1999989999999983
 20
-28.6999999999999993
 30
0
 11
30.1999989999999983
 21
-28.3999999999999986
 31
0
  0
LINE
  5
9F
330
1B
100
AcDbEntity
  8
F.Mask
  6
CONTINUOUS
100
AcDbLine
 10
30.1999989999999983
 20
-28.3999999999999986
 30
0
 11
30.2114169999999973
 21
-28.3425969999999978
 31
0
  0
LINE
  5
A0
330
1B
100
AcDbEntity
  8
F.Mask
  6
CONTINUOUS
100
AcDbLine
 10
30.2114169999999973
 20
-28.3425969999999978
 30
0
 11
30.2439329999999984
 21
-28.2939340000000001
 31
0
  0
LINE
  5
A1
330
1B
100
AcDbEntity
  8
F.Mask
  6
CONTINUOUS
100
AcDbLine
 10
30.2439329999999984
 20
-28.2939340000000001
 30
0
 11
30.2925959999999996
 21
-28.261417999999999
 31
0
  0
LINE
  5
A2
330
1B
100
AcDbEntity
  8
F.Mask
  6
CONTINUOUS
100
AcDbLine
 10
30.2925959999999996
 20
-28.261417999999999
 30
0
 11
30.3499990000000004
 21
-28.25
 31
0
  0
LINE
  5
A3
330
1B
100
AcDbEntity
  8
F.Mask
  6
CONTINUOUS
100
AcDbLine
 10
30.3499990000000004
 20
-28.25
 30
0
 11
31.374998999999999
 21
-28.25
 31
0
  0
LINE
  5
A4
330
1B
100
AcDbEntity
  8
F.Mask
  6
CONTINUOUS
100
AcDbLine
 10
31.374998999999999
 20
-28.25
 30
0
 11
31.4324019999999997
 21
-28.261417999999999
 31
0
  0
LINE
  5
A5
330
1B
100
AcDbEntity
  8
F.Mask
  6
CONTINUOUS
100
AcDbLine
 10
33.7074029999999993
 20
-28.261417999999999
 30
0
 11
33.756065999999997
 21
-28.2939340000000001
 31
0
  0
LINE
  5
A6
330
1B
100
AcDbEntity
  8
F.Mask
  6
CONTINUOUS
100
AcDbLine
 10
33.756065999999997
 20
-28.2939340000000001
 30
0
 11
33.7885819999999981
 21
-28.3425969999999978
 31
0
  0
LINE
  5
A7
330
1B
100
AcDbEntity
  8
F.Mask
  6
CONTINUOUS
100
AcDbLine
 10
33.7885819999999981
 20
-28.3425969999999978
 30
0
 11
33.7999999999999972
 21
-28.3999999999999986
 31
0
  0
LINE
  5
A8
330
1B
100
AcDbEntity
  8
F.Mask
  6
CONTINUOUS
100
AcDbLine
 10
33.7999999999999972
 20
-28.3999999999999986
 30
0
 11
33.7999999999999972
 21
-28.6999999999999993
 31
0
  0
LINE
  5
A9
330
1B
100
AcDbEntity
  8
F.Mask
  6
CONTINUOUS
100
AcDbLine
 10
33.7999999999999972
 20
-28.6999999999999993
 30
0
 11
33.7885819999999981
 21
-28.757403
 31
0
  0
LINE
  5
AA
330
1B
100
AcDbEntity
  8
F.Mask
  6
CONTINUOUS
100
AcDbLine
 10
33.7885819999999981
 20
-28.757403
 30
0
 11
33.756065999999997
 21
-28.8060659999999977
 31
0
  0
LINE
  5
AB
330
1B
100
AcDbEntity
  8
F.Mask
  6
CONTINUOUS
100
AcDbLine
 10
33.756065999999997
 20
-28.8060659999999977
 30
0
 11
33.7074029999999993
 21
-28.8385819999999988
 31
0
  0
LINE
  5
AC
330
1B
100
AcDbEntity
  8
F.Mask
  6
CONTINUOUS
100
AcDbLine
 10
33.7074029999999993
 20
-28.8385819999999988
 30
0
 11
33.6499999999999986
 21
-28.8499999999999979
 31
0
  0
LINE
  5
AD
330
1B
100
AcDbEntity
  8
F.Mask
  6
CONTINUOUS
100
AcDbLine
 10
33.6499999999999986
 20
-28.8499999999999979
 30
0
 11
32.625
 21
-28.8499999999999979
 31
0
  0
LINE
  5
AE
330
1B
100
AcDbEntity
  8
F.Mask
  6
CONTINUOUS
100
AcDbLine
 10
32.625
 20
-28.8499999999999979
 30
0
 11
32.5675969999999992
 21
-28.8385819999999988
 31
0
  0
LINE
  5
AF
330
1B
100
AcDbEntity
  8
F.Mask
  6
CONTINUOUS
100
AcDbLine
 10
32.5675969999999992
 20
-28.8385819999999988
 30
0
 11
32.5189340000000016
 21
-28.8060659999999977
 31
0
  0
LINE
  5
B0
330
1B
100
AcDbEntity
  8
F.Mask
  6
CONTINUOUS
100
AcDbLine
 10
32.5189340000000016
 20
-28.8060659999999977
 30
0
 11
32.4864180000000005
 21
-28.757403
 31
0
  0
LINE
  5
B1
330
1B
100
AcDbEntity
  8
F.Mask
  6
CONTINUOUS
100
AcDbLine
 10
32.4864180000000005
 20
-28.757403
 30
0
 11
32.4750000000000014
 21
-28.6999999999999993
 31
0
  0
LINE
  5
B2
330
1B
100
AcDbEntity
  8
F.Mask
  6
CONTINUOUS
100
AcDbLine
 10
32.4750000000000014
 20
-28.6999999999999993
 30
0
 11
32.4750000000000014
 21
-28.3999999999999986
 31
0
  0
LINE
  5
B3
330
1B
100
AcDbEntity
  8
F.Mask
  6
CONTINUOUS
100
AcDbLine
 10
32.4750000000000014
 20
-28.3999999999999986
 30
0
 11
32.4864180000000005
 21
-28.3425969999999978
 31
0
  0
LINE
  5
B4
330
1B
100
AcDbEntity
  8
F.Mask
  6
CONTINUOUS
100
AcDbLine
 10
32.4864180000000005
 20
-28.3425969999999978
 30
0
 11
32.5189340000000016
 21
-28.2939340000000001
 31
0
  0
LINE
  5
B5
330
1B
100
AcDbEntity
  8
F.Mask
  6
CONTINUOUS
100
AcDbLine
 10
32.5189340000000016
 20
-28.2939340000000001
 30
0
 11
32.5675969999999992
 21
-28.261417999999999
 31
0
  0
LINE
  5
B6
330
1B
100
AcDbEntity
  8
F.Mask
  6
CONTINUOUS
100
AcDbLine
 10
32.5675969999999992
 20
-28.261417999999999
 30
0
 11
32.625
 21
-28.25
 31
0
  0
LINE
  5
B7
330
1B
100
AcDbEntity
  8
F.Mask
  6
CONTINUOUS
100
AcDbLine
 10
32.625
 20
-28.25
 30
0
 11
33.6499999999999986
 21
-28.25
 31
0
  0
LINE
  5
B8
330
1B
100
AcDbEntity
  8
F.Mask
  6
CONTINUOUS
100
AcDbLine
 10
33.6499999999999986
 20
-28.25
 30
0
 11
33.7074029999999993
 21
-28.261417999999999
 31
0
  0
LINE
  5
B9
330
1B
100
AcDbEntity
  8
F.Mask
  6
CONTINUOUS
100
AcDbLine
 10
31.0499999999999972
 20
-27.3750009999999975
 30
0
 11
27.4499999999999993
 21
-27.3750009999999975
 31
0
  0
LINE
  5
BA
330
1B
100
AcDbEntity
  8
F.Mask
  6
CONTINUOUS
100
AcDbLine
 10
27.4499999999999993
 20
-27.3750009999999975
 30
0
 11
27.4499999999999993
 21
-25.8750009999999975
 31
0
  0
LINE
  5
BB
330
1B
100
AcDbEntity
  8
F.Mask
  6
CONTINUOUS
100
AcDbLine
 10
27.4499999999999993
 20
-25.8750009999999975
 30
0
 11
31.0499999999999972
 21
-25.8750009999999975
 31
0
  0
LINE
  5
BC
330
1B
100
AcDbEntity
  8
F.Mask
  6
CONTINUOUS
100
AcDbLine
 10
31.0499999999999972
 20
-25.8750009999999975
 30
0
 11
31.0499999999999972
 21
-27.3750009999999975
 31
0
  0
LINE
  5
BD
330
1B
100
AcDbEntity
  8
F.Mask
  6
CONTINUOUS
100
AcDbLine
 10
34.0706709999999973
 20
-24.2690299999999972
 30
0
 11
34.1517769999999956
 21
-24.3232229999999987
 31
0
  0
LINE
  5
BE
330
1B
100
AcDbEntity
  8
F.Mask
  6
CONTINUOUS
100
AcDbLine
 10
34.1517769999999956
 20
-24.3232229999999987
 30
0
 11
34.2059700000000007
 21
-24.4043290000000006
 31
0
  0
LINE
  5
BF
330
1B
100
AcDbEntity
  8
F.Mask
  6
CONTINUOUS
100
AcDbLine
 10
34.2059700000000007
 20
-24.4043290000000006
 30
0
 11
34.2250000000000014
 21
-24.5
 31
0
  0
LINE
  5
C0
330
1B
100
AcDbEntity
  8
F.Mask
  6
CONTINUOUS
100
AcDbLine
 10
34.2250000000000014
 20
-24.5
 30
0
 11
34.2250000000000014
 21
-25.1749999999999972
 31
0
  0
LINE
  5
C1
330
1B
100
AcDbEntity
  8
F.Mask
  6
CONTINUOUS
100
AcDbLine
 10
34.2250000000000014
 20
-25.1749999999999972
 30
0
 11
34.2059700000000007
 21
-25.2706710000000001
 31
0
  0
LINE
  5
C2
330
1B
100
AcDbEntity
  8
F.Mask
  6
CONTINUOUS
100
AcDbLine
 10
34.2059700000000007
 20
-25.2706710000000001
 30
0
 11
34.1517769999999956
 21
-25.3517769999999985
 31
0
  0
LINE
  5
C3
330
1B
100
AcDbEntity
  8
F.Mask
  6
CONTINUOUS
100
AcDbLine
 10
34.1517769999999956
 20
-25.3517769999999985
 30
0
 11
34.0706709999999973
 21
-25.4059699999999999
 31
0
  0
LINE
  5
C4
330
1B
100
AcDbEntity
  8
F.Mask
  6
CONTINUOUS
100
AcDbLine
 10
34.0706709999999973
 20
-25.4059699999999999
 30
0
 11
33.9750000000000014
 21
-25.4249999999999972
 31
0
  0
LINE
  5
C5
330
1B
100
AcDbEntity
  8
F.Mask
  6
CONTINUOUS
100
AcDbLine
 10
33.9750000000000014
 20
-25.4249999999999972
 30
0
 11
33.0249999999999986
 21
-25.4249999999999972
 31
0
  0
LINE
  5
C6
330
1B
100
AcDbEntity
  8
F.Mask
  6
CONTINUOUS
100
AcDbLine
 10
33.0249999999999986
 20
-25.4249999999999972
 30
0
 11
32.9293289999999956
 21
-25.4059699999999999
 31
0
  0
LINE
  5
C7
330
1B
100
AcDbEntity
  8
F.Mask
  6
CONTINUOUS
100
AcDbLine
 10
32.9293289999999956
 20
-25.4059699999999999
 30
0
 11
32.8482229999999973
 21
-25.3517769999999985
 31
0
  0
LINE
  5
C8
330
1B
100
AcDbEntity
  8
F.Mask
  6
CONTINUOUS
100
AcDbLine
 10
32.8482229999999973
 20
-25.3517769999999985
 30
0
 11
32.7940299999999993
 21
-25.2706710000000001
 31
0
  0
LINE
  5
C9
330
1B
100
AcDbEntity
  8
F.Mask
  6
CONTINUOUS
100
AcDbLine
 10
32.7940299999999993
 20
-25.2706710000000001
 30
0
 11
32.7749999999999986
 21
-25.1749999999999972
 31
0
  0
LINE
  5
CA
330
1B
100
AcDbEntity
  8
F.Mask
  6
CONTINUOUS
100
AcDbLine
 10
32.7749999999999986
 20
-25.1749999999999972
 30
0
 11
32.7749999999999986
 21
-24.5
 31
0
  0
LINE
  5
CB
330
1B
100
AcDbEntity
  8
F.Mask
  6
CONTINUOUS
100
AcDbLine
 10
32.7749999999999986
 20
-24.5
 30
0
 11
32.7940299999999993
 21
-24.4043290000000006
 31
0
  0
LINE
  5
CC
330
1B
100
AcDbEntity
  8
F.Mask
  6
CONTINUOUS
100
AcDbLine
 10
32.7940299999999993
 20
-24.4043290000000006
 30
0
 11
32.8482229999999973
 21
-24.3232229999999987
 31
0
  0
LINE
  5
CD
330
1B
100
AcDbEntity
  8
F.Mask
  6
CONTINUOUS
100
AcDbLine
 10
32.8482229999999973
 20
-24.3232229999999987
 30
0
 11
32.9293289999999956
 21
-24.2690299999999972
 31
0
  0
LINE
  5
CE
330
1B
100
AcDbEntity
  8
F.Mask
  6
CONTINUOUS
100
AcDbLine
 10
32.9293289999999956
 20
-24.2690299999999972
 30
0
 11
33.0249999999999986
 21
-24.25
 31
0
  0
LINE
  5
CF
330
1B
100
AcDbEntity
  8
F.Mask
  6
CONTINUOUS
100
AcDbLine
 10
33.0249999999999986
 20
-24.25
 30
0
 11
33.9750000000000014
 21
-24.25
 31
0
  0
LINE
  5
D0
330
1B
100
AcDbEntity
  8
F.Mask
  6
CONTINUOUS
100
AcDbLine
 10
33.9750000000000014
 20
-24.25
 30
0
 11
34.0706709999999973
 21
-24.2690299999999972
 31
0
  0
LINE
  5
D1
330
1B
100
AcDbEntity
  8
F.Mask
  6
CONTINUOUS
100
AcDbLine
 10
40.5706709999999973
 20
-24.2690299999999972
 30
0
 11
40.6517769999999956
 21
-24.3232229999999987
 31
0
  0
LINE
  5
D2
330
1B
100
AcDbEntity
  8
F.Mask
  6
CONTINUOUS
100
AcDbLine
 10
40.6517769999999956
 20
-24.3232229999999987
 30
0
 11
40.7059700000000007
 21
-24.4043290000000006
 31
0
  0
LINE
  5
D3
330
1B
100
AcDbEntity
  8
F.Mask
  6
CONTINUOUS
100
AcDbLine
 10
40.7059700000000007
 20
-24.4043290000000006
 30
0
 11
40.7250000000000014
 21
-24.5
 31
0
  0
LINE
  5
D4
330
1B
100
AcDbEntity
  8
F.Mask
  6
CONTINUOUS
100
AcDbLine
 10
40.7250000000000014
 20
-24.5
 30
0
 11
40.7250000000000014
 21
-25.1749999999999972
 31
0
  0
LINE
  5
D5
330
1B
100
AcDbEntity
  8
F.Mask
  6
CONTINUOUS
100
AcDbLine
 10
40.7250000000000014
 20
-25.1749999999999972
 30
0
 11
40.7059700000000007
 21
-25.2706710000000001
 31
0
  0
LINE
  5
D6
330
1B
100
AcDbEntity
  8
F.Mask
  6
CONTINUOUS
100
AcDbLine
 10
40.7059700000000007
 20
-25.2706710000000001
 30
0
 11
40.6517769999999956
 21
-25.3517769999999985
 31
0
  0
LINE
  5
D7
330
1B
100
AcDbEntity
  8
F.Mask
  6
CONTINUOUS
100
AcDbLine
 10
40.6517769999999956
 20
-25.3517769999999985
 30
0
 11
40.5706709999999973
 21
-25.4059699999999999
 31
0
  0
LINE
  5
D8
330
1B
100
AcDbEntity
  8
F.Mask
  6
CONTINUOUS
100
AcDbLine
 10
40.5706709999999973
 20
-25.4059699999999999
 30
0
 11
40.4750000000000014
 21
-25.4249999999999972
 31
0
  0
LINE
  5
D9
330
1B
100
AcDbEntity
  8
F.Mask
  6
CONTINUOUS
100
AcDbLine
 10
40.4750000000000014
 20
-25.4249999999999972
 30
0
 11
39.5249999999999986
 21
-25.4249999999999972
 31
0
  0
LINE
  5
DA
330
1B
100
AcDbEntity
  8
F.Mask
  6
CONTINUOUS
100
AcDbLine
 10
39.5249999999999986
 20
-25.4249999999999972
 30
0
 11
39.4293289999999956
 21
-25.4059699999999999
 31
0
  0
LINE
  5
DB
330
1B
100
AcDbEntity
  8
F.Mask
  6
CONTINUOUS
100
AcDbLine
 10
39.4293289999999956
 20
-25.4059699999999999
 30
0
 11
39.3482229999999973
 21
-25.3517769999999985
 31
0
  0
LINE
  5
DC
330
1B
100
AcDbEntity
  8
F.Mask
  6
CONTINUOUS
100
AcDbLine
 10
39.3482229999999973
 20
-25.3517769999999985
 30
0
 11
39.2940299999999993
 21
-25.2706710000000001
 31
0
  0
LINE
  5
DD
330
1B
100
AcDbEntity
  8
F.Mask
  6
CONTINUOUS
100
AcDbLine
 10
39.2940299999999993
 20
-25.2706710000000001
 30
0
 11
39.2749999999999986
 21
-25.1749999999999972
 31
0
  0
LINE
  5
DE
330
1B
100
AcDbEntity
  8
F.Mask
  6
CONTINUOUS
100
AcDbLine
 10
39.2749999999999986
 20
-25.1749999999999972
 30
0
 11
39.2749999999999986
 21
-24.5
 31
0
  0
LINE
  5
DF
330
1B
100
AcDbEntity
  8
F.Mask
  6
CONTINUOUS
100
AcDbLine
 10
39.2749999999999986
 20
-24.5
 30
0
 11
39.2940299999999993
 21
-24.4043290000000006
 31
0
  0
LINE
  5
E0
330
1B
100
AcDbEntity
  8
F.Mask
  6
CONTINUOUS
100
AcDbLine
 10
39.2940299999999993
 20
-24.4043290000000006
 30
0
 11
39.3482229999999973
 21
-24.3232229999999987
 31
0
  0
LINE
  5
E1
330
1B
100
AcDbEntity
  8
F.Mask
  6
CONTINUOUS
100
AcDbLine
 10
39.3482229999999973
 20
-24.3232229999999987
 30
0
 11
39.4293289999999956
 21
-24.2690299999999972
 31
0
  0
LINE
  5
E2
330
1B
100
AcDbEntity
  8
F.Mask
  6
CONTINUOUS
100
AcDbLine
 10
39.4293289999999956
 20
-24.2690299999999972
 30
0
 11
39.5249999999999986
 21
-24.25
 31
0
  0
LINE
  5
E3
330
1B
100
AcDbEntity
  8
F.Mask
  6
CONTINUOUS
100
AcDbLine
 10
39.5249999999999986
 20
-24.25
 30
0
 11
40.4750000000000014
 21
-24.25
 31
0
  0
LINE
  5
E4
330
1B
100
AcDbEntity
  8
F.Mask
  6
CONTINUOUS
100
AcDbLine
 10
40.4750000000000014
 20
-24.25
 30
0
 11
40.5706709999999973
 21
-24.2690299999999972
 31
0
  0
LINE
  5
E5
330
1B
100
AcDbEntity
  8
F.Mask
  6
CONTINUOUS
100
AcDbLine
 10
23.0999999999999979
 20
-25.2699999999999996
 30
0
 11
20.5899999999999999
 21
-25.2699999999999996
 31
0
  0
LINE
  5
E6
330
1B
100
AcDbEntity
  8
F.Mask
  6
CONTINUOUS
100
AcDbLine
 10
20.5899999999999999
 20
-25.2699999999999996
 30
0
 11
20.5899999999999999
 21
-24.2699999999999996
 31
0
  0
LINE
  5
E7
330
1B
100
AcDbEntity
  8
F.Mask
  6
CONTINUOUS
100
AcDbLine
 10
20.5899999999999999
 20
-24.2699999999999996
 30
0
 11
23.0999999999999979
 21
-24.2699999999999996
 31
0
  0
LINE
  5
E8
330
1B
100
AcDbEntity
  8
F.Mask
  6
CONTINUOUS
100
AcDbLine
 10
23.0999999999999979
 20
-24.2699999999999996
 30
0
 11
23.0999999999999979
 21
-25.2699999999999996
 31
0
  0
LINE
  5
E9
330
1B
100
AcDbEntity
  8
F.Mask
  6
CONTINUOUS
100
AcDbLine
 10
31.0499999999999972
 20
-24.3249999999999993
 30
0
 11
27.4499999999999993
 21
-24.3249999999999993
 31
0
  0
LINE
  5
EA
330
1B
100
AcDbEntity
  8
F.Mask
  6
CONTINUOUS
100
AcDbLine
 10
27.4499999999999993
 20
-24.3249999999999993
 30
0
 11
27.4499999999999993
 21
-22.8249999999999993
 31
0
  0
LINE
  5
EB
330
1B
100
AcDbEntity
  8
F.Mask
  6
CONTINUOUS
100
AcDbLine
 10
27.4499999999999993
 20
-22.8249999999999993
 30
0
 11
31.0499999999999972
 21
-22.8249999999999993
 31
0
  0
LINE
  5
EC
330
1B
100
AcDbEntity
  8
F.Mask
  6
CONTINUOUS
100
AcDbLine
 10
31.0499999999999972
 20
-22.8249999999999993
 30
0
 11
31.0499999999999972
 21
-24.3249999999999993
 31
0
  0
LINE
  5
ED
330
1B
100
AcDbEntity
  8
F.Mask
  6
CONTINUOUS
100
AcDbLine
 10
40.5706709999999973
 20
-22.1940299999999979
 30
0
 11
40.6517769999999956
 21
-22.2482229999999994
 31
0
  0
LINE
  5
EE
330
1B
100
AcDbEntity
  8
F.Mask
  6
CONTINUOUS
100
AcDbLine
 10
40.6517769999999956
 20
-22.2482229999999994
 30
0
 11
40.7059700000000007
 21
-22.3293289999999978
 31
0
  0
LINE
  5
EF
330
1B
100
AcDbEntity
  8
F.Mask
  6
CONTINUOUS
100
AcDbLine
 10
40.7059700000000007
 20
-22.3293289999999978
 30
0
 11
40.7250000000000014
 21
-22.4250000000000007
 31
0
  0
LINE
  5
F0
330
1B
100
AcDbEntity
  8
F.Mask
  6
CONTINUOUS
100
AcDbLine
 10
40.7250000000000014
 20
-22.4250000000000007
 30
0
 11
40.7250000000000014
 21
-23.0999999999999979
 31
0
  0
LINE
  5
F1
330
1B
100
AcDbEntity
  8
F.Mask
  6
CONTINUOUS
100
AcDbLine
 10
40.7250000000000014
 20
-23.0999999999999979
 30
0
 11
40.7059700000000007
 21
-23.1956709999999973
 31
0
  0
LINE
  5
F2
330
1B
100
AcDbEntity
  8
F.Mask
  6
CONTINUOUS
100
AcDbLine
 10
40.7059700000000007
 20
-23.1956709999999973
 30
0
 11
40.6517769999999956
 21
-23.2767769999999992
 31
0
  0
LINE
  5
F3
330
1B
100
AcDbEntity
  8
F.Mask
  6
CONTINUOUS
100
AcDbLine
 10
40.6517769999999956
 20
-23.2767769999999992
 30
0
 11
40.5706709999999973
 21
-23.3309700000000007
 31
0
  0
LINE
  5
F4
330
1B
100
AcDbEntity
  8
F.Mask
  6
CONTINUOUS
100
AcDbLine
 10
40.5706709999999973
 20
-23.3309700000000007
 30
0
 11
40.4750000000000014
 21
-23.3499999999999979
 31
0
  0
LINE
  5
F5
330
1B
100
AcDbEntity
  8
F.Mask
  6
CONTINUOUS
100
AcDbLine
 10
40.4750000000000014
 20
-23.3499999999999979
 30
0
 11
39.5249999999999986
 21
-23.3499999999999979
 31
0
  0
LINE
  5
F6
330
1B
100
AcDbEntity
  8
F.Mask
  6
CONTINUOUS
100
AcDbLine
 10
39.5249999999999986
 20
-23.3499999999999979
 30
0
 11
39.4293289999999956
 21
-23.3309700000000007
 31
0
  0
LINE
  5
F7
330
1B
100
AcDbEntity
  8
F.Mask
  6
CONTINUOUS
100
AcDbLine
 10
39.4293289999999956
 20
-23.3309700000000007
 30
0
 11
39.3482229999999973
 21
-23.2767769999999992
 31
0
  0
LINE
  5
F8
330
1B
100
AcDbEntity
  8
F.Mask
  6
CONTINUOUS
100
AcDbLine
 10
39.3482229999999973
 20
-23.2767769999999992
 30
0
 11
39.2940299999999993
 21
-23.1956709999999973
 31
0
  0
LINE
  5
F9
330
1B
100
AcDbEntity
  8
F.Mask
  6
CONTINUOUS
100
AcDbLine
 10
39.2940299999999993
 20
-23.1956709999999973
 30
0
 11
39.2749999999999986
 21
-23.0999999999999979
 31
0
  0
LINE
  5
FA
330
1B
100
AcDbEntity
  8
F.Mask
  6
CONTINUOUS
100
AcDbLine
 10
39.2749999999999986
 20
-23.0999999999999979
 30
0
 11
39.2749999999999986
 21
-22.4250000000000007
 31
0
  0
LINE
  5
FB
330
1B
100
AcDbEntity
  8
F.Mask
  6
CONTINUOUS
100
AcDbLine
 10
39.2749999999999986
 20
-22.4250000000000007
 30
0
 11
39.2940299999999993
 21
-22.3293289999999978
 31
0
  0
LINE
  5
FC
330
1B
100
AcDbEntity
  8
F.Mask
  6
CONTINUOUS
100
AcDbLine
 10
39.2940299999999993
 20
-22.3293289999999978
 30
0
 11
39.3482229999999973
 21
-22.2482229999999994
 31
0
  0
LINE
  5
FD
330
1B
100
AcDbEntity
  8
F.Mask
  6
CONTINUOUS
100
AcDbLine
 10
39.3482229999999973
 20
-22.2482229999999994
 30
0
 11
39.4293289999999956
 21
-22.1940299999999979
 31
0
  0
LINE
  5
FE
330
1B
100
AcDbEntity
  8
F.Mask
  6
CONTINUOUS
100
AcDbLine
 10
39.4293289999999956
 20
-22.1940299999999979
 30
0
 11
39.5249999999999986
 21
-22.1750000000000007
 31
0
  0
LINE
  5
FF
330
1B
100
AcDbEntity
  8
F.Mask
  6
CONTINUOUS
100
AcDbLine
 10
39.5249999999999986
 20
-22.1750000000000007
 30
0
 11
40.4750000000000014
 21
-22.1750000000000007
 31
0
  0
LINE
  5
100
330
1B
100
AcDbEntity
  8
F.Mask
  6
CONTINUOUS
100
AcDbLine
 10
40.4750000000000014
 20
-22.1750000000000007
 30
0
 11
40.5706709999999973
 21
-22.1940299999999979
 31
0
  0
LINE
  5
101
330
1B
100
AcDbEntity
  8
F.Mask
  6
CONTINUOUS
100
AcDbLine
 10
34.0706709999999973
 20
-22.1940290000000005
 30
0
 11
34.1517769999999956
 21
-22.2482219999999984
 31
0
  0
LINE
  5
102
330
1B
100
AcDbEntity
  8
F.Mask
  6
CONTINUOUS
100
AcDbLine
 10
34.1517769999999956
 20
-22.2482219999999984
 30
0
 11
34.2059700000000007
 21
-22.3293280000000003
 31
0
  0
LINE
  5
103
330
1B
100
AcDbEntity
  8
F.Mask
  6
CONTINUOUS
100
AcDbLine
 10
34.2059700000000007
 20
-22.3293280000000003
 30
0
 11
34.2250000000000014
 21
-22.4249989999999997
 31
0
  0
LINE
  5
104
330
1B
100
AcDbEntity
  8
F.Mask
  6
CONTINUOUS
100
AcDbLine
 10
34.2250000000000014
 20
-22.4249989999999997
 30
0
 11
34.2250000000000014
 21
-23.0999990000000004
 31
0
  0
LINE
  5
105
330
1B
100
AcDbEntity
  8
F.Mask
  6
CONTINUOUS
100
AcDbLine
 10
34.2250000000000014
 20
-23.0999990000000004
 30
0
 11
34.2059700000000007
 21
-23.1956699999999998
 31
0
  0
LINE
  5
106
330
1B
100
AcDbEntity
  8
F.Mask
  6
CONTINUOUS
100
AcDbLine
 10
34.2059700000000007
 20
-23.1956699999999998
 30
0
 11
34.1517769999999956
 21
-23.2767759999999981
 31
0
  0
LINE
  5
107
330
1B
100
AcDbEntity
  8
F.Mask
  6
CONTINUOUS
100
AcDbLine
 10
34.1517769999999956
 20
-23.2767759999999981
 30
0
 11
34.0706709999999973
 21
-23.3309689999999996
 31
0
  0
LINE
  5
108
330
1B
100
AcDbEntity
  8
F.Mask
  6
CONTINUOUS
100
AcDbLine
 10
34.0706709999999973
 20
-23.3309689999999996
 30
0
 11
33.9750000000000014
 21
-23.3499990000000004
 31
0
  0
LINE
  5
109
330
1B
100
AcDbEntity
  8
F.Mask
  6
CONTINUOUS
100
AcDbLine
 10
33.9750000000000014
 20
-23.3499990000000004
 30
0
 11
33.0249999999999986
 21
-23.3499990000000004
 31
0
  0
LINE
  5
10A
330
1B
100
AcDbEntity
  8
F.Mask
  6
CONTINUOUS
100
AcDbLine
 10
33.0249999999999986
 20
-23.3499990000000004
 30
0
 11
32.9293289999999956
 21
-23.3309689999999996
 31
0
  0
LINE
  5
10B
330
1B
100
AcDbEntity
  8
F.Mask
  6
CONTINUOUS
100
AcDbLine
 10
32.9293289999999956
 20
-23.3309689999999996
 30
0
 11
32.8482229999999973
 21
-23.2767759999999981
 31
0
  0
LINE
  5
10C
330
1B
100
AcDbEntity
  8
F.Mask
  6
CONTINUOUS
100
AcDbLine
 10
32.8482229999999973
 20
-23.2767759999999981
 30
0
 11
32.7940299999999993
 21
-23.1956699999999998
 31
0
  0
LINE
  5
10D
330
1B
100
AcDbEntity
  8
F.Mask
  6
CONTINUOUS
100
AcDbLine
 10
32.7940299999999993
 20
-23.1956699999999998
 30
0
 11
32.7749999999999986
 21
-23.0999990000000004
 31
0
  0
LINE
  5
10E
330
1B
100
AcDbEntity
  8
F.Mask
  6
CONTINUOUS
100
AcDbLine
 10
32.7749999999999986
 20
-23.0999990000000004
 30
0
 11
32.7749999999999986
 21
-22.4249989999999997
 31
0
  0
LINE
  5
10F
330
1B
100
AcDbEntity
  8
F.Mask
  6
CONTINUOUS
100
AcDbLine
 10
32.7749999999999986
 20
-22.4249989999999997
 30
0
 11
32.7940299999999993
 21
-22.3293280000000003
 31
0
  0
LINE
  5
110
330
1B
100
AcDbEntity
  8
F.Mask
  6
CONTINUOUS
100
AcDbLine
 10
32.7940299999999993
 20
-22.3293280000000003
 30
0
 11
32.8482229999999973
 21
-22.2482219999999984
 31
0
  0
LINE
  5
111
330
1B
100
AcDbEntity
  8
F.Mask
  6
CONTINUOUS
100
AcDbLine
 10
32.8482229999999973
 20
-22.2482219999999984
 30
0
 11
32.9293289999999956
 21
-22.1940290000000005
 31
0
  0
LINE
  5
112
330
1B
100
AcDbEntity
  8
F.Mask
  6
CONTINUOUS
100
AcDbLine
 10
32.9293289999999956
 20
-22.1940290000000005
 30
0
 11
33.0249999999999986
 21
-22.1749989999999997
 31
0
  0
LINE
  5
113
330
1B
100
AcDbEntity
  8
F.Mask
  6
CONTINUOUS
100
AcDbLine
 10
33.0249999999999986
 20
-22.1749989999999997
 30
0
 11
33.9750000000000014
 21
-22.1749989999999997
 31
0
  0
LINE
  5
114
330
1B
100
AcDbEntity
  8
F.Mask
  6
CONTINUOUS
100
AcDbLine
 10
33.9750000000000014
 20
-22.1749989999999997
 30
0
 11
34.0706709999999973
 21
-22.1940290000000005
 31
0
  0
LINE
  5
115
330
1B
100
AcDbEntity
  8
F.Mask
  6
CONTINUOUS
100
AcDbLine
 10
26.4100000000000001
 20
-22.7300000000000004
 30
0
 11
23.8999999999999986
 21
-22.7300000000000004
 31
0
  0
LINE
  5
116
330
1B
100
AcDbEntity
  8
F.Mask
  6
CONTINUOUS
100
AcDbLine
 10
23.8999999999999986
 20
-22.7300000000000004
 30
0
 11
23.8999999999999986
 21
-21.7300000000000004
 31
0
  0
LINE
  5
117
330
1B
100
AcDbEntity
  8
F.Mask
  6
CONTINUOUS
100
AcDbLine
 10
23.8999999999999986
 20
-21.7300000000000004
 30
0
 11
26.4100000000000001
 21
-21.7300000000000004
 31
0
  0
LINE
  5
118
330
1B
100
AcDbEntity
  8
F.Mask
  6
CONTINUOUS
100
AcDbLine
 10
26.4100000000000001
 20
-21.7300000000000004
 30
0
 11
26.4100000000000001
 21
-22.7300000000000004
 31
0
  0
LINE
  5
119
330
1B
100
AcDbEntity
  8
Edge.Cuts
  6
CONTINUOUS
100
AcDbLine
 10
47.009566999999997
 20
-19.9769030000000001
 30
0
 11
47.0230969999999999
 21
-19.9904329999999995
 31
0
  0
LINE
  5
11A
330
1B
100
AcDbEntity
  8
Edge.Cuts
  6
CONTINUOUS
100
AcDbLine
 10
47.0230969999999999
 20
-19.9904329999999995
 30
0
 11
47.0249999999999986
 21
-20.
 31
0
  0
LINE
  5
11B
330
1B
100
AcDbEntity
  8
Edge.Cuts
  6
CONTINUOUS
100
AcDbLine
 10
47.0249999999999986
 20
-20.
 30
0
 11
47.0249999999999986
 21
-40.
 31
0
  0
LINE
  5
11C
330
1B
100
AcDbEntity
  8
Edge.Cuts
  6
CONTINUOUS
100
AcDbLine
 10
47.0249999999999986
 20
-40.
 30
0
 11
47.0230969999999999
 21
-40.009566999999997
 31
0
  0
LINE
  5
11D
330
1B
100
AcDbEntity
  8
Edge.Cuts
  6
CONTINUOUS
100
AcDbLine
 10
47.0230969999999999
 20
-40.009566999999997
 30
0
 11
47.009566999999997
 21
-40.0230969999999999
 31
0
  0
LINE
  5
11E
330
1B
100
AcDbEntity
  8
Edge.Cuts
  6
CONTINUOUS
100
AcDbLine
 10
47.009566999999997
 20
-40.0230969999999999
 30
0
 11
47.
 21
-40.0249999999999986
 31
0
  0
LINE
  5
11F
330
1B
100
AcDbEntity
  8
Edge.Cuts
  6
CONTINUOUS
100
AcDbLine
 10
47.
 20
-40.0249999999999986
 30
0
 11
20.
 21
-40.0249999999999986
 31
0
  0
LINE
  5
120
330
1B
100
AcDbEntity
  8
Edge.Cuts
  6
CONTINUOUS
100
AcDbLine
 10
20.
 20
-40.0249999999999986
 30
0
 11
19.9904329999999995
 21
-40.0230969999999999
 31
0
  0
LINE
  5
121
330
1B
100
AcDbEntity
  8
Edge.Cuts
  6
CONTINUOUS
100
AcDbLine
 10
19.9904329999999995
 20
-40.0230969999999999
 30
0
 11
19.9769030000000001
 21
-40.009566999999997
 31
0
  0
LINE
  5
122
330
1B
100
AcDbEntity
  8
Edge.Cuts
  6
CONTINUOUS
100
AcDbLine
 10
19.9769030000000001
 20
-40.009566999999997
 30
0
 11
19.9749999999999979
 21
-40.
 31
0
  0
LINE
  5
123
330
1B
100
AcDbEntity
  8
Edge.Cuts
  6
CONTINUOUS
100
AcDbLine
 10
19.9749999999999979
 20
-40.
 30
0
 11
19.9749999999999979
 21
-20.
 31
0
  0
LINE
  5
124
330
1B
100
AcDbEntity
  8
Edge.Cuts
  6
CONTINUOUS
100
AcDbLine
 10
19.9749999999999979
 20
-20.
 30
0
 11
19.9769030000000001
 21
-19.9904329999999995
 31
0
  0
LINE
  5
125
330
1B
100
AcDbEntity
  8
Edge.Cuts
  6
CONTINUOUS
100
AcDbLine
 10
19.9769030000000001
 20
-19.9904329999999995
 30
0
 11
19.9904329999999995
 21
-19.9769030000000001
 31
0
  0
LINE
  5
126
330
1B
100
AcDbEntity
  8
Edge.Cuts
  6
CONTINUOUS
100
AcDbLine
 10
19.9904329999999995
 20
-19.9769030000000001
 30
0
 11
20.
 21
-19.9749999999999979
 31
0
  0
LINE
  5
127
330
1B
100
AcDbEntity
  8
Edge.Cuts
  6
CONTINUOUS
100
AcDbLine
 10
20.
 20
-19.9749999999999979
 30
0
 11
47.
 21
-19.9749999999999979
 31
0
  0
LINE
  5
128
330
1B
100
AcDbEntity
  8
Edge.Cuts
  6
CONTINUOUS
100
AcDbLine
 10
47.
 20
-19.9749999999999979
 30
0
 11
47.009566999999997
 21
-19.9769030000000001
 31
0
  0
LINE
  5
129
330
1B
100
AcDbEntity
  8
Edge.Cuts
  6
CONTINUOUS
100
AcDbLine
 10
20.0249999999999986
 20
-20.0249999999999986
 30
0
 11
20.0249999999999986
 21
-39.9750000000000014
 31
0
  0
LINE
  5
12A
330
1B
100
AcDbEntity
  8
Edge.Cuts
  6
CONTINUOUS
100
AcDbLine
 10
20.0249999999999986
 20
-39.9750000000000014
 30
0
 11
46.9750000000000014
 21
-39.9750000000000014
 31
0
  0
LINE
  5
12B
330
1B
100
AcDbEntity
  8
Edge.Cuts
  6
CONTINUOUS
100
AcDbLine
 10
46.9750000000000014
 20
-39.9750000000000014
 30
0
 11
46.9750000000000014
 21
-20.0249999999999986
 31
0
  0
LINE
  5
12C
330
1B
100
AcDbEntity
  8
Edge.Cuts
  6
CONTINUOUS
100
AcDbLine
 10
46.9750000000000014
 20
-20.0249999999999986
 30
0
 11
20.0249999999999986
 21
-20.0249999999999986
 31
0
  0
ENDSEC
  0
SECTION
  2
OBJECTS
  0
DICTIONARY
  5
21
330
0
100
AcDbDictionary
281
1
  3
ACAD_GROUP
350
12D
  3
ACAD_LAYOUT
350
22
  3
ACAD_PLOTSTYLENAME
350
11
  0
DICTIONARY
  5
12D
330
21
100
AcDbDictionary
281
1
  0
ACDBDICTIONARYWDFLT
  5
11
330
21
100
AcDbDictionary
281
1
  3
Normal
350
10
100
AcDbDictionaryWithDefault
340
10
  0
ACDBPLACEHOLDER
  5
10
330
11
  0
DICTIONARY
  5
22
330
21
100
AcDbDictionary
281
1
  3
Model
350
1E
  3
Layout1
350
1F
  3
Layout2
350
20
  0
LAYOUT
  5
1E
330
22
100
AcDbPlotSettings
  1

  2
none_device
  4
A3
  6

 40
0.0
 41
0.0
 42
0.0
 43
0.0
 44
420.0
 45
297.0
 46
0.0
 47
0.0
 48
0.0
 49
0.0
140
0.0
141
0.0
142
1.0
143
1.0
 70
1024
 72
1
 73
0
 74
5
  7

 75
16
 76
0
 77
2
 78
300
147
1.0
148
0.0
149
0.0
100
AcDbLayout
  1
Model
 70
1
 71
0
 10
0.0
 20
0.0
 11
420.0
 21
297.0
 12
0.0
 22
0.0
 32
0.0
 14
1e+20
 24
1e+20
 34
1e+20
 15
-1e+20
 25
-1e+20
 35
-1e+20
146
0.0
 13
0.0
 23
0.0
 33
0.0
 16
1.0
 26
0.0
 36
0.0
 17
0.0
 27
1.0
 37
0.0
 76
0
330
1B
  0
LAYOUT
  5
1F
330
22
100
AcDbPlotSettings
  1

  2
none_device
  4
A3
  6

 40
0.0
 41
0.0
 42
0.0
 43
0.0
 44
420.0
 45
297.0
 46
0.0
 47
0.0
 48
0.0
 49
0.0
140
0.0
141
0.0
142
1.0
143
1.0
 70
0
 72
1
 73
0
 74
5
  7

 75
16
 76
0
 77
2
 78
300
147
1.0
148
0.0
149
0.0
100
AcDbLayout
  1
Layout1
 70
1
 71
1
 10
0.0
 20
0.0
 11
420.0
 21
297.0
 12
0.0
 22
0.0
 32
0.0
 14
1e+20
 24
1e+20
 34
1e+20
 15
-1e+20
 25
-1e+20
 35
-1e+20
146
0.0
 13
0.0
 23
0.0
 33
0.0
 16
1.0
 26
0.0
 36
0.0
 17
0.0
 27
1.0
 37
0.0
 76
0
330
1C
  0
LAYOUT
  5
20
330
22
100
AcDbPlotSettings
  1

  2
none_device
  4
A3
  6

 40
0.0
 41
0.0
 42
0.0
 43
0.0
 44
420.0
 45
297.0
 46
0.0
 47
0.0
 48
0.0
 49
0.0
140
0.0
141
0.0
142
1.0
143
1.0
 70
0
 72
1
 73
0
 74
5
  7

 75
16
 76
0
 77
2
 78
300
147
1.0
148
0.0
149
0.0
100
AcDbLayout
  1
Layout2
 70
1
 71
2
 10
0.0
 20
0.0
 11
420.0
 21
297.0
 12
0.0
 22
0.0
 32
0.0
 14
1e+20
 24
1e+20
 34
1e+20
 15
-1e+20
 25
-1e+20
 35
-1e+20
146
0.0
 13
0.0
 23
0.0
 33
0.0
 16
1.0
 26
0.0
 36
0.0
 17
0.0
 27
1.0
 37
0.0
 76
0
330
1D
  0
ENDSEC
  0
EOF
