%TF.GenerationSoftware,KiCad,Pcbnew,10.0.6*%
%TF.CreationDate,2026-09-19T11:41:47-05:00*%
%TF.ProjectId,Ionto_Current_Source_Core,496f6e74-6f5f-4437-9572-72656e745f53,rev?*%
%TF.SameCoordinates,Original*%
%TF.FileFunction,Copper,L1,Top*%
%TF.FilePolarity,Positive*%
%FSLAX46Y46*%
G04 Gerber Fmt 4.6, Leading zero omitted, Abs format (unit mm)*
G04 Created by KiCad (PCBNEW 10.0.6) date 2026-09-19 11:41:47*
%MOMM*%
%LPD*%
G01*
G04 APERTURE LIST*
G04 Aperture macros list*
%AMRoundRect*
0 Rectangle with rounded corners*
0 $1 Rounding radius*
0 $2 $3 $4 $5 $6 $7 $8 $9 X,Y pos of 4 corners*
0 Add a 4 corners polygon primitive as box body*
4,1,4,$2,$3,$4,$5,$6,$7,$8,$9,$2,$3,0*
0 Add four circle primitives for the rounded corners*
1,1,$1+$1,$2,$3*
1,1,$1+$1,$4,$5*
1,1,$1+$1,$6,$7*
1,1,$1+$1,$8,$9*
0 Add four rect primitives between the rounded corners*
20,1,$1+$1,$2,$3,$4,$5,0*
20,1,$1+$1,$4,$5,$6,$7,0*
20,1,$1+$1,$6,$7,$8,$9,0*
20,1,$1+$1,$8,$9,$2,$3,0*%
G04 Aperture macros list end*
%TA.AperFunction,SMDPad,CuDef*%
%ADD10R,1.000000X1.900000*%
%TD*%
%TA.AperFunction,SMDPad,CuDef*%
%ADD11R,2.510000X1.000000*%
%TD*%
%TA.AperFunction,SMDPad,CuDef*%
%ADD12R,3.600000X1.500000*%
%TD*%
%TA.AperFunction,SMDPad,CuDef*%
%ADD13RoundRect,0.250000X0.475000X-0.337500X0.475000X0.337500X-0.475000X0.337500X-0.475000X-0.337500X0*%
%TD*%
%TA.AperFunction,SMDPad,CuDef*%
%ADD14R,1.000000X2.510000*%
%TD*%
%TA.AperFunction,SMDPad,CuDef*%
%ADD15RoundRect,0.150000X0.512500X0.150000X-0.512500X0.150000X-0.512500X-0.150000X0.512500X-0.150000X0*%
%TD*%
%TA.AperFunction,Conductor*%
%ADD16C,0.300000*%
%TD*%
%TA.AperFunction,Conductor*%
%ADD17C,0.500000*%
%TD*%
%TA.AperFunction,Conductor*%
%ADD18C,0.250000*%
%TD*%
G04 APERTURE END LIST*
D10*
%TO.P,R1,1*%
%TO.N,Net-(J2-Pin_2)*%
X28770000Y-33850000D03*
%TO.P,R1,2*%
%TO.N,GND*%
X26230000Y-37150000D03*
%TD*%
D11*
%TO.P,J1,1*%
%TO.N,Net-(J1-BAT+)*%
X25155000Y-22230000D03*
%TO.P,J1,2*%
%TO.N,GND*%
X21845000Y-24770000D03*
%TD*%
D12*
%TO.P,L1,1*%
%TO.N,Net-(J1-BAT+)*%
X29250000Y-23575000D03*
%TO.P,L1,2*%
%TO.N,Net-(U1-LX)*%
X29250000Y-26625001D03*
%TD*%
D13*
%TO.P,C1,1*%
%TO.N,Net-(J1-BAT+)*%
X33500000Y-24837500D03*
%TO.P,C1,2*%
%TO.N,GND*%
X33500000Y-22762499D03*
%TD*%
D14*
%TO.P,J3,1*%
%TO.N,Net-(J1-BAT+)*%
X36130000Y-27865000D03*
%TO.P,J3,2*%
%TO.N,Net-(J3-CE{slash}EXT)*%
X38670000Y-31175000D03*
%TD*%
D15*
%TO.P,U1,1*%
%TO.N,Net-(J3-CE{slash}EXT)*%
X33137500Y-30450000D03*
%TO.P,U1,2*%
%TO.N,Net-(J2-Pin_1)*%
X33137500Y-29500000D03*
%TO.P,U1,3*%
%TO.N,Net-(J1-BAT+)*%
X33137500Y-28550000D03*
%TO.P,U1,4*%
%TO.N,Net-(U1-LX)*%
X30862499Y-28550000D03*
%TO.P,U1,5*%
%TO.N,GND*%
X30862499Y-29500000D03*
%TO.P,U1,6*%
%TO.N,Net-(J2-Pin_2)*%
X30862499Y-30450000D03*
%TD*%
D13*
%TO.P,C2,1*%
%TO.N,Net-(J2-Pin_1)*%
X40000000Y-24837500D03*
%TO.P,C2,2*%
%TO.N,GND*%
X40000000Y-22762500D03*
%TD*%
D14*
%TO.P,J2,1*%
%TO.N,Net-(J2-Pin_1)*%
X42230000Y-28345000D03*
%TO.P,J2,2*%
%TO.N,Net-(J2-Pin_2)*%
X44770000Y-31655000D03*
%TD*%
%TO.N,Net-(J2-Pin_2)*%
D16*
X30665500Y-32806200D02*
X30862500Y-32806200D01*
X29621700Y-33850000D02*
X30665500Y-32806200D01*
X30862500Y-32806200D02*
X30862500Y-30450000D01*
X44770000Y-31655000D02*
X43918300Y-31655000D01*
X30862500Y-32806200D02*
X42767100Y-32806200D01*
X42767100Y-32806200D02*
X43918300Y-31655000D01*
X28770000Y-33850000D02*
X29621700Y-33850000D01*
%TO.N,GND*%
D17*
X40000000Y-21500000D02*
X40000000Y-22562500D01*
D18*
X39800000Y-22762500D02*
X40000000Y-22562500D01*
X31625600Y-25491000D02*
X31625600Y-25082500D01*
X22045000Y-24770000D02*
X31375200Y-24770000D01*
X26230000Y-37150000D02*
X26230000Y-32392300D01*
X31625600Y-26212000D02*
X31879100Y-26465500D01*
X31500400Y-24770000D02*
X31565900Y-24770000D01*
D17*
X21845000Y-24570000D02*
X21845000Y-21500000D01*
D18*
X31186700Y-29175800D02*
X30862500Y-29500000D01*
X31625600Y-24789900D02*
X31605700Y-24770000D01*
X31625600Y-24789900D02*
X31625600Y-25082500D01*
X31625600Y-25491000D02*
X31625600Y-26212000D01*
X31879100Y-26465500D02*
X31879100Y-28975800D01*
X28798100Y-29824200D02*
X30538300Y-29824200D01*
D17*
X21845000Y-21500000D02*
X22345000Y-21000000D01*
D18*
X26230000Y-32392300D02*
X28798100Y-29824200D01*
X31879100Y-28975800D02*
X31679100Y-29175800D01*
X22045000Y-24770000D02*
X21845000Y-24570000D01*
X31565900Y-24770000D02*
X31605700Y-24770000D01*
X31375200Y-24770000D02*
X31500400Y-24770000D01*
D17*
X39500000Y-21000000D02*
X40000000Y-21500000D01*
D18*
X31679100Y-29175800D02*
X31186700Y-29175800D01*
D17*
X22345000Y-21000000D02*
X39500000Y-21000000D01*
D18*
X30538300Y-29824200D02*
X30862500Y-29500000D01*
X39800000Y-22762500D02*
X33500000Y-22762500D01*
%TO.N,Net-(J1-BAT+)*%
D17*
X29250000Y-23575000D02*
X25548300Y-23575000D01*
X33822500Y-25160000D02*
X33500000Y-24837500D01*
X32237500Y-23575000D02*
X29250000Y-23575000D01*
X36130000Y-27865000D02*
X33822500Y-27865000D01*
X25155000Y-22230000D02*
X25155000Y-23181700D01*
X33822500Y-27865000D02*
X33137500Y-28550000D01*
X33822500Y-27865000D02*
X33822500Y-25160000D01*
X33500000Y-24837500D02*
X32237500Y-23575000D01*
X25548300Y-23575000D02*
X25155000Y-23181700D01*
%TO.N,Net-(U1-LX)*%
X29250000Y-26625000D02*
X29250000Y-27626700D01*
X29250000Y-27626700D02*
X29450000Y-27826700D01*
X30139200Y-27826700D02*
X30862500Y-28550000D01*
X29450000Y-27826700D02*
X30139200Y-27826700D01*
%TO.N,Net-(J3-CE{slash}EXT)*%
D18*
X33862500Y-31175000D02*
X33137500Y-30450000D01*
X38670000Y-31175000D02*
X33862500Y-31175000D01*
%TO.N,Net-(J2-Pin_1)*%
D16*
X40000000Y-24837500D02*
X40000000Y-26293700D01*
X36793700Y-29500000D02*
X33137500Y-29500000D01*
X40000000Y-26293700D02*
X41785400Y-26293700D01*
X41785400Y-26293700D02*
X42230000Y-26738300D01*
X42230000Y-28345000D02*
X42230000Y-26738300D01*
X40000000Y-26293700D02*
X36793700Y-29500000D01*
%TD*%
M02*
