G04 #@! TF.GenerationSoftware,KiCad,Pcbnew,10.0.6*
G04 #@! TF.CreationDate,2026-09-18T13:09:51-05:00*
G04 #@! TF.ProjectId,Ionto_Current_Source_Core_With_Pour-export,496f6e74-6f5f-4437-9572-72656e745f53,rev?*
G04 #@! TF.SameCoordinates,Original*
G04 #@! TF.FileFunction,Copper,L1,Top*
G04 #@! TF.FilePolarity,Positive*
%FSLAX46Y46*%
G04 Gerber Fmt 4.6, Leading zero omitted, Abs format (unit mm)*
G04 Created by KiCad (PCBNEW 10.0.6) date 2026-09-18 13:09:51*
%MOMM*%
%LPD*%
G01*
G04 APERTURE LIST*
G04 Aperture macros list*
%AMRoundRect*
0 Rectangle with rounded corners*
0 $1 Rounding radius*
0 $2 $3 $4 $5 $6 $7 $8 $9 X,Y pos of 4 corners*
0 Add a 4 corners polygon primitive as box body*
4,1,4,$2,$3,$4,$5,$6,$7,$8,$9,$2,$3,0*
0 Add four circle primitives for the rounded corners*
1,1,$1+$1,$2,$3*
1,1,$1+$1,$4,$5*
1,1,$1+$1,$6,$7*
1,1,$1+$1,$8,$9*
0 Add four rect primitives between the rounded corners*
20,1,$1+$1,$2,$3,$4,$5,0*
20,1,$1+$1,$4,$5,$6,$7,0*
20,1,$1+$1,$6,$7,$8,$9,0*
20,1,$1+$1,$8,$9,$2,$3,0*%
G04 Aperture macros list end*
G04 #@! TA.AperFunction,SMDPad,CuDef*
%ADD10R,1.000000X1.900000*%
G04 #@! TD*
G04 #@! TA.AperFunction,SMDPad,CuDef*
%ADD11R,2.510000X1.000000*%
G04 #@! TD*
G04 #@! TA.AperFunction,SMDPad,CuDef*
%ADD12R,3.600000X1.500000*%
G04 #@! TD*
G04 #@! TA.AperFunction,SMDPad,CuDef*
%ADD13RoundRect,0.250000X0.475000X-0.337500X0.475000X0.337500X-0.475000X0.337500X-0.475000X-0.337500X0*%
G04 #@! TD*
G04 #@! TA.AperFunction,SMDPad,CuDef*
%ADD14R,1.000000X2.510000*%
G04 #@! TD*
G04 #@! TA.AperFunction,SMDPad,CuDef*
%ADD15RoundRect,0.150000X0.512500X0.150000X-0.512500X0.150000X-0.512500X-0.150000X0.512500X-0.150000X0*%
G04 #@! TD*
G04 #@! TA.AperFunction,Conductor*
%ADD16C,0.600000*%
G04 #@! TD*
G04 #@! TA.AperFunction,Conductor*
%ADD17C,0.350000*%
G04 #@! TD*
G04 #@! TA.AperFunction,Conductor*
%ADD18C,0.500000*%
G04 #@! TD*
G04 #@! TA.AperFunction,Conductor*
%ADD19C,0.250000*%
G04 #@! TD*
G04 #@! TA.AperFunction,Conductor*
%ADD20C,0.800000*%
G04 #@! TD*
G04 #@! TA.AperFunction,Conductor*
%ADD21C,0.400000*%
G04 #@! TD*
G04 #@! TA.AperFunction,Conductor*
%ADD22C,1.000000*%
G04 #@! TD*
G04 APERTURE END LIST*
D10*
X28770000Y-33850000D03*
X26230000Y-37150000D03*
D11*
X25155000Y-22230000D03*
X21845000Y-24770000D03*
D12*
X29250000Y-23575000D03*
X29250000Y-26625001D03*
D13*
X33500000Y-24837500D03*
X33500000Y-22762499D03*
D14*
X36130000Y-27865000D03*
X38670000Y-31175000D03*
D15*
X33137500Y-30450000D03*
X33137500Y-29500000D03*
X33137500Y-28550000D03*
X30862499Y-28550000D03*
X30862499Y-29500000D03*
X30862499Y-30450000D03*
D13*
X40000000Y-24837500D03*
X40000000Y-22762500D03*
D14*
X42230000Y-28345000D03*
X44770000Y-31655000D03*
D16*
X28770000Y-33850000D02*
X29500000Y-34800000D01*
X29500000Y-34800000D02*
X29500000Y-38600000D01*
D17*
X30862499Y-30450000D02*
X30000000Y-31200000D01*
D16*
X30000000Y-31200000D02*
X28770000Y-33850000D01*
X29500000Y-38600000D02*
X43400000Y-38600000D01*
X43400000Y-38600000D02*
X45700000Y-36300000D01*
X45700000Y-36300000D02*
X45700000Y-32799999D01*
X45700000Y-32799999D02*
X44770000Y-31655000D01*
D18*
X40000000Y-22762500D02*
X40000000Y-21000000D01*
X23500000Y-27000000D02*
X23500000Y-29500000D01*
X40000000Y-21000000D02*
X22000000Y-21000000D01*
X26230000Y-37150000D02*
X23500000Y-37150000D01*
X23500000Y-37150000D02*
X23500000Y-29500000D01*
X21845000Y-24770000D02*
X23500000Y-27000000D01*
X22000000Y-21000000D02*
X21845000Y-24770000D01*
X33500000Y-22762500D02*
X33500000Y-21000000D01*
D19*
X30862499Y-29500000D02*
X29500000Y-29500000D01*
D18*
X23500000Y-29500000D02*
X29500000Y-29500000D01*
D20*
X34000000Y-26500000D02*
X33600000Y-27800000D01*
X26200000Y-22230000D02*
X31500000Y-22230000D01*
X31500000Y-24837500D02*
X33500000Y-24837500D01*
X31500000Y-22230000D02*
X31500000Y-24837500D01*
D21*
X33137500Y-28550000D02*
X34000000Y-28550000D01*
D20*
X26200000Y-22230000D02*
X29250000Y-23575000D01*
X25155000Y-22230000D02*
X26200000Y-22230000D01*
X33500000Y-24837500D02*
X34000000Y-26500000D01*
X34000000Y-28550000D02*
X36130000Y-27865000D01*
D21*
X33600000Y-27800000D02*
X33137500Y-28550000D01*
D22*
X29250000Y-26625001D02*
X30400000Y-27600000D01*
D21*
X30400000Y-27600000D02*
X30862499Y-28550000D01*
D19*
X34000000Y-30450000D02*
X35200000Y-31500000D01*
X35200000Y-31500000D02*
X37400000Y-31720000D01*
X33137500Y-30450000D02*
X34000000Y-30450000D01*
X37400000Y-31720000D02*
X38670000Y-31175000D01*
D16*
X40000000Y-29500000D02*
X40500000Y-29500000D01*
X40500000Y-29500000D02*
X41300000Y-27200000D01*
X40500000Y-29500000D02*
X42230000Y-28345000D01*
X41300000Y-27200000D02*
X40000000Y-24837500D01*
D19*
X33137500Y-29500000D02*
X40000000Y-29500000D01*
G04 #@! TA.AperFunction,Conductor*
G36*
X23014916Y-21019685D02*
G01*
X23060671Y-21072489D01*
X23070615Y-21141647D01*
X23057787Y-21181405D01*
X22989942Y-21311289D01*
X22966089Y-21356954D01*
X22910114Y-21552583D01*
X22910113Y-21552586D01*
X22899500Y-21671966D01*
X22899500Y-22788028D01*
X22899501Y-22788034D01*
X22910113Y-22907415D01*
X22966089Y-23103045D01*
X22966090Y-23103048D01*
X22966091Y-23103049D01*
X23060302Y-23283407D01*
X23094977Y-23325933D01*
X23188890Y-23441109D01*
X23279096Y-23514661D01*
X23346593Y-23569698D01*
X23526951Y-23663909D01*
X23722582Y-23719886D01*
X23841963Y-23730500D01*
X26105546Y-23730499D01*
X26155579Y-23741041D01*
X26176610Y-23750315D01*
X26375534Y-23838037D01*
X26428930Y-23883097D01*
X26449489Y-23949873D01*
X26449500Y-23951494D01*
X26449500Y-24383028D01*
X26449501Y-24383034D01*
X26460113Y-24502415D01*
X26516089Y-24698045D01*
X26516090Y-24698048D01*
X26516091Y-24698049D01*
X26610302Y-24878407D01*
X26610304Y-24878409D01*
X26727092Y-25021639D01*
X26754201Y-25086036D01*
X26742192Y-25154865D01*
X26727092Y-25178360D01*
X26610305Y-25321588D01*
X26516089Y-25501955D01*
X26460114Y-25697584D01*
X26460113Y-25697587D01*
X26449500Y-25816967D01*
X26449500Y-27433029D01*
X26449501Y-27433035D01*
X26460113Y-27552416D01*
X26516089Y-27748046D01*
X26516090Y-27748049D01*
X26516091Y-27748050D01*
X26610302Y-27928408D01*
X26610304Y-27928410D01*
X26738890Y-28086110D01*
X26832803Y-28162685D01*
X26896593Y-28214699D01*
X27076951Y-28308910D01*
X27272582Y-28364887D01*
X27391963Y-28375501D01*
X28948907Y-28375500D01*
X29015946Y-28395185D01*
X29029097Y-28404918D01*
X29155689Y-28512247D01*
X29194093Y-28570613D01*
X29199499Y-28606827D01*
X29199499Y-28771015D01*
X29205649Y-28859624D01*
X29205651Y-28859640D01*
X29254464Y-29067176D01*
X29254466Y-29067182D01*
X29254467Y-29067185D01*
X29340590Y-29262237D01*
X29340591Y-29262238D01*
X29455457Y-29429923D01*
X29477103Y-29496355D01*
X29459398Y-29563944D01*
X29455457Y-29570077D01*
X29340591Y-29737761D01*
X29254466Y-29932817D01*
X29254464Y-29932823D01*
X29206996Y-30134643D01*
X29172486Y-30195395D01*
X29162808Y-30203829D01*
X29116974Y-30239770D01*
X28977630Y-30389730D01*
X28863465Y-30559635D01*
X28272993Y-31831790D01*
X28226914Y-31884311D01*
X28171499Y-31903098D01*
X28092584Y-31910113D01*
X27896954Y-31966089D01*
X27806772Y-32013196D01*
X27716593Y-32060302D01*
X27716591Y-32060303D01*
X27716590Y-32060304D01*
X27558890Y-32188890D01*
X27430304Y-32346590D01*
X27430302Y-32346593D01*
X27399607Y-32405355D01*
X27336089Y-32526954D01*
X27280114Y-32722583D01*
X27280113Y-32722586D01*
X27272960Y-32803045D01*
X27269822Y-32838349D01*
X27269500Y-32841966D01*
X27269500Y-34858028D01*
X27269500Y-34858033D01*
X27269501Y-34858036D01*
X27270332Y-34867380D01*
X27280113Y-34977415D01*
X27336089Y-35173045D01*
X27336090Y-35173048D01*
X27336091Y-35173049D01*
X27430302Y-35353407D01*
X27430304Y-35353409D01*
X27558890Y-35511109D01*
X27652803Y-35587684D01*
X27716593Y-35639698D01*
X27896951Y-35733909D01*
X28092582Y-35789886D01*
X28092598Y-35789887D01*
X28098151Y-35790920D01*
X28160467Y-35822520D01*
X28195806Y-35882793D01*
X28199500Y-35912834D01*
X28199500Y-38702351D01*
X28223931Y-38856602D01*
X28214976Y-38925896D01*
X28169980Y-38979347D01*
X28103229Y-38999987D01*
X28101458Y-39000000D01*
X21124000Y-39000000D01*
X21056961Y-38980315D01*
X21011206Y-38927511D01*
X21000000Y-38876000D01*
X21000000Y-38147844D01*
X25230000Y-38147844D01*
X25236401Y-38207372D01*
X25236403Y-38207379D01*
X25286645Y-38342086D01*
X25286649Y-38342093D01*
X25372809Y-38457187D01*
X25372812Y-38457190D01*
X25487906Y-38543350D01*
X25487913Y-38543354D01*
X25622620Y-38593596D01*
X25622627Y-38593598D01*
X25682155Y-38599999D01*
X25682172Y-38600000D01*
X25980000Y-38600000D01*
X26480000Y-38600000D01*
X26777828Y-38600000D01*
X26777844Y-38599999D01*
X26837372Y-38593598D01*
X26837379Y-38593596D01*
X26972086Y-38543354D01*
X26972093Y-38543350D01*
X27087187Y-38457190D01*
X27087190Y-38457187D01*
X27173350Y-38342093D01*
X27173354Y-38342086D01*
X27223596Y-38207379D01*
X27223598Y-38207372D01*
X27229999Y-38147844D01*
X27230000Y-38147827D01*
X27230000Y-37400000D01*
X26480000Y-37400000D01*
X26480000Y-38600000D01*
X25980000Y-38600000D01*
X25980000Y-37400000D01*
X25230000Y-37400000D01*
X25230000Y-38147844D01*
X21000000Y-38147844D01*
X21000000Y-36152155D01*
X25230000Y-36152155D01*
X25230000Y-36900000D01*
X25980000Y-36900000D01*
X26480000Y-36900000D01*
X27230000Y-36900000D01*
X27230000Y-36152172D01*
X27229999Y-36152155D01*
X27223598Y-36092627D01*
X27223596Y-36092620D01*
X27173354Y-35957913D01*
X27173350Y-35957906D01*
X27087190Y-35842812D01*
X27087187Y-35842809D01*
X26972093Y-35756649D01*
X26972086Y-35756645D01*
X26837379Y-35706403D01*
X26837372Y-35706401D01*
X26777844Y-35700000D01*
X26480000Y-35700000D01*
X26480000Y-36900000D01*
X25980000Y-36900000D01*
X25980000Y-35700000D01*
X25682155Y-35700000D01*
X25622627Y-35706401D01*
X25622620Y-35706403D01*
X25487913Y-35756645D01*
X25487906Y-35756649D01*
X25372812Y-35842809D01*
X25372809Y-35842812D01*
X25286649Y-35957906D01*
X25286645Y-35957913D01*
X25236403Y-36092620D01*
X25236401Y-36092627D01*
X25230000Y-36152155D01*
X21000000Y-36152155D01*
X21000000Y-25894000D01*
X21019685Y-25826961D01*
X21072489Y-25781206D01*
X21124000Y-25770000D01*
X21595000Y-25770000D01*
X22095000Y-25770000D01*
X23147828Y-25770000D01*
X23147844Y-25769999D01*
X23207372Y-25763598D01*
X23207379Y-25763596D01*
X23342086Y-25713354D01*
X23342093Y-25713350D01*
X23457187Y-25627190D01*
X23457190Y-25627187D01*
X23543350Y-25512093D01*
X23543354Y-25512086D01*
X23593596Y-25377379D01*
X23593598Y-25377372D01*
X23599999Y-25317844D01*
X23600000Y-25317827D01*
X23600000Y-25020000D01*
X22095000Y-25020000D01*
X22095000Y-25770000D01*
X21595000Y-25770000D01*
X21595000Y-24520000D01*
X22095000Y-24520000D01*
X23600000Y-24520000D01*
X23600000Y-24222172D01*
X23599999Y-24222155D01*
X23593598Y-24162627D01*
X23593596Y-24162620D01*
X23543354Y-24027913D01*
X23543350Y-24027906D01*
X23457190Y-23912812D01*
X23423329Y-23887464D01*
X23219798Y-23781034D01*
X23207380Y-23776403D01*
X23207372Y-23776401D01*
X23147844Y-23770000D01*
X22095000Y-23770000D01*
X22095000Y-24520000D01*
X21595000Y-24520000D01*
X21595000Y-23770000D01*
X21124000Y-23770000D01*
X21056961Y-23750315D01*
X21011206Y-23697511D01*
X21000000Y-23646000D01*
X21000000Y-21124000D01*
X21019685Y-21056961D01*
X21072489Y-21011206D01*
X21124000Y-21000000D01*
X22947877Y-21000000D01*
X23014916Y-21019685D01*
G37*
G04 #@! TD.AperFunction*
G04 #@! TA.AperFunction,Conductor*
G36*
X45943039Y-21019685D02*
G01*
X45988794Y-21072489D01*
X46000000Y-21124000D01*
X46000000Y-29447876D01*
X45980315Y-29514915D01*
X45927511Y-29560670D01*
X45858353Y-29570614D01*
X45818589Y-29557785D01*
X45643047Y-29466090D01*
X45559370Y-29442147D01*
X45447418Y-29410114D01*
X45447415Y-29410113D01*
X45447413Y-29410113D01*
X45381102Y-29404217D01*
X45328037Y-29399500D01*
X45328032Y-29399500D01*
X44211971Y-29399500D01*
X44211965Y-29399500D01*
X44211964Y-29399501D01*
X44200316Y-29400536D01*
X44092584Y-29410113D01*
X43890904Y-29467821D01*
X43890281Y-29465644D01*
X43830923Y-29471259D01*
X43768849Y-29439187D01*
X43733968Y-29378647D01*
X43730499Y-29349521D01*
X43730499Y-27031971D01*
X43730499Y-27031964D01*
X43719886Y-26912582D01*
X43663909Y-26716951D01*
X43569698Y-26536593D01*
X43484890Y-26432584D01*
X43441109Y-26378890D01*
X43295390Y-26260073D01*
X43283407Y-26250302D01*
X43103049Y-26156091D01*
X43103048Y-26156090D01*
X43103045Y-26156089D01*
X42985829Y-26122550D01*
X42907418Y-26100114D01*
X42907415Y-26100113D01*
X42907413Y-26100113D01*
X42834631Y-26093642D01*
X42788037Y-26089500D01*
X42788033Y-26089500D01*
X42246621Y-26089500D01*
X42179582Y-26069815D01*
X42137982Y-26025280D01*
X41740782Y-25303446D01*
X41726189Y-25241653D01*
X41725500Y-25241653D01*
X41725499Y-24435791D01*
X41725498Y-24435783D01*
X41715096Y-24303588D01*
X41694576Y-24222155D01*
X41660097Y-24085321D01*
X41660096Y-24085318D01*
X41634018Y-24027906D01*
X41567007Y-23880374D01*
X41463173Y-23730499D01*
X41438825Y-23695354D01*
X41438822Y-23695350D01*
X41438819Y-23695346D01*
X41279654Y-23536181D01*
X41279650Y-23536178D01*
X41279645Y-23536174D01*
X41094632Y-23407997D01*
X41094630Y-23407995D01*
X41094626Y-23407993D01*
X40889683Y-23314904D01*
X40889681Y-23314903D01*
X40889678Y-23314902D01*
X40671420Y-23259905D01*
X40671413Y-23259904D01*
X40627347Y-23256436D01*
X40539217Y-23249500D01*
X40539215Y-23249500D01*
X39460791Y-23249500D01*
X39460776Y-23249501D01*
X39328586Y-23259904D01*
X39328579Y-23259905D01*
X39110321Y-23314902D01*
X39110318Y-23314903D01*
X38905377Y-23407991D01*
X38905367Y-23407997D01*
X38720354Y-23536174D01*
X38720342Y-23536184D01*
X38561184Y-23695342D01*
X38561174Y-23695354D01*
X38432997Y-23880367D01*
X38432991Y-23880377D01*
X38339903Y-24085318D01*
X38339902Y-24085321D01*
X38284905Y-24303579D01*
X38284904Y-24303586D01*
X38274500Y-24435777D01*
X38274500Y-25239208D01*
X38274501Y-25239223D01*
X38284904Y-25371413D01*
X38284905Y-25371420D01*
X38339902Y-25589678D01*
X38339903Y-25589681D01*
X38432991Y-25794622D01*
X38432997Y-25794632D01*
X38561174Y-25979645D01*
X38561178Y-25979650D01*
X38561181Y-25979654D01*
X38720346Y-26138819D01*
X38720350Y-26138822D01*
X38720354Y-26138825D01*
X38859603Y-26235297D01*
X38905374Y-26267007D01*
X39110317Y-26360096D01*
X39110321Y-26360097D01*
X39328578Y-26415094D01*
X39328583Y-26415094D01*
X39328588Y-26415096D01*
X39328592Y-26415096D01*
X39329687Y-26415276D01*
X39330112Y-26415480D01*
X39333650Y-26416372D01*
X39333467Y-26417094D01*
X39392653Y-26445559D01*
X39418242Y-26477859D01*
X39854838Y-27271289D01*
X39869911Y-27339513D01*
X39863317Y-27371806D01*
X39567542Y-28222159D01*
X39526926Y-28279010D01*
X39504800Y-28291940D01*
X39505121Y-28292569D01*
X39500782Y-28294779D01*
X39500781Y-28294780D01*
X39435502Y-28328041D01*
X39370846Y-28360985D01*
X39314552Y-28374500D01*
X37754500Y-28374500D01*
X37687461Y-28354815D01*
X37641706Y-28302011D01*
X37630500Y-28250500D01*
X37630499Y-26551971D01*
X37630499Y-26551964D01*
X37619886Y-26432582D01*
X37563909Y-26236951D01*
X37469698Y-26056593D01*
X37406955Y-25979645D01*
X37341109Y-25898890D01*
X37213233Y-25794622D01*
X37183407Y-25770302D01*
X37003049Y-25676091D01*
X37003048Y-25676090D01*
X37003045Y-25676089D01*
X36885829Y-25642550D01*
X36807418Y-25620114D01*
X36807415Y-25620113D01*
X36807413Y-25620113D01*
X36741102Y-25614217D01*
X36688037Y-25609500D01*
X36688032Y-25609500D01*
X35571971Y-25609500D01*
X35571965Y-25609500D01*
X35571964Y-25609501D01*
X35560316Y-25610536D01*
X35452584Y-25620113D01*
X35336052Y-25653457D01*
X35266184Y-25652974D01*
X35207669Y-25614794D01*
X35179084Y-25551039D01*
X35181699Y-25503943D01*
X35215096Y-25371412D01*
X35225500Y-25239217D01*
X35225499Y-24435784D01*
X35215096Y-24303588D01*
X35194576Y-24222155D01*
X35160097Y-24085321D01*
X35160096Y-24085318D01*
X35134018Y-24027906D01*
X35067007Y-23880374D01*
X34963173Y-23730499D01*
X34938825Y-23695354D01*
X34938822Y-23695350D01*
X34938819Y-23695346D01*
X34779654Y-23536181D01*
X34779650Y-23536178D01*
X34779645Y-23536174D01*
X34594632Y-23407997D01*
X34594630Y-23407995D01*
X34594626Y-23407993D01*
X34389683Y-23314904D01*
X34389681Y-23314903D01*
X34389678Y-23314902D01*
X34171420Y-23259905D01*
X34171413Y-23259904D01*
X34039222Y-23249500D01*
X33024500Y-23249500D01*
X32957461Y-23229815D01*
X32911706Y-23177011D01*
X32900500Y-23125500D01*
X32900500Y-22119778D01*
X32866015Y-21902049D01*
X32797895Y-21692394D01*
X32797895Y-21692393D01*
X32763237Y-21624375D01*
X32697815Y-21495978D01*
X32596807Y-21356951D01*
X32568247Y-21317641D01*
X32568243Y-21317636D01*
X32462288Y-21211681D01*
X32428803Y-21150358D01*
X32433787Y-21080666D01*
X32475659Y-21024733D01*
X32541123Y-21000316D01*
X32549969Y-21000000D01*
X45876000Y-21000000D01*
X45943039Y-21019685D01*
G37*
G04 #@! TD.AperFunction*
M02*
