G04 #@! TF.GenerationSoftware,KiCad,Pcbnew,10.0.6*
G04 #@! TF.CreationDate,2026-09-19T11:41:53-05:00*
G04 #@! TF.ProjectId,LM555_LED_Flasher_With_Pour-export,4c4d3535-355f-44c4-9544-5f466c617368,rev?*
G04 #@! TF.SameCoordinates,Original*
G04 #@! TF.FileFunction,Copper,L1,Top*
G04 #@! TF.FilePolarity,Positive*
%FSLAX46Y46*%
G04 Gerber Fmt 4.6, Leading zero omitted, Abs format (unit mm)*
G04 Created by KiCad (PCBNEW 10.0.6) date 2026-09-19 11:41:53*
%MOMM*%
%LPD*%
G01*
G04 APERTURE LIST*
G04 Aperture macros list*
%AMRoundRect*
0 Rectangle with rounded corners*
0 $1 Rounding radius*
0 $2 $3 $4 $5 $6 $7 $8 $9 X,Y pos of 4 corners*
0 Add a 4 corners polygon primitive as box body*
4,1,4,$2,$3,$4,$5,$6,$7,$8,$9,$2,$3,0*
0 Add four circle primitives for the rounded corners*
1,1,$1+$1,$2,$3*
1,1,$1+$1,$4,$5*
1,1,$1+$1,$6,$7*
1,1,$1+$1,$8,$9*
0 Add four rect primitives between the rounded corners*
20,1,$1+$1,$2,$3,$4,$5,0*
20,1,$1+$1,$4,$5,$6,$7,0*
20,1,$1+$1,$6,$7,$8,$9,0*
20,1,$1+$1,$8,$9,$2,$3,0*%
G04 Aperture macros list end*
G04 #@! TA.AperFunction,SMDPad,CuDef*
%ADD10RoundRect,0.150000X-0.825000X-0.150000X0.825000X-0.150000X0.825000X0.150000X-0.825000X0.150000X0*%
G04 #@! TD*
G04 #@! TA.AperFunction,SMDPad,CuDef*
%ADD11RoundRect,0.200000X0.275000X-0.200000X0.275000X0.200000X-0.275000X0.200000X-0.275000X-0.200000X0*%
G04 #@! TD*
G04 #@! TA.AperFunction,SMDPad,CuDef*
%ADD12RoundRect,0.250000X-1.250000X-0.550000X1.250000X-0.550000X1.250000X0.550000X-1.250000X0.550000X0*%
G04 #@! TD*
G04 #@! TA.AperFunction,SMDPad,CuDef*
%ADD13RoundRect,0.250000X2.500000X-0.250000X2.500000X0.250000X-2.500000X0.250000X-2.500000X-0.250000X0*%
G04 #@! TD*
G04 #@! TA.AperFunction,SMDPad,CuDef*
%ADD14RoundRect,0.250000X1.250000X-0.550000X1.250000X0.550000X-1.250000X0.550000X-1.250000X-0.550000X0*%
G04 #@! TD*
G04 #@! TA.AperFunction,SMDPad,CuDef*
%ADD15RoundRect,0.225000X0.250000X-0.225000X0.250000X0.225000X-0.250000X0.225000X-0.250000X-0.225000X0*%
G04 #@! TD*
G04 #@! TA.AperFunction,SMDPad,CuDef*
%ADD16RoundRect,0.200000X0.200000X0.275000X-0.200000X0.275000X-0.200000X-0.275000X0.200000X-0.275000X0*%
G04 #@! TD*
G04 #@! TA.AperFunction,SMDPad,CuDef*
%ADD17RoundRect,0.243750X-0.243750X-0.456250X0.243750X-0.456250X0.243750X0.456250X-0.243750X0.456250X0*%
G04 #@! TD*
G04 #@! TA.AperFunction,Conductor*
%ADD18C,0.250000*%
G04 #@! TD*
G04 APERTURE END LIST*
D10*
X118525000Y-110595000D03*
X118525000Y-111865000D03*
X118525000Y-113135000D03*
X118525000Y-114405000D03*
X123475000Y-114405000D03*
X123475000Y-113135000D03*
X123475000Y-111865000D03*
X123475000Y-110595000D03*
D11*
X127000000Y-108325000D03*
X127000000Y-106675000D03*
D12*
X127800000Y-120000000D03*
X132200000Y-120000000D03*
D13*
X105500000Y-113500000D03*
X105500000Y-111500000D03*
D14*
X103250000Y-115900000D03*
X103250000Y-109100000D03*
D15*
X124500000Y-119775000D03*
X124500000Y-118225000D03*
D11*
X127000000Y-112825000D03*
X127000000Y-111175000D03*
D16*
X115825000Y-113150000D03*
X114175000Y-113150000D03*
D17*
X110062500Y-113150000D03*
X111937500Y-113150000D03*
D18*
X105166100Y-115089000D02*
X104442400Y-114365300D01*
X103863300Y-111500000D02*
X105500000Y-111500000D01*
X106673800Y-112673800D02*
X105500000Y-111500000D01*
X123691500Y-120271900D02*
X123691500Y-118225000D01*
X119860000Y-115089000D02*
X122996000Y-118225000D01*
X109747200Y-112834700D02*
X109747200Y-112727433D01*
X118144900Y-110595000D02*
X117222700Y-111517200D01*
X122996000Y-118225000D02*
X123691500Y-118225000D01*
X119860000Y-112817000D02*
X119860000Y-115089000D01*
X110062500Y-113150000D02*
X109747200Y-112834700D01*
X117502200Y-112492300D02*
X119535300Y-112492300D01*
X132200000Y-120000000D02*
X131055900Y-121144100D01*
X124563700Y-121144100D02*
X123691500Y-120271900D01*
X118525000Y-110595000D02*
X118144900Y-110595000D01*
X117222700Y-112212800D02*
X117502200Y-112492300D01*
X131055900Y-121144100D02*
X124563700Y-121144100D01*
X104442400Y-114365300D02*
X102759800Y-114365300D01*
X109693567Y-112673800D02*
X106673800Y-112673800D01*
X119860000Y-115089000D02*
X105166100Y-115089000D01*
X102407500Y-112955800D02*
X103863300Y-111500000D01*
X123691500Y-118225000D02*
X124500000Y-118225000D01*
X109747200Y-112727433D02*
X109693567Y-112673800D01*
X102407500Y-114013000D02*
X102407500Y-112955800D01*
X117222700Y-111517200D02*
X117222700Y-112212800D01*
X119535300Y-112492300D02*
X119860000Y-112817000D01*
X102759800Y-114365300D02*
X102407500Y-114013000D01*
X122364800Y-113135000D02*
X121094800Y-111865000D01*
X123475000Y-113135000D02*
X122364800Y-113135000D01*
X123718200Y-113378200D02*
X123475000Y-113135000D01*
X125945000Y-114526400D02*
X126521700Y-114526400D01*
X126521700Y-118721700D02*
X127800000Y-120000000D01*
X126521700Y-114526400D02*
X127808500Y-113239600D01*
X124796800Y-113378200D02*
X123718200Y-113378200D01*
X126521700Y-114526400D02*
X126521700Y-118721700D01*
X124796800Y-113378200D02*
X125945000Y-114526400D01*
X121094800Y-111865000D02*
X118525000Y-111865000D01*
X127808500Y-113239600D02*
X127808500Y-111983500D01*
X127808500Y-111983500D02*
X127000000Y-111175000D01*
X118510000Y-113150000D02*
X118525000Y-113135000D01*
X115825000Y-113150000D02*
X118510000Y-113150000D01*
X115076300Y-114178700D02*
X115076300Y-112313900D01*
X127000000Y-108325000D02*
X124730000Y-110595000D01*
X106178700Y-114178700D02*
X105500000Y-113500000D01*
X115076300Y-114178700D02*
X106178700Y-114178700D01*
X122829800Y-109949800D02*
X123475000Y-110595000D01*
X124730000Y-110595000D02*
X123475000Y-110595000D01*
X117440400Y-109949800D02*
X122829800Y-109949800D01*
X115076300Y-112313900D02*
X117440400Y-109949800D01*
X115302600Y-114405000D02*
X115076300Y-114178700D01*
X118525000Y-114405000D02*
X115302600Y-114405000D01*
X125307700Y-116237700D02*
X125307700Y-118967300D01*
X125307700Y-118967300D02*
X124500000Y-119775000D01*
X123475000Y-114405000D02*
X125307700Y-116237700D01*
X127801000Y-108600600D02*
X127988500Y-108413100D01*
X127988500Y-108413100D02*
X127988500Y-107663500D01*
X127000000Y-112825000D02*
X126040000Y-111865000D01*
X126040000Y-110586800D02*
X127801000Y-108825800D01*
X127801000Y-108825800D02*
X127801000Y-108600600D01*
X127988500Y-107663500D02*
X127000000Y-106675000D01*
X126040000Y-111865000D02*
X126040000Y-110586800D01*
X126040000Y-111865000D02*
X123475000Y-111865000D01*
X111937500Y-113150000D02*
X114175000Y-113150000D01*
G04 #@! TA.AperFunction,Conductor*
G36*
X138004418Y-100500816D02*
G01*
X138204561Y-100515130D01*
X138222063Y-100517647D01*
X138413797Y-100559355D01*
X138430755Y-100564334D01*
X138614601Y-100632906D01*
X138614609Y-100632909D01*
X138630701Y-100640259D01*
X138802904Y-100734288D01*
X138817784Y-100743849D01*
X138974863Y-100861438D01*
X138974867Y-100861441D01*
X138988237Y-100873027D01*
X139126972Y-101011762D01*
X139138558Y-101025132D01*
X139256144Y-101182208D01*
X139256146Y-101182210D01*
X139265711Y-101197095D01*
X139359740Y-101369298D01*
X139367090Y-101385390D01*
X139435662Y-101569236D01*
X139440646Y-101586212D01*
X139482351Y-101777931D01*
X139484869Y-101795442D01*
X139499184Y-101995580D01*
X139499500Y-102004427D01*
X139499500Y-122995572D01*
X139499184Y-123004419D01*
X139484869Y-123204556D01*
X139482351Y-123222067D01*
X139440644Y-123413789D01*
X139435660Y-123430764D01*
X139367092Y-123614604D01*
X139359742Y-123630698D01*
X139265708Y-123802907D01*
X139256143Y-123817790D01*
X139138560Y-123974863D01*
X139126974Y-123988234D01*
X138988234Y-124126974D01*
X138974863Y-124138560D01*
X138817790Y-124256143D01*
X138802907Y-124265708D01*
X138630698Y-124359742D01*
X138614604Y-124367092D01*
X138430764Y-124435660D01*
X138413789Y-124440644D01*
X138222067Y-124482351D01*
X138204556Y-124484869D01*
X138021731Y-124497945D01*
X138004417Y-124499184D01*
X137995572Y-124499500D01*
X102004428Y-124499500D01*
X101995582Y-124499184D01*
X101973622Y-124497613D01*
X101795442Y-124484869D01*
X101777931Y-124482351D01*
X101586212Y-124440646D01*
X101569236Y-124435662D01*
X101385390Y-124367090D01*
X101369298Y-124359740D01*
X101197095Y-124265711D01*
X101182210Y-124256146D01*
X101025132Y-124138558D01*
X101011762Y-124126972D01*
X100873027Y-123988237D01*
X100861441Y-123974867D01*
X100743854Y-123817790D01*
X100743849Y-123817784D01*
X100734288Y-123802904D01*
X100640259Y-123630701D01*
X100632909Y-123614609D01*
X100632907Y-123614604D01*
X100564334Y-123430755D01*
X100559354Y-123413789D01*
X100517647Y-123222063D01*
X100515130Y-123204556D01*
X100500816Y-123004418D01*
X100500500Y-122995572D01*
X100500500Y-117951677D01*
X123525000Y-117951677D01*
X123525000Y-117975000D01*
X124250000Y-117975000D01*
X124250000Y-117275000D01*
X124249999Y-117274999D01*
X124201693Y-117275000D01*
X124201675Y-117275001D01*
X124102392Y-117285144D01*
X123941518Y-117338452D01*
X123941507Y-117338457D01*
X123797271Y-117427424D01*
X123797267Y-117427427D01*
X123677427Y-117547267D01*
X123677424Y-117547271D01*
X123588457Y-117691507D01*
X123588452Y-117691518D01*
X123535144Y-117852393D01*
X123525000Y-117951677D01*
X100500500Y-117951677D01*
X100500500Y-115299983D01*
X101249500Y-115299983D01*
X101249500Y-116500001D01*
X101249501Y-116500018D01*
X101260000Y-116602796D01*
X101260001Y-116602799D01*
X101315185Y-116769331D01*
X101315186Y-116769334D01*
X101407288Y-116918656D01*
X101531344Y-117042712D01*
X101680666Y-117134814D01*
X101847203Y-117189999D01*
X101949991Y-117200500D01*
X104550008Y-117200499D01*
X104652797Y-117189999D01*
X104819334Y-117134814D01*
X104968656Y-117042712D01*
X105092712Y-116918656D01*
X105184814Y-116769334D01*
X105239999Y-116602797D01*
X105250500Y-116500009D01*
X105250499Y-115299992D01*
X105239999Y-115197203D01*
X105184814Y-115030666D01*
X105092712Y-114881344D01*
X104968656Y-114757288D01*
X104924475Y-114730037D01*
X104877752Y-114678090D01*
X104866529Y-114609127D01*
X104894373Y-114545045D01*
X104952442Y-114506189D01*
X104989571Y-114500499D01*
X105564547Y-114500499D01*
X105631586Y-114520184D01*
X105652228Y-114536818D01*
X105689716Y-114574306D01*
X105689745Y-114574337D01*
X105779963Y-114664555D01*
X105779971Y-114664561D01*
X105846255Y-114708851D01*
X105846256Y-114708851D01*
X105882415Y-114733012D01*
X105941023Y-114757288D01*
X105996248Y-114780163D01*
X106117089Y-114804199D01*
X106117093Y-114804200D01*
X106117094Y-114804200D01*
X114765847Y-114804200D01*
X114832886Y-114823885D01*
X114853529Y-114840520D01*
X114903863Y-114890855D01*
X114903867Y-114890858D01*
X115006310Y-114959309D01*
X115006311Y-114959309D01*
X115006315Y-114959312D01*
X115072996Y-114986931D01*
X115072998Y-114986933D01*
X115120143Y-115006461D01*
X115120148Y-115006463D01*
X115140197Y-115010451D01*
X115173796Y-115017134D01*
X115240992Y-115030501D01*
X115240994Y-115030501D01*
X115370321Y-115030501D01*
X115370341Y-115030500D01*
X117204191Y-115030500D01*
X117271230Y-115050185D01*
X117291872Y-115066819D01*
X117298129Y-115073076D01*
X117298133Y-115073079D01*
X117298135Y-115073081D01*
X117439602Y-115156744D01*
X117481224Y-115168836D01*
X117597426Y-115202597D01*
X117597429Y-115202597D01*
X117597431Y-115202598D01*
X117634306Y-115205500D01*
X117634314Y-115205500D01*
X119415686Y-115205500D01*
X119415694Y-115205500D01*
X119452569Y-115202598D01*
X119452571Y-115202597D01*
X119452573Y-115202597D01*
X119494191Y-115190505D01*
X119610398Y-115156744D01*
X119751865Y-115073081D01*
X119868081Y-114956865D01*
X119951744Y-114815398D01*
X119951744Y-114815396D01*
X119951746Y-114815394D01*
X119951745Y-114815393D01*
X119954998Y-114804199D01*
X119995567Y-114664561D01*
X119997597Y-114657573D01*
X119997598Y-114657567D01*
X120000499Y-114620701D01*
X120000500Y-114620694D01*
X120000500Y-114189306D01*
X119997598Y-114152431D01*
X119973456Y-114069336D01*
X119951745Y-113994606D01*
X119951744Y-113994603D01*
X119951744Y-113994602D01*
X119868081Y-113853135D01*
X119868078Y-113853132D01*
X119863298Y-113846969D01*
X119865750Y-113845066D01*
X119839155Y-113796421D01*
X119844104Y-113726726D01*
X119864940Y-113694304D01*
X119863298Y-113693031D01*
X119868075Y-113686870D01*
X119868081Y-113686865D01*
X119951744Y-113545398D01*
X119987582Y-113422043D01*
X119997597Y-113387573D01*
X119997598Y-113387567D01*
X120000499Y-113350701D01*
X120000500Y-113350694D01*
X120000500Y-112919306D01*
X119997598Y-112882431D01*
X119989255Y-112853716D01*
X119957566Y-112744640D01*
X119951744Y-112724602D01*
X119923958Y-112677619D01*
X119906778Y-112609896D01*
X119928938Y-112543634D01*
X119983404Y-112499871D01*
X120030692Y-112490500D01*
X120784348Y-112490500D01*
X120851387Y-112510185D01*
X120872029Y-112526819D01*
X121875816Y-113530606D01*
X121875845Y-113530637D01*
X121966063Y-113620855D01*
X121966067Y-113620858D01*
X122068507Y-113689307D01*
X122073884Y-113692181D01*
X122072862Y-113694092D01*
X122119654Y-113731808D01*
X122141712Y-113798105D01*
X122124524Y-113865638D01*
X122048254Y-113994605D01*
X122048254Y-113994606D01*
X122002402Y-114152426D01*
X122002401Y-114152432D01*
X121999500Y-114189298D01*
X121999500Y-114620701D01*
X122002401Y-114657567D01*
X122002402Y-114657573D01*
X122048254Y-114815393D01*
X122048254Y-114815394D01*
X122048255Y-114815396D01*
X122048256Y-114815398D01*
X122059960Y-114835188D01*
X122131917Y-114956862D01*
X122131923Y-114956870D01*
X122248129Y-115073076D01*
X122248133Y-115073079D01*
X122248135Y-115073081D01*
X122389602Y-115156744D01*
X122431224Y-115168836D01*
X122547426Y-115202597D01*
X122547429Y-115202597D01*
X122547431Y-115202598D01*
X122584306Y-115205500D01*
X123339548Y-115205500D01*
X123406587Y-115225185D01*
X123427229Y-115241819D01*
X124645881Y-116460471D01*
X124679366Y-116521794D01*
X124682200Y-116548152D01*
X124682200Y-118101000D01*
X124662515Y-118168039D01*
X124609711Y-118213794D01*
X124558200Y-118225000D01*
X124500000Y-118225000D01*
X124500000Y-118351000D01*
X124480315Y-118418039D01*
X124427511Y-118463794D01*
X124376000Y-118475000D01*
X123525001Y-118475000D01*
X123525001Y-118498322D01*
X123535144Y-118597607D01*
X123588452Y-118758481D01*
X123588457Y-118758492D01*
X123677424Y-118902728D01*
X123677427Y-118902732D01*
X123686660Y-118911965D01*
X123720145Y-118973288D01*
X123715161Y-119042980D01*
X123686663Y-119087324D01*
X123677033Y-119096953D01*
X123677029Y-119096959D01*
X123588001Y-119241294D01*
X123587996Y-119241305D01*
X123534651Y-119402290D01*
X123524500Y-119501647D01*
X123524500Y-120048337D01*
X123524501Y-120048355D01*
X123534650Y-120147707D01*
X123534651Y-120147710D01*
X123587996Y-120308694D01*
X123588001Y-120308705D01*
X123677029Y-120453040D01*
X123677032Y-120453044D01*
X123796955Y-120572967D01*
X123796959Y-120572970D01*
X123941294Y-120661998D01*
X123941297Y-120661999D01*
X123941303Y-120662003D01*
X124102292Y-120715349D01*
X124201655Y-120725500D01*
X124798344Y-120725499D01*
X124798352Y-120725498D01*
X124798355Y-120725498D01*
X124852760Y-120719940D01*
X124897708Y-120715349D01*
X125058697Y-120662003D01*
X125203044Y-120572968D01*
X125322968Y-120453044D01*
X125412003Y-120308697D01*
X125465349Y-120147708D01*
X125475500Y-120048345D01*
X125475499Y-119735450D01*
X125495183Y-119668412D01*
X125511813Y-119647775D01*
X125587821Y-119571767D01*
X125649142Y-119538284D01*
X125718834Y-119543268D01*
X125774767Y-119585140D01*
X125799184Y-119650604D01*
X125799500Y-119659450D01*
X125799500Y-120600001D01*
X125799501Y-120600018D01*
X125810000Y-120702796D01*
X125810001Y-120702799D01*
X125865115Y-120869119D01*
X125865186Y-120869334D01*
X125957288Y-121018656D01*
X126081344Y-121142712D01*
X126230666Y-121234814D01*
X126397203Y-121289999D01*
X126499991Y-121300500D01*
X129100008Y-121300499D01*
X129202797Y-121289999D01*
X129369334Y-121234814D01*
X129518656Y-121142712D01*
X129642712Y-121018656D01*
X129734814Y-120869334D01*
X129789999Y-120702797D01*
X129800500Y-120600009D01*
X129800500Y-120599986D01*
X130200001Y-120599986D01*
X130210494Y-120702697D01*
X130265641Y-120869119D01*
X130265643Y-120869124D01*
X130357684Y-121018345D01*
X130481654Y-121142315D01*
X130630875Y-121234356D01*
X130630880Y-121234358D01*
X130797302Y-121289505D01*
X130797309Y-121289506D01*
X130900019Y-121299999D01*
X131949999Y-121299999D01*
X132450000Y-121299999D01*
X133499972Y-121299999D01*
X133499986Y-121299998D01*
X133602697Y-121289505D01*
X133769119Y-121234358D01*
X133769124Y-121234356D01*
X133918345Y-121142315D01*
X134042315Y-121018345D01*
X134134356Y-120869124D01*
X134134358Y-120869119D01*
X134189505Y-120702697D01*
X134189506Y-120702690D01*
X134199999Y-120599986D01*
X134200000Y-120599973D01*
X134200000Y-120250000D01*
X132450000Y-120250000D01*
X132450000Y-121299999D01*
X131949999Y-121299999D01*
X131950000Y-121299998D01*
X131950000Y-120250000D01*
X130200001Y-120250000D01*
X130200001Y-120599986D01*
X129800500Y-120599986D01*
X129800499Y-119400013D01*
X130200000Y-119400013D01*
X130200000Y-119750000D01*
X131950000Y-119750000D01*
X132450000Y-119750000D01*
X134199999Y-119750000D01*
X134199999Y-119400028D01*
X134199998Y-119400013D01*
X134189505Y-119297302D01*
X134134358Y-119130880D01*
X134134356Y-119130875D01*
X134042315Y-118981654D01*
X133918345Y-118857684D01*
X133769124Y-118765643D01*
X133769119Y-118765641D01*
X133602697Y-118710494D01*
X133602690Y-118710493D01*
X133499986Y-118700000D01*
X132450000Y-118700000D01*
X132450000Y-119750000D01*
X131950000Y-119750000D01*
X131950000Y-118700000D01*
X130900028Y-118700000D01*
X130900012Y-118700001D01*
X130797302Y-118710494D01*
X130630880Y-118765641D01*
X130630875Y-118765643D01*
X130481654Y-118857684D01*
X130357684Y-118981654D01*
X130265643Y-119130875D01*
X130265641Y-119130880D01*
X130210494Y-119297302D01*
X130210493Y-119297309D01*
X130200000Y-119400013D01*
X129800499Y-119400013D01*
X129800499Y-119399992D01*
X129795331Y-119349405D01*
X129789999Y-119297203D01*
X129789998Y-119297200D01*
X129771476Y-119241305D01*
X129734814Y-119130666D01*
X129642712Y-118981344D01*
X129518656Y-118857288D01*
X129369334Y-118765186D01*
X129202797Y-118710001D01*
X129202795Y-118710000D01*
X129100016Y-118699500D01*
X129100009Y-118699500D01*
X127435452Y-118699500D01*
X127368413Y-118679815D01*
X127347771Y-118663181D01*
X127183519Y-118498929D01*
X127150034Y-118437606D01*
X127147200Y-118411248D01*
X127147200Y-114836851D01*
X127166885Y-114769812D01*
X127183514Y-114749174D01*
X128207229Y-113725460D01*
X128207233Y-113725458D01*
X128294358Y-113638333D01*
X128346264Y-113560651D01*
X128362812Y-113535886D01*
X128399925Y-113446286D01*
X128409963Y-113422052D01*
X128424155Y-113350701D01*
X128430940Y-113316593D01*
X128430940Y-113316588D01*
X128434000Y-113301207D01*
X128434000Y-113177993D01*
X128434000Y-112051241D01*
X128434001Y-112051220D01*
X128434001Y-111921892D01*
X128415331Y-111828039D01*
X128411780Y-111810185D01*
X128409963Y-111801048D01*
X128373259Y-111712437D01*
X128373258Y-111712436D01*
X128373258Y-111712432D01*
X128362813Y-111687216D01*
X128362810Y-111687212D01*
X128294358Y-111584767D01*
X128294355Y-111584763D01*
X128011819Y-111302227D01*
X127978334Y-111240904D01*
X127975500Y-111214546D01*
X127975500Y-110918386D01*
X127969086Y-110847807D01*
X127969086Y-110847804D01*
X127918478Y-110685394D01*
X127830472Y-110539815D01*
X127830470Y-110539813D01*
X127830469Y-110539811D01*
X127710188Y-110419530D01*
X127661336Y-110389998D01*
X127564606Y-110331522D01*
X127467104Y-110301139D01*
X127408958Y-110262403D01*
X127380984Y-110198378D01*
X127392065Y-110129393D01*
X127416313Y-110095076D01*
X128199729Y-109311660D01*
X128199733Y-109311658D01*
X128286858Y-109224533D01*
X128324313Y-109168478D01*
X128355312Y-109122086D01*
X128402463Y-109008251D01*
X128410587Y-108967411D01*
X128424202Y-108898962D01*
X128425097Y-108894457D01*
X128426041Y-108889712D01*
X128458418Y-108827800D01*
X128459875Y-108826315D01*
X128474358Y-108811833D01*
X128533225Y-108723733D01*
X128542812Y-108709386D01*
X128589963Y-108595551D01*
X128614000Y-108474707D01*
X128614000Y-108351493D01*
X128614000Y-107601894D01*
X128589963Y-107481048D01*
X128566540Y-107424500D01*
X128542812Y-107367214D01*
X128542810Y-107367211D01*
X128542809Y-107367208D01*
X128504705Y-107310184D01*
X128504704Y-107310183D01*
X128474356Y-107264764D01*
X128384137Y-107174545D01*
X128384106Y-107174516D01*
X128011819Y-106802229D01*
X127978334Y-106740906D01*
X127975500Y-106714548D01*
X127975500Y-106418386D01*
X127969086Y-106347807D01*
X127969086Y-106347804D01*
X127918478Y-106185394D01*
X127830472Y-106039815D01*
X127830470Y-106039813D01*
X127830469Y-106039811D01*
X127710188Y-105919530D01*
X127564606Y-105831522D01*
X127402196Y-105780914D01*
X127402194Y-105780913D01*
X127402192Y-105780913D01*
X127352778Y-105776423D01*
X127331616Y-105774500D01*
X126668384Y-105774500D01*
X126649145Y-105776248D01*
X126597807Y-105780913D01*
X126435393Y-105831522D01*
X126289811Y-105919530D01*
X126169530Y-106039811D01*
X126081522Y-106185393D01*
X126030913Y-106347807D01*
X126024500Y-106418386D01*
X126024500Y-106931613D01*
X126030913Y-107002192D01*
X126030913Y-107002194D01*
X126030914Y-107002196D01*
X126081522Y-107164606D01*
X126169527Y-107310184D01*
X126169530Y-107310188D01*
X126271661Y-107412319D01*
X126305146Y-107473642D01*
X126300162Y-107543334D01*
X126271661Y-107587681D01*
X126169531Y-107689810D01*
X126169530Y-107689811D01*
X126081522Y-107835393D01*
X126030913Y-107997807D01*
X126024500Y-108068386D01*
X126024500Y-108364547D01*
X126004815Y-108431586D01*
X125988181Y-108452228D01*
X124640733Y-109799675D01*
X124579410Y-109833160D01*
X124518457Y-109831070D01*
X124402573Y-109797402D01*
X124402567Y-109797401D01*
X124365701Y-109794500D01*
X124365694Y-109794500D01*
X123610452Y-109794500D01*
X123543413Y-109774815D01*
X123522771Y-109758181D01*
X123322728Y-109558138D01*
X123322725Y-109558134D01*
X123322725Y-109558135D01*
X123315659Y-109551069D01*
X123315658Y-109551067D01*
X123228533Y-109463942D01*
X123228529Y-109463939D01*
X123228528Y-109463938D01*
X123173640Y-109427263D01*
X123173638Y-109427262D01*
X123126092Y-109395492D01*
X123126085Y-109395487D01*
X123085839Y-109378817D01*
X123045592Y-109362147D01*
X123012253Y-109348337D01*
X123002227Y-109346343D01*
X122951829Y-109336318D01*
X122891410Y-109324300D01*
X122891407Y-109324300D01*
X122891406Y-109324300D01*
X117502006Y-109324300D01*
X117378793Y-109324300D01*
X117378789Y-109324300D01*
X117318371Y-109336318D01*
X117275143Y-109344916D01*
X117257946Y-109348337D01*
X117144116Y-109395487D01*
X117144107Y-109395492D01*
X117041668Y-109463940D01*
X116998105Y-109507503D01*
X116954542Y-109551067D01*
X116954539Y-109551070D01*
X114677570Y-111828039D01*
X114677567Y-111828042D01*
X114634004Y-111871604D01*
X114590442Y-111915166D01*
X114560543Y-111959914D01*
X114560542Y-111959915D01*
X114521990Y-112017609D01*
X114521990Y-112017610D01*
X114521988Y-112017612D01*
X114521988Y-112017614D01*
X114495860Y-112080694D01*
X114488711Y-112097953D01*
X114444870Y-112152356D01*
X114378575Y-112174421D01*
X114374150Y-112174500D01*
X113918384Y-112174500D01*
X113901273Y-112176055D01*
X113847807Y-112180913D01*
X113685393Y-112231522D01*
X113539811Y-112319530D01*
X113419531Y-112439810D01*
X113419528Y-112439814D01*
X113404514Y-112464651D01*
X113352986Y-112511838D01*
X113298398Y-112524500D01*
X112998755Y-112524500D01*
X112931716Y-112504815D01*
X112885961Y-112452011D01*
X112881049Y-112439504D01*
X112873547Y-112416865D01*
X112860362Y-112377075D01*
X112824866Y-112319528D01*
X112769028Y-112229000D01*
X112769025Y-112228996D01*
X112646003Y-112105974D01*
X112645999Y-112105971D01*
X112497933Y-112014642D01*
X112497927Y-112014639D01*
X112497925Y-112014638D01*
X112497922Y-112014637D01*
X112332776Y-111959913D01*
X112230855Y-111949500D01*
X112230848Y-111949500D01*
X111644152Y-111949500D01*
X111644144Y-111949500D01*
X111542223Y-111959913D01*
X111377077Y-112014637D01*
X111377066Y-112014642D01*
X111229000Y-112105971D01*
X111228996Y-112105974D01*
X111105974Y-112228996D01*
X111105967Y-112229005D01*
X111105234Y-112230194D01*
X111104519Y-112230836D01*
X111101493Y-112234664D01*
X111100838Y-112234146D01*
X111053280Y-112276911D01*
X110984316Y-112288123D01*
X110920238Y-112260271D01*
X110898238Y-112234877D01*
X110898112Y-112234977D01*
X110895885Y-112232161D01*
X110894163Y-112230173D01*
X110893630Y-112229309D01*
X110770691Y-112106370D01*
X110622714Y-112015096D01*
X110622709Y-112015094D01*
X110457673Y-111960407D01*
X110355815Y-111950000D01*
X110312500Y-111950000D01*
X110312500Y-113026000D01*
X110292815Y-113093039D01*
X110240011Y-113138794D01*
X110188500Y-113150000D01*
X110062500Y-113150000D01*
X110062500Y-113276000D01*
X110042815Y-113343039D01*
X109990011Y-113388794D01*
X109938500Y-113400000D01*
X109075000Y-113400000D01*
X109075000Y-113429200D01*
X109055315Y-113496239D01*
X109002511Y-113541994D01*
X108951000Y-113553200D01*
X108874500Y-113553200D01*
X108807461Y-113533515D01*
X108761706Y-113480711D01*
X108750500Y-113429201D01*
X108750499Y-113199999D01*
X108750498Y-113199980D01*
X108739999Y-113097203D01*
X108739998Y-113097200D01*
X108734833Y-113081613D01*
X108684814Y-112930666D01*
X108592712Y-112781344D01*
X108468656Y-112657288D01*
X108447411Y-112644184D01*
X109075000Y-112644184D01*
X109075000Y-112900000D01*
X109812500Y-112900000D01*
X109812500Y-111950000D01*
X109769184Y-111950000D01*
X109667326Y-111960407D01*
X109502290Y-112015094D01*
X109502285Y-112015096D01*
X109354308Y-112106370D01*
X109231370Y-112229308D01*
X109140096Y-112377285D01*
X109140094Y-112377290D01*
X109085407Y-112542326D01*
X109075000Y-112644184D01*
X108447411Y-112644184D01*
X108378084Y-112601423D01*
X108372375Y-112596900D01*
X108356247Y-112574077D01*
X108337556Y-112553297D01*
X108336357Y-112545932D01*
X108332052Y-112539840D01*
X108330822Y-112511920D01*
X108326333Y-112484334D01*
X108329306Y-112477491D01*
X108328978Y-112470038D01*
X108343039Y-112445883D01*
X108354177Y-112420252D01*
X108361814Y-112413634D01*
X108364131Y-112409655D01*
X108369677Y-112406820D01*
X108384281Y-112394167D01*
X108468343Y-112342317D01*
X108592315Y-112218345D01*
X108684356Y-112069124D01*
X108684358Y-112069119D01*
X108739505Y-111902697D01*
X108739506Y-111902690D01*
X108749999Y-111799986D01*
X108750000Y-111799973D01*
X108750000Y-111750000D01*
X102250001Y-111750000D01*
X102250001Y-111799986D01*
X102260494Y-111902697D01*
X102315641Y-112069119D01*
X102315643Y-112069124D01*
X102407684Y-112218345D01*
X102531654Y-112342315D01*
X102615719Y-112394167D01*
X102662443Y-112446115D01*
X102673666Y-112515078D01*
X102645822Y-112579160D01*
X102615719Y-112605244D01*
X102531347Y-112657285D01*
X102531343Y-112657288D01*
X102407289Y-112781342D01*
X102315187Y-112930663D01*
X102315186Y-112930666D01*
X102260001Y-113097203D01*
X102260001Y-113097204D01*
X102260000Y-113097204D01*
X102249500Y-113199983D01*
X102249500Y-113800001D01*
X102249501Y-113800019D01*
X102260000Y-113902796D01*
X102260001Y-113902799D01*
X102315185Y-114069331D01*
X102315186Y-114069334D01*
X102407288Y-114218656D01*
X102531344Y-114342712D01*
X102575524Y-114369962D01*
X102622248Y-114421908D01*
X102633471Y-114490870D01*
X102605628Y-114554953D01*
X102547560Y-114593809D01*
X102510427Y-114599500D01*
X101949998Y-114599500D01*
X101949981Y-114599501D01*
X101847203Y-114610000D01*
X101847200Y-114610001D01*
X101680668Y-114665185D01*
X101680663Y-114665187D01*
X101531342Y-114757289D01*
X101407289Y-114881342D01*
X101315187Y-115030663D01*
X101315185Y-115030668D01*
X101309944Y-115046484D01*
X101260001Y-115197203D01*
X101260001Y-115197204D01*
X101260000Y-115197204D01*
X101249500Y-115299983D01*
X100500500Y-115299983D01*
X100500500Y-108499983D01*
X101249500Y-108499983D01*
X101249500Y-109700001D01*
X101249501Y-109700018D01*
X101260000Y-109802796D01*
X101260001Y-109802799D01*
X101277934Y-109856915D01*
X101315186Y-109969334D01*
X101407288Y-110118656D01*
X101531344Y-110242712D01*
X101680666Y-110334814D01*
X101847203Y-110389999D01*
X101949991Y-110400500D01*
X102511380Y-110400499D01*
X102578417Y-110420183D01*
X102624172Y-110472987D01*
X102634116Y-110542146D01*
X102605091Y-110605702D01*
X102576476Y-110630037D01*
X102531656Y-110657682D01*
X102407684Y-110781654D01*
X102315643Y-110930875D01*
X102315641Y-110930880D01*
X102260494Y-111097302D01*
X102260493Y-111097309D01*
X102250000Y-111200013D01*
X102250000Y-111250000D01*
X105250000Y-111250000D01*
X105750000Y-111250000D01*
X108749999Y-111250000D01*
X108749999Y-111200028D01*
X108749998Y-111200013D01*
X108739505Y-111097302D01*
X108684358Y-110930880D01*
X108684356Y-110930875D01*
X108592315Y-110781654D01*
X108468345Y-110657684D01*
X108319124Y-110565643D01*
X108319119Y-110565641D01*
X108152697Y-110510494D01*
X108152690Y-110510493D01*
X108049986Y-110500000D01*
X105750000Y-110500000D01*
X105750000Y-111250000D01*
X105250000Y-111250000D01*
X105250000Y-110500000D01*
X104988763Y-110500000D01*
X104921724Y-110480315D01*
X104875969Y-110427511D01*
X104866025Y-110358353D01*
X104895050Y-110294797D01*
X104923667Y-110270461D01*
X104968656Y-110242712D01*
X105092712Y-110118656D01*
X105184814Y-109969334D01*
X105239999Y-109802797D01*
X105250500Y-109700009D01*
X105250499Y-108499992D01*
X105239999Y-108397203D01*
X105184814Y-108230666D01*
X105092712Y-108081344D01*
X104968656Y-107957288D01*
X104819334Y-107865186D01*
X104652797Y-107810001D01*
X104652795Y-107810000D01*
X104550010Y-107799500D01*
X101949998Y-107799500D01*
X101949981Y-107799501D01*
X101847203Y-107810000D01*
X101847200Y-107810001D01*
X101680668Y-107865185D01*
X101680663Y-107865187D01*
X101531342Y-107957289D01*
X101407289Y-108081342D01*
X101315187Y-108230663D01*
X101315186Y-108230666D01*
X101260001Y-108397203D01*
X101260001Y-108397204D01*
X101260000Y-108397204D01*
X101249500Y-108499983D01*
X100500500Y-108499983D01*
X100500500Y-102004427D01*
X100500816Y-101995581D01*
X100515130Y-101795443D01*
X100515131Y-101795442D01*
X100515130Y-101795436D01*
X100517646Y-101777938D01*
X100559356Y-101586200D01*
X100564335Y-101569242D01*
X100632911Y-101385382D01*
X100640251Y-101369310D01*
X100734294Y-101197083D01*
X100743854Y-101182210D01*
X100861443Y-101025128D01*
X100873017Y-101011771D01*
X101011771Y-100873017D01*
X101025132Y-100861441D01*
X101182214Y-100743850D01*
X101197083Y-100734294D01*
X101369310Y-100640251D01*
X101385382Y-100632911D01*
X101569242Y-100564335D01*
X101586200Y-100559356D01*
X101777938Y-100517646D01*
X101795436Y-100515130D01*
X101995582Y-100500816D01*
X102004428Y-100500500D01*
X102065892Y-100500500D01*
X137934108Y-100500500D01*
X137995572Y-100500500D01*
X138004418Y-100500816D01*
G37*
G04 #@! TD.AperFunction*
M02*
